<svg xmlns="http://www.w3.org/2000/svg" viewBox="0 0 260.74 261.24"><defs><style>.cls-1{fill:#fff;}</style></defs><g id="레이어_2" data-name="레이어 2"><g id="레이어_1-2" data-name="레이어 1"><path class="cls-1" d="M11.33,105.2a10,10,0,1,1-2.56,19.85,10,10,0,1,1,2.56-19.85Zm-.43,3.27c-5.15-.66-9.59,1.39-10.11,5.46s3.24,7.19,8.4,7.85,9.59-1.36,10.11-5.46S16.06,109.14,10.9,108.47Z"/><path class="cls-1" d="M12.29,95.33a3.5,3.5,0,0,0,1.35,3.31l9.1,2.52-.84,3.06-12-3.32.84-3.05,1.68.46a3.88,3.88,0,0,1-1-3.72A2.82,2.82,0,0,1,12.52,93l1.33.37.13.39A2,2,0,0,0,12.29,95.33Z"/><path class="cls-1" d="M18.72,86.55,18,86.29c-1.39-.53-2.84-.3-3.27.84a4.18,4.18,0,0,0,.6,4.27l-.17.43L14,91.27a7.6,7.6,0,0,1,.17-4.75c1.11-2.91,3-4,5.36-3l6.81,2.6c.39.14.62.12.68,0a7.31,7.31,0,0,0,.07-1.2l.78.3a4.89,4.89,0,0,1-.19,2.46A2.05,2.05,0,0,1,25.86,89,4.26,4.26,0,0,1,26,92.63c-.89,2.35-2.81,3.52-4.66,2.81s-2.63-2.5-2.38-5.44c0-.38.13-.92.34-2.49A.75.75,0,0,0,18.72,86.55Zm1.16,3.59a3.36,3.36,0,0,0,2.2,2.2c1.79.68,3,.51,3.43-.75a2.75,2.75,0,0,0-1.62-3.07L20,87.05A15.54,15.54,0,0,0,19.88,90.14Z"/><path class="cls-1" d="M28.94,83.8,18,78l1.49-2.81,1.33.71a4.68,4.68,0,0,1,.15-4.07c1.4-2.64,3.69-3.4,6.68-1.82l6.75,3.58-1.47,2.78-7.33-3.89c-2.16-1.14-3.5-1.11-4.06-.06a4.42,4.42,0,0,0,.38,4.06L30.42,81Z"/><path class="cls-1" d="M28.28,59.91l.12-.17,3.46-4.94.72.51-2.11,2.55a4,4,0,0,1,4.43-.07c2.17,1.53,1.87,4.68.27,7a8,8,0,0,1-.74.91,1.37,1.37,0,0,0,.3,1.38c.56.39,1,0,1.49-.54s1-1.34,1.56-2c1.56-2,4.19-3.12,6.13-1.76,2.15,1.51,2.37,4.58-.11,8.12-2.3,3.27-4.67,3.93-6.11,2.92s-1.5-3-.8-4.57l.52-.11a3.38,3.38,0,0,0,1.62,2,2.9,2.9,0,0,0,4.3-.89c1.29-1.83,1-3.71-.64-4.83-1.38-1-2.92-.46-4.19,1.35a14.75,14.75,0,0,1-2,2.39c-1,.92-2.14,1.19-2.91.66s-.78-1.88-.24-3.19a4.13,4.13,0,0,1-4.79.26C26.37,65.34,26.68,62.18,28.28,59.91Zm6.29,4.42c.79-1.13.33-2.63-1.5-3.92s-3.41-1.21-4.2-.08-.3,2.64,1.51,3.91S33.78,65.46,34.57,64.33Z"/><path class="cls-1" d="M47.87,54.87a4.62,4.62,0,0,0,1-4.14l.42,0,.57.73A6.44,6.44,0,0,1,48,56.06c-3,3.31-6.48,3.27-9.45.59a6.16,6.16,0,0,1-.51-9c2.65-2.94,6.23-2.44,9,.05l-6,6.7C43.29,56.49,45.73,57.25,47.87,54.87ZM40.44,54l3.9-4.33c-2.17-1.87-4.62-2.8-5.77-1.52S37.77,51.48,40.44,54Z"/><path class="cls-1" d="M51.35,48.33a3.57,3.57,0,0,0,4.14-.8,1.92,1.92,0,0,0,0-2.76,2.2,2.2,0,0,0-2.23-.86L50,44.66c-1.62.37-2.87.22-3.77-.79-1.4-1.57-.55-4,1.49-5.79a6.49,6.49,0,0,1,3.4-1.57l.46,1.26-.25.22a2.68,2.68,0,0,0-3.19.69,1.89,1.89,0,0,0,0,2.61A2,2,0,0,0,50,42.1c1.4-.31,2.68-.75,4-.93a3.9,3.9,0,0,1,3.33,1c1.38,1.55.68,4.13-1.51,6.09a6.48,6.48,0,0,1-4.12,1.59l-.61-1.27Z"/><path class="cls-1" d="M59.48,22.21,62.68,27l2.67-1.86.46.7-2.76,1.73,4.78,7.22c1.08,1.63,1.79,1.9,2.44,1.47a3.78,3.78,0,0,0,1.33-2.09l.46.69a4.45,4.45,0,0,1-2,2.42A3.38,3.38,0,0,1,65,36.26l-4.55-6.88-1.47,1-.46-.69L60,28.79,57.85,25.5,59,22.26Z"/><path class="cls-1" d="M73.45,34.73l-9-17.3L67.22,16l3.85,7.37a3.82,3.82,0,0,1,2-2.71c2.62-1.37,5.31-.9,6.87,2.1l3.54,6.78L80.68,31,77,23.83c-1.33-2.56-2.51-3.06-3.73-2.42a3.76,3.76,0,0,0-1.5,3.19l4.53,8.66Z"/><path class="cls-1" d="M89.24,18.15,89,17.47c-.52-1.38-1.65-2.32-2.79-1.89a4.17,4.17,0,0,0-2.8,3.27L83,19l-.36-1.26a7.7,7.7,0,0,1,3.67-3c2.93-1.09,4.93-.4,5.84,2l2.56,6.81c.15.39.32.55.49.48a6.63,6.63,0,0,0,.94-.74l.3.78a5,5,0,0,1-2,1.49,2.07,2.07,0,0,1-2.26-.46,4.27,4.27,0,0,1-2.67,2.51c-2.36.88-4.5.22-5.2-1.63s.14-3.64,2.51-5.39c.3-.22.78-.51,2.09-1.39A.76.76,0,0,0,89.24,18.15ZM87.32,21.4a3.38,3.38,0,0,0-.19,3.1c.67,1.81,1.57,2.55,2.83,2.08a2.75,2.75,0,0,0,1.23-3.24l-1.46-3.87A16.52,16.52,0,0,0,87.32,21.4Z"/><path class="cls-1" d="M97.25,5.54l1.51,5.6,3.12-.92.21.8-3.16.77,2.24,8.36c.51,1.89,1.1,2.38,1.85,2.18a3.81,3.81,0,0,0,1.92-1.57l.22.8a4.43,4.43,0,0,1-2.62,1.67A3.37,3.37,0,0,1,98,20.6l-2.14-8-1.72.51-.21-.8L95.69,12l-1-3.82,2.13-2.7Z"/><path class="cls-1" d="M115.52,1.88c-.75.1-1.15.81-.9,1.8A21.06,21.06,0,0,1,115,5.86L115.25,8l3.06-.47.11.83-3.08.31,1.47,11.58-3.15.4L112.19,9.12l-1.77.28-.11-.83,1.79-.14-.22-1.81c-.36-2.84,1-4.64,3-5.33A6.29,6.29,0,0,1,116.32,1a4.4,4.4,0,0,1,1.55,0L118,2.12l-.26.29A2.72,2.72,0,0,0,115.52,1.88Z"/><path class="cls-1" d="M125.28,11.14l0-.72c-.08-1.48-.87-2.72-2.09-2.66A4.18,4.18,0,0,0,119.5,10l-.47,0,0-1.3A7.61,7.61,0,0,1,123.48,7c3.11-.16,4.82,1.11,5,3.68l.37,7.27c0,.41.14.61.32.6a6.69,6.69,0,0,0,1.13-.42l0,.83a5,5,0,0,1-2.33.83,2.08,2.08,0,0,1-2-1.12,4.26,4.26,0,0,1-3.3,1.57c-2.52.13-4.35-1.15-4.46-3.13s1.23-3.42,4-4.37c.36-.12.9-.25,2.41-.69A.75.75,0,0,0,125.28,11.14Zm-2.81,2.52a3.33,3.33,0,0,0-1.13,2.89c.1,1.92.72,2.91,2.07,2.83a2.73,2.73,0,0,0,2.15-2.71l-.21-4.13A15.37,15.37,0,0,0,122.47,13.66Z"/><path class="cls-1" d="M132.11,19.52,132.76,0l3.17.11-.65,19.52Z"/><path class="cls-1" d="M138.23,19.8,140,.36l3.16.28-1.72,19.44Z"/><path class="cls-1" d="M159.73,10.44c4.11,1,6,4.26,5.08,8s-4.09,5.69-8.2,4.67-6-4.27-5.08-7.95S155.61,9.42,159.73,10.44Zm-2.95,11.91c2.1.52,4-1.41,4.85-4.75s0-5.94-2.08-6.46-4,1.45-4.84,4.75S154.69,21.84,156.78,22.35Z"/><path class="cls-1" d="M165.33,25.11l4.56-11.57,3,1.17-.55,1.4a4.67,4.67,0,0,1,4.06-.3c2.78,1.1,3.79,3.29,2.55,6.43l-2.8,7.11-2.93-1.15,3-7.72c.9-2.27.72-3.6-.39-4a4.43,4.43,0,0,0-4,.83l-3.55,9Z"/><path class="cls-1" d="M196.9,20l-3,5,2.83,1.59-.43.72-2.75-1.73L189.16,33c-1,1.68-.94,2.44-.27,2.84a3.81,3.81,0,0,0,2.46.29l-.43.71a4.42,4.42,0,0,1-3-.71,3.38,3.38,0,0,1-1.27-5.09L190.85,24l-1.57-.87.43-.72,1.5,1,2-3.39,3.42-.36Z"/><path class="cls-1" d="M191.7,38l11.67-15.65,2.54,1.9-5,6.67a3.83,3.83,0,0,1,3.31.61c2.37,1.77,3.11,4.4,1.09,7.11l-4.57,6.12-2.52-1.88,4.8-6.44c1.72-2.31,1.67-3.58.56-4.41a3.77,3.77,0,0,0-3.52,0l-5.84,7.84Z"/><path class="cls-1" d="M208.32,51.06a4.59,4.59,0,0,0,4.11,1.1l0,.42-.74.55a6.47,6.47,0,0,1-4.58-2c-3.21-3.08-3.06-6.58-.29-9.47a6.16,6.16,0,0,1,9-.22c2.85,2.74,2.25,6.3-.33,9L209,44.15C206.85,46.44,206,48.85,208.32,51.06Zm1.12-7.39,4.2,4c1.94-2.1,2.94-4.53,1.7-5.72S212,41.07,209.44,43.67Z"/><path class="cls-1" d="M230.06,57.74l.13.17,3.54,4.88-.72.52-1.73-2.83a4,4,0,0,1-1.37,4.22c-2.15,1.55-5,.24-6.66-2a9.22,9.22,0,0,1-.63-1,1.39,1.39,0,0,0-1.41-.17c-.54.4-.35.93,0,1.59s.93,1.41,1.38,2.11c1.34,2.12,1.59,5-.32,6.38-2.13,1.54-5.11.75-7.65-2.74-2.35-3.24-2.2-5.7-.77-6.74s3.34-.43,4.57.73l-.06.53a3.38,3.38,0,0,0-2.41.88,2.9,2.9,0,0,0-.56,4.36c1.31,1.81,3.2,2.11,4.78,1,1.36-1,1.38-2.61.08-4.4a15.29,15.29,0,0,1-1.6-2.69c-.54-1.28-.44-2.42.32-3s2-.12,3.09.81a4.13,4.13,0,0,1,1.31-4.62C225.55,54.18,228.43,55.49,230.06,57.74Zm-6.22,4.52c.81,1.12,2.38,1.16,4.19-.15s2.25-2.83,1.44-3.94-2.4-1.15-4.19.15S223,61.15,223.84,62.26Z"/><path class="cls-1" d="M237.65,71.6a3.48,3.48,0,0,0-3.3-1.36L226.17,75l-1.59-2.75L235.35,66l1.59,2.75-1.51.87a3.86,3.86,0,0,1,3.38,1.86,2.77,2.77,0,0,1,.37,1.94l-1.19.69-.37-.17A2,2,0,0,0,237.65,71.6Z"/><path class="cls-1" d="M243.15,80.37c1.72,3.87.3,7.34-3.17,8.88s-7,.26-8.71-3.61-.3-7.35,3.16-8.88S241.43,76.49,243.15,80.37Zm-11.21,5c.87,2,3.58,2.3,6.71.91s4.71-3.63,3.83-5.6-3.6-2.29-6.72-.91S231.06,83.37,231.94,85.35Z"/><path class="cls-1" d="M250.19,101.47,238.27,105l-.89-3,1.44-.43A5.11,5.11,0,0,1,236,98.24c-.84-2.87.14-4.7,3.38-5.65l7.58-2.22.89,3-8,2.33c-2.27.66-3.42,1.38-3,2.75a4.69,4.69,0,0,0,3,2.73l9.48-2.77Z"/><path class="cls-1" d="M238.84,107.54l12.28-1.94.5,3.14-1.5.23a4.69,4.69,0,0,1,2.32,3.35c.47,3-.91,4.93-4.25,5.46L240.64,119l-.49-3.11,8.2-1.29c2.41-.38,3.47-1.2,3.28-2.39a4.41,4.41,0,0,0-2.74-3l-9.55,1.5Z"/><path class="cls-1" d="M253.72,126.33a4.16,4.16,0,0,1-1.64,3.79l8.58-.23.08,3.17-19.52.52-.08-3.17,1.06,0a4.29,4.29,0,0,1-1.46-3.24c-.1-3.64,2.59-6.05,6.15-6.15S253.62,122.69,253.72,126.33Zm-6.57,4c3.66-.1,5.88-1.69,5.84-3.23-.05-1.87-2.78-2.91-6-2.83-3.59.1-5.58,1.27-5.53,3.14C241.49,129,243.48,130.43,247.15,130.33Z"/><path class="cls-1" d="M240,153.22a6.46,6.46,0,0,1-.67-4.28c.65-4.32,3.8-6.34,7.45-5.79s6.06,3.42,5.41,7.74a7.38,7.38,0,0,1-1.74,4l-1.3-.62,0-.33a3.56,3.56,0,0,0,2.27-3.16c.3-2-1.81-3.88-5.18-4.39s-5.93.63-6.24,2.66a4.31,4.31,0,0,0,1.38,4.26l-.23.33Z"/><path class="cls-1" d="M245,163.42l.71.18c1.43.39,2.85,0,3.16-1.16a4.19,4.19,0,0,0-1-4.18l.12-.46,1.23.44a7.65,7.65,0,0,1,.31,4.75c-.81,3-2.55,4.24-5,3.57l-7-1.9c-.4-.1-.63-.06-.68.12a6.93,6.93,0,0,0,.06,1.2l-.81-.22a5,5,0,0,1-.06-2.47,2.06,2.06,0,0,1,1.69-1.56,4.27,4.27,0,0,1-.48-3.63c.66-2.44,2.45-3.78,4.36-3.27s2.87,2.23,2.91,5.18c0,.37,0,.93-.08,2.5A.74.74,0,0,0,245,163.42ZM243.5,160a3.32,3.32,0,0,0-2.4-2c-1.86-.51-3-.22-3.34,1.09a2.72,2.72,0,0,0,1.91,2.88l4,1.08A15.93,15.93,0,0,0,243.5,160Z"/><path class="cls-1" d="M235.13,167.19l11.51,4.68-1.19,2.94-1.4-.57a4.65,4.65,0,0,1,.26,4.06c-1.12,2.77-3.32,3.76-6.45,2.49l-7.09-2.88L232,175l7.68,3.12c2.27.92,3.6.76,4.05-.35a4.44,4.44,0,0,0-.79-4l-9-3.64Z"/><path class="cls-1" d="M229.61,180.33l10.81,6.12-1.56,2.76-1.31-.74a4.67,4.67,0,0,1-.27,4.06c-1.47,2.6-3.78,3.3-6.72,1.63l-6.65-3.76,1.55-2.74,7.22,4.09c2.12,1.2,3.46,1.21,4,.17a4.4,4.4,0,0,0-.27-4.07l-8.41-4.76Z"/><path class="cls-1" d="M228.76,205.37c-2.56,3.38-6.29,3.82-9.31,1.52s-3.61-6-1.06-9.37,6.29-3.82,9.32-1.53S231.32,202,228.76,205.37ZM219,198c-1.31,1.72-.29,4.25,2.45,6.33s5.44,2.36,6.75.64.26-4.27-2.45-6.33S220.28,196.24,219,198Z"/><path class="cls-1" d="M223.45,220l-4.22-4-2.17,2.42-.61-.57,2.29-2.31-6.3-5.94c-1.42-1.34-2.18-1.44-2.72-.88a3.82,3.82,0,0,0-.81,2.35l-.6-.57a4.39,4.39,0,0,1,1.35-2.8,3.37,3.37,0,0,1,5.23-.14l6,5.65,1.2-1.34.6.57-1.29,1.25,2.88,2.71-.39,3.41Z"/><path class="cls-1" d="M197,219a4.89,4.89,0,0,1,4.26-1.1l.19-1.93.85-.65,11.89,15.49-2.52,1.93-5.22-6.8a4.7,4.7,0,0,1-1.91,3.66c-2.89,2.21-6.37.76-8.44-1.95S194.1,221.19,197,219Zm1.72,6.64c2,2.56,4.21,3.91,5.9,2.62,1.42-1.1,1-3.59-1.12-6.29s-4.33-3.85-5.75-2.76C196.05,220.48,196.52,222.77,198.71,225.61Z"/><path class="cls-1" d="M184.86,228a4.58,4.58,0,0,0-2.18,3.64l-.42-.09-.32-.86a6.46,6.46,0,0,1,3.2-3.85c3.84-2.24,7.16-1.14,9.18,2.32a6.17,6.17,0,0,1-2.25,8.69c-3.41,2-6.67.42-8.54-2.79l7.79-4.54C189.71,227.86,187.62,226.39,184.86,228Zm6.8,3.1-5,2.93c1.49,2.45,3.55,4.08,5,3.21S193.44,234.32,191.66,231.11Z"/><path class="cls-1" d="M172.84,233.43,177,245.14l-3,1.06-.51-1.42a4.65,4.65,0,0,1-2.86,2.9c-2.81,1-5,0-6.15-3.16l-2.57-7.2,3-1.06,2.79,7.81c.82,2.31,1.83,3.19,2.95,2.79a4.43,4.43,0,0,0,2.46-3.25l-3.25-9.11Z"/><path class="cls-1" d="M154.66,247.73l.16.71c.32,1.45,1.31,2.53,2.51,2.27a4.19,4.19,0,0,0,3.22-2.86l.46-.1.18,1.29a7.61,7.61,0,0,1-4.05,2.48c-3,.68-4.94-.28-5.51-2.79l-1.58-7.11c-.09-.4-.24-.58-.42-.54a8.21,8.21,0,0,0-1,.6l-.18-.81a4.93,4.93,0,0,1,2.16-1.2,2.06,2.06,0,0,1,2.17.77,4.24,4.24,0,0,1,3-2.11c2.46-.55,4.49.41,4.92,2.33s-.64,3.58-3.23,5c-.33.18-.84.4-2.26,1.09A.75.75,0,0,0,154.66,247.73Zm2.35-2.95a3.35,3.35,0,0,0,.63-3c-.42-1.88-1.2-2.74-2.52-2.45a2.74,2.74,0,0,0-1.67,3l.91,4A15.26,15.26,0,0,0,157,244.78Z"/><path class="cls-1" d="M145,259.12l-.71-5.75-3.21.48-.11-.83,3.24-.32-1.06-8.6c-.24-1.93-.76-2.5-1.53-2.4a3.75,3.75,0,0,0-2.12,1.28l-.11-.82a4.45,4.45,0,0,1,2.83-1.3,3.39,3.39,0,0,1,4.12,3.24l1,8.18,1.78-.27.1.83-1.79.14.49,3.92-2.49,2.38Z"/><path class="cls-1" d="M131.62,250.29l0,.73c0,1.48.8,2.73,2,2.7a4.19,4.19,0,0,0,3.71-2.18h.47l-.07,1.3a7.6,7.6,0,0,1-4.46,1.66c-3.12.08-4.79-1.23-4.86-3.8l-.2-7.28c0-.41-.12-.62-.3-.62a8.41,8.41,0,0,0-1.13.4l0-.83a5,5,0,0,1,2.35-.77,2.05,2.05,0,0,1,2,1.17,4.25,4.25,0,0,1,3.34-1.49c2.53-.07,4.33,1.26,4.38,3.23s-1.31,3.39-4.12,4.28c-.36.11-.9.23-2.43.64A.74.74,0,0,0,131.62,250.29Zm2.88-2.44a3.39,3.39,0,0,0,1.19-2.87c-.05-1.92-.65-2.92-2-2.89a2.76,2.76,0,0,0-2.22,2.67l.11,4.13A15.8,15.8,0,0,0,134.5,247.85Z"/><path class="cls-1" d="M125,241.74l-1.13,19.5-3.17-.18,1.14-19.5Z"/><path class="cls-1" d="M117.1,257.75a1.82,1.82,0,0,1-2,1.6,1.81,1.81,0,1,1,.42-3.59A1.81,1.81,0,0,1,117.1,257.75Zm1.66-16.46-1.42,12.35-3.15-.36,1.42-12.35Z"/><path class="cls-1" d="M100.48,250.85l.07-.34,9.49-9.72-7.2-1.43.14-.69,10.74,2.13-.07.33-9.49,9.73,6.43,1.28-.14.69Z"/><path class="cls-1" d="M86.24,246.46l3.83-11.82,3,1-.47,1.43a5.16,5.16,0,0,1,4.3-.52c2.84.92,3.8,2.76,2.76,6L97.25,250l-3-1,2.55-7.89c.73-2.25.78-3.6-.58-4a4.68,4.68,0,0,0-3.93.91l-3,9.4Z"/><path class="cls-1" d="M86.4,235.88a3.55,3.55,0,0,0-2.4-3.46,1.92,1.92,0,0,0-2.54,1.08,2.2,2.2,0,0,0,.11,2.39l2,2.75c1,1.33,1.36,2.53.8,3.76-.87,1.92-3.41,2.11-5.9,1a6.46,6.46,0,0,1-2.81-2.48l1-.93.31.14a2.67,2.67,0,0,0,1.92,2.64,1.88,1.88,0,0,0,2.39-1.06,2,2,0,0,0,0-2c-.85-1.16-1.77-2.15-2.47-3.29a3.92,3.92,0,0,1-.44-3.46c.86-1.89,3.5-2.29,6.18-1.08A6.49,6.49,0,0,1,87.64,235L86.73,236Z"/><path class="cls-1" d="M75.53,229.79a1.86,1.86,0,0,1-.74-2.48,1.82,1.82,0,0,1,2.5-.71,1.82,1.82,0,1,1-1.76,3.19Z"/></g></g></svg>