<svg xmlns="http://www.w3.org/2000/svg" viewBox="0 0 206.63 350.26"><defs><style>.cls-1{fill:#fff;}</style></defs><g id="레이어_2" data-name="레이어 2"><g id="레이어_1-2" data-name="레이어 1"><path class="cls-1" d="M37.71,4.77,36.12,7.34,21.68,3,31.86,14.26l-1,1.58L16.28,11.61,26.54,22.89l-.37.59L14.42,10.59l1.14-1.86,14.16,4.18-10-11L20.94,0Z"/><path class="cls-1" d="M11.1,17.51l9.73,4.38-1.12,2.49L10,20Zm13,5.65a1.56,1.56,0,0,1,.78,2.06A1.55,1.55,0,1,1,22.08,24,1.57,1.57,0,0,1,24.13,23.16Z"/><path class="cls-1" d="M22,32l-4.65-1.76-.93,2.64-.67-.26L16.76,30l-7-2.62c-1.57-.6-2.21-.43-2.44.2a3.18,3.18,0,0,0,.13,2.12l-.67-.25A3.8,3.8,0,0,1,7,26.77a2.91,2.91,0,0,1,4.11-1.84l6.62,2.5L18.2,26l.67.26-.6,1.41,3.17,1.2.82,2.84Z"/><path class="cls-1" d="M5.49,31.68l16.18,4.4L21,38.71l-6.89-1.87a3.3,3.3,0,0,1,.55,2.83c-.67,2.46-2.54,3.87-5.34,3.11L2.94,41.06l.71-2.61,6.65,1.81c2.4.65,3.4.21,3.71-.94a3.25,3.25,0,0,0-1.14-2.8l-8.1-2.21Z"/><path class="cls-1" d="M2.22,44.89l10.5,1.91-.49,2.68L1.73,47.57Zm14,2.34a1.58,1.58,0,0,1-.56,3.1,1.59,1.59,0,0,1-1.24-1.84A1.57,1.57,0,0,1,16.23,47.23Z"/><path class="cls-1" d="M1,51.43l10.63,1-.26,2.71L10.12,55a4,4,0,0,1,1.22,3.27c-.23,2.56-1.8,3.92-4.69,3.65L.12,61.33l.25-2.69,7.09.66C9.55,59.49,10.6,59,10.7,58a3.81,3.81,0,0,0-1.64-3.09L.79,54.15Z"/><path class="cls-1" d="M.38,71.11a53.42,53.42,0,0,0,7.13,5.17,9.66,9.66,0,0,0,5.61,1.48c2.09-.17,3.7-1,3.55-3a3.59,3.59,0,0,0-3.82-3l-.17-.17.57-.94a4.94,4.94,0,0,1,4.09,4.4,5.22,5.22,0,0,1-.86,3.77,4.42,4.42,0,0,1-2.85,1.66A6.71,6.71,0,0,1,9.23,79c-.83-.56-2.5-1.86-3.72-2.86L2.08,73.39l.66,8.22-1.9.15L0,71.14Z"/><path class="cls-1" d="M19.64,90.27l.1.55L7.88,93.2l.4,2-.57.11-.4-2-4.21.84-.54-2.71,4.2-.85L5.39,83.7l.28-.06ZM15.26,88.9,6.14,84.52l1.19,6Z"/><path class="cls-1" d="M6.3,105.4l15.62-6.09,1,2.54-6.65,2.59a3.3,3.3,0,0,1,2.12,2c.93,2.37.27,4.62-2.44,5.67l-6.11,2.38-1-2.51,6.42-2.51c2.31-.9,2.85-1.85,2.42-3a3.2,3.2,0,0,0-2.58-1.58l-7.82,3Z"/><path class="cls-1" d="M23.74,117.92c1.73,3.2.75,6.26-2.12,7.81s-6,.69-7.7-2.51S13.18,117,16,115.4,22,114.71,23.74,117.92Zm-9.27,5c.88,1.63,3.22,1.74,5.82.34s3.78-3.42,2.9-5.05-3.24-1.72-5.81-.33S13.59,121.29,14.47,122.92Z"/><path class="cls-1" d="M33.47,133.37l-8.69,6.19-1.58-2.22,1.05-.75A4.44,4.44,0,0,1,21,134.75c-1.49-2.09-1.21-3.86,1.16-5.54l5.53-3.94,1.56,2.2-5.8,4.13c-1.65,1.18-2.38,2.09-1.67,3.09A4,4,0,0,0,25,136.07l6.91-4.92Z"/><path class="cls-1" d="M38.28,140a3,3,0,0,0-3-.59l-6.09,5.34-1.8-2.05,8-7,1.8,2-1.12,1a3.31,3.31,0,0,1,3.16,1,2.48,2.48,0,0,1,.64,1.57L39,142l-.34-.08A1.69,1.69,0,0,0,38.28,140Z"/><path class="cls-1" d="M34.86,147.66a3.06,3.06,0,0,0,.92,3.5,1.66,1.66,0,0,0,2.37-.13,1.89,1.89,0,0,0,.61-2l-.84-2.81c-.41-1.37-.36-2.45.45-3.28,1.26-1.29,3.37-.7,5.05.93A5.56,5.56,0,0,1,45,146.73l-1,.47-.21-.2a2.31,2.31,0,0,0-.78-2.7,1.62,1.62,0,0,0-2.24.16,1.72,1.72,0,0,0-.58,1.65c.35,1.18.8,2.25,1,3.38a3.34,3.34,0,0,1-.66,2.92c-1.25,1.28-3.5.83-5.3-.93A5.55,5.55,0,0,1,33.58,148l1.05-.6Z"/><path class="cls-1" d="M58.56,150.2c-.52-.39-1.2-.19-1.63.57a16,16,0,0,1-1.07,1.57l-1.12,1.5,2.17,1.53-.42.58-2.1-1.64-6,8.05-2.19-1.62,6-8-1.26-.89.42-.57,1.2,1,.93-1.25a4,4,0,0,1,5-1.53,5.76,5.76,0,0,1,1.1.65,4,4,0,0,1,.94.95l-.59.79-.33,0A2.29,2.29,0,0,0,58.56,150.2Z"/><path class="cls-1" d="M61,158.85a3,3,0,0,0-3.07.24l-4.42,6.79-2.28-1.48,5.82-9,2.28,1.49-.81,1.25a3.32,3.32,0,0,1,3.31.11,2.46,2.46,0,0,1,1.05,1.34l-.65,1h-.35A1.68,1.68,0,0,0,61,158.85Z"/><path class="cls-1" d="M68.65,162.13c3.23,1.69,4.14,4.78,2.63,7.67s-4.56,3.92-7.78,2.24-4.14-4.78-2.64-7.67S65.42,160.45,68.65,162.13Zm-4.87,9.35c1.65.86,3.65-.37,5-3s1.22-5-.43-5.81-3.65.39-5,3S62.14,170.63,63.78,171.48Z"/><path class="cls-1" d="M72.52,176.25,76,166.15l2.58.88-.37,1.08a3.45,3.45,0,0,1,2.95-.43,3.22,3.22,0,0,1,2.44,3,3.78,3.78,0,0,1,3.67-.92c2,.68,3,2.31,2.16,4.85l-2.27,6.63-2.56-.87,2.31-6.74c.66-1.92.63-3.07-.18-3.34s-2.06.24-3.18,1.31a8.79,8.79,0,0,1-.24.91L81,179.15l-2.55-.87,2.31-6.74c.65-1.92.64-3.06-.16-3.33a3.46,3.46,0,0,0-2.78,1l-2.73,8Z"/><path class="cls-1" d="M89,185.27l16.33,3.8-.62,2.66-7-1.62a3.28,3.28,0,0,1,.65,2.81c-.58,2.48-2.39,4-5.21,3.3l-6.4-1.49.62-2.63,6.71,1.56c2.42.56,3.4.08,3.67-1.07a3.19,3.19,0,0,0-1.24-2.76l-8.17-1.91Z"/><path class="cls-1" d="M92.53,205.22l.62.08c1.26.17,2.43-.3,2.57-1.34a3.58,3.58,0,0,0-1.33-3.45l.06-.39,1.09.23a6.55,6.55,0,0,1,.78,4c-.36,2.66-1.7,3.89-3.89,3.59l-6.2-.84c-.35-.05-.54,0-.56.17a6.22,6.22,0,0,0,.18,1l-.71-.09a4.21,4.21,0,0,1-.32-2.1,1.77,1.77,0,0,1,1.26-1.52,3.67,3.67,0,0,1-.8-3c.29-2.15,1.67-3.49,3.35-3.26s2.69,1.58,3.05,4.09c0,.32.07.79.2,2.14C91.92,204.91,92,205.15,92.53,205.22Zm-1.67-2.78A2.91,2.91,0,0,0,88.6,201c-1.64-.22-2.57.14-2.73,1.3a2.36,2.36,0,0,0,1.95,2.24l3.52.48A13.62,13.62,0,0,0,90.86,202.44Z"/><path class="cls-1" d="M94.27,216.73a3,3,0,0,0-1.72-2.54l-8.1-.49.17-2.72,10.65.64-.16,2.72-1.49-.09a3.32,3.32,0,0,1,1.54,2.94,2.45,2.45,0,0,1-.65,1.57l-1.18-.07-.19-.31A1.67,1.67,0,0,0,94.27,216.73Z"/><path class="cls-1" d="M94.82,218.47l0,2.81-8.91,3.45,9,3.09v.69l-10.7-3.72v-1.94Z"/><path class="cls-1" d="M85.37,236.76a4,4,0,0,0,2.06,3l-.22.29-.79-.06a5.58,5.58,0,0,1-1.85-3.89c-.35-3.8,1.71-6,5.13-6.31a5.28,5.28,0,0,1,6,4.89c.32,3.38-2.07,5.35-5.25,5.65l-.73-7.71C87,232.92,85.12,234,85.37,236.76Zm4.88-4.19.47,5c2.44-.27,4.45-1.29,4.32-2.76S93.39,232.35,90.25,232.57Z"/><path class="cls-1" d="M88,243.69a3,3,0,0,0-1.25,3.39,1.65,1.65,0,0,0,2,1.26,1.87,1.87,0,0,0,1.62-1.26l.94-2.78c.45-1.36,1.11-2.21,2.25-2.42,1.78-.33,3.16,1.37,3.59,3.67a5.62,5.62,0,0,1-.36,3.2l-1.13-.22,0-.29a2.3,2.3,0,0,0,.91-2.64,1.6,1.6,0,0,0-1.92-1.16,1.71,1.71,0,0,0-1.42,1c-.4,1.16-.64,2.3-1.1,3.36a3.35,3.35,0,0,1-2.22,2c-1.75.33-3.33-1.33-3.79-3.81a5.51,5.51,0,0,1,.66-3.73l1.2.11Z"/><path class="cls-1" d="M103.81,253.42,99,254.7l.78,2.68-.69.18-.65-2.71-7.18,1.9c-1.62.43-2,.94-1.87,1.58A3.26,3.26,0,0,0,90.72,260l-.69.18a3.82,3.82,0,0,1-1.43-2.25A2.9,2.9,0,0,1,90.87,254l6.84-1.82-.44-1.48.7-.18.33,1.51,3.28-.87,2.31,1.83Z"/><path class="cls-1" d="M108,265.72l-4.63,1.85,1.1,2.56-.67.27-1-2.62-6.9,2.76c-1.56.62-1.92,1.17-1.67,1.79a3.23,3.23,0,0,0,1.53,1.48l-.66.27A3.8,3.8,0,0,1,93.42,272a2.9,2.9,0,0,1,1.79-4.13l6.57-2.62-.61-1.41.66-.27.51,1.46,3.15-1.26,2.52,1.54Z"/><path class="cls-1" d="M107.78,276.47c1.66,3.24.63,6.28-2.27,7.78s-6,.58-7.65-2.66-.63-6.28,2.26-7.77S106.11,273.24,107.78,276.47Zm-9.37,4.84c.85,1.64,3.19,1.79,5.81.44s3.85-3.34,3-5-3.21-1.79-5.81-.44S97.56,279.66,98.41,281.31Z"/><path class="cls-1" d="M109.26,299.71a3.85,3.85,0,0,1-.77-2.94l-5,3.78-1.64-2.18,12.89-9.66,1.63,2.18-1,.78a3.74,3.74,0,0,1,3.14,1.66c1.88,2.5.59,5.47-1.75,7.23S111.14,302.21,109.26,299.71Zm5.78-1.35c2.39-1.79,3.36-3.78,2.39-5.08-.77-1-2.94-1.09-5.55.86s-3.07,3.95-2.28,5C110.58,300.45,112.4,300.34,115,298.36Z"/><path class="cls-1" d="M125.68,303.27a3,3,0,0,0-3-.53l-6,5.46-1.84-2,7.88-7.19,1.83,2-1.1,1a3.32,3.32,0,0,1,3.18.94,2.36,2.36,0,0,1,.67,1.56l-.87.8-.34-.08A1.7,1.7,0,0,0,125.68,303.27Z"/><path class="cls-1" d="M132.25,308.38c2.69,2.45,2.79,5.67.6,8.08s-5.4,2.64-8.1.2-2.79-5.67-.6-8.08S129.55,305.94,132.25,308.38Zm-7.08,7.81c1.37,1.25,3.62.57,5.6-1.62s2.43-4.48,1.06-5.72-3.63-.55-5.6,1.61S123.8,315,125.17,316.19Z"/><path class="cls-1" d="M142,316.28a3.6,3.6,0,0,1,1.76,3.08l4.26-6,2.22,1.57-9.69,13.68L138.33,327l.53-.75a3.61,3.61,0,0,1-3-.66,5.07,5.07,0,0,1-1.06-7.39C136.51,315.84,139.45,314.47,142,316.28Zm-.64,6.58c1.82-2.57,1.87-4.92.8-5.68-1.31-.93-3.44.41-5,2.67-1.78,2.52-2,4.49-.69,5.42C137.5,326,139.54,325.43,141.36,322.86Z"/><path class="cls-1" d="M157.91,326.25l-5.17,9.34-2.38-1.32.62-1.13a4.4,4.4,0,0,1-3.7-.26c-2.25-1.25-2.76-3-1.36-5.5l3.29-5.94,2.36,1.31L148.13,329c-1,1.78-1.25,2.91-.18,3.5a4,4,0,0,0,3.47-.12l4.1-7.43Z"/><path class="cls-1" d="M164.9,340.06a5.63,5.63,0,0,1-3.7-.38c-3.45-1.49-4.44-4.54-3.19-7.45s4.16-4.29,7.61-2.81a6.33,6.33,0,0,1,2.94,2.32l-.8.94-.27-.11a3,3,0,0,0-2.12-2.57c-1.62-.7-3.62.65-4.77,3.34s-.78,5.07.84,5.76a3.68,3.68,0,0,0,3.84-.21l.23.26Z"/><path class="cls-1" d="M175.43,328.11l-1.63,4.71,2.66.85-.24.67-2.61-1-2.44,7c-.55,1.59-.36,2.22.27,2.44a3.24,3.24,0,0,0,2.12-.19l-.23.67a3.79,3.79,0,0,1-2.67-.07,2.9,2.9,0,0,1-1.95-4.05L171,332.5l-1.47-.47.24-.67,1.43.57,1.11-3.21,2.82-.89Z"/><path class="cls-1" d="M175.24,344.42l3-10.25,2.62.76-3,10.25ZM179,330.73a1.56,1.56,0,0,1,1.93-1.06,1.55,1.55,0,1,1-.86,3A1.55,1.55,0,0,1,179,330.73Z"/><path class="cls-1" d="M189.07,336.72c3.56.77,5.25,3.51,4.57,6.69s-3.36,5-6.91,4.23-5.26-3.5-4.58-6.69S185.51,336,189.07,336.72ZM186.86,347c1.81.39,3.41-1.32,4-4.21s-.14-5.1-1.95-5.49-3.42,1.35-4,4.21S185,346.64,186.86,347Z"/><path class="cls-1" d="M196,349.13l1.21-10.6,2.71.31-.15,1.28A4,4,0,0,1,203,339c2.55.29,3.88,1.88,3.55,4.77l-.75,6.52-2.68-.31.81-7.07c.24-2.09-.2-3.15-1.23-3.27a3.8,3.8,0,0,0-3.12,1.58l-.94,8.25Z"/></g></g></svg>