<svg xmlns="http://www.w3.org/2000/svg" viewBox="0 0 223.47 222.77"><defs><style>.cls-1{fill:#b3c25d;}.cls-2{fill:#545d2d;}</style></defs><g id="레이어_2" data-name="레이어 2"><g id="레이어_1-2" data-name="레이어 1"><polygon class="cls-1" points="84.36 45.63 90.59 0 113.05 40.2 137.31 1.05 141.48 46.92 179.56 21.02 164.71 64.61 210.03 56.44 178.74 90.23 223.47 101.2 181.13 119.34 217.53 147.55 171.49 146.9 193.26 187.48 151.46 168.16 154.85 214.09 124.52 179.43 108.93 222.77 95.32 178.77 63.45 212.02 68.91 166.3 26.28 183.71 49.87 144.16 3.83 142.73 41.47 116.18 0 96.16 45.18 87.22 15.44 52.05 60.35 62.26 47.48 18.04 84.36 45.63"/><path class="cls-2" d="M84.28,119.54c3.27,7.82,0,13.94-9.37,17.88a31.85,31.85,0,0,1-11.3,2.64l-1.44-4.2a30.15,30.15,0,0,0,11.23-2.61c5.54-2.32,8.15-5.16,7.63-9a26,26,0,0,1-9.14,6c-8.65,3.62-14.22,3-16.26-1.9-2.14-5.13,1.54-9.8,10.76-13.66C75.28,111,81.4,112.66,84.28,119.54Zm-23.87,7c1,2.28,4.64,2.34,10.42-.08,6-2.49,8.61-5.21,7.66-7.49s-4.8-2.38-10.75.11C62,121.46,59.43,124.15,60.41,126.5Z"/><path class="cls-2" d="M91.43,126.81l-1.69-4.72c4.42.83,9.19.16,15.23-2.37,5.33-2.23,8.37-5.14,7.45-7.33s-4.71-2.1-9.72,0c-3.35,1.41-6,3.43-9.07,6.86l-5.92-1.07-1.9-11.29L109.46,97l1.67,4-19.88,8.32,1.2,5.21a25.29,25.29,0,0,1,9.34-6.39c7.32-3.06,13.42-2.37,15.38,2.31,2.07,5-2.14,10.19-10.76,13.8A29.61,29.61,0,0,1,91.43,126.81Z"/><path class="cls-2" d="M116.88,102.24c-1.93-4.62.74-8.88,6.67-11.36s10.84-1.4,12.77,3.22-.77,8.89-6.67,11.36S118.8,106.83,116.88,102.24Zm15.59-6.53c-1.14-2.72-4-3.12-7.58-1.63s-5.33,3.83-4.19,6.56,4.06,3.11,7.61,1.62S133.61,98.44,132.47,95.71Zm10.62-12.38,4.42-1.85.14.08-7.81,28.27-4.42,1.85-.14-.08Zm3.71,15.44c-1.93-4.62.75-8.88,6.67-11.35s10.84-1.41,12.77,3.22-.77,8.89-6.67,11.35S148.72,103.36,146.8,98.77Zm15.59-6.52c-1.14-2.73-4-3.12-7.58-1.63s-5.33,3.83-4.19,6.55,4.06,3.11,7.61,1.62S163.53,95,162.39,92.25Z"/></g></g></svg>