<svg xmlns="http://www.w3.org/2000/svg" viewBox="0 0 547.13 315.38"><defs><style>.cls-1{fill:#84c5bd;}.cls-2{fill:#85bdca;}</style></defs><g id="레이어_2" data-name="레이어 2"><g id="레이어_1-2" data-name="레이어 1"><path class="cls-1" d="M54.6,62.24l3.33,8.66,9.45,2.18,6.06-6.48-2.74-9L61.27,55.4Zm-10,61.05,3.92-16.91L37.8,109.51l-4.18-3.87L35,99.7,50.86,95l2.57-11.12L41.75,88l2.72-11.77-11,3.35-3.69,16-6.08,2.06-3.81-4,2.48-10.7L5.69,87.83,0,83.72,1.56,77,19,72.09,10.44,65l1.43-6.19,6.19-1.74,12,11.39L41,65.13l-.19-.22L32.25,57l11-3.73-8.33-7.77L19.1,50.39l-4.61-3.8,1.42-6.15,10.62-3.11L13.42,25.72,15,19l6.45-1.64,12.83,12,2.51-10.86,5.15-2,4.72,4.39L42.83,37.12l8.62,8,2.63-11.51,9.12,8,2.57-11.12L53.6,19.25,55,13.34l5.46-1.67,8.22,7.5L72.56,2.29,78.8,0l4.62,4.8-3.9,16.88,11-3.16,4.17,4.4L93.5,28.23,77.1,33.09,74.53,44.21l11.33-3.75-2.8,12.1,11.49-3.21,4-17.4L104,30.78l4.64,3.51L106.1,45.4l17.11-4.69,4.57,4.47-1.46,6.3-16.81,5,8.09,7.35-1.39,6-5.43,1.55L98.46,59.68l-11.31,4,8.17,8.15L84.2,75.2l8.9,7.66,16.11-4.67,3.83,4.3-1.33,5.75-10.11,3L113.9,103l-1.53,6.64L105.68,111,93.53,99.76l-2.45,10.56L85.41,112,81.13,108l3.71-16-9-8.3L73.29,94.81l-8.53-8.35L62.18,97.58,74.35,108.8l-1.45,6.29-5.37,1.3-8.19-7.5-3.91,16.92-6.25,2.25Z"/><path class="cls-2" d="M441.89,236.64,453,243.56l12.5-5.55,1.33-12.44-10.73-7.85-12.48,5.54Zm40.46,77.29-9.93-22.38L463,304.13l-8-.81-3.49-7.86,13.85-18.79L458.88,262l-9.61,14.61L442.36,261l-9.57,13.12,9.38,21.11-5.1,7.48-7.69-1.29-6.28-14.16-14.62,19.67-9.89.2-4-8.93,15.5-20.29-15.65-.73L390.84,269l5.5-7.2,23.18,2.66,9.49-13-.4-.07-16.38-1.72,9.18-13.48-16-1.69-13.59,18.92-8.41-.37-3.61-8.14,9.32-12.51-24.62-2-4-8.93,5.88-7.31,24.59,2.6-6.38-14.37,4.13-6.6,9,1,9.51,21.57L423.8,220l-6.8-15.2,17.07,1.29-6.53-14.7L404.32,189l-3.47-7.81,4.73-6.52,15.62,1.48-9.91-22.33,5.09-7.87,9.28,1.49,9.91,22.33,9.76-12.93,8.43,1.42,3.12,7-14.35,19.38,6.52,14.71,9.59-13.84,7.11,16L476,188.23l-10.22-23,5.16-5.95,8.2,0,6.52,14.7,15.3-19.8,8.94,1.17,3.7,8.33-14.69,19.9L514.22,185l3.54,8L513,199.33l-23.82-2.77-9.36,14.08,16.11,2.25-9.66,13.24,16.53,1.09,14.19-18.92,8,1.6,3.37,7.6-8.88,11.91,23.84,2.82,3.9,8.78-6.38,7.2-23.19-2.32,6.2,14-5,6.65-8.15-.81-9.4-21.18L484,242.78l6.53,14.7-16.69-2.17L480.4,270l23.22,2.33,3.69,8.31-4.95,6-15.57-1.51,9.93,22.38-5.14,7.83Z"/></g></g></svg>