<svg xmlns="http://www.w3.org/2000/svg" viewBox="0 0 520.73 345.08"><defs><style>.cls-1{fill:#d39ea7;}</style></defs><g id="레이어_2" data-name="레이어 2"><g id="레이어_1-2" data-name="레이어 1"><path class="cls-1" d="M14.32,68.17v-3q0-30.35-.07-60.71c0-.61,0-1.23,0-1.85,0-1.44.55-2.5,2.06-2.53s2.1,1,2.1,2.45c0,3.4,0,6.79,0,10.18q.06,26.84.11,53.68c0,.55,0,1.1,0,1.79h6.8c0-.73,0-1.5,0-2.27L25.29,3.69c0-2.67.54-3.65,2-3.69s2.13,1,2.13,3.76q0,31.19.08,62.38v2c4.64.61,6.16-.7,6.16-5.1q0-28.7,0-57.38a12.71,12.71,0,0,1,.68-3.95A2.25,2.25,0,0,1,38,.46c.47,0,1.21.61,1.48,1.14a6.69,6.69,0,0,1,.71,2.63q1.34,30.51,2.6,61c.38,9.06.63,18.13,1.18,27.18a33.07,33.07,0,0,1-4.12,18.14c-1.9,3.51-4.2,6.81-6.3,10.22-1.17,1.88-2.37,3.75-3.39,5.71A14.16,14.16,0,0,0,28.63,134q2,35.92,4,71.87c.92,16.82,1.87,33.63,2.72,50.45.45,9.12,1,18.25,1,27.37,0,13.53-1.09,27-5.12,40a36.87,36.87,0,0,1-4.27,9.15c-2.63,4-6.29,3.92-9.16,0-3.22-4.36-4.6-9.51-5.78-14.69C8.47,302.66,7.78,286.85,8.47,271c.67-15.53,1.59-31,2.41-46.57l4-75.77c.26-4.81.41-9.62.79-14.42a16,16,0,0,0-2.81-9.95c-1.84-2.92-4-5.67-5.79-8.59C3.08,109.38-.1,102.77,0,95.13c.08-6,.41-12,.65-17.94q1.05-27,2.13-54c.25-6.29.46-12.58.78-18.86A7.25,7.25,0,0,1,4.5,1.2c.75-1.32,2.07-1.32,2.72.05a9.5,9.5,0,0,1,.89,3.89c.09,13.76.09,27.52.12,41.28q0,8.32,0,16.65C8.24,67.41,9.56,68.59,14.32,68.17Z"/><path class="cls-1" d="M520.31,75.72a114.49,114.49,0,0,0-7.87-34.4c-3.39-8.6-7.67-16.67-14.19-23.37a28.34,28.34,0,0,0-14.8-8.36,25.27,25.27,0,0,0-17.55,3.3A31.62,31.62,0,0,0,459.56,18c-6.53,6.7-10.81,14.77-14.2,23.37a114.49,114.49,0,0,0-7.87,34.4c-.5,7.6-.88,15.32.93,22.9a41.13,41.13,0,0,0,17.8,25.52,69.4,69.4,0,0,0,7.73,4.72c6.51,3.22,9.09,8.81,9.22,15.58.12,6-.36,12-.72,17.95-.8,13.35-1.75,26.7-2.51,40.05q-1.74,30.18-3.28,60.38c0,1.32-.14,2.67-.22,4-.5,9.51-1,19-1.48,28.54-.07,1.46-.15,2.93-.23,4.39-.26,4.72-.53,9.45-.65,14.18-.07,2.95-.15,5.89-.08,8.84,0,.36,0,.72,0,1.08a43.08,43.08,0,0,0,.83,7.34,20.86,20.86,0,0,0,4.38,9.51,13.28,13.28,0,0,0,4.19,3.41,15.7,15.7,0,0,0,10.92,0,13.28,13.28,0,0,0,4.19-3.41,21,21,0,0,0,4.39-9.51,44.1,44.1,0,0,0,.82-7.34c0-.36,0-.72,0-1.08.08-2.95,0-5.89-.08-8.84-.12-4.73-.39-9.46-.64-14.18l-.24-4.39c-.47-9.51-1-19-1.48-28.54-.07-1.32-.21-2.67-.21-4q-1.61-30.19-3.28-60.38c-.77-13.35-1.72-26.7-2.52-40.05-.36-6-.83-12-.72-17.95.13-6.77,2.71-12.36,9.23-15.58a71.28,71.28,0,0,0,7.73-4.72,41.17,41.17,0,0,0,17.8-25.52C521.19,91,520.82,83.32,520.31,75.72Z"/></g></g></svg>