<svg xmlns="http://www.w3.org/2000/svg" viewBox="0 0 326.67 98.79"><defs><style>.cls-1,.cls-2{fill:#fff;}.cls-2{font-size:18.22px;font-family:MarcellusSC-Regular, Marcellus SC;}</style></defs><g id="레이어_2" data-name="레이어 2"><g id="레이어_1-2" data-name="레이어 1"><path class="cls-1" d="M84.87,70.63a14.85,14.85,0,0,0,2.23.81,8.75,8.75,0,0,0,2.26.36,9.19,9.19,0,0,0,2.25-.27,8,8,0,0,0,2.37-1c.15.26.22.4.37.67a10.74,10.74,0,0,1-5.28,3.25c-4.41,1.06-9.71-1.22-16.33-6.71C60.77,58.22,48.57,49.4,35.79,41Q40.95,55.09,46.1,69.17a5,5,0,0,0,2,2.59,2.92,2.92,0,0,0,2.64.42l1-.35c.1.28.15.42.24.69-6.19,2.19-9.27,3.35-15.39,5.84l-.27-.68c.36-.15.54-.23.91-.37A3,3,0,0,0,39,75.22a5.11,5.11,0,0,0-.24-3.33q-7.51-19.15-15-38.31a59,59,0,0,0-6.4-3.65c-1.38-.63-2.59-1.12-3.63-1.49a19.48,19.48,0,0,0-2.9-.78A12.4,12.4,0,0,0,6,27.46a16.51,16.51,0,0,0-2.93,1A8.15,8.15,0,0,0,.53,30.28L0,29.72a12.53,12.53,0,0,1,5.68-5.07c5-2.13,11.69-.92,19.77,3.85C38,36.14,50,44.18,61.81,52.85q-4.44-14.6-8.87-29.19a4.92,4.92,0,0,0-2-2.71A3.39,3.39,0,0,0,48,20.51l-1.06.34c-.09-.28-.14-.42-.22-.7,7.16-2.28,10.77-3.33,18-5.26.08.28.12.42.19.71l-1.13.3a3.36,3.36,0,0,0-2.22,1.94,4.82,4.82,0,0,0-.29,3.32L72.5,61.35l1.16.89c.29.23.74.62,1.37,1.19s1.17,1.05,1.65,1.45l1.83,1.52c.73.61,1.41,1.14,2,1.59s1.32.92,2.12,1.42A19.63,19.63,0,0,0,84.87,70.63Z"/><path class="cls-1" d="M118.11,55.56l.48-.07.1.73c-6.77,1-10.14,1.52-16.87,2.81,0-.28-.08-.43-.14-.72l.48-.09a1.92,1.92,0,0,0,1.54-1.29,3.79,3.79,0,0,0,.21-2,5.88,5.88,0,0,0-.58-1.68c-1.71-3.35-2.57-5-4.33-8.36-5.14,1-7.7,1.53-12.81,2.7-.33,3.78-.48,5.67-.74,9.44a6.51,6.51,0,0,0,.15,1.81,3.78,3.78,0,0,0,1,1.66,2,2,0,0,0,2,.55L89,61c.06.28.1.43.16.71-4.48,1-6.72,1.6-11.18,2.78-.07-.28-.11-.42-.19-.71l.47-.12A3.94,3.94,0,0,0,80.4,62a7.58,7.58,0,0,0,1.24-3.5q1.47-20.25,4.28-40.36c.84-5.13,1.21-8.48,1-10L87.49,8c9,14.39,17.65,28.94,25.45,44a7.87,7.87,0,0,0,2.52,2.85A3.94,3.94,0,0,0,118.11,55.56ZM86.43,44.43c4.41-1,6.62-1.47,11-2.34-3.53-6.66-5.34-10-9.08-16.57C87.49,33.09,87.1,36.87,86.43,44.43Z"/><path class="cls-1" d="M129.48,6.27q2.06,21.44,4.13,42.86A5.45,5.45,0,0,0,135,52.24a2.92,2.92,0,0,0,2.5,1.1l.64-.05c.05.29.07.44.12.73-6.49.54-9.72.89-16.18,1.74l-.1-.72.69-.09a2.91,2.91,0,0,0,2.16-1.61,5.72,5.72,0,0,0,.72-3.26q-2.57-21.42-5.12-42.83c-3.27.39-4.91.61-8.17,1.07a5.5,5.5,0,0,0-4.09,2.74,8.31,8.31,0,0,0-.79,5.54l.13.87-.59.1c-.79-5.05-1.19-7.57-2-12.61a14,14,0,0,0,3.21.4,24.28,24.28,0,0,0,4.18-.16C122.1,3.83,127,3.29,136.89,2.54a22.55,22.55,0,0,0,4.86-.93A19,19,0,0,0,144,.73l.75,12.74-.6,0-.05-.88a8.27,8.27,0,0,0-1.95-5.24,5.52,5.52,0,0,0-4.58-1.82C134.36,5.82,132.73,6,129.48,6.27Z"/><path class="cls-1" d="M183.87,52.44l.48,0,0,.73c-6.82-.33-10.23-.41-17-.4v-.74h.48a1.87,1.87,0,0,0,1.75-1,3.89,3.89,0,0,0,.58-1.87,6.3,6.3,0,0,0-.26-1.76c-1-3.62-1.58-5.42-2.67-9-5.21,0-7.82.05-13,.24-1,3.65-1.53,5.48-2.49,9.14a6.42,6.42,0,0,0-.19,1.8,3.63,3.63,0,0,0,.65,1.81,1.9,1.9,0,0,0,1.83.91h.43l0,.73c-4.57.17-6.86.3-11.43.62l-.05-.73.48,0a3.9,3.9,0,0,0,2.4-1.18,7.57,7.57,0,0,0,1.86-3.2q5.21-19.6,11.72-38.83c1.79-4.88,2.78-8.1,2.88-9.66h.56c6.09,15.82,11.84,31.74,16.66,48a7.78,7.78,0,0,0,1.93,3.27A3.87,3.87,0,0,0,183.87,52.44ZM155,35.54c4.49-.15,6.73-.19,11.22-.21-2.2-7.21-3.35-10.81-5.77-18C158.12,24.61,157,28.25,155,35.54Z"/><path class="cls-1" d="M185.64,52.53a3,3,0,0,0,2.46-1.23,5.72,5.72,0,0,0,1.25-3.19l2.52-40.56a5.23,5.23,0,0,0-1-3.33,3.38,3.38,0,0,0-2.64-1.5l-.8-.05,0-.73c7.45.38,11.18.65,18.61,1.37L206,4,205.23,4a3.48,3.48,0,0,0-2.87,1.1,4.77,4.77,0,0,0-1.43,3.15q-1.83,21.35-3.64,42.68c2.81.24,4.22.38,7,.67a8.63,8.63,0,0,0,6.95-2.3,20.53,20.53,0,0,0,5.15-8.13l.56.08c-1.84,5.79-2.73,8.69-4.49,14.49-11-1.43-16.53-1.93-27.6-2.49l0-.73Z"/><path class="cls-1" d="M218.18,55.76a2.92,2.92,0,0,0,2.57-1,5.74,5.74,0,0,0,1.55-3.07q3.16-20.1,6.32-40.21a5,5,0,0,0-.68-3.37,3.46,3.46,0,0,0-2.5-1.72l-.79-.11.11-.73c7.4,1.08,11.09,1.7,18.45,3.12l-.2.71-.73-.14a3.54,3.54,0,0,0-3,.79,4.68,4.68,0,0,0-1.72,3Q234,33,230.35,53.08a5.3,5.3,0,0,0,.43,3.39,3,3,0,0,0,2.13,1.78l.64.12c0,.3-.05.44-.09.73-6.41-1.23-9.62-1.78-16.07-2.71l.1-.73Z"/><path class="cls-1" d="M238.61,59.39a2.92,2.92,0,0,0,2.63-.83,5.62,5.62,0,0,0,1.73-3q4.36-20,8.74-39.91a4.72,4.72,0,0,0-1.17-4.16,3.54,3.54,0,0,0-1.74-1L248,10.4l.15-.72c9.25,1.91,13.86,3,23,5.47a23.85,23.85,0,0,0,4.17.69,15.54,15.54,0,0,0,3.35,0l-3.57,12.34-.58-.17.25-.85a8.18,8.18,0,0,0-.09-5.55,5.68,5.68,0,0,0-3.64-3.26c-4-1.08-6-1.59-10-2.56L256,36.56c3,.72,4.46,1.1,7.43,1.88a4.53,4.53,0,0,0,3.91-.88,7,7,0,0,0,2.54-3.89l.18-.64.57.16L266.08,49.5l-.54-.15.15-.57a6.36,6.36,0,0,0-.75-5.84,4.69,4.69,0,0,0-2.22-1.5c-3-.79-4.44-1.17-7.41-1.89l-4.88,20c2.77.67,4.15,1,6.9,1.75a8.73,8.73,0,0,0,7.27-1.19A20.61,20.61,0,0,0,271,52.9l.54.16c-2.71,5.44-4,8.17-6.67,13.63-10.74-3.13-16.16-4.47-27.06-6.72l.15-.72Z"/><path class="cls-1" d="M283.26,28.2a4.73,4.73,0,0,0,4.12-3.55,6.54,6.54,0,0,0-.17-4.17,7.14,7.14,0,0,1-.08-4.52,5.62,5.62,0,0,1,2.27-3.25,3.64,3.64,0,0,1,3.21-.48,4.78,4.78,0,0,1,3.46,4.84,10.33,10.33,0,0,1-.34,3.76,14.43,14.43,0,0,1-3.6,6.06c-2.71,2.56-5.35,3.41-8,2.58a3.55,3.55,0,0,1-.94-.45C283.22,28.69,283.23,28.53,283.26,28.2Z"/><path class="cls-1" d="M292.37,53.76A21.26,21.26,0,0,0,287,62.05a17.66,17.66,0,0,0-.53,10.17,12,12,0,0,0,2.39,5,10.6,10.6,0,0,0,4.41,3.18,9.43,9.43,0,0,0,5.3.55c3.56-.71,6.26-3.11,8-7.29a12.85,12.85,0,0,0,.91-5.51,14.64,14.64,0,0,0-1.74-6.28c-2.34-4.57-3.56-6.85-6.1-11.38a14.57,14.57,0,0,1-1.45-13.05c.17-.46.35-.91.56-1.36a13.86,13.86,0,0,1,6.69-7.35,11.92,11.92,0,0,1,9.91,0,53.25,53.25,0,0,1,7.71,4c1.43.6,2.15.91,3.57,1.53-2,3.82-3,5.74-5,9.57l-.51-.22a8.19,8.19,0,0,0,.15-6.59,8.69,8.69,0,0,0-5-4.58c-3-1.21-5.6-1-7.77.65a7.28,7.28,0,0,0-2.33,3.19,5.79,5.79,0,0,0-.28,3.62,15.89,15.89,0,0,0,1.9,4.08c2.86,5,4.23,7.47,6.86,12.49a18.88,18.88,0,0,1,2.2,7.92,19.19,19.19,0,0,1-1.65,9,23.44,23.44,0,0,1-3.38,5.28A19.33,19.33,0,0,1,306.65,83a16.71,16.71,0,0,1-6.58,2.12,14.7,14.7,0,0,1-7.13-1,13.89,13.89,0,0,1-5.78-4.19c-2.81-3.4-3.84-7.82-3-13.34A19.87,19.87,0,0,1,285,63a21.45,21.45,0,0,1,7-9.89Z"/><text class="cls-2" transform="translate(71.61 93.69)">Orchid Island Juice Co.</text></g></g></svg>