<svg xmlns="http://www.w3.org/2000/svg" xmlns:xlink="http://www.w3.org/1999/xlink" viewBox="0 0 2438.31 58.52"><defs><style>.cls-1,.cls-4,.cls-5{opacity:0.7;}.cls-2,.cls-3,.cls-4,.cls-5{fill:#fff;}.cls-2,.cls-5{fill-rule:evenodd;}</style></defs><g id="레이어_2" data-name="레이어 2"><g id="레이어_1-2" data-name="레이어 1"><g class="cls-1"><path class="cls-2" d="M11,39.78v9.57h-2V40.59a1.83,1.83,0,0,0-.64-.84c.11-.14.39-.14.62-.11h1.95l.11.14ZM35.73,26.41c-.65-.39-1.32-.73-1.93-1.15a7.29,7.29,0,0,1,5.6-2.73c0-.78,0-1.48,0-2.15a7,7,0,0,1-5.61-2.7c.64-.36,1.28-.78,1.93-1.15a5,5,0,0,0,3.68,1.62V16A2.86,2.86,0,0,1,37,11.74l-1.87-1.09a5.07,5.07,0,0,0-.44,4l-2,1.14a7.19,7.19,0,0,1,.44-6.28l-1.9-1.08a8.25,8.25,0,0,1-3.15,2.93,5,5,0,0,1-2,.64V9.72a5,5,0,0,0,3.24-2.39L27.41,6.27a2.86,2.86,0,0,1-4.93,0L20.64,7.39a5.18,5.18,0,0,0,3.2,2.37c0,.75,0,1.5,0,2.26A7.38,7.38,0,0,1,18.66,8.5L16.79,9.59a7.32,7.32,0,0,1,.89,4.85,6.08,6.08,0,0,1-.44,1.37l-1.93-1.09a5.16,5.16,0,0,0-.45-4L13,11.82a2.87,2.87,0,0,1,.14,2.57A3.11,3.11,0,0,1,10.5,16.1c0,.69,0,1.48,0,2.16a5.12,5.12,0,0,0,3-1c.28-.2.53-.47.78-.64.64.39,1.31.72,1.9,1.14a7.37,7.37,0,0,1-5.65,2.76v2.11a7.25,7.25,0,0,1,5.68,2.72c-.62.39-1.32.75-2,1.14A5,5,0,0,0,12.8,25.4a4.33,4.33,0,0,0-2.26-.47v2.12a2.84,2.84,0,0,1,2.34,1.28,2.88,2.88,0,0,1,.12,3l1.86,1.06a5,5,0,0,0,.45-4c.64-.42,1.34-.75,2-1.09a7.2,7.2,0,0,1-.47,6.19c.64.37,1.25.78,1.89,1.09A7.27,7.27,0,0,1,23.83,31v2.23l-.16.06a4.56,4.56,0,0,0-3,2.4l1.86,1.09a2.94,2.94,0,0,1,2.77-1.42,2.79,2.79,0,0,1,2.14,1.37,21.49,21.49,0,0,0,1.87-1.12A5.2,5.2,0,0,0,26,33.21c0-.76.05-1.49,0-2.21a7.45,7.45,0,0,1,5.25,3.52l1.84-1.08a7.27,7.27,0,0,1-.42-6.25c.62.42,1.34.7,1.93,1.14a5,5,0,0,0,.47,4c.62-.39,1.29-.72,1.87-1.11a2.79,2.79,0,0,1-.19-2.4A2.9,2.9,0,0,1,39.4,27c0-.83,0-1.48,0-2.18a5,5,0,0,0-3.68,1.62ZM18.49,24l-.36.22A9.29,9.29,0,0,0,15,21.55a10.45,10.45,0,0,0,3.1-2.67l.39.19V24ZM20,12.88a9.56,9.56,0,0,0,3.87,1.34v.47l-4.21,2.49L19.22,17A10.35,10.35,0,0,0,20,12.88Zm0,17.29a9.85,9.85,0,0,0-.73-4.07l.37-.19,4.23,2.39,0,.48A9.77,9.77,0,0,0,20,30.17Zm.76-9.77,3.11,1.74v3.63L20.73,24V20.4ZM25,20.24l-3.09-1.78L25,16.62l3.12,1.78v.06L25,20.24Zm5,9.88a9,9,0,0,0-3.9-1.34l0-.48,4.19-2.45.44.22A9.75,9.75,0,0,0,30,30.12Zm.35-13a5.49,5.49,0,0,1-.71-.39l-3.54-2v-.47A9.16,9.16,0,0,0,30,12.85a10.11,10.11,0,0,0,.78,4c-.15.1-.25.23-.38.21Zm1.52,7.06-.42-.26V19l.39-.22A9.85,9.85,0,0,0,35,21.47a10.17,10.17,0,0,0-3.12,2.71Zm17,12.54H31.19l2-1.08H48.86Zm-30,0H.68V35.64H17.1Zm1.87,2.92v1.73c-.45-.11-.79-.52-1.24-.68a3.05,3.05,0,0,0-3.2.22,4,4,0,0,0-1.48,3.74,3.85,3.85,0,0,0,2,3c1.37.64,2.82-.15,3.94-.82v1.6a5.55,5.55,0,0,1-5.22.25A5.28,5.28,0,0,1,12.86,44,5.18,5.18,0,0,1,16,39.24a6,6,0,0,1,4.69.4ZM36,39.3a2.73,2.73,0,0,1,2,1.28,2.94,2.94,0,0,1-1.48,4.07L39,48.41a7.27,7.27,0,0,1,.68.68,14.54,14.54,0,0,1-2.17.09c-.59-.17-1-1-1.38-1.49l-2.18-3.46.28-.42c.67,0,1.34.08,1.76-.45a1.82,1.82,0,0,0,.33-1.72,1.58,1.58,0,0,0-1.14-1,5.42,5.42,0,0,0-1.45,0l-.08.2v8.35h-2c0-2.7,0-5.82,0-8.77a1.3,1.3,0,0,0-.67-1l.33-.08Zm-30.75.17a2.84,2.84,0,0,1,2.19,1.94,3,3,0,0,1-.92,3.07,4,4,0,0,1-3,.67,5.33,5.33,0,0,1-.47-1.26l0,0a2.19,2.19,0,0,0,1.78-.28,1.6,1.6,0,0,0,.56-1.73,1.49,1.49,0,0,0-1.12-1.12,6.65,6.65,0,0,0-1.48-.05l-.17.12v8.4h-2v-8.7A1.31,1.31,0,0,0,0,39.54c0-.11.2,0,.28-.07Zm42.32,1.08c-1.87-2-4.91-1.06-7.5-1.29-.06,0-.17,0-.17.12a1.65,1.65,0,0,1,.67,1c0,3.21,0,6,0,8.8,1.79,0,4,.14,5.11-.38a4.54,4.54,0,0,0,3.18-3.46,5.09,5.09,0,0,0-1.28-4.79Zm-1.23,6.08c-.8,1.14-2.14,1.14-3.51,1l-.14-.14c-.06-2.09,0-4.6,0-6.83a7.29,7.29,0,0,1,2,0,2.83,2.83,0,0,1,1.84,1.45,4.5,4.5,0,0,1-.17,4.49ZM30.08,49a2.27,2.27,0,0,1-.91-1.07l-.05-6.08L29,41.13a2.8,2.8,0,0,0-.64-1c-1.73-1.59-4.59-1.39-6.52-.38v1.71l.11-.13c1.2-.7,2.68-1.37,4.15-.78a1.66,1.66,0,0,1,1.06,1.2,1.28,1.28,0,0,1-.8,1.17c-1.43.5-3.07.61-4.19,1.73a2.63,2.63,0,0,0-.64,2.87,2.74,2.74,0,0,0,1.9,1.59,4.27,4.27,0,0,0,3.76-.87c.2.23.2.59.59.94l2.44-.07L30.08,49Zm-3.31-1.88A2.08,2.08,0,0,1,24.9,48a1.6,1.6,0,0,1-1.5-.78,1.54,1.54,0,0,1,.19-1.64c.59-.7,1.65-.78,2.43-1.09.32-.09.64-.19.95-.31A6.35,6.35,0,0,1,26.77,47.07Zm22.09,5.18H.68v-1.1H48.86v1.1Zm1.34-4.76a.85.85,0,0,1,0,1.18.77.77,0,0,1-.59.24.75.75,0,0,1-.58-.24.83.83,0,0,1-.25-.59.82.82,0,0,1,.24-.59.83.83,0,0,1,.59-.25A.82.82,0,0,1,50.2,47.49Zm.12-.12a.94.94,0,0,0-.71-.3,1,1,0,0,0-.69.28.93.93,0,0,0-.31.73,1,1,0,1,0,2,0,.94.94,0,0,0-.3-.71Zm-.58.63a.25.25,0,0,1-.16,0h-.11v-.32h.07l.17,0a.14.14,0,0,1,.09.13.15.15,0,0,1-.06.13Zm-.27.24h.22a.14.14,0,0,1,.08.09.31.31,0,0,1,0,.13.63.63,0,0,0,0,.16h.28v0a0,0,0,0,1,0,0v-.13a.32.32,0,0,0-.1-.25.34.34,0,0,0-.16-.06.37.37,0,0,0,.19-.08.22.22,0,0,0,.08-.2.28.28,0,0,0-.15-.27.48.48,0,0,0-.22,0h-.54v1.11h.3v-.39Z"/><path class="cls-2" d="M26,26V22.32l3.1-1.81v3.63Z"/></g><g id="layer1" class="cls-1"><g id="g7674"><path id="path7320" class="cls-3" d="M156.67,39.93h3.78V19h-3.78Z"/><path id="path7322" class="cls-3" d="M168.13,39.93h3.79V24.36h-3.79Z"/><path id="path7326" class="cls-3" d="M185,35.71c-1.25,2.42-2.24,4.28-2.29,4.28h-3.94l4-7.91-4.66-7.68h4.1l2.4,4,2-4h4.1s-1.93,3.86-3.9,7.73L191.51,40h-3.94L185,35.71"/><path id="path7330" class="cls-3" d="M113.1,33.2V24.36h3.59c.07,2.88-.05,6.15,0,8.87A3.46,3.46,0,0,0,120,36.72a3.28,3.28,0,0,0,3.38-3.27V24.36H127c0,4.6-.05,5.52,0,9a7,7,0,1,1-13.94-.13"/><path id="path7334" class="cls-3" d="M141.74,36.59a4.36,4.36,0,1,0-4.36-4.36,4.36,4.36,0,0,0,4.36,4.36m0-12.62a8.25,8.25,0,1,1,0,16.49,8.5,8.5,0,0,1-8.3-8.5V19h3.78l0,6.55A8,8,0,0,1,141.77,24"/><path id="path7338" class="cls-3" d="M98.85,31a4.34,4.34,0,1,0-4.34-4.34A4.34,4.34,0,0,0,98.85,31m0-12.6a8.25,8.25,0,1,1-4.45,15.26V40H90.62V26.46a8.12,8.12,0,0,1,8.24-8.1"/><path id="path7342" class="cls-3" d="M196,38.29c.22,0,.42,0,.42-.29s-.22-.25-.4-.25h-.36v.54Zm-.34,1h-.31V37.5h.7c.45,0,.67.15.67.52a.48.48,0,0,1-.48.51l.51.8h-.32l-.48-.79h-.29Zm-1-.92A1.28,1.28,0,1,0,196,37.09a1.28,1.28,0,0,0-1.28,1.32m-.35,0A1.63,1.63,0,1,1,196,40a1.6,1.6,0,0,1-1.63-1.62"/><path id="path7346" class="cls-3" d="M170.19,22.73a2.34,2.34,0,1,0-2.34-2.34,2.34,2.34,0,0,0,2.34,2.34"/></g></g><path class="cls-4" d="M272.37,35.68a.69.69,0,0,0-.51.21.72.72,0,0,0,0,1,.68.68,0,0,0,.51.21.7.7,0,0,0,.5-.21.75.75,0,0,0,.21-.5.73.73,0,0,0-.21-.5A.7.7,0,0,0,272.37,35.68Zm.16,1.2a.53.53,0,0,1,0-.14.54.54,0,0,0,0-.11.13.13,0,0,0-.07-.08h-.2v.34H272v-1h.46a.38.38,0,0,1,.19,0,.23.23,0,0,1,.12.23.18.18,0,0,1-.07.17.35.35,0,0,1-.16.06.39.39,0,0,1,.13.06.26.26,0,0,1,.09.21v.18Zm0-.67a.15.15,0,0,1,0,.12s-.07,0-.13,0h-.09v-.28h.21a.16.16,0,0,1,.06.12Zm-12.54-3c-1,0-1.44-1.19-1.44-2.82s.4-2.82,1.44-2.82,1.43,1.19,1.43,2.82S261,33.22,260,33.22Zm9-2.82c0,1.65-.4,2.83-1.43,2.83s-1.46-1.18-1.46-2.83.42-2.83,1.46-2.83S268.94,28.75,268.94,30.4ZM276.18,29h-2.6c.2-.85.61-1.4,1.29-1.4S276,28.12,276.18,29Zm8.58-7.21a19.42,19.42,0,0,0-5.07-6,27.59,27.59,0,0,0-33.06,0,19.36,19.36,0,0,0-5.07,6,15.89,15.89,0,0,0,0,14.92,19.13,19.13,0,0,0,5.07,6,27.59,27.59,0,0,0,33.06,0,19.54,19.54,0,0,0,5.07-6,15.82,15.82,0,0,0,0-14.92ZM251.6,23.46c.09,4.42-2.86,5.1-2.39,5.1,3,.05,2.46,6.05,2.52,6.41h-2.4s0-2.84,0-3.06c-.13-2.56-2.15-2.77-2.15-2.55V35h-2.27V21.54h2.27s0,5.32,0,5.73c0,0,2.36-.31,2.23-5.23a6.61,6.61,0,0,1,.44-2s0,0,0,0a1,1,0,0,1,0-.1,5.62,5.62,0,0,1,5.5-3.65c6.21,0,5.8,8.34,5.8,8.36h-2.32c-.06-.1.42-6.88-3.73-6.82-1.84,0-2.74,1.45-3.23,3a8.88,8.88,0,0,0-.33,2.67Zm2.77,6V35h-2.13V25.82H254l.22.59a2.59,2.59,0,0,1,1.52-.58,1.7,1.7,0,0,1,.78.14v2a3,3,0,0,0-1.67.53,1.16,1.16,0,0,0-.45.94Zm2.08,1c0-2.54,1.24-4.59,3.51-4.59s3.51,2.05,3.51,4.59S262.35,35,260,35,256.45,32.94,256.45,30.42ZM264.76,44c-6.19,0-5.88-7.75-5.88-7.75h2.31c0,.17-.43,6.33,3.82,6.22,3.92-.12,3.86-6,3.76-7.81a3.51,3.51,0,0,1-1.28.34C265,35,264,33,264,30.4s1.26-4.62,3.53-4.57a2.17,2.17,0,0,1,1.25.48v-.5H271v9.45C271,35.94,271.48,44,264.76,44Zm8.2-7a.84.84,0,0,1-.61.24.88.88,0,0,1-.61-.25.86.86,0,0,1-.25-.61.8.8,0,0,1,.27-.62.78.78,0,0,1,.59-.24.85.85,0,0,1,.86.86A.74.74,0,0,1,273,37Zm5.57-6.51h-4.95c0,1.59.43,2.73,1.44,2.73.83,0,1.25-.77,1.38-1.93h2.07c-.23,2.11-1.36,3.7-3.46,3.7-2.44,0-3.52-2-3.52-4.58s1.25-4.59,3.52-4.59c1.86,0,3,1.32,3.38,3.15A6.69,6.69,0,0,1,278.53,30.5ZM283.25,28a3,3,0,0,0-1.68.54,1.14,1.14,0,0,0-.43.92V35H279l0-9.15h1.73l.22.59a2.51,2.51,0,0,1,1.52-.58,1.7,1.7,0,0,1,.78.14v2Zm3.42-7a21.41,21.41,0,0,0-5.51-6.68,29.55,29.55,0,0,0-36,0,21.11,21.11,0,0,0-5.5,6.68,17.82,17.82,0,0,0,0,16.52,21.51,21.51,0,0,0,5.5,6.7,29.58,29.58,0,0,0,36,0,21.37,21.37,0,0,0,5.51-6.7,17.78,17.78,0,0,0,0-16.5ZM263.16,49.52c-13.67,0-24.75-9.07-24.75-20.26S249.48,9,263.16,9s24.74,9.07,24.74,20.26S276.83,49.52,263.16,49.52Z"/><g class="cls-1"><path class="cls-2" d="M376.89,17.51c.48.18.6,0,.78-.36l1.14-3.06c.18-.42.18-.66-.3-.84s-.6.06-.72.42l-1.2,3.06h0C376.47,17.09,376.47,17.33,376.89,17.51Z"/><path class="cls-2" d="M381,19.5c.42.24.66.06.84-.3l1.63-2.83c.24-.36.3-.6-.12-.84s-.6-.06-.84.3l-1.63,2.82C380.61,19,380.61,19.26,381,19.5Z"/><polygon class="cls-2" points="366.43 11.21 365.71 13.61 366.67 13.67 366.43 11.21"/><path class="cls-2" d="M361.81,8.38c-18.33,0-33.11,9.13-33.11,21s14.78,20.73,33.11,20.73,33.1-8.89,33.1-20.73S380.07,8.38,361.81,8.38Zm24.75,8.71,1.8,1.75c.91.9,1,1.5.36,2.16l-1.92,2c-.72.72-1.32.66-2.22-.3L382.78,21l.36-.36h0l.24.24,3.06-3.19-.24-.24Zm-3-2c1.2.72,1.44,1.5.9,2.46l-1.14,1.93c-.54,1-1.38,1.08-2.59.42s-1.44-1.51-.9-2.47L381,15.53C381.51,14.57,382.36,14.45,383.56,15.11Zm-4.87-2.28h0c1.32.48,1.74,1.2,1.32,2.28l-.78,2c-.42,1.08-1.2,1.32-2.52.84s-1.68-1.26-1.26-2.28l.78-2C376.59,12.59,377.43,12.35,378.69,12.83Zm-7.39,2.94.3.12,1.08-4.32-.3-.07.12-.48,3.37.85-.48,1.74-.91-.24.37-1.26-.79-.18-.42,1.68,1.27.36-.12.66-1.33-.36-.48,2,.36.06-.12.48-2-.54Zm-7.15-.9h0l.42.06,1.62-4.81,1.39.12.6,5h.36l-.06.48-2.17-.18.06-.48h.42l-.06-.9-1.2-.12-.24.9.42.06-.06.48-1.56-.18Zm-4.14,0h.36V10.42H360V9.94h3.54v1.81h-.9V10.48h-.84v1.75h1.32v.66h-1.32v2h.84v-1.5h1v2H360Zm-3.19-4.75a1.17,1.17,0,0,1,1,.3l-.06-.3.84-.06L358.8,12l-.84.06-.06-.72c-.06-.49-.18-.67-.54-.67s-.54.24-.48.61c.06.54.48.78,1,1.08.84.48,1.26.78,1.38,1.56A1.41,1.41,0,0,1,358,15.59a1.3,1.3,0,0,1-1.08-.3l.06.3-.9.12-.18-2,.9-.06.06.84c0,.42.24.6.66.54s.54-.24.54-.72-.18-.54-.66-.84c-1-.54-1.68-.84-1.74-1.92A1.22,1.22,0,0,1,356.82,10.12Zm-6.55,1.14.12.49-.3.06,1,4.32.9-.24-.36-1.44,1-.24.42,1.92-3.61.9-.12-.48h0l.36-.12-1-4.26-.36.06-.12-.48Zm-4.44,1.33,2.76,4.2.3-.12.18.42-2,.78-.18-.42.42-.18-.48-.78-1.08.42.12.9.42-.18.18.48-1.45.54-.18-.42.43-.18-.73-5Zm-5.89,2.64A1.91,1.91,0,0,1,341.2,15l-.18-.3.84-.48,1,1.68-.84.48-.36-.66c-.06-.12-.12-.18-.12-.24a.53.53,0,0,0-.72-.06c-.42.24-.36.48-.18.84l1.68,2.95c.18.24.36.24.66.12a.5.5,0,0,0,.24-.48l-.6-1.09-.48.3-.24-.42,1.5-.9,1.26,2.16-1,.61-.24-.36c0,.42-.24.66-.72,1h0a1.11,1.11,0,0,1-1.68-.3l-1.62-2.89C338.92,16.25,339.16,15.71,339.94,15.23Zm-2.71,1.92,1.21,1.32-.67.61-.9-1-.6.6L337.41,20l1-.9.42.48-1,.9,1.38,1.5.6-.6-1-1.08.78-.72L341,21l-2.64,2.52-.37-.36.31-.24-3.07-3.24-.24.24-.36-.36Zm-1.32,9.68.18-.3-3.9-2-.18.3-.42-.24,1-1.86L333,23l-.18.3,4,2,.42-.84-1.32-.66.42-.9,1.81.9-1.69,3.31Zm7.93,17.48-1.8-1,.3-.48.12.06c.3.18.3.06.42-.18l1.26-2.23-2.52,2.59-.78-.42.9-3.49-1.26,2.23c-.12.24-.12.3.12.48l.12.06-.3.48L339,41.55l.24-.49.18.06c.24.18.3.12.42-.12L341,39c.12-.24.18-.3-.12-.42l-.12-.12.3-.48,1.8,1-.66,2.47L344,39.62l1.87,1.08-.3.49-.12-.06c-.31-.19-.31-.12-.49.12l-1.08,2c-.18.3-.18.36.06.48l.18.12Zm5.05,1.8-2.16-.78.24-.54.12.06c.24.06.3.12.36,0v-.18l.06-.48-1-.36-.24.36c-.06.06-.12.12-.12.18s0,.18.18.24l.18.06-.18.54-1.63-.54.24-.6.12.06c.18.06.36,0,.54-.24l2-2.64,1.26.42-.24,3.24c0,.36,0,.48.24.6l.18.06Zm3.54-2.82c-.3-.12-.3-.06-.42.24l-.54,2.22c-.06.3-.06.36.24.42l.18.06-.12.54-2.22-.54.18-.54.18.06c.24.06.3,0,.36-.3l.54-2.22c.12-.3.06-.36-.18-.42l-.18-.06.12-.54,2.17.54-.12.54Zm3.79,4.26L352.73,47l.06-.6.18.06c.31.06.37,0,.37-.3l.36-2.28c.06-.3.06-.36-.24-.42h-.18l.12-.6,2.22.36-.12.6-.18-.06c-.3-.06-.3,0-.36.3l-.42,2.64h.24a1.07,1.07,0,0,0,.78-.06,1.57,1.57,0,0,0,.36-.9l.6.06Zm5.89.48a2.22,2.22,0,0,1,.06-4.44,2.22,2.22,0,0,1-.06,4.44Zm6.91-.54a.82.82,0,0,1-1.08-.84l-.06-.36c-.06-.48-.12-.66-.55-.6l-.36.06.12.9c0,.3.06.36.36.36l.19-.06.06.6-2.23.3-.06-.6.18-.06c.3,0,.3-.06.24-.36l-.24-2.28h0c-.06-.3-.06-.36-.36-.3h-.18l-.06-.6,2.58-.3c.91-.06,1.39.18,1.45.9a.91.91,0,0,1-.66,1c.6,0,.72.3.78,1.14.06.24.06.36.18.36s.12-.12.12-.42v-.18h.36v.12C369.92,47.07,369.68,47.43,369,47.49Zm3.84-.84-2,.48-.12-.54.18-.06c.3-.06.3-.12.24-.42l-.54-2.22c-.06-.3-.12-.36-.42-.3l-.18.06-.12-.6,2-.42c1.5-.36,2.34.12,2.64,1.5S374.36,46.35,372.86,46.65Zm3.31-.84-.18-.54.18-.06c.24-.12.24-.18.12-.42v-.06l-.84-2.1c-.06-.3-.12-.36-.36-.24l-.18.06-.24-.54,3.66-1.45.6,1.51h0l-.54.18a2.8,2.8,0,0,0-.54-.6.91.91,0,0,0-.78.06c-.06.06-.06.06-.12.06l-.48.18.42,1.08.18-.06c.3-.12.36-.36.18-.78l.42-.18.72,1.8-.48.12c-.18-.48-.3-.6-.66-.48l-.12.06.48,1.26.48-.24c.06,0,.06,0,.12-.06.36-.12.54-.18.6-.48a1.7,1.7,0,0,0-.12-.9l.6-.24.6,1.62ZM384.34,42c-.6.3-1,.24-1.32-.36l-.18-.3c-.31-.43-.43-.55-.79-.31l-.3.19.48.78c.12.3.18.3.42.18l.19-.12.36.54-2,1.14-.3-.48.18-.12c.24-.12.24-.24.06-.48L380,40.76h0c-.12-.3-.18-.3-.42-.18l-.18.12-.3-.54,2.22-1.32c.78-.48,1.33-.42,1.75.18a.94.94,0,0,1-.24,1.2c.6-.24.78,0,1.2.72.12.25.24.31.3.25s.06-.19-.06-.43c0-.06-.06-.06-.06-.12l.3-.18c.06,0,.06.06.12.12C384.94,41.25,384.88,41.67,384.34,42Zm-22.53-.24c-13.46,0-24.16-5.77-24.16-12.56s10.7-12.44,24.16-12.44,24.09,5.65,24.09,12.44S375.21,41.79,361.81,41.79ZM390.05,24.6l.6-.3c.48-.24.6-.42.42-.78a.51.51,0,0,0-.72-.24c-.48.24-.55.78-.6,1.38-.12.9-.25,1.45-1,1.81a1.36,1.36,0,0,1-2-.61,1.18,1.18,0,0,1-.12-1.08l-.3.12-.36-.78,1.8-.9.36.78-.72.42c-.42.18-.48.42-.3.84s.48.42.84.18.48-.36.6-.9c.18-1.08.18-1.86,1.14-2.34a1.24,1.24,0,0,1,1.75.66,1.56,1.56,0,0,1,.12,1l.24-.12.36.72-1.74.84Z"/><path class="cls-2" d="M372.08,43.17l-.3.12.66,2.88.3-.06c.54-.18.66-.66.42-1.62S372.62,43.05,372.08,43.17Z"/><path class="cls-2" d="M362.17,44.19c-.54,0-.78.54-.78,1.56s.24,1.62.78,1.62.72-.48.72-1.56S362.65,44.19,362.17,44.19Z"/><path class="cls-2" d="M381.15,39.62l-.3.18.6,1,.24-.18c.43-.18.48-.42.3-.78A.52.52,0,0,0,381.15,39.62Z"/><polygon class="cls-2" points="347.51 43.59 347.63 42.27 346.91 43.35 347.51 43.59"/><path class="cls-2" d="M367.15,44.07h-.36l.12,1.14.3-.06c.43-.06.67-.18.61-.6S367.57,44,367.15,44.07Z"/><path class="cls-2" d="M384.64,22.08c.42.42.66.36,1,0l2.16-2.22c.3-.36.24-.6-.24-1.09-.06,0-.06-.06-.12-.12l-3.06,3.19Z"/><polygon class="cls-2" points="346.55 16.07 345.23 13.91 345.59 16.37 346.55 16.07"/><path class="cls-2" d="M370.58,38.66h-.18l-.06-1h.36c.3-.06.42,0,.48.24s-.12.3-.24.3l.24.42-.24.06-.24-.42h-.12v.42Z"/><path class="cls-2" d="M370.76,38.06c.12-.06.18-.06.18-.18s-.12-.12-.24-.12l-.12.06v.24Z"/><path class="cls-2" d="M370.76,39.08a.86.86,0,0,1-1-.9.89.89,0,0,1,.9-1,1,1,0,0,1,1,.9.93.93,0,0,1-1,1Z"/><path class="cls-2" d="M370.7,37.4a.7.7,0,0,0-.66.78.64.64,0,0,0,.72.66.68.68,0,0,0,.66-.72.69.69,0,0,0-.72-.72Z"/><path class="cls-2" d="M350.69,22.44c-.18.12-.42-.3-.24-.48a11,11,0,0,0,1-.78.46.46,0,0,1,.66.6C351.83,22.26,350.81,22.38,350.69,22.44Z"/><path class="cls-2" d="M345.89,22.08a.8.8,0,0,0-1.33.36c-.48,1.74-.06,5-.24,6.91a31.38,31.38,0,0,0,0,3.36,27.29,27.29,0,0,0-.06,3.13c.12.66,1.75,1.08,2.05.18a47.25,47.25,0,0,0,.12-5.89,3,3,0,0,0-.12-.72c0-.12.12-.18.18-.3C346.85,28.39,346.55,22.74,345.89,22.08Zm-.3,13.58c0,.12-.06.18-.12.18s-.49,0-.49-.12c.12-1.38-.12-5.29,0-6.13.06-.3.3-.18.36-.18s.25,0,.25.18Zm.3-8a3,3,0,0,1-.06.84c-.06.24-.18.48-.36.42S345,28.75,345,28V25.5a21.05,21.05,0,0,1,.12-2.76c0-.18.31-.36.37.06a6.51,6.51,0,0,1,.36,2.34C345.89,26.41,346,27.13,345.89,27.61Z"/><path class="cls-2" d="M362.05,31.21a.65.65,0,0,1,.6.48c.06.18.06.42.42.54s.12.3-.06.24c-1-.24-.66-.66-1.14-.66-.3,0-.48-.24-.36-.48S361.81,31.15,362.05,31.21Z"/><path class="cls-2" d="M380.37,26.65V23.82a.85.85,0,0,0-.84-.78.76.76,0,0,0-.36.06.46.46,0,0,0-.6.06,1.68,1.68,0,0,0-.54-1.32c-.78-.72-1.14-1-2.28.36a5.82,5.82,0,0,1-3.55,2,3.28,3.28,0,0,1-2.7-.6c-.36-.24-1.14-1.38-2.05-1.5,1.51-.9,1.15-2.7-1.32-2.46.6-1.33-2.1-1.15-3.3-.6-.18-.42-.12-1-1.08-.67a22.84,22.84,0,0,0-4,2.11,9.32,9.32,0,0,0-4,.84c-.12-.12-.24-.18-.3-.24s-.3-.06-.49.12-.24.36-.11.48a.06.06,0,0,1,.06.06,4.9,4.9,0,0,0-1.75,1.68,1.36,1.36,0,0,0-1-.36A1.82,1.82,0,0,0,348.53,25a3.51,3.51,0,0,0,.12.78,1.16,1.16,0,0,0-.66,1.45c-1.2.12-1.92,2.76-.3,3.54-1.14,2.53,1.38,3.49,2.28,3.61a5.37,5.37,0,0,0,2.16.06c1.09,3.06,5.29,5.34,9.26,5.34,4.38,0,8.11-2.16,9.61-5.76l.72.84c1,1.08,1.2,3.72,2,3.12.54-.48.48-1.5.72-1.86a5.41,5.41,0,0,1,.37.42c.36.72,1.38-.18,1.68-1s-.48-2.65-.72-3.13a30.68,30.68,0,0,0-1.63-4.32,7.81,7.81,0,0,0,1.93-1.2,12.45,12.45,0,0,0,1.14-1.09h0a7.28,7.28,0,0,0,.06,1.63c.12.42.54.3.6.9.06.78-.06,1.62-.06,2.4a29.83,29.83,0,0,0-.06,4.63c.06.36.06.66.48.78s1.74.06,1.86-.3a.76.76,0,0,0,.06-.36c.06-2.22-.24-4.81-.24-7.15C379.89,27.49,380.43,27.61,380.37,26.65ZM370.16,25c.84.36,1,.9.3,1.51,0,0-.36-.55-.66-.67A1.05,1.05,0,0,0,370.16,25Zm-.36,6.13a1.68,1.68,0,0,0-.54-.78c.24-.12.42-.66.48-.84A1.14,1.14,0,0,1,369.8,31.15Zm-.3-4.62a1.29,1.29,0,0,1,.12,1.68,1.76,1.76,0,0,0-.6-.72A2.08,2.08,0,0,0,369.5,26.53Zm-.78-2.65a.78.78,0,0,1,.18,1.38,1.36,1.36,0,0,0-.54-.66A.72.72,0,0,0,368.72,23.88Zm-.12,7a1.18,1.18,0,0,1-.54,1.74,1.74,1.74,0,0,0-.18-.84A1.16,1.16,0,0,0,368.6,30.85Zm-.6-1.68a1.29,1.29,0,0,0,.6-.72,1.29,1.29,0,0,1-.06,1.32C368.3,29.41,368.24,29.29,368,29.17Zm.24-2.28a1.1,1.1,0,0,0-.6-.42,1.09,1.09,0,0,0,.42-1.09A.89.89,0,0,1,368.24,26.89Zm-7.75,6.49a1,1,0,0,1,.42,1.5,3.52,3.52,0,0,1-1.27-.18C360.55,34.4,360.67,33.68,360.49,33.38Zm3.72,3.12a7.45,7.45,0,0,0,3.13-1.62,7.16,7.16,0,0,1-5.95,2.52,7.33,7.33,0,0,1-5.77-2.52c.3,0,1.92,1.38,3.84,1.74A11,11,0,0,0,364.21,36.5Zm-2.7-1.56a3.17,3.17,0,0,0,.54-1,.76.76,0,0,0,.36.06C362.77,34.64,362.17,34.94,361.51,34.94Zm1.5-.06a2,2,0,0,0,.24-.9,1.78,1.78,0,0,0,.6-.12A1,1,0,0,1,363,34.88Zm-3.07-11.42a1,1,0,0,1,.37,1.14,1.09,1.09,0,0,0-.67-.42A.71.71,0,0,0,359.94,23.46Zm.61,2.22a1,1,0,0,1-.12,1.33,2.3,2.3,0,0,0-.37-.6A.91.91,0,0,0,360.55,25.68Zm0,1.93h0c.36.36.48.66.3,1a1.41,1.41,0,0,0-.6-.3A4.69,4.69,0,0,0,360.55,27.61Zm-.18-4.45c.24-.36.12-.54.18-.72h0a.69.69,0,0,1,.42,1A1,1,0,0,0,360.37,23.16Zm.12-1.38c.66-.42,1.62.06,1.14.66A3,3,0,0,0,360.49,21.78Zm.72,7.39a.85.85,0,0,1,.66.6,1.35,1.35,0,0,0-.84.06A2.73,2.73,0,0,0,361.21,29.17Zm.6-1.08a1.05,1.05,0,0,0-.6-.54,1.82,1.82,0,0,0,.6-.54h0A1,1,0,0,1,361.81,28.09ZM361.63,26a1.36,1.36,0,0,0-.54-.66.72.72,0,0,0,.36-.72C362.23,25,362.35,25.32,361.63,26Zm0-2.1a.87.87,0,0,0,.3-.72,1,1,0,0,1,.36,1.14A1.26,1.26,0,0,0,361.63,23.88Zm1.44-1a1.41,1.41,0,0,0-.6-.48,2.05,2.05,0,0,0,.12-.78A1.11,1.11,0,0,1,363.07,22.92Zm.24,1.38a.86.86,0,0,1,.18,1.14,2.87,2.87,0,0,0-.66-.36A1.13,1.13,0,0,0,363.31,24.3Zm-.6,1.68a.92.92,0,0,1,0,1.21,2.27,2.27,0,0,0-.54-.48A2.1,2.1,0,0,0,362.71,26Zm.06,2c.3.42.48,1.08-.06,1.38a1.9,1.9,0,0,0-.54-.66A1,1,0,0,0,362.77,28Zm.84,1.56a1,1,0,0,1,0,1.08,1.05,1.05,0,0,0-.6-.54A2.88,2.88,0,0,0,363.61,29.53Zm-.24-1.92a1,1,0,0,0,.48-.78,1,1,0,0,1-.06,1.38A3.78,3.78,0,0,0,363.37,27.61Zm2.4-5.65a.93.93,0,0,1,.66,1.26,3.77,3.77,0,0,0-.9-.48A1.07,1.07,0,0,0,365.77,22Zm1,2.94a.91.91,0,0,1,.24,1.45,1.48,1.48,0,0,0-.6-.43A1.05,1.05,0,0,0,366.73,24.9Zm.12,8.29a1.86,1.86,0,0,1-.78.42,1.41,1.41,0,0,0,.06-.84c.54-.12,1-.48,1-.84h0A.79.79,0,0,1,366.85,33.19Zm-1-1.86c.78-.18,1,1.14-.42.84A1.62,1.62,0,0,0,365.89,31.33ZM365.11,30c.36-.18.66-.54.66-.72.72.42.78.84,0,1.38A2.1,2.1,0,0,0,365.11,30Zm1.68-1.86a1.57,1.57,0,0,0,.3-1h0c.49.24.67,1.26.18,1.56A2.65,2.65,0,0,0,366.79,28.15Zm-1.2-4.45c.78.36.66,1.08.24,1.56-.18-.24-.24-.72-.6-.78A.94.94,0,0,0,365.59,23.7Zm.12,3.07h0a1,1,0,0,1,.06,1.56,1.74,1.74,0,0,0-.66-.66A1.51,1.51,0,0,0,365.71,26.77ZM365,22.32a3.5,3.5,0,0,0-1.32-.78C364.57,20.94,365.53,21.54,365,22.32Zm-1,.24a1.13,1.13,0,0,1,.54,1.56,1.54,1.54,0,0,0-.78-.6A1.17,1.17,0,0,0,364,22.56Zm0,3.3a1.12,1.12,0,0,0,.6-1.08,1.27,1.27,0,0,1,.12,1.93A3.72,3.72,0,0,0,364,25.86Zm.66,3.61a1.2,1.2,0,0,0-.48-.6.88.88,0,0,0,.54-.6A1.1,1.1,0,0,1,364.63,29.47Zm.06,1c.36.3.66.78-.06,1.32-.18-.18-.54-.36-.54-.6A.78.78,0,0,0,364.69,30.49Zm.6,2.4a1.2,1.2,0,0,1-1,1.63,1.93,1.93,0,0,0,.18-.85A1.1,1.1,0,0,0,365.29,32.89Zm2-1.8a1.87,1.87,0,0,0-.42-.54.87.87,0,0,0,.54-.9A.9.9,0,0,1,367.33,31.09Zm.37-7a2,2,0,0,0-.61-.3,1.49,1.49,0,0,0,.18-1C367.94,22.92,368.36,23.58,367.7,24.06ZM362,19.92c0,.24.06.42.3.24a4.85,4.85,0,0,1,2-.6c.72,0,1,.06.9.24s-.12.36.18.36a4.34,4.34,0,0,1,1.68.18c.49.18.79.9-.18,1.44a1.27,1.27,0,0,0-1.32-.54c-.54-.66-2-.66-3.06-.12-.18-.54-1.62-.84-2.4-.24a2.11,2.11,0,0,0-.91-.24C361.09,19.74,362,19.26,362,19.92ZM350.27,24a.93.93,0,0,1,.84.6l-.36.24a.45.45,0,0,0-.42-.36.34.34,0,0,0-.36.3l-.6-.18h0A1.18,1.18,0,0,1,350.27,24Zm-1.44,9a1,1,0,0,1-.66-1c0-.48.24-.78.66-.78a14.28,14.28,0,0,0,3.91-.66c3.6-1.32,3.84-3.12,4.08-4.45.24-.9-.06-1,.6-2,.48-.66-.3-.6-.42-.42a.84.84,0,0,1-.72.48.85.85,0,0,1-.84-.42c-.18-.18-.72,0-.42.42s1,.48,1.08,1.14a3.61,3.61,0,0,1-1.44,3.25,9.52,9.52,0,0,1-6.31,1.8c-1.38-.18-1.38-1.86-.24-2,.6,0,1,.12,2,.12a11.38,11.38,0,0,0,3.61-.6,5.62,5.62,0,0,0,.72-.36,3.07,3.07,0,0,0,.78-.9,1.38,1.38,0,0,0,.24-.91c0-.12-.18-.18-.3,0s-.18.18-.18.31a3.5,3.5,0,0,1-.66.9,3.08,3.08,0,0,1-.84.48,8.42,8.42,0,0,1-3,.54c-1.26-.06-2-.24-2.1-.42-.42-.6.66-1.08.66-1.08a1.62,1.62,0,0,0,2.64-.49,1.57,1.57,0,0,0,1,.85,1.78,1.78,0,0,0,2-1.39,1.69,1.69,0,0,0-1.14-2.1,1.52,1.52,0,0,0-1.57.48,4.38,4.38,0,0,1,1.51-1.44c.18.12,1,.48,1.14.24s-.24-.54-.42-.66a7.41,7.41,0,0,1,1.38-.48h0c2-.48,2.1.48,2.16.66.54-.54,1.32-1,1.92-.54.12.06-.24.42-.54.54a4.38,4.38,0,0,0-.78.54c-.18.12-.48.72.12.3.3-.24.6.36.6.66a.66.66,0,0,1-.18.72c-.3.12-.3.36,0,.3s.6.3.6.67a1,1,0,0,1-.36,1c-.3.12-.48.48-.12.36s.6.42.54.78-.06.72-.3.84-.24.48.06.42.66.24.66.72,0,.66-.12.84-.3.36.12.36a6,6,0,0,1,1.87-.18c1.14.24,1.14.6,1.5,1.2s1.08.54,1,1.14-1.14.67-1.56.67a3.72,3.72,0,0,1-2.4-1.45c-.67-1-.85-1.08-1-.9s-.12.66,0,.84a2.63,2.63,0,0,1,.3.54c.13.12.13.3-.06.36s-.42,0-.3.31-.12,1.14-.42,1.38-.6.18-1,.12a13.9,13.9,0,0,0-3.12-1c-.48,0-.54-.24-.06-.61a8.34,8.34,0,0,0,1.92-2,3.85,3.85,0,0,0,.78-1.92c0-1.08-.24-1.26-.42-1.2-.48.12-.18.6-.18,1.26a4.09,4.09,0,0,1-1.14,2.22,6.21,6.21,0,0,1-3.61,1.87A9.52,9.52,0,0,1,348.83,33Zm3.48-8.29a.93.93,0,0,1,.85-.6.77.77,0,0,1,.78.54l-.36.3a.39.39,0,0,0-.36-.36h0a.43.43,0,0,0-.41.42Zm9.44,14.66c-4.15.12-8.11-2.4-9-4.86a7.94,7.94,0,0,0,1.69,0c1.62,2.82,4.92,3.9,7.81,3.66a7.35,7.35,0,0,0,6.55-4.32,6.11,6.11,0,0,0,1.26-.73l.48.78C368.84,38.12,364.51,39.2,361.75,39.32Zm9.13-10.21a1.14,1.14,0,0,0-.6-.3c.24-.36.3-.48.3-.66C370.94,28.45,371.06,28.75,370.88,29.11Zm.6-2.58a2,2,0,0,0,.72,1,.62.62,0,0,1-.48.42,1.58,1.58,0,0,0-.66-.6C371.36,27.07,371.54,26.65,371.48,26.53Zm.36,3.6c-.06-.3-.12-.42-.36-.42a1.38,1.38,0,0,0,.42-1.08C372.56,29.05,372.5,29.65,371.84,30.13Zm3.25,2.34a4.72,4.72,0,0,1,.72,2.83c-.24.6-.66.84-.84.42a4.41,4.41,0,0,0-2-2c-1.44-.79-1.92-1.45-1.62-2.29.06-.42.12-.66.42-.66h0a2.39,2.39,0,0,0,1.2-.42,5.53,5.53,0,0,0,1-.78A29.75,29.75,0,0,1,375.09,32.47Zm-2.47-4a.65.65,0,0,0,.54-.48.63.63,0,0,1,.06,1.14A1.27,1.27,0,0,0,372.62,28.45Zm4.45-3.79a8.88,8.88,0,0,1-2.59,2.41,1.61,1.61,0,0,1-2.1-.18,1.09,1.09,0,0,1-.12-1.27c.24-.36.18-.54,1.62-1.14a4.46,4.46,0,0,0,2.23-1.68c.42-.36.6-1.26,1.2-.72S377.91,23.58,377.07,24.66Zm2.46,2.53c-.3.36-.24.36-.3.9,0,.36-.06,4.2.12,6.85a.36.36,0,0,1-.72,0c-.12-.6.12-6.13.06-6.85s-.24-.66-.48-1-.18-.54-.18-.85v-1.5a5.85,5.85,0,0,0,.3-.66l.06,2c0,.13.06.19.18.19s.12-.07.12-.19V23.82a.19.19,0,0,1,.18-.18.27.27,0,0,1,.18.18v2.34c0,.13.06.19.12.19a.17.17,0,0,0,.18-.19V23.82a.19.19,0,0,1,.18-.18.27.27,0,0,1,.18.18h0s-.06,1.56,0,2.46A1.31,1.31,0,0,1,379.53,27.19Z"/></g><g class="cls-1"><path class="cls-3" d="M478.45,38.16l.33,5.17h.08a11.23,11.23,0,0,1,.62-1.6l1.78-3.57h2.89l.44,5.17h.08a10.75,10.75,0,0,1,.55-1.53L487,38.16h3.93l-5.31,8.66h-3.29L482,42.11h-.13a6.73,6.73,0,0,1-.44,1.31l-1.69,3.4h-3.21l-2-8.66Z"/><path class="cls-3" d="M490.61,38.16h3.64l-.56,2.92H496l.55-2.92h3.64l-1.65,8.66h-3.63l.57-3h-2.32l-.57,3H489Z"/><path class="cls-3" d="M510.85,42.51c-.53,2.78-3.42,4.44-6.59,4.44s-5.43-1.66-4.9-4.44S502.8,38,506,38s5.4,1.76,4.89,4.48Zm-7.7.05c-.19,1,.49,1.66,1.63,1.66A2.18,2.18,0,0,0,507,42.56c.17-.92-.43-1.69-1.62-1.69A2.23,2.23,0,0,0,503.15,42.56Zm8.52-4.4h3.78L514.33,44h3.17L517,46.82H510Zm14.76,5.56.17.13a3.74,3.74,0,0,0,2.2.79c.37,0,1-.13,1.06-.52s-.41-.42-.74-.48l-.74-.12c-1.43-.22-2.53-.94-2.28-2.29.39-2.06,2.86-3.2,5.11-3.2a6.35,6.35,0,0,1,3.15.75L532.92,41a3.73,3.73,0,0,0-2.06-.65c-.33,0-.84.1-.9.45s.4.37.67.43l.83.16c1.54.3,2.56,1,2.28,2.48-.39,2.06-2.84,3.08-5.09,3.08a9.62,9.62,0,0,1-3.84-.79l1.62-2.44Z"/><path class="cls-3" d="M539.39,43.68l-.15-1.52a10.47,10.47,0,0,1,0-1.12h-.14l-1.19,2.64Zm-3.28,3.14h-4l5.26-8.66h4.17l2.06,8.66h-4l-.14-1.08h-2.85l-.51,1.08Z"/><path class="cls-3" d="M544.93,38.16h3.77L547.59,44h3.17l-.53,2.78h-6.94Zm7.64,0h7l-.45,2.37h-3.19l-.15.82h2.9l-.42,2.25h-2.91l-.16.85h3.29L558,46.82h-7.09Z"/><path class="cls-3" d="M501.37,22.61l4.76-.18-4,13.18h8.54l4-13.18,4.66.18,1.9-6.25h-18l-1.89,6.25ZM483.67,26c-1.2,6.18-7.75,9.88-14.93,9.88s-12.29-3.7-11.1-9.88,7.8-10,14.95-10S484.84,20,483.67,26Zm-17.43.1c-.43,2.2,1.09,3.71,3.68,3.71s4.69-1.51,5.11-3.71c.4-2-.95-3.75-3.67-3.75a5,5,0,0,0-5.12,3.75Z"/><path class="cls-3" d="M481,34.15a22.45,22.45,0,0,0,8.71,1.76c5.08,0,10.64-2.27,11.53-6.86.63-3.27-1.68-4.86-5.18-5.52l-1.86-.36c-.63-.13-1.67-.23-1.53-.94s1.29-1,2-1a8.65,8.65,0,0,1,4.68,1.45l3.27-4.93a14.49,14.49,0,0,0-7.14-1.68c-5.11,0-10.69,2.55-11.58,7.12-.58,3,1.92,4.62,5.16,5.11l1.67.25c.75.13,1.86.21,1.69,1.08s-1.56,1.14-2.4,1.14a8.53,8.53,0,0,1-5-1.76l-.38-.28L481,34.15Zm56.87-17.31a19.87,19.87,0,0,0-5.59-.79c-6.9,0-13.16,4.49-14.25,10.11s3.36,9.75,10.06,9.75a24.85,24.85,0,0,0,6.24-.76L536,28a9,9,0,0,1-5.24,1.79c-2.56,0-4.46-1.64-4-3.76s2.82-3.75,5.37-3.75a6.91,6.91,0,0,1,4.65,1.94l1.17-7.33Zm13.69-.79c-7.15,0-13.77,3.93-14.94,10s3.92,9.88,11.1,9.88,13.72-3.7,14.92-9.88S558.71,16.05,551.57,16.05Zm-1.23,6.33c2.72,0,4.07,1.71,3.68,3.75a4.93,4.93,0,0,1-5.12,3.71c-2.59,0-4.11-1.51-3.68-3.71a5,5,0,0,1,5.12-3.75Zm-90.49-9.86a25.46,25.46,0,0,0-7-1c-8.6,0-16.42,5.44-17.77,12.23-1.33,6.63,4.18,11.78,12.55,11.78a31.34,31.34,0,0,0,7.77-.92l2.05-8.71a11.49,11.49,0,0,1-6.54,2.17c-3.19,0-5.56-2-5.05-4.54S449.41,19,452.6,19a8.75,8.75,0,0,1,5.79,2.35l1.46-8.86Z"/><path class="cls-3" d="M557.39,34.67a1.69,1.69,0,0,1,1.69-1.21c.81,0,1.36.54,1.23,1.21a1.7,1.7,0,0,1-1.69,1.22C557.8,35.89,557.26,35.35,557.39,34.67Zm2.54,0c.1-.54-.29-.89-.91-.89a1.18,1.18,0,0,0-1.25.89c-.1.54.27.9.91.9A1.2,1.2,0,0,0,559.93,34.67Zm-.52.64H559l-.24-.54h-.24l-.11.54h-.32l.24-1.27h.74c.33,0,.51.09.45.39a.42.42,0,0,1-.41.34l.27.54Zm-.47-.78c.16,0,.3,0,.33-.14s-.12-.11-.28-.11h-.35l0,.25Z"/><path class="cls-3" d="M435.71,46.83h40l-.5-2.2H435.71Zm0-3.14H475l-.51-2.22H435.71Zm0-3.16h38.51l-.17-.81-.35-1.54h-38Zm83.61-2.37h7l-.45,2.37h-3.18l-.16.82h2.91L525,43.6h-2.9l-.17.85h3.3l-.45,2.37h-7.1Z"/></g><g class="cls-1"><path class="cls-3" d="M720.07,24.08a1.36,1.36,0,0,0,1.44-.89l.74-8.3c0-.82-1-1.5-2.17-1.5s-2.17.68-2.17,1.5l.73,8.3a1.36,1.36,0,0,0,1.44.89h0m-4.48,2.59a1.37,1.37,0,0,0-.05-1.69l-6.83-4.78c-.7-.42-1.77.08-2.37,1.13s-.5,2.21.21,2.62l7.55,3.52a1.37,1.37,0,0,0,1.49-.81h0m9,0a1.38,1.38,0,0,0,1.49.81L733.6,24c.72-.41.82-1.58.22-2.62s-1.67-1.55-2.38-1.13L724.61,25a1.37,1.37,0,0,0,0,1.69h0m-4.49,7.79a1.35,1.35,0,0,1,1.44.88l.74,8.3c0,.82-1,1.49-2.17,1.49s-2.17-.67-2.17-1.49l.73-8.3a1.35,1.35,0,0,1,1.44-.88h0m4.49-2.6a1.37,1.37,0,0,1,1.49-.8l7.55,3.52c.72.41.82,1.58.22,2.62s-1.67,1.54-2.38,1.13l-6.83-4.78a1.37,1.37,0,0,1,0-1.69h0m-9,0a1.37,1.37,0,0,1-.05,1.69l-6.83,4.78c-.7.41-1.77-.08-2.37-1.13s-.5-2.21.21-2.62l7.55-3.52a1.37,1.37,0,0,1,1.49.8h0"/><path class="cls-3" d="M677,33.52A2.44,2.44,0,0,1,674.42,36a1.71,1.71,0,0,1-1.86-1.83c0-1.9,2.09-2.42,4.47-2.41v1.72Zm3.74-3.31c0-3.13-1.34-5.89-5.87-5.89a10.74,10.74,0,0,0-5.17,1.23l.74,2.52A7.56,7.56,0,0,1,674.24,27c2.3,0,2.67,1.3,2.67,2.14v.2c-5,0-8.16,1.72-8.16,5.25a4.17,4.17,0,0,0,4.41,4.18,5,5,0,0,0,4-1.79h.09s.57,2.39,3.72,1.47a19.63,19.63,0,0,1-.22-3.33V30.21m-78-10.16,3.8,15.57c.6,2.54,1.7,3.48,4.87,2.84l2-8.3c.51-2.06.86-3.54,1.19-5.63h.06c.24,2.12.57,3.57,1,5.64,0,0,.84,3.77,1.26,5.75s1.62,3.22,4.71,2.54l4.87-18.41h-3.93L621,28c-.45,2.32-.85,4.13-1.16,6.25h-.06c-.28-2.1-.64-3.84-1.1-6.1L617,20.05h-4.09L611,28c-.52,2.4-1,4.34-1.32,6.39h-.06c-.32-1.93-.74-4.37-1.2-6.69,0,0-1.1-5.66-1.49-7.61h-4.14M634,33.52A2.47,2.47,0,0,1,631.41,36a1.71,1.71,0,0,1-1.86-1.83c0-1.9,2.09-2.42,4.48-2.41v1.72Zm3.73-3.31c0-3.13-1.34-5.89-5.86-5.89a10.76,10.76,0,0,0-5.18,1.23l.74,2.52A7.56,7.56,0,0,1,631.23,27c2.3,0,2.67,1.3,2.67,2.14v.2c-5,0-8.16,1.72-8.16,5.25a4.17,4.17,0,0,0,4.41,4.18,5,5,0,0,0,4-1.79h.09s.57,2.39,3.72,1.47a19.63,19.63,0,0,1-.22-3.33V30.21M644,34.56V20.05h-3.74V38.47H644V34.56m48.93-14.51V33.64c0,1.87.35,3.18,1.1,4a4.17,4.17,0,0,0,3.05,1.16,8.89,8.89,0,0,0,2.7-.4l0-2.92a5.92,5.92,0,0,1-1.42.16c-1.27,0-1.7-.81-1.7-2.49v-5.2h3.26V24.41H696.6V20.05h-3.68m-9.66,4.58V38.47h3.86V31.38a5.34,5.34,0,0,1,.08-1,2.92,2.92,0,0,1,3-2.43,7.16,7.16,0,0,1,1.12.1V24.41a3.63,3.63,0,0,0-.85-.09,4.08,4.08,0,0,0-3.77,2.92h-.1V24.63h-3.39m-36.65,0V38.47h3.76V30.35a3.3,3.3,0,0,1,.18-1.13,2.55,2.55,0,0,1,2.28-1.77c1.52,0,2.23,1.28,2.23,3.13v7.88h3.75V30.25a3.75,3.75,0,0,1,.16-1.12,2.37,2.37,0,0,1,2.25-1.68c1.54,0,2.28,1.26,2.28,3.44v7.57h3.76V30.32c0-4.3-2.18-6-4.65-6a5,5,0,0,0-2.73.75,5.83,5.83,0,0,0-1.75,1.72h0a4,4,0,0,0-3.82-2.47,4.34,4.34,0,0,0-4,2.19h-.06V24.63h-3.57"/><path class="cls-3" d="M735.5,37.79h.06c.07,0,.12,0,.12-.07s0-.09-.12-.09h-.06v.15Zm0,.38h-.2v-.66l.29,0a.49.49,0,0,1,.26,0,.18.18,0,0,1,.07.15c0,.06-.06.12-.15.14h0a.2.2,0,0,1,.13.17,1,1,0,0,0,.05.16h-.23a.47.47,0,0,1,0-.14c0-.07,0-.1-.11-.1h-.07v.24Zm.08-.87a.53.53,0,0,0,0,1.06.5.5,0,0,0,.51-.53.51.51,0,0,0-.51-.53Zm0-.17a.71.71,0,0,1,.72.7.73.73,0,1,1-.73-.7h0"/></g><g class="cls-1"><path class="cls-3" d="M822.18,47.16A99.67,99.67,0,0,1,792,42.65a33.64,33.64,0,0,1-9.86-4.74,22,22,0,0,1-4.29-4.16,7.43,7.43,0,0,1,0-9.11,18.7,18.7,0,0,1,6.61-5.53A53.18,53.18,0,0,1,798.63,14a116,116,0,0,1,31.43-2.49,94.79,94.79,0,0,1,25.61,4.39,33.68,33.68,0,0,1,9.75,4.7,21.74,21.74,0,0,1,4.29,4.17,7.41,7.41,0,0,1,0,9,18.18,18.18,0,0,1-6.47,5.5,53.9,53.9,0,0,1-14.7,5.3A116.6,116.6,0,0,1,822.18,47.16Zm2.44-34.61a120.15,120.15,0,0,0-22.11,1.89,61.78,61.78,0,0,0-16.3,5.1,20,20,0,0,0-6.76,5c-2.56,3.09-2.61,6.5,0,9.51a20.26,20.26,0,0,0,3.92,3.35,37.13,37.13,0,0,0,11.26,4.84,114.13,114.13,0,0,0,54.15,1.06,46,46,0,0,0,12.72-4.43,28.29,28.29,0,0,0,5.79-4.06c3.66-3.44,3.58-7.54,0-11.09a12.73,12.73,0,0,0-3-2.39,69.92,69.92,0,0,0-9.06-4.19C845.08,13.6,834.47,12.66,824.62,12.55Z"/><path class="cls-3" d="M789.55,32.68l1.12-2c.94.26,1.84.46,2.7.75a.88.88,0,0,0,1.25-.52c.88-1.63,1.88-3.19,2.69-4.85a2.15,2.15,0,0,1,2.51-1.45,8.86,8.86,0,0,0,1.29,0l-3.54,7.33a6.87,6.87,0,0,0,4.48-1.26c1.89-1.44,1.81-4.51-.12-6.27s-6.27-2.24-8.53-.81c-.36.22-.83.77-.77,1.07a1.64,1.64,0,0,0,1,1,21,21,0,0,0,2.77.48c-.3,1.07-.72,2-2,2.08a4.49,4.49,0,0,1-4.25-2,2.8,2.8,0,0,1,.58-3.43,8.83,8.83,0,0,1,6.78-2.35A14.2,14.2,0,0,1,802.89,22c2.62,1.37,3.56,3.84,3.24,6.73-.28,2.61-1.94,4.16-4.27,5.06C797.64,35.43,793.66,34.47,789.55,32.68Z"/><path class="cls-3" d="M840.2,36.7c.45-1.13.85-2.15,2.47-2A3,3,0,0,0,845.55,33c.81-1.37,1.65-2.73,2.47-4.09l-.33-.35c-.85.7-1.74,1.36-2.52,2.13-.12.11.25.71.44,1.2-.1.17-.3.47-.46.79-.3.59-.76,1.09-1.4.75a2.72,2.72,0,0,1-1.29-1.35,2.61,2.61,0,0,1,.29-1.84,8.31,8.31,0,0,1,7.4-4.6c1.39,0,1.62.32,1.05,1.53-1.34,2.88-2.55,5.82-4.84,8.14A5.52,5.52,0,0,1,840.2,36.7Z"/><path class="cls-3" d="M829.41,22.52,825,31.24a3.56,3.56,0,0,0,2.93-2.14c0-.18,0-.47-.07-.56-1-.82-.17-1.47.27-2,.27-.34.93-.71,1.24-.59.48.17,1.11.72,1.16,1.16a5.07,5.07,0,0,1-.36,2.56A8.25,8.25,0,0,1,825,34.06a2.33,2.33,0,0,1-2.68-.47c-.7-.84-.38-1.74.06-2.6q1.68-3.27,3.34-6.56C826.78,22.34,826.79,22.34,829.41,22.52Z"/><path class="cls-3" d="M855.94,25.46c1.45-.37,1.94.36,2.09,1.52a15.54,15.54,0,0,1,.4,2.84c-.16,3-1.82,4.19-4.92,3.79,0-.89,0-1.66,1.23-1.91s1.7-1.08,1.57-2.8c-2.18,2.11-4.34,4-7.49,4.71.61-1.35,1.11-2.37,2.39-3A8.84,8.84,0,0,0,855.94,25.46Z"/><path class="cls-3" d="M833.39,31.29c0-.94.08-1.69,1.11-2.09.48-.18.78-.82,1.25-1.35-1.68-.14-3.53,2-3,3.32A1.77,1.77,0,0,0,834,32a9.07,9.07,0,0,0,2.13-.15c-.31,1.64-1.1,2.2-2.94,2.12a2.47,2.47,0,0,1-2.6-2.32c-.32-2.66,2.41-5.86,5.09-5.83a2.3,2.3,0,0,1,1.69.85,2.5,2.5,0,0,1-.32,2.93A4.85,4.85,0,0,1,833.39,31.29Z"/><path class="cls-3" d="M815.77,31.9c-.61,1.83-1.72,2.45-3.62,2.05a2.66,2.66,0,0,1-2-3.22,6.15,6.15,0,0,1,4.61-4.87,1.92,1.92,0,0,1,2.45,2.33c-.21,1.75-1.86,2.95-4.25,3,0-.86.08-1.58,1.08-2,.49-.21.79-.86,1.34-1.5-1.6.18-3.15,1.69-3.19,2.84,0,.9.39,1.5,1.33,1.51C814.26,32.08,815,32,815.77,31.9Z"/><path class="cls-3" d="M815.6,34c.93-1.87,1.75-3.52,2.56-5.17a11,11,0,0,0,.67-1.54c.42-1.41,1.47-1.82,2.42-1.19l2.55-.34c-.39,1.3-.32,2.69-2,2.65-.32,0-.75.55-1,.94a23.09,23.09,0,0,0-1.62,3.22A1.92,1.92,0,0,1,816.81,34,7.64,7.64,0,0,0,815.6,34Z"/><path class="cls-3" d="M844.63,25.87c-.42.87-.67,1.46-1,2-.12.2-.42.45-.61.43-1.06-.12-1.51.53-1.9,1.34-.48,1-1.08,2-1.49,3A1.84,1.84,0,0,1,837.37,34a6.8,6.8,0,0,0-1.13,0c.16-.43.27-.74.41-1,1-2.16,1.83-4.35,2.93-6.43.23-.43,1.29-.45,2-.6a6.37,6.37,0,0,1,1.07,0C843.23,25.94,843.82,25.9,844.63,25.87Z"/><path class="cls-3" d="M804.57,33.9c.93-1.82,1.83-3.59,2.74-5.36.14-.29.29-.57.43-.86,1-2,1.14-2,3.63-1.58-.64,1.24-1.25,2.44-1.86,3.64l-1.2,2.35C807.2,34.24,807.2,34.24,804.57,33.9Z"/><path class="cls-3" d="M809,23.92c2.15-1.33,2.18-1.33,3.52.38C810.7,25.74,810.42,25.71,809,23.92Z"/></g><g class="cls-1"><path class="cls-3" d="M952.15,12.17A21.31,21.31,0,0,1,947.56,18a21.2,21.2,0,0,1-9.72,5.24,20,20,0,0,1-4.77.26,15.61,15.61,0,0,0-6,.72c-.36.15-.71.32-1.17.52a23.3,23.3,0,0,1,12.45-10.61,13.84,13.84,0,0,1,4.82-.82c1.54,0,3.07.07,4.6,0a10.48,10.48,0,0,0,4.16-1.05C952,12.16,952,12.09,952.15,12.17Z"/><path class="cls-3" d="M922.17,41.91c-.17,0-.24.07-.32.13a6.9,6.9,0,0,1-7.09.88,5.49,5.49,0,0,1-3.41-4.72,17.37,17.37,0,0,1-.09-2.39c0-2.78,0-5.56,0-8.34,0-.35.08-.48.45-.46.72,0,1.45,0,2.17,0,.36,0,.43.11.43.45,0,3,0,6.08,0,9.12a5.19,5.19,0,0,0,.37,2.06,4,4,0,0,0,7.47-1.74c0-3.12,0-6.24,0-9.35,0-.41.09-.57.52-.54a19.64,19.64,0,0,0,2,0c.38,0,.48.1.48.49q0,7,0,14.09c0,.46,0,.92,0,1.38,0,.22-.07.3-.29.3-.8,0-1.59,0-2.39,0-.25,0-.32-.1-.31-.33S922.17,42.25,922.17,41.91Z"/><path class="cls-3" d="M932.41,28.46a6.09,6.09,0,0,1,3.25-1.56c2.61-.35,4.93.16,6.55,2.47a6.53,6.53,0,0,1,1.07,3.79c0,3.23,0,6.45,0,9.67,0,.35-.08.46-.43.44-.69,0-1.39,0-2.07,0-.39,0-.52-.07-.52-.49q0-4.43,0-8.85a5.61,5.61,0,0,0-.46-2.46,3.72,3.72,0,0,0-4.08-1.91c-2.18.33-3.32,1.73-3.32,4.13,0,3,0,6.05,0,9.07,0,.4-.09.54-.5.51-.71,0-1.41,0-2.12,0-.32,0-.41-.09-.41-.41,0-2.36,0-4.73,0-7.09q0-4.16,0-8.29c0-.35.07-.49.45-.47.75,0,1.5,0,2.26,0,.23,0,.33.06.32.31S932.41,28,932.41,28.46Z"/><path class="cls-3" d="M948.1,36.34c0-2.12,0-4.24,0-6.36,0-.39-.11-.48-.49-.47-.66,0-1.32,0-2,0-.26,0-.39-.05-.37-.35,0-.57,0-1.14,0-1.7,0-.28.07-.38.36-.37.7,0,1.41,0,2.12,0,.28,0,.36-.09.36-.37a29.06,29.06,0,0,1,.09-3.49,5.75,5.75,0,0,1,5.56-5.17,9.1,9.1,0,0,1,1.88.06c.24,0,.34.12.33.37,0,.66,0,1.32,0,2,0,.34-.12.36-.4.33a3.71,3.71,0,0,0-3.77,1.48,4.54,4.54,0,0,0-.68,2.54c0,.63,0,1.26,0,1.89,0,.32.12.38.4.38,1.34,0,2.67,0,4,0,.37,0,.47.12.45.47a11,11,0,0,0,0,1.52c0,.38-.12.44-.47.44-1.3,0-2.61,0-3.91,0-.38,0-.48.09-.48.48,0,4.25,0,8.5,0,12.76,0,.43-.12.54-.54.52-.7,0-1.41,0-2.12,0-.31,0-.38-.1-.37-.39C948.11,40.7,948.1,38.52,948.1,36.34Z"/><path class="cls-3" d="M922.21,24.89c.68-1.75.3-3.48,0-5.19a11.72,11.72,0,0,1,1.55-7.77,14.31,14.31,0,0,1,3.45-4.21,1.57,1.57,0,0,1,.58-.37c-.73,1.93-.19,3.82.07,5.7a11,11,0,0,1-.86,5.71,14.68,14.68,0,0,1-4.37,5.88A.86.86,0,0,1,922.21,24.89Z"/><path class="cls-3" d="M962,35.24c0,2.53,0,5.06,0,7.59,0,.34-.09.45-.44.44-.73,0-1.47,0-2.21,0-.26,0-.37-.05-.37-.35q0-7.74,0-15.47c0-.31.12-.35.38-.34.73,0,1.47,0,2.21,0,.36,0,.43.11.43.45C962,30.11,962,32.67,962,35.24Z"/><path class="cls-3" d="M960.47,21.36c.39,0,.79,0,1.19,0,.23,0,.34.05.33.31q0,1.17,0,2.34c0,.24-.09.32-.32.32h-2.39c-.21,0-.3-.06-.3-.29,0-.79,0-1.59,0-2.39,0-.22.07-.3.29-.29C959.67,21.37,960.07,21.36,960.47,21.36Z"/><path class="cls-3" d="M929.45,49v-1.7c0-.14,0-.3.19-.29s.33-.09.34.17.11.12.2.06l.3-.2a.82.82,0,0,1,1.29.64c.07,1.05,0,2.11,0,3.17,0,.25-.18.19-.32.21s-.29-.09-.29-.3c0-.68,0-1.35,0-2,0-.21,0-.42,0-.64s0-.65-.42-.69a.8.8,0,0,0-.73.73q0,1.29,0,2.58c0,.19,0,.35-.28.35s-.33-.13-.32-.36C929.46,50.14,929.45,49.57,929.45,49Z"/><path class="cls-3" d="M914.8,49v-1.7c0-.12,0-.27.16-.27s.34-.07.38.07c.1.39.25.12.37,0a1,1,0,0,1,1-.1.91.91,0,0,1,.42.91v2.75c0,.21,0,.39-.29.38s-.28-.2-.28-.4c0-.84,0-1.68,0-2.52,0-.32,0-.69-.44-.73a.78.78,0,0,0-.74.76c0,.84,0,1.68,0,2.53,0,.22,0,.37-.3.36s-.31-.16-.31-.38C914.81,50.13,914.8,49.56,914.8,49Z"/><path class="cls-3" d="M939.49,50.7c-.2.12-.31.21-.43.28a.83.83,0,0,1-1.34-.66c0-1,0-2,0-3.08,0-.2.09-.24.26-.23s.32,0,.31.21v.65c0,.7,0,1.41,0,2.11,0,.3,0,.66.47.65a.77.77,0,0,0,.72-.7V47.44c0-.19-.09-.43.28-.44s.31.2.31.42v3.27c0,.15.07.35-.21.38S939.45,51,939.49,50.7Z"/><path class="cls-3" d="M914,49c0,.57,0,1.14,0,1.7,0,.13.08.32-.14.32s-.4.14-.41-.19c0-.16-.07-.13-.16-.07L913,51a.82.82,0,0,1-1.33-.62c-.11-1,0-2.08,0-3.13,0-.23.15-.21.31-.22s.29.08.29.3c0,.84,0,1.68,0,2.53,0,.33-.1.77.45.78a.79.79,0,0,0,.74-.87V47.36c0-.19,0-.35.27-.36s.3.16.3.37C914,47.93,914,48.48,914,49Z"/><path class="cls-3" d="M961.16,46.92a1.06,1.06,0,0,1,1.05.69c0,.1.19.26-.05.33s-.33.2-.43-.11a.58.58,0,0,0-.64-.41.4.4,0,0,0-.38.35.68.68,0,0,0,.35.69c.29.2.6.38.87.6a1.17,1.17,0,0,1,.39,1.36,1.07,1.07,0,0,1-1.08.71,1.16,1.16,0,0,1-1.16-.8c0-.1-.16-.24,0-.31s.32-.14.45,0,.07.14.11.2a.64.64,0,0,0,.64.37.52.52,0,0,0,.46-.39.64.64,0,0,0-.2-.71c-.32-.26-.68-.47-1-.73a1,1,0,0,1,.6-1.88Z"/><path class="cls-3" d="M949.58,49.25c0-.47,0-1,0-1.42,0-.25-.05-.38-.33-.35s-.32,0-.31-.25.15-.23.3-.22.37-.08.34-.34a1.87,1.87,0,0,1,0-.41c0-.73.32-1,1-.9.17,0,.25.07.26.25s-.1.21-.26.2c-.54,0-.45.38-.47.71s0,.58.4.49c.2,0,.27.06.27.26s-.12.24-.27.21c-.39-.07-.41.15-.4.45,0,.93,0,1.87,0,2.8,0,.21,0,.34-.29.34s-.29-.14-.29-.35C949.58,50.23,949.58,49.74,949.58,49.25Z"/><path class="cls-3" d="M935.85,49.07v-1c0-.29.11-.65-.42-.59-.16,0-.11-.14-.12-.24s0-.23.16-.21c.41.06.39-.21.38-.48s0-.37,0-.56,0-.34.27-.35.33.14.31.37,0,.24,0,.37c0,.38-.06.76.53.65.17,0,.2.08.21.22s0,.28-.23.24c-.5-.09-.53.18-.52.58,0,.7,0,1.41,0,2.12,0,.35.13.56.52.49.12,0,.22-.05.21.12s0,.23-.13.3a.81.81,0,0,1-1.17-.68.28.28,0,0,1,0-.09V49.07Z"/><path class="cls-3" d="M919.54,49.05c0-.41,0-.83,0-1.24,0-.23,0-.36-.29-.32s-.26,0-.25-.23,0-.27.23-.25.33-.12.31-.36,0-.46,0-.69,0-.32.29-.33.29.16.28.35,0,.31,0,.46c0,.4,0,.67.52.57.17,0,.24.06.24.24s-.06.27-.24.23c-.48-.09-.54.15-.52.56,0,.71,0,1.41,0,2.12,0,.34.11.57.51.52.1,0,.23-.1.23.09s0,.26-.15.33a.81.81,0,0,1-1.16-.76C919.53,49.91,919.54,49.48,919.54,49.05Z"/><path class="cls-3" d="M946.54,48.31v2.35c0,.21,0,.42-.31.42s-.29-.2-.29-.4V45.8c0-.22,0-.37.31-.37s.29.19.29.4Z"/><path class="cls-3" d="M941.36,47.47c.29-.3.48-.51.78-.53.12,0,.3-.08.31.14s.06.33-.18.41c-.75.27-.88.46-.88,1.23s0,1.35,0,2c0,.22,0,.32-.3.32s-.27-.17-.27-.36c0-1.11,0-2.21,0-3.32,0-.16-.09-.38.23-.38S941.47,47.05,941.36,47.47Z"/><path class="cls-3" d="M918.54,49.06v1.7c0,.19,0,.31-.26.31s-.31-.1-.31-.33c0-1.13,0-2.27,0-3.4,0-.22,0-.34.3-.34s.27.15.27.35Z"/><path class="cls-3" d="M964.61,42.29V43c0,.08,0,.2-.1.22s-.14-.1-.14-.2V41.81a.18.18,0,0,1,.1-.19c.1,0,.17,0,.22.12l.41.82c.16-.32.3-.58.43-.83a.17.17,0,0,1,.18-.11c.1,0,.11.1.11.17v1.29c0,.07,0,.17-.12.16s-.09-.1-.09-.18c0-.24,0-.49,0-.77-.28.13-.21.55-.49.56S964.88,42.46,964.61,42.29Z"/><path class="cls-3" d="M963.56,41.6h.37c.08,0,.16,0,.16.13a.13.13,0,0,1-.16.12c-.29,0-.26.18-.25.36s0,.55,0,.82c0,.11,0,.23-.15.22s-.11-.12-.11-.21,0-.48,0-.73.07-.52-.34-.46c-.06,0-.11-.05-.11-.12s.06-.12.14-.13Z"/><path class="cls-3" d="M918.54,45.79c0,.23,0,.32-.29.32S918,46,918,45.76s0-.32.3-.32S918.56,45.59,918.54,45.79Z"/><path class="cls-3" d="M959.44,50.75c0-.31,0-.61,0-.92v-4c0-.2,0-.35-.28-.35s-.32.12-.32.36c0,.45,0,.91,0,1.38-.83-.4-1.32-.33-1.6.29a3.68,3.68,0,0,0,0,3.11.93.93,0,0,0,1.43.37c.13-.08.22-.24.32,0s.25.09.37.07S959.44,50.86,959.44,50.75ZM958.82,49c0,.33,0,.65,0,1a.56.56,0,0,1-.48.62.52.52,0,0,1-.67-.4,3.8,3.8,0,0,1,0-2.38.5.5,0,0,1,.63-.4.56.56,0,0,1,.52.63C958.8,48.38,958.82,48.7,958.82,49Z"/><path class="cls-3" d="M926.63,50.79c0-.41,0-.83-.06-1.24V45.78c0-.21,0-.34-.28-.34s-.29.13-.29.34c0,.45,0,.91,0,1.42-.85-.45-1.41-.31-1.69.45a3.92,3.92,0,0,0,0,2.78,1,1,0,0,0,1.56.48c.13-.09.18-.19.25.06s.26.1.4.08S926.64,50.88,926.63,50.79ZM926,49.06c0,.32,0,.64,0,1a.55.55,0,0,1-.47.59.51.51,0,0,1-.66-.34,3.74,3.74,0,0,1,0-2.47.51.51,0,0,1,.65-.37c.29.09.52.25.5.62S926,48.72,926,49.06Z"/><path class="cls-3" d="M945.15,50.74c0-.43,0-.85,0-1.28h0c0-.46,0-.92,0-1.38a1,1,0,0,0-.91-1.14,1.15,1.15,0,0,0-1.39.84c0,.12-.18.3.08.36s.37.15.43-.16a.77.77,0,0,1,.17-.32.52.52,0,0,1,.64-.21c.31.11.36.38.39.67s-.2.32-.39.38a2.74,2.74,0,0,0-1.14.67,1.24,1.24,0,0,0-.15,1.6,1.06,1.06,0,0,0,1.45.14c.16-.09.23-.11.33.09s.29.08.43,0S945.15,50.85,945.15,50.74Zm-1-.2a.64.64,0,0,1-.76,0,.62.62,0,0,1-.06-.8,1.8,1.8,0,0,1,1-.73c.14-.06.19,0,.19.15s0,.33,0,.58S944.59,50.35,944.15,50.54Z"/><path class="cls-3" d="M934.9,50.73V49.21h0c0-.37,0-.74,0-1.1,0-.7-.31-1.1-.91-1.17a1.17,1.17,0,0,0-1.39.91c0,.09-.14.26.08.28s.34.18.43-.08a1,1,0,0,1,.26-.47.53.53,0,0,1,.6-.13c.31.15.35.43.37.74s-.22.25-.37.3a2.51,2.51,0,0,0-1.26.8,1.2,1.2,0,0,0,0,1.49,1.08,1.08,0,0,0,1.42.15c.14-.08.23-.18.35,0s.31.1.46.06S934.9,50.84,934.9,50.73ZM934,50.5c-.29.17-.6.24-.84,0a.67.67,0,0,1,0-.89,2,2,0,0,1,1.15-.67c0,.36,0,.69,0,1A.58.58,0,0,1,934,50.5Z"/><path class="cls-3" d="M923.55,49.94c-.15,0-.34-.15-.45.07a3.27,3.27,0,0,1-.14.33.61.61,0,0,1-1,0,1.34,1.34,0,0,1-.16-1.11c.1-.3.49-.07.74-.13a1.08,1.08,0,0,1,.18,0c1.06,0,1.12-.08.86-1.15,0-.1-.06-.2-.1-.3a1.06,1.06,0,0,0-1.13-.76,1,1,0,0,0-1,.84,4.57,4.57,0,0,0,0,2.54,1,1,0,0,0,1.11.83,1.25,1.25,0,0,0,1.2-.9C923.64,50.13,923.74,50,923.55,49.94Zm-1.17-2.53c.4,0,.67.38.66,1,0,.27,0,.27-.69.27-.16-.14-.57.25-.61-.24S922,47.42,922.38,47.41Z"/><path class="cls-3" d="M956.25,47.66a1,1,0,0,0-1-.74,1,1,0,0,0-1.06.72A3.71,3.71,0,0,0,954,49a4.13,4.13,0,0,0,.15,1.31,1,1,0,0,0,1,.82,1,1,0,0,0,1.11-.77A4.44,4.44,0,0,0,956.25,47.66Zm-.49,2.49a.52.52,0,0,1-.52.48.53.53,0,0,1-.59-.45,4.32,4.32,0,0,1-.1-1.19,3.9,3.9,0,0,1,.1-1.13.55.55,0,0,1,.56-.45.52.52,0,0,1,.54.46A5.65,5.65,0,0,1,955.76,50.15Z"/><path class="cls-3" d="M953.32,47.6a1,1,0,0,0-1.08-.68,1,1,0,0,0-1,.73,3.71,3.71,0,0,0-.19,1.36,3.61,3.61,0,0,0,.23,1.49,1,1,0,0,0,1,.63,1,1,0,0,0,1-.65A4.31,4.31,0,0,0,953.32,47.6Zm-.48,2.6a.53.53,0,0,1-.56.44.52.52,0,0,1-.54-.47,5.65,5.65,0,0,1,0-2.28.54.54,0,0,1,.58-.48.56.56,0,0,1,.54.47A4.84,4.84,0,0,1,953,49,4.68,4.68,0,0,1,952.84,50.2Z"/></g><g class="cls-1"><path class="cls-3" d="M1034.12,28.08V8.8h1.73c3,0,6.05,0,9.07,0,2.4,0,4.41.66,5.49,2.93s.53,4.45-1.27,6.35a5.45,5.45,0,0,1,2.63,5.11,4.81,4.81,0,0,1-4.6,4.84C1042.86,28.28,1038.52,28.08,1034.12,28.08Zm2-1.81c3,0,6,0,8.92,0a11.46,11.46,0,0,0,2.19-.22,3,3,0,0,0,2.58-3.35,3.41,3.41,0,0,0-3.57-3.38c-2.17-.1-4.34,0-6.51-.06h-3.61Zm-.06-9.06c3.42,0,6.67.06,9.91,0a3,3,0,0,0,2.94-3c.08-1.87-.81-3.21-2.66-3.3-3.35-.16-6.7,0-10.12,0,0,.25-.06.47-.06.69C1036.07,13.38,1036.07,15.23,1036.07,17.21Z"/><path class="cls-3" d="M1074.36,18.46a9.93,9.93,0,0,1-10.24,10.17c-6.11,0-10.55-4.2-10.57-10.09A10,10,0,0,1,1063.8,8.37C1069.93,8.33,1074.33,12.53,1074.36,18.46ZM1064,10.37a8.15,8.15,0,1,0-.06,16.29,8.15,8.15,0,1,0,.06-16.29Z"/><path class="cls-3" d="M1024.45,23.21l1.27,1.36a6.77,6.77,0,0,1-.61.67c-3.43,2.93-7.33,4.14-11.76,3a9.71,9.71,0,0,1-7.48-10.06,9.85,9.85,0,0,1,8.22-9.5c4.42-.83,8.37.12,11.58,3.52-.19.24-.33.42-.48.59l-.75.85-1-.84a10.29,10.29,0,0,0-11-1.49,7.69,7.69,0,0,0-4.45,8.51,8.1,8.1,0,0,0,6.89,6.75,10.81,10.81,0,0,0,8.29-2.27C1023.56,23.94,1024,23.6,1024.45,23.21Z"/><path class="cls-3" d="M1030.42,28.17h-1.85V8.89h1.85Z"/><path class="cls-3" d="M1036.84,37.08v3.75c-.64.23-1.07.27-1.07-.53,0-2.9,0-5.81,0-8.82,2.2,0,4.32-.08,6.43,0a2.48,2.48,0,0,1,2.2,2.37,2.67,2.67,0,0,1-1.57,2.85c-.24.12-.48.22-.8.36l2.18,3.75c-.83.32-1.35.09-1.64-.65a3.26,3.26,0,0,0-.24-.4C1040.58,36.78,1040.58,36.78,1036.84,37.08Zm0-1.24c1.76,0,3.38,0,5,0a1.42,1.42,0,0,0,1.42-1.53c0-.85-.32-1.58-1.14-1.64-1.76-.11-3.52,0-5.29,0Z"/><path class="cls-3" d="M1064.85,39.15l.73-.77a5.55,5.55,0,0,0,5.81,1.46c.87-.22,1.66-.64,1.59-1.69s-.9-1.42-1.78-1.53-1.86,0-2.79-.1c-1.74-.08-2.73-.83-2.88-2.14a2.85,2.85,0,0,1,2.34-2.92,6.17,6.17,0,0,1,5.71,1.18,4.62,4.62,0,0,1-.28.43c-.1.12-.22.21-.13.13-1.36-.31-2.54-.6-3.73-.85a2,2,0,0,0-.81.07c-1.23.25-2.12,1-2,1.77.2,1.27,1.25,1.17,2.17,1.23a27.87,27.87,0,0,1,2.9.19,2.61,2.61,0,0,1,2.37,2.34,2.65,2.65,0,0,1-1.84,2.78A6.67,6.67,0,0,1,1064.85,39.15Z"/><path class="cls-3" d="M1055.12,39.18l.6-.76c.24.18.46.31.66.48a5.36,5.36,0,0,0,5.48.83,2.31,2.31,0,0,0,1.32-1.51c.16-.86-.61-1.38-1.44-1.52a20.35,20.35,0,0,0-2.08-.16,16.45,16.45,0,0,1-1.85-.14,2.17,2.17,0,0,1-2-1.94,2.48,2.48,0,0,1,1.38-2.6,6.08,6.08,0,0,1,6.61.81l-.39.52c-1.38-.31-2.57-.6-3.76-.84a2.19,2.19,0,0,0-.91.11c-.93.25-1.92.62-1.84,1.76s1.16,1.15,2.06,1.2,2,0,2.9.17a2.63,2.63,0,0,1,.58,5.15A6.62,6.62,0,0,1,1055.12,39.18Z"/><path class="cls-3" d="M1013.67,31.5c.28.89-.1,1.08-.85,1.06-1.89,0-3.79,0-5.75,0v3c1,0,1.92,0,2.88,0,.69,0,.69,0,.64,1h-3.51v3.33h6c.71,0,1.17.13.84,1h-8V31.5Z"/><path class="cls-3" d="M1027,37v3.93h-1v-9.3c2.15,0,4.31-.13,6.43.05,1.28.11,1.84,1.16,1.82,2.58a2.27,2.27,0,0,1-1.9,2.54,21.52,21.52,0,0,1-3.12.2C1028.52,37,1027.83,37,1027,37Zm.07-1.15c1.61,0,3.12,0,4.62,0a1.42,1.42,0,0,0,1.45-1.61c0-.92-.41-1.55-1.32-1.6-1.57-.08-3.14,0-4.75,0Z"/><path class="cls-3" d="M1047.23,32.55v3c1,0,1.92,0,2.84,0,.71,0,.88.29.61,1h-3.43v3.34c2,0,4.08,0,6.11,0,.72,0,1.05.2.78,1h-8V31.48h7.65c.32.74.17,1.1-.75,1.08C1051.14,32.52,1049.25,32.55,1047.23,32.55Z"/><path class="cls-3" d="M1019.13,35.82l-3.34-4.17.15-.32a5,5,0,0,1,1.43.6,10.36,10.36,0,0,1,1.27,1.51c.38.48.77,1,1.11,1.37,1.61-.9,1.75-3.41,4.33-3.41-1,1.28-1.82,2.43-2.77,3.43-.73.77-.6,1.3,0,2,1.09,1.25,2.08,2.59,3.15,3.94a1.29,1.29,0,0,1-1.82-.5c-.87-1.18-1.82-2.3-2.74-3.45-1.75,1.17-2.19,3.76-4.48,4.25l-.29-.28Z"/><path class="cls-3" d="M1026.61,47.37v2.57h-.38v-4.3l.23-.18,1.82,2.73,1.79-2.87c.55,1.24.5,3.95-.14,4.85,0-.65-.1-1.07-.11-1.49a4.52,4.52,0,0,0-.2-1.48l-1.35,2.25-1.3-2.1Z"/><path class="cls-3" d="M1046.13,45.64v4.29h-.39l-.16-2.94-1.46,2.43-1.48-2.35-.19,2.87-.39,0V45.49c1.16.52,1.2,1.89,2.07,2.66l1.72-2.71Z"/><path class="cls-3" d="M1055.21,48.28l.82,1.5-.25.25c-.26-.27-.62-.5-.76-.82a1.51,1.51,0,0,0-2.14-.93l-.26,1.67-.33,0v-4.4h1.87c.73,0,1.66-.1,1.83.79a5.24,5.24,0,0,1-.45,2Zm-2.4-.78a11.08,11.08,0,0,0,1.93,0c.28,0,.49-.44.74-.67-.23-.22-.44-.59-.69-.62a11.24,11.24,0,0,0-1.83.06s-.08.12-.15.2Z"/><path class="cls-3" d="M1009.87,48.3l-1.76-.32,0-.41,1.91-.11c.35,1.53.05,2.19-1.1,2.5a2.45,2.45,0,0,1-3-1.5,2.26,2.26,0,0,1,1.24-2.8,2.12,2.12,0,0,1,3,1.08,10.82,10.82,0,0,0-1.15-.53c-.85-.29-1.74-.23-2.15.58a2.07,2.07,0,0,0,0,1.87,3.46,3.46,0,0,0,2,.61C1009.15,49.29,1009.44,48.75,1009.87,48.3Z"/><path class="cls-3" d="M1073.7,46.42c-.22,0-.44,0-.66-.08a3.39,3.39,0,0,0-1.22-.22,3.31,3.31,0,0,0-1.06.67,9.33,9.33,0,0,0,1,.5,2.62,2.62,0,0,0,.69,0c.77.09,1.52.29,1.57,1.22s-.7,1.41-1.49,1.42a8.2,8.2,0,0,1-2.32-.48c-.17-.05-.25-.39-.37-.6a22,22,0,0,0,2.67.42c.28,0,.57-.47.86-.72a3.48,3.48,0,0,0-.87-.6c-.36-.11-.82.07-1.14-.08s-1.2-.65-1.19-.95a1.9,1.9,0,0,1,.94-1.34A2,2,0,0,1,1073.7,46.42Z"/><path class="cls-3" d="M1015.46,47.87a2.36,2.36,0,0,1-4.71-.21,2.33,2.33,0,0,1,2.47-2.24A2.27,2.27,0,0,1,1015.46,47.87Zm-.61-.19a1.69,1.69,0,0,0-1.78-1.6,1.67,1.67,0,0,0-1.67,1.71,1.65,1.65,0,0,0,1.77,1.59A1.67,1.67,0,0,0,1014.85,47.68Z"/><path class="cls-3" d="M1024.23,48.36l.79,1.45c-1.32-.15-1.31-2.56-3.23-1.43l-.17,1.53h-.3V45.59a22.23,22.23,0,0,1,2.81,0c.35,0,.91.57.91.87a6.46,6.46,0,0,1-.54,1.81Zm-2.51-.85a10.48,10.48,0,0,0,1.89,0c.31-.06.57-.43.86-.67-.26-.22-.5-.59-.79-.64a11.7,11.7,0,0,0-1.89,0Z"/><path class="cls-3" d="M1051.45,50c-.88-.3-.81-1.66-2.18-1.67s-1.07,1.55-2.35,1.64c.74-1.51,1.37-2.85,2.06-4.16a1,1,0,0,1,.78,0c.68,1.29,1.3,2.61,1.94,3.92Z"/><path class="cls-3" d="M1031.51,45.65h3.62l0,.4-3,.14v1l1.59.32,0,.34-1.58.17-.06,1.28h3.15l.09.27c-.18.12-.34.33-.53.36-3.11.46-3.33.27-3.33-2.8Z"/><path class="cls-3" d="M1062.37,48.06v1.28h3.18c-.59.69-2,.82-3.8.48V45.67h3.58v.46c-.67,0-1.35,0-2,0-1,0-1,0-.87,1.11l1.54.26v.35Z"/><path class="cls-3" d="M1016.76,45.61c0,.82,0,1.65,0,2.48s.39,1.27,1.25,1.3,1.42-.3,1.42-1.26,0-1.7,0-2.55h.66a17.14,17.14,0,0,1-.32,3.61c-.31,1-2.44,1.14-3.23.27C1016,48.83,1015.9,46.4,1016.76,45.61Z"/><path class="cls-3" d="M1060.56,45.52c0,1-1.6,1.06-1,2.15.39.74.9,1.41,1.36,2.11l-.37.3-1.94-2.46-1.46,2.51v-4.5l.32-.06.26,2C1058.83,47.12,1059.23,45.72,1060.56,45.52Z"/><path class="cls-3" d="M1075.16,33.75c-.31-.44-.9-.9-.86-1.3a1.67,1.67,0,0,1,1-1.2,1,1,0,0,1,1.23,1.12c-.06.48-.55.91-.84,1.37Z"/><path class="cls-3" d="M1037.66,49.94l-.19-3.71-1.41-.23,0-.31h3.66l0,.29-1.57.27v3.62Z"/><path class="cls-3" d="M1067.54,49.88V46.27l-1.61-.26v-.38a12.9,12.9,0,0,1,3.67,0l0,.34-1.42.26-.19,3.69Z"/></g><g class="cls-1"><path class="cls-3" d="M1151.86,8c.35,0,.57-.35.8-.9a4,4,0,0,1,3.45-1.92A6.68,6.68,0,0,1,1160,6.92c1,.87,1.9.9,1.9,1.29,0,.13-.22.22-.48.22-1,0-2.88-1.57-4.85-1.57-2.22,0-4,1.92-4,3,0,.32.13.57.54.57s1-1.15,2.25-1.15,2.1,1.09,3.68.87c.19,0,.25.25.13.32-3.17,1.79-6.54,3.5-6.54,9.18,0,4.36,2.45,8.57,7.84,8.57,5.62,0,8.31-3.66,8.31-8.57,0-4.24-2.57-8.15-6-8.15a1.71,1.71,0,0,0-.39,0,.55.55,0,0,0-.41.54.61.61,0,0,0,.32.61c2.22,1.57,3,3.12,3,7.38,0,3-1.24,6.37-4.35,6.37-3.36,0-4.79-3.61-4.79-6.85,0-3.75,1-5.52,3.3-7.28,2.54-1.93,5.56-2.83,5.56-4.59,0-.87-.92-1-1.53-1.06a2.24,2.24,0,0,1-1.68-.77c-1.55-1.64-3.36-3.34-5.52-3.34-3.08,0-4.89,3.27-4.89,4.49,0,.49.1.93.54.93m30.73,4.82h.48a.46.46,0,0,1,.39.37,2.42,2.42,0,0,1,.1,1v11a2.51,2.51,0,0,1-.1,1,.45.45,0,0,1-.39.32h-.48a.63.63,0,0,0-.61.66c0,.54.27.71,1.09.71h9.53l.46,0c.39,0,.51-.12.68-.54l.7-1.65a1.9,1.9,0,0,0,.2-.69.58.58,0,0,0-.63-.59c-.32,0-.44.1-.73.54a2.34,2.34,0,0,1-1.51,1.18,13.79,13.79,0,0,1-2.26.1,6.57,6.57,0,0,1-2.09-.17c-.39-.15-.46-.42-.46-1.72V20.35c0-.54.07-.79.22-.89s.29-.1,1-.1h1.9c.63,0,1-.29,1-.86s-.25-.81-1-.81H1187V14.55c0-1.31.15-1.48,1.48-1.48h1.63c1.53,0,2,.17,2.48.89a3.07,3.07,0,0,1,.29.41,1.15,1.15,0,0,0,.34.25.48.48,0,0,0,.27.08.63.63,0,0,0,.65-.57,1.45,1.45,0,0,0-.12-.42l-.7-1.82c-.15-.37-.34-.49-.85-.49h-9.36c-.82,0-1.12.17-1.12.71a.68.68,0,0,0,.64.69m-1.12,23.4c.75.88,1,1,3.28,2.65a14.89,14.89,0,0,1,2.57,2.11,2.77,2.77,0,0,1,.78,1.85c0,1.3-1.07,2.18-2.65,2.18a4.46,4.46,0,0,1-3.59-1.94l-.34-.49a.76.76,0,0,0-.61-.32.75.75,0,0,0-.78.76,1.76,1.76,0,0,0,.07.49l.61,2.46c.15.59.34.81.75.81a.79.79,0,0,0,.56-.22.68.68,0,0,1,.51-.24,1.68,1.68,0,0,1,.54.12,9,9,0,0,0,2.55.34c3.21,0,5.3-1.87,5.3-4.72a4.87,4.87,0,0,0-1.32-3.34,19.46,19.46,0,0,0-3.32-2.65l-1.2-.86a5.09,5.09,0,0,1-1.11-1.13,1.7,1.7,0,0,1-.27-1,1.65,1.65,0,0,1,1.85-1.65,3.71,3.71,0,0,1,2.28.79,4,4,0,0,1,1.17,1.33c.22.32.36.41.63.41a.64.64,0,0,0,.7-.59,1.14,1.14,0,0,0,0-.34l-.59-2.65c-.1-.45-.31-.69-.68-.69a.71.71,0,0,0-.51.19,1,1,0,0,1-.56.22,2.38,2.38,0,0,1-.34,0l-.61-.15a10,10,0,0,0-2.09-.22c-2.67,0-4.47,1.57-4.47,3.95a3.92,3.92,0,0,0,.93,2.59m-11.88-23.4h.46a.44.44,0,0,1,.41.32,2.35,2.35,0,0,1,.1,1V25.19a2.11,2.11,0,0,1-.1.91.47.47,0,0,1-.41.32h-.46a.63.63,0,0,0-.61.66c0,.54.27.71,1.07.71h9.35c.76,0,.95-.12,1.2-.73l.75-1.87.1-.27a.82.82,0,0,0,.07-.3.62.62,0,0,0-.66-.54c-.29,0-.44.1-.73.52-.58.84-.9,1.15-1.31,1.33a5.35,5.35,0,0,1-2.14.17c-1.67,0-2.14,0-2.38-.2s-.34-.42-.34-1.5V14.08a2.61,2.61,0,0,1,.07-1,.56.56,0,0,1,.51-.32h.54a.66.66,0,0,0,.63-.69c0-.54-.29-.71-1.17-.71h-4.49c-.83,0-1.12.17-1.12.71a.66.66,0,0,0,.66.69m-3.94,30.79c0,.57-.07.62-.83.74a.65.65,0,0,0-.65.66.7.7,0,0,0,.29.54c.85.67,3.74,1.23,6.27,1.23,2.69,0,4.57-.54,6-1.69,1.8-1.45,2.79-3.91,2.79-6.88a8.86,8.86,0,0,0-2.21-6.35c-1.48-1.52-3.47-2.18-6.39-2.18-2.74,0-5.59.51-6.44,1.18a.77.77,0,0,0-.31.59c0,.37.26.61.73.64.65,0,.72.14.75.78l0,.54v9.66Zm3.43-9.88c0-1.4,0-1.69.36-1.94a3.13,3.13,0,0,1,1.82-.49c2.89,0,4.62,2.56,4.62,6.88s-1.73,6.83-4.72,6.83a2.44,2.44,0,0,1-1.91-.61c-.15-.25-.17-.44-.17-1.42Zm-41.48-2c2.53,0,2.82.1,3.5,1.13.25.37.42.52.68.52a.61.61,0,0,0,.64-.59,1.15,1.15,0,0,0-.1-.39l-.63-1.67a1,1,0,0,0-.39-.57c-.12-.07-.2-.1-.58-.1h-8.92c-.8,0-1.07.17-1.07.71a.64.64,0,0,0,.58.69h.49a.47.47,0,0,1,.41.32,3.21,3.21,0,0,1,.07,1v11a3,3,0,0,1-.07,1,.45.45,0,0,1-.41.32h-.49a.67.67,0,0,0-.63.69c0,.54.29.71,1.12.71h4.47c.9,0,1.19-.17,1.19-.71a.66.66,0,0,0-.63-.69h-.56a.58.58,0,0,1-.51-.32,2.47,2.47,0,0,1-.07-1V38.83c0-.52,0-.67.19-.74a.77.77,0,0,1,.34-.08h2.48c.68,0,1-.29,1-.83s-.34-.84-1-.84h-3V32.68c0-1,.14-1,1.91-1m62.25,16.7h-67.7a3.8,3.8,0,0,0,0,7.59h67.7a3.8,3.8,0,0,0,0-7.59m-58.5,5.17.17.11h.15a.27.27,0,0,1,.24.28c0,.19-.1.26-.39.26h-1.75c-.31,0-.43-.07-.43-.26a.28.28,0,0,1,.26-.28h.17l.17-.11a.94.94,0,0,0,0-.38v-2l-1.57,1.54a.43.43,0,0,1-.31.16c-.12,0-.17,0-.29-.16l-1.47-1.59v2a1.44,1.44,0,0,0,0,.38l.17.11h.19a.27.27,0,0,1,.25.28c0,.19-.09.26-.44.26h-1.25c-.31,0-.43-.07-.43-.26a.28.28,0,0,1,.26-.28h.17l.16-.11c0-.06,0-.15,0-.38V51c0-.25,0-.32,0-.39l-.16-.13h-.17a.26.26,0,0,1-.26-.26c0-.19.12-.27.43-.27h1.42c.15,0,.23,0,.44.26l1.34,1.49,1.56-1.55a.51.51,0,0,1,.4-.2h1.09c.29,0,.39.08.39.27a.25.25,0,0,1-.24.26h-.2l-.14.12a1.08,1.08,0,0,0,0,.4v2.2c0,.25,0,.31,0,.38m11.66.65h-2a.25.25,0,0,1-.28-.26c0-.19.1-.24.35-.28s.23-.15.15-.35l0-.07c0-.12-.12-.13-.34-.13h-1.42a.64.64,0,0,0-.26,0l-.09.07,0,0a.29.29,0,0,0,.26.39c.24,0,.34.1.34.28s-.13.27-.32.27h-1.55c-.23,0-.34-.07-.34-.24s.08-.23.26-.28a.32.32,0,0,0,.23-.13c0-.06.13-.23.22-.39l1.46-2.92a.79.79,0,0,1,.77-.41.82.82,0,0,1,.76.41l1.41,2.8c.21.44.28.53.42.58l.13,0a.24.24,0,0,1,.17.25c0,.19-.11.29-.32.29m11.47,0h-1.16a.68.68,0,0,1-.57-.27l-1.3-1.49c-.13-.14-.18-.23-.18-.29s.1-.19.36-.21c.66-.06,1-.3,1-.8s-.46-.82-1-.82a.92.92,0,0,0-.54.13c-.1.07-.14.2-.16.47l0,.3v1.94a.91.91,0,0,0,0,.37.2.2,0,0,0,.18.13h.19a.26.26,0,0,1,.24.27c0,.2-.11.27-.43.27h-1.75c-.3,0-.42-.07-.42-.27a.27.27,0,0,1,.26-.27h.16a.17.17,0,0,0,.18-.13.94.94,0,0,0,0-.37V51c0-.25,0-.3-.29-.31s-.29-.1-.29-.26a.34.34,0,0,1,.11-.23,5.66,5.66,0,0,1,2.41-.37c1.6,0,2.49.42,2.49,1.21,0,.54-.25,1-1.11,1.14l.83.92a1.39,1.39,0,0,0,.8.51,1.13,1.13,0,0,1,.26.08.27.27,0,0,1,.12.22c0,.19-.14.29-.4.29m8.34,0h-1.75c-.3,0-.42-.07-.42-.27a.27.27,0,0,1,.26-.27h.16a.17.17,0,0,0,.18-.13.94.94,0,0,0,0-.37V51a1.08,1.08,0,0,0,0-.37.19.19,0,0,0-.18-.13h-.16a.27.27,0,0,1-.26-.28c0-.19.12-.27.42-.27h1.75c.32,0,.42.08.42.27a.25.25,0,0,1-.24.28h-.18a.17.17,0,0,0-.17.13.86.86,0,0,0,0,.37v2.19a1,1,0,0,0,.05.39l.16.11h.18a.26.26,0,0,1,.24.27c0,.2-.12.27-.42.27m3.71,0h-1.18c-.25,0-.33-.09-.52-.27l-1.71-1.71c-.08-.08-.11-.12-.11-.18l.11-.16,1.24-1c.18-.16.07-.35,0-.35s-.17-.1-.17-.29.08-.27.29-.27h2c.2,0,.32.08.32.26s-.09.24-.32.27a3.31,3.31,0,0,0-.45.07,1.43,1.43,0,0,0-.45.25l-1.12,1,1.39,1.38a1.85,1.85,0,0,0,.76.53c.21.05.32.09.32.27s-.13.27-.35.27m11-1-.33.82c0,.1-.08.13-.24.13h-4c-.33,0-.43-.07-.43-.27a.25.25,0,0,1,.23-.27h.2l.14-.13c0-.06,0-.13,0-.37V51c0-.24,0-.31,0-.37a.17.17,0,0,0-.14-.15h-.2a.28.28,0,0,1-.25-.28c0-.19.12-.27.45-.27h3.77c.2,0,.27,0,.31.12l.28.75,0,.1c0,.08-.18.15-.31.15l-.11,0-.12-.06-.09-.12a1.26,1.26,0,0,0-1-.37h-.63c-.53,0-.59,0-.59.39v.7h1.22c.29,0,.37.16.37.32a.33.33,0,0,1-.37.34H1175c-.2,0-.34,0-.39,0a.29.29,0,0,0-.09.25v.67c0,.34,0,.41.19.45a4.42,4.42,0,0,0,.82,0c.47,0,.72,0,.87,0s.52-.39.68-.58a.26.26,0,0,1,.26-.14c.16,0,.25.06.27.15a.35.35,0,0,1,0,.18m10.61-2.12a.28.28,0,0,1-.25-.15l-.08-.08c-.09-.12-.25-.34-.36-.38a2.31,2.31,0,0,0-.59,0c-.45,0-.51,0-.51.3v2.39a.94.94,0,0,0,0,.37.19.19,0,0,0,.18.13h.26a.26.26,0,0,1,.26.27c0,.2-.11.27-.46.27h-1.88c-.33,0-.45-.07-.45-.27a.26.26,0,0,1,.24-.27h.28a.2.2,0,0,0,.17-.13,1.08,1.08,0,0,0,0-.37V50.76c0-.27,0-.3-.6-.3a1,1,0,0,0-.88.43l0,.07a.31.31,0,0,1-.29.15c-.13,0-.32-.07-.33-.15l0-.14.29-.75c0-.15.1-.16.32-.16h4.35a.45.45,0,0,1,.21,0l.09.13.31.79,0,.1c0,.07-.2.15-.35.15m-64.93-24.18c.34.93.68,1.22,1.39,1.22a1.48,1.48,0,0,0,.82-.26,2.31,2.31,0,0,0,.49-1l2.38-6.74,2.24,6.74c.29.91.65,1.22,1.38,1.22s1-.34,1.41-1.54L1137.23,14c.27-.86.44-1.09,1-1.2h.13a.47.47,0,0,1,.42.32,2.51,2.51,0,0,1,.07,1v11a2.78,2.78,0,0,1-.07,1,.47.47,0,0,1-.42.3h-.48a.67.67,0,0,0-.63.68c0,.54.29.72,1.11.72h4.42c.78,0,1-.18,1-.69a.64.64,0,0,0-.58-.71h-.47a.53.53,0,0,1-.46-.3,3.54,3.54,0,0,1-.07-1v-4.5c0-1.13.1-1.23,1-1.23h3.3c.48,0,.73.08.85.23s.12.24.12,1.15v4.35a2.86,2.86,0,0,1-.07,1,.52.52,0,0,1-.44.3h-.46a.67.67,0,0,0-.63.68c0,.54.27.72,1.09.72h4.42c.86,0,1.12-.18,1.12-.72a.65.65,0,0,0-.63-.68h-.49a.45.45,0,0,1-.41-.3,2.64,2.64,0,0,1-.09-1v-11a2.47,2.47,0,0,1,.09-1,.47.47,0,0,1,.41-.32h.49a.66.66,0,0,0,.63-.69c0-.54-.29-.71-1.12-.71H1147c-.82,0-1.12.17-1.12.71a.67.67,0,0,0,.66.69h.46a.49.49,0,0,1,.44.32,2.61,2.61,0,0,1,.07,1v3.63h-5.27V14.08a3.31,3.31,0,0,1,.07-1,.56.56,0,0,1,.47-.32h.46a.64.64,0,0,0,.6-.69c0-.54-.26-.71-1.06-.71h-8c-.66,0-.93.19-.93.68s.25.64.78.69.85.27.85.64a1.89,1.89,0,0,1-.1.59l-2.86,9.41-2.89-9a3.23,3.23,0,0,1-.25-1c0-.45.17-.59.83-.67s.78-.27.78-.66-.27-.66-.83-.66h-4.76c-.56,0-.85.27-.85.73s.19.54.7.67.76.27.9.64c.05.09.1.29.2.56l1.11,3.29-2.26,6.37-3.28-9.24-.19-.56a1.65,1.65,0,0,1-.1-.55c0-.39.22-.56.76-.61s.87-.22.87-.64-.24-.66-.8-.66h-5c-.56,0-.82.22-.82.64s.17.56.68.66c.77.17.9.3,1.26,1.3Zm16.66,19.83a7.49,7.49,0,0,0,7.8-6.16,7.45,7.45,0,0,0,7.7,6.16c4.93,0,8.07-3.36,8.07-8.62s-3.14-8.48-8-8.48a7.43,7.43,0,0,0-7.73,6.13,7.46,7.46,0,0,0-7.77-6.13c-4.89,0-8,3.34-8,8.6s3.14,8.5,8,8.5m15.52-15.36c2.7,0,4.4,2.63,4.4,6.86s-1.67,6.73-4.35,6.73-4.37-2.5-4.37-6.71,1.63-6.88,4.32-6.88m-15.5,0c2.7,0,4.4,2.63,4.4,6.86S1142.66,45,1140,45s-4.37-2.5-4.37-6.71,1.62-6.88,4.32-6.88m.38,19.86a1.87,1.87,0,0,1-.12-.4h0a2.33,2.33,0,0,1-.15.4l-.47,1.05-.09.15.16,0h1.14l.13,0-.08-.15Z"/></g><g class="cls-1"><path class="cls-3" d="M1269.41,28c-1.91,0-2.05,2.55-2.05,5.5,0,2.8,0,5.49,2.07,5.49,1.79,0,2-2.19,2-5.49C1271.42,29.52,1271,28,1269.41,28Z"/><path class="cls-3" d="M1282.34,28.64c-1.83,0-2.19,2.33-2.19,4.81,0,1.51,0,4.86,2.07,4.86,1.18,0,2.14-1.52,2.14-1.8V30.24h0A2.34,2.34,0,0,0,1282.34,28.64Z"/><path class="cls-3" d="M1256.92,28c-1.9,0-2.05,2.55-2.05,5.5,0,2.8,0,5.49,2.07,5.49,1.79,0,2-2.19,2-5.49C1258.93,29.52,1258.49,28,1256.92,28Z"/><path class="cls-3" d="M1333.31,39.42v-.63c.84-.08,1.2-.52,1.2-1.46V31.09c0-.73,0-2.15-1.43-2.15a3,3,0,0,0-2.14,1.5v6.89a1.24,1.24,0,0,0,1.26,1.46v.63H1326v-.63c.92-.18,1.36-.28,1.36-1.54V29.66c0-1.16-.34-1.36-1.36-1.53v-.62h4.94v1.87h.06a4.2,4.2,0,0,1,3.67-2.17,3.31,3.31,0,0,1,3.45,3.63V36a2.65,2.65,0,0,0,1.23,2.23l.06,0h0v-15l-4.08-11.41h-3.61l-10.3,27.89h-.84L1318,32h-.12l-3.15,7.83h-.63l-3.81-9.66c-.66-1.68-.8-1.86-1.47-2v-.62h5.73v.62c-.37.07-1,.11-1,.79s.89,2.51,2.17,6l1.75-4.42c-.26-.88-.42-1.38-.55-1.7-.24-.54-.52-.54-1.14-.63v-.62h6v.62c-.66.07-1.24.11-1.24.65s1.08,3.89,1.54,5.9h.06c.7-2,8.07-21.86,8.31-22.79h-1.66L1324.09,25h-27.2V20.25H1293l-2.49,3.05V19.4h-10.76V25a4.52,4.52,0,0,0-2.13.77,5.11,5.11,0,0,0-1.69,1.58l-.12.08a8.66,8.66,0,0,0-12.66-.12l-.08-.1a8.26,8.26,0,0,0-8.62-2.21V19.4h-19.85V25h2.21V36.27h-2.21V42h104.75V39.42Zm-85.54-13.23h.64v8.73h-.64c-.28-2.11-.7-4-4-4v6c0,1.7,1,1.74,2.85,1.82v.65h-9.29v-.65c1.47-.16,2.27-.24,2.27-1.82V24.46c0-1.71-1.07-1.75-2.27-1.83V22H1252v5.18h-.62c-.56-2.69-1.26-4.31-5.7-4.31-1.38,0-1.87.1-1.87,1.2v6C1247,30.1,1247.41,28.26,1247.77,26.19Zm9.15,13.59c-3.59,0-5.84-2.91-5.84-6.29s2.25-6.3,5.84-6.3c3.37,0,5.8,2.71,5.8,6.3C1262.72,36.93,1260.44,39.78,1256.92,39.78Zm12.49,0c-3.59,0-5.84-2.91-5.84-6.29s2.25-6.3,5.84-6.3c3.37,0,5.8,2.71,5.8,6.3C1275.21,36.93,1272.92,39.78,1269.41,39.78Zm15,0V38.07a4.16,4.16,0,0,1-3.59,1.71c-2.15,0-4.52-2.17-4.52-5.94,0-4.5,2.55-6.65,5-6.65a4,4,0,0,1,3,1.61V24.08c0-1.37-.54-1.39-2-1.51V22h5.54V36.79c0,.7.06,1.44,1.52,1.5v.6h0A26.07,26.07,0,0,0,1284.4,39.76Zm9.26-.06a2.59,2.59,0,0,1-2.91-2.71V28.64h-1.35v-.71a22,22,0,0,0,4.28-4.79h.64v4.35h2.43v1.15h-2.41v7.77c0,.42,0,1.46,1,1.46.75,0,1.19-.8,1.47-1.34l.64.28C1296.91,37.91,1296,39.7,1293.66,39.7Zm9.65.08c-3.59,0-5.84-2.91-5.84-6.29s2.27-6.3,5.84-6.3c3.38,0,5.81,2.71,5.81,6.3C1309.12,36.93,1306.83,39.78,1303.31,39.78Z"/><path class="cls-3" d="M1303.33,28c-1.9,0-2,2.55-2,5.5,0,2.8,0,5.49,2.06,5.49,1.79,0,2-2.19,2-5.49C1305.34,29.52,1304.9,28,1303.33,28Z"/><rect class="cls-3" x="1234.64" y="44.56" width="104.87" height="2.07"/><path class="cls-3" d="M1349.1,18.56a7.06,7.06,0,0,1-2.4-.14,1.18,1.18,0,0,1-.61-1.41c.28-.64.53-1.48.75-1.92a2.69,2.69,0,0,0-3-3.2h-12.2s-2.53,6.89-4.5,12.17c-.74,2-1.26,3.45-1.26,3.45h5v1.87h.06a4.2,4.2,0,0,1,3.67-2.17,3.31,3.31,0,0,1,3.45,3.63V36a2.67,2.67,0,0,0,1.29,2.27,4,4,0,0,0,2.27.54c2.47,0,5.06,0,5.9,0l1.18-3.13c1.17-3.15,2.81-7.71,4.28-11.64,1.6-4.34,2-5.32,2-5.52-.51,0-3.46,0-6,0"/><path class="cls-3" d="M1340.43,41.1a.9.9,0,0,1,.91-.92.88.88,0,0,1,.88.92.9.9,0,1,1-1.79,0m.91,1.11a1.11,1.11,0,1,0-1.13-1.11,1.1,1.1,0,0,0,1.13,1.11m-.23-1h.23l.34.55h.22l-.36-.57a.32.32,0,0,0,.32-.34c0-.24-.14-.36-.44-.36h-.49v1.29h.2v-.57Zm0-.16v-.4h.27c.14,0,.28,0,.28.18s-.14.2-.3.2h-.25Z"/></g><g class="cls-1"><path class="cls-3" d="M1519.91,25.21H1536a.92.92,0,0,1,.85,1.34,21.9,21.9,0,0,1-1.34,2.3,18.67,18.67,0,0,1-2.3,2.78,19.16,19.16,0,0,1-6.79,4.34,18.46,18.46,0,0,1-3.12.86,20,20,0,0,1-3.54.29A18.81,18.81,0,0,1,1503.14,27a5.61,5.61,0,0,1-.29-.54.88.88,0,0,1,.73-1.27,3.63,3.63,0,0,1,.57,0h15.76Z"/><path class="cls-3" d="M1520.15,23.66a13.94,13.94,0,0,1-9.29-3.43,14,14,0,0,1-4.84-8.91,14.3,14.3,0,0,1,.61-6.43.74.74,0,0,1,1.23-.36,4,4,0,0,1,.3.28l.61.61c1.52,1.51,3,3,4.55,4.55,1,1.08,2.11,2.14,3.17,3.2l1.66,1.65,2.16,2.18,3.81,3.79c.31.31.61.62.91.94a.68.68,0,0,1-.26,1.16,9,9,0,0,1-1.61.46A12.17,12.17,0,0,1,1520.15,23.66Z"/><path class="cls-3" d="M1525.26,9.62v8.65c0,.13,0,.27,0,.41a.53.53,0,0,1-.79.47,5.45,5.45,0,0,1-.76-.39,10.28,10.28,0,0,1-4.25-4.76,10.44,10.44,0,0,1,1.33-11A10.21,10.21,0,0,1,1524.15.2l.18-.1a.59.59,0,0,1,.93.58c0,1.34,0,2.68,0,4V9.62Z"/><path class="cls-3" d="M1553,52.17V46.35c0-.41.06-.46.49-.47h1.27c.19,0,.39,0,.49.21s.16.09.25,0l.46-.17a4.67,4.67,0,0,1,2.91-.11,3.48,3.48,0,0,1,2.44,2.24,5.69,5.69,0,0,1-.12,4.47,4.12,4.12,0,0,1-4.76,2.32,4.88,4.88,0,0,1-.82-.26c-.33-.13-.38-.1-.38.26V57.8c0,.71,0,.71-.72.71-.37,0-.74,0-1.11,0s-.39-.07-.4-.39,0-.76,0-1.15Zm2.23-1.93c0,.72,0,1.45,0,2.17a.51.51,0,0,0,.35.54l.29.14a2.41,2.41,0,0,0,3.23-1.32,4.06,4.06,0,0,0,.1-2.81,2.25,2.25,0,0,0-2-1.59,3.5,3.5,0,0,0-1.57.21c-.37.15-.4.18-.4.57Z"/><path class="cls-3" d="M1506.2,52.17V46.63c0-.11,0-.22,0-.33,0-.34.07-.41.41-.41h1.43c.11,0,.26,0,.31.08.18.33.41.17.62.08a4.69,4.69,0,0,1,3-.21,3.58,3.58,0,0,1,2.64,2.51,5.64,5.64,0,0,1-.33,4.46A4.05,4.05,0,0,1,1510,55a4.85,4.85,0,0,1-1.23-.32c-.33-.14-.36-.11-.37.26v3.2c0,.36,0,.41-.4.41s-.93,0-1.4,0-.42-.07-.42-.44c0-.68,0-1.37,0-2Zm2.23-1.9c0,.7,0,1.4,0,2.09a.61.61,0,0,0,.43.66,3.3,3.3,0,0,0,.74.22,2.35,2.35,0,0,0,2.77-1.69,4.28,4.28,0,0,0,.1-2.3,2.24,2.24,0,0,0-1.77-1.84,3.33,3.33,0,0,0-1.82.15c-.39.14-.44.2-.45.62Z"/><path class="cls-3" d="M1526.07,17.88a8.15,8.15,0,0,1,2.31-5.72,8,8,0,0,1,5-2.41,8.24,8.24,0,0,1,3.16.31c.63.18.71.48.24.95l-6.06,6.06c-1.1,1.1-2.21,2.19-3.29,3.31-.47.48-.83.34-1-.25A10,10,0,0,1,1526.07,17.88Z"/><path class="cls-3" d="M1524.81,53.26v-.73c0-.4.06-.43.39-.23a7.23,7.23,0,0,0,1.6.73,4.28,4.28,0,0,0,2.1.14,2.52,2.52,0,0,0,.84-.32,1.71,1.71,0,0,0-.06-3,10.57,10.57,0,0,0-1.5-.67,8.85,8.85,0,0,1-1.88-1,3.38,3.38,0,0,1,.24-5.66,4.88,4.88,0,0,1,2.41-.72,7.72,7.72,0,0,1,2.94.39l.31.11a.47.47,0,0,1,.35.49c0,.5,0,1,0,1.48,0,.33-.09.37-.36.19a5,5,0,0,0-.74-.44,4.46,4.46,0,0,0-2.52-.37,1.82,1.82,0,0,0-.89.38,1.52,1.52,0,0,0,0,2.44,4.3,4.3,0,0,0,1.18.66,18.92,18.92,0,0,1,2,.93,3.51,3.51,0,0,1,.46,6,5.13,5.13,0,0,1-2.83,1,9.17,9.17,0,0,1-3.66-.56c-.4-.14-.41-.15-.41-.59Z"/><path class="cls-3" d="M1481.43,53.29c0-.26,0-.52,0-.78s.09-.32.33-.18a7.28,7.28,0,0,0,1.75.79,4.19,4.19,0,0,0,2,.13,2,2,0,0,0,1.48-1,1.63,1.63,0,0,0-.43-2.13,4.6,4.6,0,0,0-1-.56,16.43,16.43,0,0,1-2-.92,3.78,3.78,0,0,1-1.65-1.66,3.33,3.33,0,0,1,.59-3.7A4.25,4.25,0,0,1,1485,42a7.24,7.24,0,0,1,3.74.42c.42.16.42.17.42.6s0,1,0,1.43c0,.29-.07.33-.31.17a5.19,5.19,0,0,0-1.35-.68,4.29,4.29,0,0,0-2-.13,1.68,1.68,0,0,0-1.49,1.68,1.55,1.55,0,0,0,.65,1.18,5.11,5.11,0,0,0,1.15.62c.61.27,1.24.5,1.84.81a5.3,5.3,0,0,1,1.13.81,3.51,3.51,0,0,1,.43,4.34,4.1,4.1,0,0,1-2.39,1.7,7.51,7.51,0,0,1-3.65.06,12.9,12.9,0,0,1-1.42-.4c-.32-.11-.36-.17-.37-.5s0-.52,0-.78Z"/><path class="cls-3" d="M1534.1,48.45V42.62c0-.47.05-.51.52-.51h1.23c.45,0,.48,0,.49.5v3.08a1.92,1.92,0,0,0,0,.24c0,.29,0,.31.31.19a5.26,5.26,0,0,1,2.57-.41,2.76,2.76,0,0,1,2.16,1.16,2.65,2.65,0,0,1,.43,1.14,8.74,8.74,0,0,1,.08,1.14c0,1.67,0,3.34,0,5a2.8,2.8,0,0,1,0,.29c0,.29-.08.35-.38.36h-1.43c-.34,0-.4-.07-.41-.42V51.8c0-.72,0-1.45,0-2.17a6.51,6.51,0,0,0-.1-1,1.55,1.55,0,0,0-1.75-1.26,2.39,2.39,0,0,0-1.15.39.65.65,0,0,0-.34.61c0,.91,0,1.83,0,2.74v3.16c0,.47,0,.52-.52.53h-1.23c-.44,0-.49-.06-.49-.51V48.45Z"/><path class="cls-3" d="M1496.19,50.39a4.88,4.88,0,0,1,1-3.16,4.13,4.13,0,0,1,2.81-1.51,5,5,0,0,1,2.19.21,3.85,3.85,0,0,1,2.52,2.55,5.68,5.68,0,0,1-.12,3.94,3.86,3.86,0,0,1-2.79,2.43,5,5,0,0,1-2.59,0,4,4,0,0,1-3-3.3,3.72,3.72,0,0,1-.08-.57A5.42,5.42,0,0,1,1496.19,50.39Zm2.32,0a4.77,4.77,0,0,0,.28,1.65,2,2,0,0,0,1,1.12,1.84,1.84,0,0,0,2.56-1,5,5,0,0,0,.29-2.93,3.3,3.3,0,0,0-.41-1.11,1.7,1.7,0,0,0-.86-.73,1.86,1.86,0,0,0-2.29.73A4.07,4.07,0,0,0,1498.51,50.39Z"/><path class="cls-3" d="M1543,50.44a5.14,5.14,0,0,1,.87-2.94,4.14,4.14,0,0,1,3.25-1.8,5.1,5.1,0,0,1,1.9.2,3.88,3.88,0,0,1,2.55,2.53,5.6,5.6,0,0,1-.11,4,3.89,3.89,0,0,1-2.88,2.43,5,5,0,0,1-3-.22,3.82,3.82,0,0,1-2.29-2.51A5.17,5.17,0,0,1,1543,50.44Zm6.56-.17a5,5,0,0,0-.42-1.94,1.87,1.87,0,0,0-2.66-.77,2.08,2.08,0,0,0-.86,1.12,4.94,4.94,0,0,0,0,3.45,1.81,1.81,0,0,0,1,1,1.83,1.83,0,0,0,2.55-1.07A5.29,5.29,0,0,0,1549.51,50.27Z"/><path class="cls-3" d="M1522.14,47.45a2.75,2.75,0,0,1-1.2,1.9c-.38.3-.39.29,0,.6l3.1,2.48c.39.31.52.29.1.79l-.56.7c-.13.17-.25.16-.42,0-.45-.29-.45-.28-.86.07a4.34,4.34,0,0,1-2.78,1.05,4.74,4.74,0,0,1-2.37-.53,2.84,2.84,0,0,1-.69-4.39,3.54,3.54,0,0,1,.76-.63c.38-.22.37-.23.09-.54a3.28,3.28,0,0,1-.59-.89,2.27,2.27,0,0,1,.74-2.71,3.25,3.25,0,0,1,3.34-.38A2.31,2.31,0,0,1,1522.14,47.45Zm-2.92,6.13a3.36,3.36,0,0,0,2.23-.73c.13-.1.09-.18,0-.26l-1-.77L1519,50.58a.43.43,0,0,0-.56-.07,1.56,1.56,0,0,0-.7,1.81A1.66,1.66,0,0,0,1519.22,53.58Zm.18-7.52a1.14,1.14,0,0,0-1,1.44,2.21,2.21,0,0,0,.8,1,.29.29,0,0,0,.31,0,1.48,1.48,0,0,0,1-1A1.12,1.12,0,0,0,1519.4,46.06Z"/><path class="cls-3" d="M1491.35,50.47V48c0-.41,0-.45-.45-.44-.7,0-.7,0-.69-.72,0-.18,0-.35,0-.53,0-.34.07-.39.42-.41.14,0,.28,0,.41,0,.33,0,.37,0,.38-.39v-.94a.35.35,0,0,1,.28-.39l1.53-.47c.28-.09.34,0,.35.25,0,.5,0,1,0,1.52s0,.42.43.42h1.14c.34,0,.39,0,.4.38s0,.6,0,.9-.07.35-.37.36H1494c-.42,0-.45,0-.47.44-.06,1.27-.06,2.54-.06,3.81a3.22,3.22,0,0,0,.06.69,1,1,0,0,0,1,.87,2.29,2.29,0,0,0,.78-.06l.31-.08c.07,0,.14,0,.18.05s0,.11,0,.16l-.14.2c-.22.29-.46.58-.66.89a.92.92,0,0,1-.72.46,3.77,3.77,0,0,1-1.34,0,2,2,0,0,1-1.62-2c0-.42,0-.84,0-1.27V50.47Z"/><path class="cls-3" d="M1563.2,45.37a1.34,1.34,0,0,1,1.42,1.36,1.38,1.38,0,0,1-1.4,1.36,1.34,1.34,0,0,1-1.4-1.34A1.29,1.29,0,0,1,1563.2,45.37Zm-.54.59a2.84,2.84,0,0,1,.77,0,.45.45,0,0,1,.33.75.64.64,0,0,0-.1.13c-.06.12.06.42.19.44s.18-.14.22-.24a1,1,0,0,0-.29-1.08.85.85,0,0,0-1.12,0,.89.89,0,0,0,0,1.46Zm1,1.61c-.35-.14-.34-.48-.61-.65-.09.25,0,.49-.22.7A1.21,1.21,0,0,0,1563.68,47.57Z"/></g><g class="cls-1"><path class="cls-3" d="M1433.29,28.71a18.88,18.88,0,0,1-33-.58c-.54-.86-.28-1.26-.28-1.26.23-.56,1.33-.51,1.33-.51h31.09s1,0,1.19.48C1433.67,26.84,1434.14,27.58,1433.29,28.71Z"/><path class="cls-3" d="M1420.82,24.25a14.1,14.1,0,0,1-13.57-3.63,14,14,0,0,1-3.5-14c.17-.74.52-.82.52-.82.42-.17,1,.44,1,.44l16,16,.39.38s.53.53.37.88C1422,23.46,1421.87,24.1,1420.82,24.25Z"/><path class="cls-3" d="M1420.88,20.06a10.51,10.51,0,0,1,.32-18.41c.49-.3.71-.16.71-.16.32.13.29.75.29.75V19.61s0,.56-.27.66C1421.93,20.27,1421.51,20.54,1420.88,20.06Z"/><path class="cls-3" d="M1423.35,21.13a8,8,0,0,1,10.09-9.71c.43.1.47.3.47.3.1.23-.25.55-.25.55l-9.14,9.1-.21.22s-.31.3-.51.22C1423.8,21.81,1423.43,21.73,1423.35,21.13Z"/><path class="cls-2" d="M1407.26,43.43a12.15,12.15,0,0,0-3.88-.84h-.49s-7.2,0-7.8,6.93v.89s0,6.21,7.24,6.65h.88s3.63-.32,4.87-1.4V49.6h-4.74l-1.21,1.81h3.54V54.5a4,4,0,0,1-2.42.72h-.64a5,5,0,0,1-4.83-5v-.73a5.25,5.25,0,0,1,5.15-4.93h.65s2.65.16,3.66,1.25Z"/><path class="cls-2" d="M1412.23,43.87a1.21,1.21,0,1,1-1.21-1.2A1.21,1.21,0,0,1,1412.23,43.87Z"/><rect class="cls-3" x="1409.85" y="47.12" width="2.29" height="9.66"/><path class="cls-2" d="M1414.28,49.08l1.09-1.92s5.71-1.65,6,2.28v7.21h-2v-.14a7.57,7.57,0,0,1-2.18.46h-.46a3,3,0,0,1-3.21-2.63V54s.07-3.28,4.21-3.2h1.5V50.1s0-1.38-1.86-1.6h-.46A9,9,0,0,0,1414.28,49.08Zm3.56,3.34c-2.14,0-2.1,1.42-2.1,1.42v.32a1.55,1.55,0,0,0,1.53,1.24h.29a3.39,3.39,0,0,0,1.57-.46V52.45Z"/><path class="cls-3" d="M1428.37,46.87h-.43a5.21,5.21,0,0,0-2.55.81v-.56h-2.3v9.66h2.3V49.23a3.19,3.19,0,0,1,1.55-.58h.25a1.89,1.89,0,0,1,2,2v6h2.32V50.25C1431.33,46.76,1428.37,46.87,1428.37,46.87Z"/><path class="cls-3" d="M1435.58,53.66l0-5h2.14V47.05h-2.13l0-2.49-2.25.74v1.75h-1.28v1.63h1.28V54s-.5,3,2.25,3h.54l.78-.07,1.32-1.71S1435.76,56.29,1435.58,53.66Z"/><path class="cls-3" d="M1441.42,48a1.32,1.32,0,0,1-.4,1,1.41,1.41,0,0,1-2,0,1.33,1.33,0,0,1-.41-1,1.39,1.39,0,1,1,2.78,0Zm-.21,0a1.13,1.13,0,0,0-.34-.83,1.18,1.18,0,1,0,0,1.66A1.13,1.13,0,0,0,1441.21,48Zm-.49.7h-.25a2.13,2.13,0,0,0-.23-.55.33.33,0,0,0-.28-.1h-.16c0,.24,0,.46,0,.64h-.24c0-.24,0-.5,0-.79s0-.51,0-.72h.48c.34,0,.5.11.5.35a.4.4,0,0,1-.28.4v0a.35.35,0,0,1,.2.16A4.25,4.25,0,0,1,1440.72,48.71Zm-.38-1.09c0-.16-.11-.25-.35-.25l-.2,0c0,.12,0,.29,0,.51h.11C1440.2,47.9,1440.34,47.81,1440.34,47.62Z"/></g><g class="cls-1"><g id="g3011"><path id="path3013" class="cls-2" d="M1610.78,27.28c0,2.94-1,5.41-3.3,8.18V19.18a11.34,11.34,0,0,1,3.3,8.1m2.86-.14A14.88,14.88,0,0,0,1608,15.92a16.9,16.9,0,0,0-3.39-2.07V44.57h2.86V39.29c4.62-4.71,6.16-7.7,6.16-12.15"/></g><g id="g3015"><path id="path3017" class="cls-2" d="M1624.35,27.28c0,2.94-1,5.41-3.3,8.18V19.18a11.34,11.34,0,0,1,3.3,8.1m3.52,17.39V41.8a7.33,7.33,0,0,1-5.28-4.18c3.65-4,4.63-6.3,4.63-10.43a15,15,0,0,0-5.64-11.27,17.2,17.2,0,0,0-3.39-2.07V44.57h2.86V40.08a8.18,8.18,0,0,0,6.82,4.59"/></g><g id="g3019"><path id="path3021" class="cls-2" d="M1639.2,44.57V41.71h-4.75V38.32h4.75V35.46h-4.75V18.07h4.75V15.22h-7.62V44.57Z"/></g><g id="g3023"><path id="path3025" class="cls-2" d="M1652.75,18.07V15.22H1643v2.85h3.43v26.5h2.86V18.07Z"/></g></g><path class="cls-5" d="M1741.57,26.63a8.9,8.9,0,0,1-.74,2.71c-.47.94-1.56,2.76-2.68,3s-1.24-.39-1.19-1.45a8.51,8.51,0,0,1,.93-3.24,10,10,0,0,1,1.15-1.78,6.63,6.63,0,0,1,.71-.89,2.68,2.68,0,0,0,1.82,1.64ZM1726,20.84c-.46.39-1,.75-1.44,1.11,1.48-2.95,3.35-6,6-7.74.35-.2.79-.36.81-.18a2.5,2.5,0,0,1-.31,1,16.44,16.44,0,0,1-1.49,2.18,20,20,0,0,1-3.57,3.66Zm15.63,3.48c-.18-.46-.3-.43-.37.07a1.08,1.08,0,0,0,.52.71s0,0,0-.06a2,2,0,0,0-.14-.72Zm44.63-5.77c0,.14.24.09.29,0,.6-.55,1.08-1.22,1.65-1.77a5.81,5.81,0,0,1,.95-.75,1.74,1.74,0,0,1,.47-.23,1.53,1.53,0,0,0,.39-.11,1.17,1.17,0,0,0,.56-1.9,1.51,1.51,0,0,0-2.26,0,9.4,9.4,0,0,0-1,1.18,4.36,4.36,0,0,0-.47.74A4,4,0,0,0,1786.22,18.55Zm-12.76-6.42a21.42,21.42,0,0,0-8.28,1.35c-1.3.54-4.5,1.93-4.08,3.94a.89.89,0,0,0,1.71,0h0c.06-.22,1.43-.77,1.6-.88a12.47,12.47,0,0,1,2.84-1c.31-.09.65-.15,1-.22-.2.3-.4.6-.59.87a40.62,40.62,0,0,0-3.34,5.31c-.3.56-.58,1.14-.84,1.72a7.47,7.47,0,0,0-3.6.9,1.26,1.26,0,0,0,.05,2.13,3.33,3.33,0,0,0,2.13.61,29.13,29.13,0,0,0-1.38,6.74c-.11,1.41,1.85,1.33,2.24.53a61,61,0,0,0,2.95-7.79l1.09,0a25.13,25.13,0,0,1,5.33,1.63,27.81,27.81,0,0,1,4.86,2.72,31,31,0,0,0,4.74,3.19c1.17.5,2.57-.65,1.68-1.91-1.25-1.79-3.73-3-5.47-4.13a29.64,29.64,0,0,0-4.63-2.35,26.44,26.44,0,0,0,6.71-2.28c1.78-.89,4.85-2.9,4.68-5.45-.32-4.9-8.44-5.55-11.39-5.59Zm-53,12.29a6.42,6.42,0,0,1-2,.74.46.46,0,0,0,0,.92,4.43,4.43,0,0,0,1.31.07c-.12.31-.23.62-.34.94a26.15,26.15,0,0,0-1.11,3.34,10.14,10.14,0,0,0-.5,3.66,1.52,1.52,0,0,0,1.34,1.17c1.94.4,2.82-1.93,3.78-3,1.74-2,5-4.18,6.39-4.42a.07.07,0,0,0,.06,0,13.69,13.69,0,0,0-.48,2.93c-.15,2.54,1.29,5,3.9,4.27,1.53-.41,1.19-1.39,0-1.54-2-.26-.15-5.59,0-6.72a1.93,1.93,0,0,0-1.27-2,3.86,3.86,0,0,0-2.18.1,20.68,20.68,0,0,0-3.76,1.63,16.73,16.73,0,0,0-2.8,1.92,14.3,14.3,0,0,0-1.19,1q.15-.45.27-.87c.34-1.14.72-2.28,1.13-3.4a26.12,26.12,0,0,0,5.43-3.66,19.72,19.72,0,0,0,4.25-4.75c.68-1.11,1.88-4.28-.52-5.14-1.86-.67-3.88,1.3-5,2.3a27.19,27.19,0,0,0-4.47,5.87,34.06,34.06,0,0,0-2.3,4.65Zm-4,6.29c-.5-3.11-4.37-4-6.61-4.21a53.74,53.74,0,0,0-5.38-.06c-.53,0-5.35.08-4.94-1.19.53-1.71,2.12-3,3.45-4a21.67,21.67,0,0,1,5.1-2.93,18.17,18.17,0,0,1,7.34-1.48c.94.06,2.48.06,2.87,1.37a4,4,0,0,1-1,3.28h0a.76.76,0,0,0,1,1.08c2-.91,4.15-4.71,1.51-7.14s-7.3-1.63-9.81-1.12a26.15,26.15,0,0,0-10.51,5c-2.2,1.73-6.14,5.88-2.21,9.14,1.48,1.24,3.7,1.44,5.31,1.47,1.94,0,3.86,0,5.82,0,1.13,0,3-.06,4,1.06,0,0,.16.31.14.23.12.51.08.25,0,.73-.23,1.13-1.71,2.55-2.81,3.44a24.45,24.45,0,0,1-5.78,3.45,25.84,25.84,0,0,1-3.44,1.18,12,12,0,0,1-3.69.35c-.79-.07-2.15-.33-2.66-1.25a.63.63,0,0,0-.48-.36c-1.52,0-1,2.12.31,2.67,2.65,2,7,.83,9.18.22,4.27-1.22,8.64-3.3,11.63-6.49a5.42,5.42,0,0,0,1.71-4.49Zm72.92,7.69c-1.83-1.51-4.55-1.71-6.57-2.08a59.36,59.36,0,0,0-9.61-.77,118.18,118.18,0,0,0-19.85,1.58c-2.63.4-5.24.89-7.83,1.41.57-2.34,1.12-4.78,1.79-6.8.37-1.1.77-2.19,1.15-3.28a12.25,12.25,0,0,1,1.13-1.43,8.21,8.21,0,0,1,3.14-2.2c2.29-.83,2,2.1,1.54,3.19a9.45,9.45,0,0,1-6.12,5.26c-1,.34-.9,1.79.77,1.67a9.29,9.29,0,0,0,8.33-5.86,5.67,5.67,0,0,0-.07-4.81,3.88,3.88,0,0,0-4.59-1.88,9.58,9.58,0,0,0-3.34,1.56h0a1.09,1.09,0,0,0-1.15-.27,28.68,28.68,0,0,1-4.33,1.51,2.33,2.33,0,0,0-.08-.36c-.41-1.76-2.33-3-3.58-1.95a1.55,1.55,0,0,0-.38.5,5.53,5.53,0,0,0-2.49.94,9.75,9.75,0,0,0-3.49,6.45,3.62,3.62,0,0,0,3.51,4.34c3,0,4.66-1.86,5.82-4.37a9.06,9.06,0,0,0,.84-4.2,21,21,0,0,0,2.58-.72c-.14.26-.27.52-.39.76-.52,1-1,2-1.44,3.09a54.74,54.74,0,0,0-3.33,9.75q-3.53.77-7,1.57c-3.07.71-6.14,1.44-9.16,2.25-1.52.4-3,.86-4.54,1.16a9.9,9.9,0,0,1-1.5.14c-.28,0-.48-.16-.48-.27.17-.26,0-.48-.38-.48a1.51,1.51,0,0,0-1.55.83,1.7,1.7,0,0,0-.1,1.33c1,2.34,4.62,1.44,6.06,1.11,3-.69,6-1.45,9-2.16,2.86-.66,5.71-1.36,8.57-2l0,.1c-.62,1.82,1.64,2.46,2.77,1.8a2.87,2.87,0,0,0,1-1.45,10.6,10.6,0,0,0,.57-1.47c1.76-.42,3.51-.85,5.28-1.24a127.59,127.59,0,0,1,19.23-2.73,61.5,61.5,0,0,1,10,.13,43.67,43.67,0,0,1,4.82.81c1,.23,2.41.37,3.2,1.18,1.2,1.23,3.47-.5,2.17-1.58Zm9.23-6.5c-4.42.14-2.78-6.79-2.29-9a32.83,32.83,0,0,1,1.43-4.54,41.48,41.48,0,0,1,5.22-1,9.2,9.2,0,0,1,3.23-.05,2.69,2.69,0,0,0,2.17-.14,1.15,1.15,0,0,0,.44-1.51c-.62-1-2.06-1.23-3-1.23a25.52,25.52,0,0,0-5.36.61c-.44.1-.88.22-1.32.33.06-.12.12-.24.19-.36.51-.95,1.27-2.07,1-3.34-.15-.85-1.25-.74-1.58-.37a21.14,21.14,0,0,0-3.11,5l-.19,0c-.45.12-5.29,1.79-5.38,1.17s-.7-.51-.93-.33c-1.1.82-.25,2.17,1.09,2.64a6.53,6.53,0,0,0,4-.33.78.78,0,0,0,0,.14,38.23,38.23,0,0,1-4.83,5.39c-.7.65-1.44,1.25-2.19,1.84a8.79,8.79,0,0,1-1.16.84l-.17.11c-.64-1.47.28-3.91.9-5.06a.74.74,0,0,1,.08-.15.37.37,0,0,1,.07-.12.65.65,0,0,0-.25-.87.75.75,0,0,0-1-.17c-2.19,1.06-3.47,4.2-3.11,7a3.12,3.12,0,0,0,3.08,2.61c1.67,0,2.91-1.12,4-2.1a32.6,32.6,0,0,0,2.6-2.66,7.76,7.76,0,0,0,.53,5.18c1.34,2.78,4.79,2.68,6.11,2.05.72-.33.79-1.66-.26-1.62Zm2.51-3a12.22,12.22,0,0,0,3.15-.48,8.74,8.74,0,0,0,4.91-3.09,2.73,2.73,0,0,0-1-4,6.19,6.19,0,0,0-5,0,9,9,0,0,0-4.19,3.3c-1,1.48-1.72,4.21,0,6.09,2.94,3.13,8.43,1.87,10.32-.53.6-.76-.64-1.42-1.25-1a6.44,6.44,0,0,1-6.19.46,1.81,1.81,0,0,1-.84-.84ZM1773.59,15c1.08,0,9.12,1.14,7.21,3.45-2.39,2.87-6.28,3.91-10,4.58-1.26.23-2.53.38-3.81.52h-.1a47.35,47.35,0,0,1,2.33-4.74,17.15,17.15,0,0,0,1.92-3.8c.81,0,1.62,0,2.44,0Zm27.54,12.36a7.3,7.3,0,0,1,2.49-3.06,4.85,4.85,0,0,1,2.36-1c1.44-.11,1,1,.47,1.73A7.62,7.62,0,0,1,1801.13,27.33Zm6.63,8.4a3.22,3.22,0,1,1,3.23,3.18A3.17,3.17,0,0,1,1807.76,35.73Zm3.23,2.65a2.65,2.65,0,1,0-2.59-2.65A2.56,2.56,0,0,0,1811,38.38Zm-.67-.81h-.56V33.9h1.4c.86,0,1.29.32,1.29,1a1,1,0,0,1-1,1l1,1.62h-.62L1811,36h-.63v1.59Zm.66-2.06c.47,0,.89,0,.89-.6s-.41-.54-.8-.54h-.75v1.14Z"/><g class="cls-1"><path class="cls-2" d="M1863.7,32c.13-1,.77-4.75.77-4.75a2,2,0,0,1,.26-.77,1,1,0,0,1,.83-.32h6.55V39.44a1.81,1.81,0,0,1-1.93,1.86h-15.66V34.11h6.8a2.22,2.22,0,0,0,1.48-.45A2.32,2.32,0,0,0,1863.7,32Z"/><path class="cls-2" d="M1863.51,26.28a6.18,6.18,0,0,0-.26,1l-.77,4.75a1.18,1.18,0,0,1-1.16,1h-7.12V18.77a1.92,1.92,0,0,1,2-1.8h16.3v8h-6.93a2.5,2.5,0,0,0-1.09.19c-.13.07-.19.13-.32.2a1.51,1.51,0,0,0-.64.9Z"/><polygon class="cls-2" points="2063.92 34.94 2065.91 34.94 2065.65 37 2063.66 37 2063.92 34.94 2063.92 34.94"/><path class="cls-2" d="M2039.33,36.93l1.16-8.34h8.86a3.73,3.73,0,0,1,1.54.38c.45.39.7.71.51,1.8-.19,2.31-.77,6.16-.77,6.16h-2.57l.71-4.94s.32-1.35-.71-1.35H2044a1.3,1.3,0,0,0-1.29,1.16c-.19,1.6-.64,5.13-.64,5.13Z"/><polygon class="cls-2" points="2035.29 36.93 2036.38 28.59 2039.08 28.59 2037.98 36.93 2035.29 36.93"/><path class="cls-2" d="M2063.28,30.64h-6.74s-1-.13-1.16,1.09-.26,2.12-.26,2.12-.32,1.09.65,1.09h7l-.32,2.06h-8a2.15,2.15,0,0,1-2.12-2.06,24.64,24.64,0,0,1,.32-3.66c.26-1.67,1.22-2.76,2.5-2.76h8.41l-.25,2.12Z"/><polygon class="cls-2" points="2029.13 34.94 2031.12 34.94 2030.86 37 2029.83 39.05 2029.25 39.05 2029.77 37 2028.87 37 2029.13 34.94 2029.13 34.94"/><path class="cls-2" d="M1995,36.93l1-6.54a4.66,4.66,0,0,1,.26-1.16,1.12,1.12,0,0,1,1.15-.71c.58,0,2.76-.06,4.37-.06,1.15,0,2,.06,1.86.06s1.79-.13,2.18,1.41a4.55,4.55,0,0,1-1.28,4.18c.25.7.7,2.82.7,2.82h-2.5l-.45-2.5h-3.53l.25-2h3.47c.51,0,.71-.51.77-.71a1.44,1.44,0,0,0,.07-.89.71.71,0,0,0-.77-.45h-3.15a1.8,1.8,0,0,0-.45.06.35.35,0,0,0-.32.26,1.37,1.37,0,0,0-.26.51c-.06.39-.77,5.72-.77,5.72H1995Z"/><path class="cls-2" d="M1970.52,33.72h1.54c.45,0,.9.07.9.52,0,.64-.52.7-1.09.7h-6.68l-.26,2.06h7c.38,0,3.4.06,3.72-2.63.26-1.93-.51-2.51-2.05-2.51h-4.17c-.52,0-1.22,0-1.22-.58s.7-.77,1.6-.77h5.91l.25-2.05h-7.44a2.85,2.85,0,0,0-2.83,2.82c-.13,1.35.13,2.44,2.51,2.44Z"/><path class="cls-2" d="M2023.29,33.72h1.6c.45,0,.9.07.9.52-.07.64-.58.7-1.09.7H2018l-.26,2.06h6.94c.38,0,3.4.06,3.79-2.63.25-1.93-.58-2.51-2.06-2.51h-4.23c-.52,0-1.23,0-1.23-.58s.71-.77,1.61-.77h6l.26-2.05h-7.51a2.89,2.89,0,0,0-2.83,2.82c-.06,1.35.19,2.44,2.5,2.44Z"/><path class="cls-2" d="M2010.06,33.79l.26-1.8H2014s.83,0,1-.64-.64-.71-.64-.71h-3.72a1.06,1.06,0,0,0-1.16,1.09c-.12,1.35-.25,2.12-.25,2.12s-.32,1.09.64,1.09h7l-.33,2.06h-8a2.23,2.23,0,0,1-2.18-2.06,35.09,35.09,0,0,1,.38-3.66c.26-1.67,1.16-2.76,2.5-2.76h6.29c1.35,0,2.25.64,2.25,1.74,0,1.67-.38,2.37-.9,2.76a3.39,3.39,0,0,1-2.37.77C2014.17,33.85,2010.06,33.79,2010.06,33.79Z"/><path class="cls-2" d="M1991.12,28.52h-4.62c-3.21.07-3.4,2.12-3.4,2.12s-.19,1.16-.51,3.85,1.86,2.44,3.46,2.51h4.56c3.34-.07,3.08-1,3.4-2.89a21.92,21.92,0,0,0,.45-2.95C1994.85,28.33,1991.12,28.52,1991.12,28.52Zm.45,4.69c-.12,1.35-.32,1.93-2,1.8h-2.25c-1.54,0-2.12-.07-1.92-1.42s.25-1.67.25-1.67.07-1.41,2-1.41h2.19s2-.19,1.92,1.29A10.09,10.09,0,0,0,1991.57,33.21Z"/><path class="cls-2" d="M1980,27.05h-2.63l-1,7.32a2.34,2.34,0,0,0,.45,1.86,1.91,1.91,0,0,0,1.54.77h3.21l.25-2H1980s-.7,0-.89-.19a1,1,0,0,1-.13-.58c.13-.45.58-3.79.58-3.79h2.63l.25-1.93h-2.69l.25-1.47Z"/><path class="cls-2" d="M1936.56,31l.26-2.12h7.76a3.13,3.13,0,0,1,2.06.64,2,2,0,0,1,.51,1.73c-.13,1-.51,3.79-.51,4a2.45,2.45,0,0,1-.84,1.41,2.58,2.58,0,0,1-1.6.58h-6.36a2.68,2.68,0,0,1-1.54-.45c-.38-.39-.77-.9-.45-2.5a2.77,2.77,0,0,1,3-2.25h4.75l-.26,1.8h-3.91a1.09,1.09,0,0,0-1.09.9c-.07.57.38.51.64.51h4s.71.13.9-.19a.88.88,0,0,0,.13-.45c.13-.58.26-1.67.38-2.5.07-.58,0-.84-.25-1a2.11,2.11,0,0,0-1-.13Z"/><path class="cls-2" d="M1903.5,31l.19-2.12h7.77a3.1,3.1,0,0,1,2,.64,2.19,2.19,0,0,1,.58,1.73c-.19,1-.58,3.79-.58,4a2.16,2.16,0,0,1-.83,1.41,2.61,2.61,0,0,1-1.61.58h-6.35s-1.09,0-1.48-.45-.83-.9-.51-2.5a2.77,2.77,0,0,1,3-2.25h4.81l-.26,1.8h-4a1.09,1.09,0,0,0-1.09.9c-.06.57.39.51.64.51h4.05s.7.13.9-.19a1,1,0,0,0,.12-.45c.13-.58.26-1.67.39-2.5.06-.58,0-.84-.26-1s-1-.13-1-.13Z"/><path class="cls-2" d="M1884.3,34.11h1.61c.45,0,.9.06.9.51-.07.64-.52.71-1.09.71H1879l-.26,2.05h6.94c.38,0,3.4.07,3.78-2.63.26-1.93-.57-2.5-2-2.5h-4.24c-.51,0-1.22-.07-1.22-.58s.71-.77,1.67-.77h5.91l.26-2.06h-7.52a2.91,2.91,0,0,0-2.82,2.83c-.07,1.35.19,2.44,2.5,2.44Z"/><path class="cls-2" d="M1914.35,37.32l.9-6.55c0-.07.19-1,.25-1.16a1.24,1.24,0,0,1,1.22-.7H1923s1.8-.13,2.18,1.41a4.72,4.72,0,0,1-1.28,4.24c.25.64.7,2.76.7,2.76H1922l-.38-2.5H1918l.33-2h3.4c.58,0,.7-.51.83-.7a1.39,1.39,0,0,0,0-.9c-.06-.19-.19-.45-.7-.45s-3.21,0-3.21,0a1.55,1.55,0,0,0-.45.07c-.13,0-.26.19-.32.25a3.06,3.06,0,0,0-.2.58c-.06.32-.77,5.65-.77,5.65Z"/><path class="cls-2" d="M1947.34,37.32l1.16-8.41h8.86a3.73,3.73,0,0,1,1.54.38,1.71,1.71,0,0,1,.58,1.8c-.26,2.38-.84,6.23-.84,6.23h-2.57l.71-5s.32-1.35-.71-1.35H1952a1.31,1.31,0,0,0-1.29,1.22c-.19,1.61-.64,5.14-.64,5.14Z"/><polygon class="cls-2" points="1928.66 37.32 1929.5 31.03 1925.97 31.03 1926.22 28.91 1936.05 28.91 1935.79 31.03 1932.13 31.03 1931.3 37.32 1928.66 37.32"/><path class="cls-2" d="M1889.57,39l1-7a4.46,4.46,0,0,1,.9-2,3.38,3.38,0,0,1,2.12-1h6.16s2.7-.13,2.5,2.5a16.72,16.72,0,0,1-.7,4.37,2.79,2.79,0,0,1-2.44,1.54h-5.65l.26-2.06h4a1.49,1.49,0,0,0,1.6-1.35,11.52,11.52,0,0,0,.26-1.86s.13-1-1.22-1h-3.73a1.31,1.31,0,0,0-1.28,1c-.13.84-.9,6.94-.9,6.94Z"/><path class="cls-2" d="M1894.25,41.49h-.57l.51-2.44h-.9l.13-.51h2.38l-.13.51h-.9Zm2.12-1.35-.25,1.35h-.64l.64-3h.57l-.19,1.09h1.16l.19-1.09h.64l-.64,3h-.58l.26-1.35Zm4.69-1.09h-1.54l-.13.64h1.41l-.06.52h-1.41l-.2.77h1.61l-.07.51h-2.24l.64-3h2.12l-.13.51Zm1.8,2.44h-.64l.64-3h2.05l-.06.51h-1.48l-.13.64h1.29l-.13.58h-1.29l-.25,1.22Zm2.05-1.48c-.32,1.35.64,1.54,1,1.54a1.76,1.76,0,0,0,1.73-1.54c.32-1.35-.64-1.54-1-1.54A1.76,1.76,0,0,0,1904.91,40Zm.58,0c.19-.83.71-1,1-1s.77.19.57,1-.7,1-1,1S1905.3,40.85,1905.49,40Zm2.57,0c-.32,1.35.64,1.54,1,1.54a1.76,1.76,0,0,0,1.74-1.54c.32-1.35-.71-1.54-1.09-1.54a1.7,1.7,0,0,0-1.67,1.54Zm.57,0c.2-.83.71-1,1-1s.71.19.58,1-.7,1-1,1S1908.44,40.85,1908.63,40Zm2.38,1.48h1.22c1,0,1.41-.9,1.54-1.54s.13-1.41-.9-1.41h-1.28l-.58,3Zm1.09-2.44h.58c.26,0,.64.07.45,1-.07.45-.32,1-.84,1h-.57l.38-1.93Zm3.72,1.35h.71a1.14,1.14,0,0,0,1.16-.9c.12-.58-.13-1-.71-1h-1.35l-.64,3h.64l.19-1.09Zm.13-.51.2-.84h.51c.32,0,.45.13.45.39s-.13.45-.58.45Zm4.43-.84h-1.54l-.13.64h1.42l-.13.52h-1.41l-.2.77h1.67l-.13.51h-2.24l.64-3h2.18l-.13.51Zm.19,1c-.25,1.35.71,1.54,1.1,1.54A1.8,1.8,0,0,0,1923.4,40c.26-1.35-.71-1.54-1.09-1.54A1.81,1.81,0,0,0,1920.57,40Zm.65,0c.13-.83.64-1,1-1s.77.19.58,1-.64,1-1,1S1921,40.85,1921.22,40Zm3.14.39h.71a1.19,1.19,0,0,0,1.15-.9c.13-.58-.12-1-.7-1h-1.35l-.64,3h.64l.19-1.09Zm.13-.51.19-.84h.45c.39,0,.52.13.45.39a.45.45,0,0,1-.51.45Zm2.5,1h1.42l-.13.58h-2.06l.65-3h.57l-.45,2.37Zm4.37-1.86h-1.54l-.13.64h1.41l-.13.52h-1.41l-.13.77H1931l-.13.51h-2.18l.57-3h2.19l-.13.51Z"/></g><image class="cls-1" width="906" height="322" transform="translate(2226.32 10.94) scale(0.11)" xlink:href="../nino-logo.png"/><g class="cls-1"><polygon class="cls-2" points="2128.55 37.44 2130.79 37.44 2129.71 34.5 2128.55 37.44"/><polygon class="cls-2" points="2137.51 22.09 2136.3 25.03 2138.53 25.03 2137.51 22.09"/><path class="cls-2" d="M2177.62,36.23V19a3.09,3.09,0,0,0-.51-1.47c-1.28-1.34-3-1.6-4.54-2.24-2.31-.64-4.67-.9-6.91-1.34A177.57,177.57,0,0,0,2147,12a100.29,100.29,0,0,0-15.8.45,135.74,135.74,0,0,0-19.71,2.94l-2,.64a6.37,6.37,0,0,0-2.75,1.67,5.1,5.1,0,0,0-.71,2v2.5l-.06.13.06.06V24c.13,4.15,0,8.63,0,13.05a8.53,8.53,0,0,0,.39,3.13c.64,1.79,2.3,2.37,4.54,3.2a60.74,60.74,0,0,0,8.95,1.6q6,.87,12,1.34a118.76,118.76,0,0,0,23.93-.45A165.81,165.81,0,0,0,2174,42.88C2177.94,41.92,2177.62,38.34,2177.62,36.23Zm-42-17.91H2141l3.39,9.78h-4.54l-.71-1.34H2136l-.64,1.41h-3.52Zm-8.57,0h4.22V28.1H2127Zm-13.63,3.32c1-2.81,4-4.09,6.91-4.22a13.15,13.15,0,0,1,5.06.77h0l.06,3c-2.17-.76-5.12-1.91-7.16-.25a2.85,2.85,0,0,0-.58,3,2.81,2.81,0,0,0,2.62,1.72,9.43,9.43,0,0,0,1.35-.32v-.89l-2.24-.51v-1.6h6.07V26.7c-.83,1.08-2.3,1.4-3.58,1.79-2.69.57-5.69.38-7.61-1.6A5.51,5.51,0,0,1,2113.39,21.64Zm10,11.13h-4.86v1.8h4v1.59l-3.9-.06v2.24h4.73v2.24h-9V30.85h9.08Zm8.77,7.74-.77-1.34h-3.14l-.7,1.41h-3.45l3.64-9.79h5.44l3.52,9.72Zm8.63-4.41a2.78,2.78,0,0,0,1.41,1.86,4.34,4.34,0,0,0,2.69,0V37h-2.18V35h6v4.55a10.55,10.55,0,0,1-9.86.44,5.28,5.28,0,0,1-2.43-5.63c.52-2.17,2.75-3.64,4.8-4.09a16.47,16.47,0,0,1,6.59.25l.9.32-.07,3.08a3.35,3.35,0,0,0-1-.52c-1.66-.83-4.16-1.34-5.82-.25A3,3,0,0,0,2140.77,36.1Zm8.64-8.06-3.71.06V18.25h3.71l4.8,4.42V18.19h3.52V28.1h-3.91L2149.41,24Zm9.6,12.54h-9.09V30.85h4.29v7.68h4.8Zm10-7.81h-4.93v1.8h4v1.59l-3.84-.06-.07,2.24h4.8v2.24h-9.08V30.85H2169Zm.83-11.83h-3.52V28h-4.42V20.87h-3.26V18.25l11.2-.06Z"/><path class="cls-2" d="M2181.14,39.94a2.59,2.59,0,1,1,2.62,2.56A2.58,2.58,0,0,1,2181.14,39.94Zm2.62,2.11a2.11,2.11,0,1,0-2.11-2.11A2,2,0,0,0,2183.76,42.05Zm-.57-.64h-.45V38.47h1.15c.71,0,1,.25,1,.83a.79.79,0,0,1-.77.83l.83,1.28h-.51l-.77-1.28h-.51v1.28Zm.51-1.66c.38,0,.77,0,.77-.45s-.32-.45-.64-.45h-.64v.9Z"/></g><g class="cls-1"><path id="path49191" class="cls-3" d="M2380,28.26c6.81-.78,5.4,4.08,5.4,4.08L2383.81,36h-3l1.39-3.51c.92-2.49-2.68-2.12-5.27.09-.91.79-3.51,3.33-.55,4.44a17.94,17.94,0,0,1,4,1.85c2.49,2.49-.37,5.72-2.68,5.72h-8.22l1.25-2.86h6.71c.81,0,.64-.74.27-.92s-1.12-.56-2.6-1.21c-4.3-1.67-3.32-4.52-3.32-4.52a10.24,10.24,0,0,1,8.27-6.85Z"/><path class="cls-3" d="M2434.43,34.92l-6.56,6.93c-.55.42-1.29.09-.83-.74l2.86-6.19h-4.15s-.93.1-.19-1.66h-2.77l-1,2.22s-.83,1.57.74,2L2419.28,42H2416c-.83,0-1-1.39-.09-1.39h3.51l1.3-2.91s.73-3.19-3-3.19c-3.33,0-4.8,3.7-4.9,3.79h-1.2s-.32-4.2-3-3.23l-1.76.74,1.37-3.51h-2.75l-2.5,6h-1.54a3.33,3.33,0,0,0-4.25-3.14,5.55,5.55,0,0,0-4.18,3.33h-1.2s-.19-4.07-4.25-3.33c-4.61.84-5.08,6-4.81,7,.11.4.74,3.05,3.42,2.77s4.2-2.17,5.17-4.25h1a4.07,4.07,0,0,0,0,1.48c.11.4.74,3.05,3.41,2.77s4.25-2.17,5.18-4.25h1.06l-3.4,8.87h3l2.21-6L2405.7,45s3,.09,5.45-4.25h.92s-.69,3.79,2.59,3.79h5.64l4.75-6.83h.83l-2.05,4.19s-1.11,2.45,1.48,2.59l3.38,0,2.26-2.26,0,2.23h2.68s1.38,0,2.49-2.06l2.22-7.49Zm-16.63,2.22c.6.52,0,1.2,0,1.2h-1.62C2416.05,38.34,2417.11,36.53,2417.8,37.14Zm-29.33,3.6c-1.2,2.31-2.72,1.66-2.72,1.66-1.34-1,.28-3.79.28-3.79,2.31-3,3.1-.09,3.1-.09h-1.26l-.74,2.22Zm9.63,0c-1.19,2.31-2.72,1.66-2.72,1.66-1.34-1,.28-3.79.28-3.79,2.47-3,3.1-.09,3.1-.09h-1.25l-.74,2.22Zm10.19-1.11c-1.07,2-3.84,2.86-3.84,2.86a8.63,8.63,0,0,1,2.45-4.06C2408,37.55,2409,38.24,2408.29,39.63Zm24.29,2c-1.48.37-1-.09-1-.09h0l3.05-3.42S2434.06,41.29,2432.58,41.66Z"/><g id="g49227"><path id="path49219" class="cls-3" d="M2388.6,20.45v6.93s-6.84,0-6.84,0v-3.6c0-1.87-3.32-1.87-3.32-.05v3.66h-7V8.92h7.06V14.4l4.07-5.47h7.3l-5.55,7.69A3.88,3.88,0,0,1,2388.6,20.45Z"/><rect id="rect49221" class="cls-3" x="2391.05" y="8.93" width="6.88" height="18.45"/><polygon id="polygon49223" class="cls-3" points="2411.6 27.35 2417.97 27.35 2417.97 8.91 2410.68 8.91 2410.68 13.8 2406.8 8.91 2400.61 8.91 2400.61 27.38 2407.63 27.38 2407.63 21.75 2411.6 27.35"/><path id="path49225" class="cls-3" d="M2422.75,27.36h10.76c2,0,3.21-1.2,3.21-2.93V17.59h-6.65v2.82c0,1.48-2.68,1.43-2.68,0V15.21a.7.7,0,0,1,.66-.67h6.69V8.91h-11.6a2.77,2.77,0,0,0-2.86,2.77V24.56A2.7,2.7,0,0,0,2422.75,27.36Z"/></g></g></g></g></svg>