<svg xmlns="http://www.w3.org/2000/svg" viewBox="0 0 654.34 654.34"><defs><style>.cls-1{opacity:0.7;}.cls-2{fill:#fff;}</style></defs><g id="레이어_2" data-name="레이어 2"><g id="레이어_1-2" data-name="레이어 1"><rect class="cls-1" width="654.34" height="654.34"/><path class="cls-2" d="M72.19,88a11.55,11.55,0,0,1-4-5.31,10.24,10.24,0,0,1-4.05,5.83L63,87.36A10.06,10.06,0,0,0,67.34,79v-2.2H63.46V75.41h9.3v1.41H69V79a8.8,8.8,0,0,0,4.24,7.83Zm2,3.63v-10H71.1V80.28h3.13v-6.7h1.66V91.66Zm3.86,1V73.12h1.68V92.65Z"/><path class="cls-2" d="M84.75,92.38V86.22h5.8V84H82.61V82.61h17.64V84h-8v2.2h5.83v6.16Zm-.42-16.95V74H98.42v1.4Zm.15,5.48v-1.4h3l-.51-3.13,1.77-.21.36,3.34H93.7l.44-3.36,1.76.18-.57,3.18h2.94v1.4ZM96.4,87.63h-10V91h10Z"/><path class="cls-2" d="M102.81,83.56v-9h8.92v9ZM110,76h-5.52v6.15H110Zm1.37,16.63c-4.26,0-6.64-1.45-6.64-3.72s2.38-3.76,6.64-3.76S118,86.62,118,88.93,115.64,92.65,111.4,92.65Zm-4.89-3.72c0,1.45,1.82,2.27,4.89,2.27s4.89-.82,4.89-2.27-1.81-2.31-4.89-2.31S106.51,87.46,106.51,88.93Zm6.17-12.66h3.51V73.12h1.7V85.28h-1.7V81.69h-3.53V80.28h3.53v-2.6h-3.51Z"/><path class="cls-2" d="M128.51,78.54h1.94v2h-1.94Zm0,8.21h1.94v2h-1.94Z"/><path class="cls-2" d="M151.23,86.81a54.59,54.59,0,0,1-10,.88H140V75.05h1.7V86.2a48.33,48.33,0,0,0,9.3-.82Zm3.11-5.94h3.19v1.45h-3.19V92.65h-1.7V73.12h1.7Z"/><path class="cls-2" d="M161.74,81.33a49.88,49.88,0,0,0,8.25-.54l.19,1.34a53.35,53.35,0,0,1-8.15.57l-2.71,0V74.3h9.07v1.38H161v2h7.08V79H161v2.31Zm-.45,11.13V87.67H172v-1.8H161.21V84.46h12.45V89H163V91h11.4v1.43ZM173.66,79v4.45H172V73.12h1.7v4.45h3V79Z"/><path class="cls-2" d="M190.71,87.32A66.16,66.16,0,0,1,181,88h-2V80.45h7.41V76.33H179v-1.4h9.19v6.93h-7.41v4.66h.48a59.78,59.78,0,0,0,9.33-.61ZM194,73.12V92.65h-1.7V73.12Z"/><path class="cls-2" d="M197.31,90V88.53H215V90Zm16-5.35c-3.27-1-6.44-3.76-7.24-5.76-.7,2-3.8,4.77-7.2,5.74L198,83.12c3.19-.61,7.25-3.64,7.25-6.83V74.74H207v1.55c0,3.19,4.28,6.22,7.29,6.89Z"/><path class="cls-2" d="M232.15,84.73v3.91h8v1.43H222.51V88.64h7.94V84.73c-3.74-.27-6.18-2.2-6.18-5.1,0-3.08,2.82-5.12,7-5.12s7.05,2,7.05,5.12C238.36,82.53,235.91,84.48,232.15,84.73Zm-.84-8.79c-3.26,0-5.38,1.49-5.38,3.73s2.12,3.72,5.38,3.72,5.41-1.49,5.41-3.72S234.6,75.94,231.31,75.94Z"/><path class="cls-2" d="M251.32,84.29a41.65,41.65,0,0,1-7.43.61h-1.26V79h5.75V76h-5.75V74.63h7.45v5.76h-5.75v3.1a33.46,33.46,0,0,0,6.82-.56ZM245.25,92V86.18H247v4.41h11.93V92Zm5.61-11.87V78.71h2.35V73.48h1.64v13.6h-1.64v-7Zm5.81,7.54V73.12h1.68V87.67Z"/><path class="cls-2" d="M272.17,88c-1.82-1.18-4.3-3.63-5-5.94a12.28,12.28,0,0,1-5.06,6.4l-1.05-1.26a10.48,10.48,0,0,0,5.2-8.69v-2h-4.55V75.07h10.87v1.41h-4.55v2a9.82,9.82,0,0,0,5.16,8.25Zm5-14.87V92.65h-1.7V73.12Z"/><path class="cls-2" d="M294.29,92.65v-7h-7.94V84.23H304v1.43h-8v7Zm8.06-10.25c-3.19-.54-6.3-2.52-7.18-4.34-.8,1.82-3.82,3.84-7.16,4.38L287.23,81c3.19-.34,7-2.38,7.06-5.11H288v-1.4h14.38v1.4h-6.28c.08,2.76,4.09,4.73,7.08,5.06Z"/><path class="cls-2" d="M305.67,90V88.53h17.64V90Zm16-5.35c-3.28-1-6.45-3.76-7.24-5.76-.7,2-3.8,4.77-7.21,5.74l-.9-1.47c3.19-.61,7.25-3.64,7.25-6.83V74.74h1.76v1.55c0,3.19,4.28,6.22,7.28,6.89Z"/><path class="cls-2" d="M329.29,92.42a13,13,0,0,1-3.86-9.12V83a12.9,12.9,0,0,1,3.86-9.11h1.54a13.54,13.54,0,0,0-3.59,8.94v.55a14.24,14.24,0,0,0,3.59,9.09Z"/><path class="cls-2" d="M341.7,84.73v3.91h8v1.43H332.07V88.64H340V84.73c-3.74-.27-6.17-2.2-6.17-5.1,0-3.08,2.81-5.12,7-5.12s7.06,2,7.06,5.12C347.92,82.53,345.46,84.48,341.7,84.73Zm-.84-8.79c-3.25,0-5.37,1.49-5.37,3.73s2.12,3.72,5.37,3.72,5.42-1.49,5.42-3.72S344.16,75.94,340.86,75.94Z"/><path class="cls-2" d="M360.88,84.29a41.68,41.68,0,0,1-7.44.61h-1.26V79h5.76V76h-5.76V74.63h7.46v5.76h-5.76v3.1a33.5,33.5,0,0,0,6.83-.56ZM354.81,92V86.18h1.7v4.41h11.92V92Zm5.6-11.87V78.71h2.36V73.48h1.63v13.6h-1.63v-7Zm5.82,7.54V73.12h1.68V87.67Z"/><path class="cls-2" d="M381.73,88c-1.83-1.18-4.31-3.63-5-5.94a12.23,12.23,0,0,1-5.06,6.4l-1.05-1.26a10.47,10.47,0,0,0,5.21-8.69v-2h-4.56V75.07h10.88v1.41h-4.56v2a9.83,9.83,0,0,0,5.17,8.25Zm5-14.87V92.65H385V73.12Z"/><path class="cls-2" d="M393.28,76.94l-2.77.65v-1l3.55-1.66H395V90.23h-1.7Z"/><path class="cls-2" d="M399.26,83.24V82c0-5.29,2.57-7.07,5.51-7.07s5.35,1.78,5.35,7v1.36c0,5.06-2.33,7.14-5.38,7.14S399.26,88.3,399.26,83.24Zm9,.28V81.88c0-3.78-1.21-5.5-3.52-5.5s-3.62,1.63-3.62,5.37v1.66c0,3.74,1.26,5.52,3.59,5.52S408.29,87.38,408.29,83.52Z"/><path class="cls-2" d="M413.33,83.24V82c0-5.29,2.57-7.07,5.51-7.07s5.35,1.78,5.35,7v1.36c0,5.06-2.33,7.14-5.38,7.14S413.33,88.3,413.33,83.24Zm9,.28V81.88c0-3.78-1.21-5.5-3.52-5.5s-3.62,1.63-3.62,5.37v1.66c0,3.74,1.26,5.52,3.59,5.52S422.36,87.38,422.36,83.52Z"/><path class="cls-2" d="M426.82,79.23v-.35c0-2.33,1.32-4,3.44-4s3.44,1.47,3.44,3.84v.36c0,2.37-1.32,4-3.44,4S426.82,81.65,426.82,79.23Zm5.35,0v-.5c0-1.83-.71-2.71-1.91-2.71s-1.91.86-1.91,2.69v.5c0,1.91.71,2.75,1.91,2.75S432.17,81.14,432.17,79.25Zm7.24-4.53h1.49L430.53,91H429Zm-3,11.74v-.34c0-2.37,1.37-4,3.49-4s3.42,1.49,3.42,3.84v.36c0,2.37-1.3,4-3.42,4S436.41,88.85,436.41,86.46Zm5.36,0V86c0-1.81-.7-2.69-1.87-2.69s-1.93.86-1.93,2.67v.53c0,1.88.69,2.72,1.93,2.72S441.77,88.34,441.77,86.48Z"/><path class="cls-2" d="M445.07,77.76v-1.4h11.38v1.4Zm5.66,7.29c-2.58,0-4.53-1.26-4.53-3.21s1.93-3.24,4.53-3.24,4.54,1.22,4.54,3.24S453.32,85.05,450.73,85.05Zm-2.91,7.33V86.27h12.34v6.11Zm2.91-12.45c-1.51,0-2.89.69-2.89,1.91s1.4,1.88,2.89,1.88,2.88-.71,2.88-1.88S452.27,79.93,450.73,79.93ZM448,75V73.54h5.45V75Zm10.43,12.68h-8.94V91h8.94Zm1.7-7.37v5h-1.68V73.12h1.68v5.73h3v1.43Z"/><path class="cls-2" d="M469,92.65V85.72h-4.56V84.29h17.64v1.43h-4.62v6.93h-1.7V85.72h-5.06v6.93Zm4.26-10.16c-4.33,0-6.93-1.7-6.93-4.24S469,74,473.29,74s6.93,1.71,6.93,4.25S477.61,82.49,473.29,82.49ZM468,78.25c0,1.65,2,2.72,5.25,2.72s5.27-1.07,5.27-2.72-2-2.73-5.27-2.73S468,76.59,468,78.25Z"/><path class="cls-2" d="M483.35,92.42a13.74,13.74,0,0,0,3.59-9v-.54a14.35,14.35,0,0,0-3.59-9.09h1.53A12.89,12.89,0,0,1,488.72,83v.35a12.87,12.87,0,0,1-3.84,9.12Z"/><path class="cls-2" d="M74.08,125.6A9.66,9.66,0,0,1,69.19,121c-.59,2-2.54,4-5,5.29l-1-1.36c2.77-1.16,5.15-3.8,5.15-6.91v-2.08H70v2c0,3.12,2.73,5.52,5.08,6.32Zm3.47,9.05v-5.42H66.23v-1.41h13v6.83Zm0-7.9V115.12h1.7v11.63Z"/><path class="cls-2" d="M84.75,134.38v-6.16h5.8V126H82.61v-1.41h17.64V126h-8v2.2h5.83v6.16Zm-.42-16.95V116H98.42v1.4Zm.15,5.48v-1.4h3l-.51-3.13,1.77-.21.36,3.34H93.7l.44-3.36,1.76.18-.57,3.18h2.94v1.4Zm11.92,6.72h-10V133h10Z"/><path class="cls-2" d="M106.49,134.65v-6.93h-4.56v-1.43h17.64v1.43H115v6.93h-1.7v-6.93h-5.06v6.93Zm4.26-10.16c-4.33,0-6.93-1.7-6.93-4.24s2.6-4.25,6.93-4.25,6.93,1.71,6.93,4.25S115.07,124.49,110.75,124.49Zm-5.25-4.24c0,1.65,2,2.72,5.25,2.72s5.27-1.07,5.27-2.72-2-2.73-5.27-2.73S105.5,118.59,105.5,120.25Z"/><path class="cls-2" d="M121.33,119.72v-1.36h10.9v1.36Zm5.59,7.48c-2.54,0-4.47-1.24-4.47-3.24s1.91-3.23,4.47-3.23,4.49,1.22,4.49,3.23S129.5,127.2,126.92,127.2ZM124,117V115.5h5.59V117Zm2.88,5.14c-1.51,0-2.79.67-2.79,1.87s1.3,1.87,2.79,1.87,2.81-.67,2.81-1.87S128.45,122.09,126.92,122.09Zm3.88,12.5c-4.24,0-6.44-1.26-6.44-3.34s2.2-3.38,6.44-3.38,6.49,1.3,6.49,3.38S135,134.59,130.8,134.59Zm-4.68-3.34c0,1.24,1.72,1.95,4.68,1.95s4.73-.69,4.73-1.95-1.77-2-4.73-2S126.12,130,126.12,131.25Zm9.39-3.38v-2.63h-3.45v-1.4h3.45v-2.25h-3.45V120.2h3.45v-5.08h1.7v12.75Z"/><path class="cls-2" d="M147.83,120.54h1.94v2h-1.94Zm0,8.21h1.94v2h-1.94Z"/><path class="cls-2" d="M171,129.69c-1.89.26-4.77.47-6.66.57s-4.14.15-5.77.15l-.26-1.49c1.07,0,2.82,0,4.29,0v-6.16h1.7v6.11a64.82,64.82,0,0,0,6.55-.56Zm-1.5-12.51a46.57,46.57,0,0,1-.69,8.94l-1.62-.21a33.79,33.79,0,0,0,.61-7.3h-8.5v-1.43Zm4.31,7.54v9.93h-1.7V115.12h1.7v8.15H177v1.45Z"/><path class="cls-2" d="M179.38,123.35h2.2v2.29h-2.2Z"/><path class="cls-2" d="M190.5,121.57v.5a7.84,7.84,0,0,0,4.1,7l-1,1.26a9.64,9.64,0,0,1-4-4.93,9.43,9.43,0,0,1-4,5.44l-1-1.16a8.71,8.71,0,0,0,4.18-7.58v-.54H185v-1.43h9.28v1.43ZM187,116.8h5.14v1.47H187Zm12.53,17.85V124.44h-2.31v9.22h-1.65V115.58h1.65V123h2.31v-7.92h1.68v19.53Z"/><path class="cls-2" d="M217.89,134.65v-7H210v-1.43h17.64v1.43h-8v7ZM226,124.4c-3.19-.54-6.3-2.52-7.18-4.34-.8,1.82-3.82,3.84-7.16,4.38l-.78-1.42c3.19-.34,7-2.38,7.06-5.11h-6.32v-1.4H226v1.4h-6.28c.09,2.76,4.1,4.73,7.08,5.06Z"/><path class="cls-2" d="M229.27,132v-1.43h17.64V132Zm16-5.35c-3.27-1-6.44-3.76-7.24-5.76-.69,2-3.8,4.77-7.2,5.74l-.91-1.47c3.2-.61,7.25-3.64,7.25-6.83v-1.55H239v1.55c0,3.19,4.28,6.22,7.29,6.89Z"/><path class="cls-2" d="M252.9,134.42A12.93,12.93,0,0,1,249,125.3V125a12.87,12.87,0,0,1,3.87-9.11h1.53a13.54,13.54,0,0,0-3.59,8.94v.55a14.24,14.24,0,0,0,3.59,9.09Z"/><path class="cls-2" d="M265.62,117.22c-.1,6.34-3.78,10.92-8.8,13.52l-1-1.32c4.87-2.27,7.67-6.38,8-10.77h-7.35v-1.43Zm5.06,6h3.19v1.45h-3.19v10H269V115.12h1.7Z"/><path class="cls-2" d="M285.09,120.39c0,2.75-2.21,4.54-4.92,4.54s-4.93-1.77-4.93-4.54a4.94,4.94,0,0,1,9.85,0Zm-8.19,0a3.05,3.05,0,0,0,3.27,3.09,3,3,0,0,0,3.26-3.07,3,3,0,0,0-3.26-3.13A3.08,3.08,0,0,0,276.9,120.37Zm1.51,14.13v-4.89h10.83v-2H278.39v-1.41h12.55v4.68H280.11v2.18h11.57v1.41Zm7.2-17.15h3.63v-2.23h1.7v10.23h-1.7V123h-3.63v-1.44h3.63v-2.73h-3.63Z"/><path class="cls-2" d="M294.22,121.21V119.8h11.53v1.41Zm5.82,9.32c-2.73,0-4.56-1.74-4.56-4s1.83-4,4.56-4,4.56,1.74,4.56,4S302.77,130.53,300,130.53Zm-2.9-12.62v-1.44h5.73v1.44Zm2.9,6a2.63,2.63,0,1,0,2.86,2.6A2.65,2.65,0,0,0,300,123.9Zm9.28.88v9.87h-1.7V115.12h1.7v8.23h3.17v1.43Z"/><path class="cls-2" d="M324.65,130c-1.83-1.18-4.3-3.63-5-5.94a12.23,12.23,0,0,1-5.06,6.4l-1.05-1.26a10.47,10.47,0,0,0,5.21-8.69v-2h-4.55v-1.41h10.87v1.41h-4.55v2a9.82,9.82,0,0,0,5.16,8.25Zm5-14.87v19.53H328V115.12Z"/><path class="cls-2" d="M343.28,120.69c0,2.81-2.29,4.57-5.06,4.57s-5.06-1.76-5.06-4.55,2.29-4.62,5.06-4.62S343.28,117.94,343.28,120.69Zm-2.65,12.68a20.93,20.93,0,0,1-5.88.73v-7h1.66v5.56a15,15,0,0,0,3.95-.65Zm-5.81-12.68a3.42,3.42,0,1,0,3.4-3.15A3.18,3.18,0,0,0,334.82,120.69Zm5.27,8.35v-1.36h9.76V129Zm4.85,5.84c-2,0-3.68-1-3.68-2.62s1.66-2.63,3.68-2.63,3.69,1,3.69,2.63S347,134.88,344.94,134.88Zm-2.17-8.15v-1.38h4.5v1.38Zm2.17,4.24c-1.1,0-2,.53-2,1.29s.92,1.28,2,1.28,2-.51,2-1.28S346.07,131,344.94,131Zm3-10v3.45h-1.7v-9.35H348v4.47h3V121Z"/><path class="cls-2" d="M352.27,131.81v-1.42H359v-7.06h1.7v7.06h9.19v1.42Zm15.26-12.19a40.91,40.91,0,0,1-.78,8.48l-1.68-.28a34.89,34.89,0,0,0,.7-7.34v-1.89H354.09v-1.43h13.44Z"/><path class="cls-2" d="M387.78,125.26a9.64,9.64,0,0,1-4.67-4.59c-.56,2-2.47,3.88-4.8,5.12l-1-1.32c2.75-1.22,5-3.74,5-6.83v-1.78H384v1.72c0,3.13,2.61,5.56,4.83,6.34ZM381,134.38v-7.73h1.7V129h9.05v-2.45h1.7v7.79Zm10.75-4h-9.05V133h9.05Zm-4-9.74v-1.41h4v-4.14h1.7v10.35h-1.7v-4.8Z"/><path class="cls-2" d="M402.33,133.91v-6.53c-1.87.09-3.7.11-5.46.15l-.27-1.47c2.33,0,4.47,0,6.63-.12,2.52-.11,5-.28,6.55-.45l.19,1.35c-1.45.19-3.8.33-5.94.44v6.63Zm-4.12-15.49h10.15v1.43h-4.27c.3,1.89,2.71,3.15,4.83,3.31l-.75,1.35c-2.1-.34-4.16-1.56-4.9-2.94-.67,1.47-2.6,2.83-5,3.29l-.8-1.28c2.25-.25,4.64-1.63,4.91-3.73h-4.16Zm2.42-2.71h5.31v1.41h-5.31Zm10.43,18.94V115.12h1.7v19.53Z"/><path class="cls-2" d="M416,121.21V119.8h11.53v1.41Zm5.82,9.32c-2.73,0-4.56-1.74-4.56-4s1.83-4,4.56-4,4.55,1.74,4.55,4S424.57,130.53,421.84,130.53Zm-2.9-12.62v-1.44h5.73v1.44Zm2.9,6a2.62,2.62,0,1,0,2.85,2.6A2.65,2.65,0,0,0,421.84,123.9Zm9.28.88v9.87h-1.7V115.12h1.7v8.23h3.17v1.43Z"/><path class="cls-2" d="M435.43,126.63V125.2h17.63v1.43Zm2.31,7.58v-5.75h1.7v4.34h11.73v1.41Zm.06-11.45v-6.82h1.7v5.42h11.59v1.4Z"/><path class="cls-2" d="M470,124.51a36.17,36.17,0,0,1-6.95.69h-1.45v-8.61h1.7v7.14a33.73,33.73,0,0,0,6.53-.61Zm.57,10.12c-4.25,0-6.72-1.41-6.72-3.63s2.47-3.66,6.72-3.66,6.76,1.41,6.76,3.66S474.78,134.63,470.52,134.63Zm0-5.86c-3,0-5,.82-5,2.23s1.93,2.22,5,2.22,5-.82,5-2.22S473.62,128.77,470.52,128.77Zm4.89-1.57v-5.46H472.8v4.74h-1.63v-11h1.63v4.85h2.61v-5.21h1.68V127.2Z"/><path class="cls-2" d="M489.6,122.51V125h8v1.41H480V125h7.95v-2.48h-5.79v-6.46h13.25v1.42H483.81v3.64h11.65v1.4Zm-.84,12.14c-4.28,0-6.69-1.26-6.69-3.42s2.41-3.41,6.69-3.41,6.72,1.2,6.72,3.41S493.05,134.65,488.76,134.65Zm-4.95-3.42c0,1.3,1.89,2,4.95,2s5-.71,5-2-1.89-2-5-2S483.81,130,483.81,131.23Z"/><path class="cls-2" d="M510.06,125.6a9.63,9.63,0,0,1-4.89-4.62c-.59,2-2.55,4-5,5.29l-1.05-1.36c2.77-1.16,5.14-3.8,5.14-6.91v-2.08H506v2c0,3.12,2.73,5.52,5.09,6.32Zm3.46,9.05v-5.42H502.21v-1.41h13v6.83Zm0-7.9V115.12h1.7v11.63Z"/><path class="cls-2" d="M520.73,134.38v-6.16h5.79V126h-7.93v-1.41h17.63V126h-8v2.2h5.84v6.16Zm-.42-16.95V116H534.4v1.4Zm.14,5.48v-1.4h3l-.5-3.13,1.76-.21.36,3.34h4.64l.44-3.36,1.77.18-.57,3.18h2.94v1.4Zm11.93,6.72h-10V133h10Z"/><path class="cls-2" d="M537.46,134.42a13.68,13.68,0,0,0,3.59-8.95v-.54a14.3,14.3,0,0,0-3.59-9.09H539a12.93,12.93,0,0,1,3.84,9.11v.35a12.92,12.92,0,0,1-3.84,9.12Z"/><path class="cls-2" d="M72.74,170.83a36.9,36.9,0,0,1-7.1.65H64.15V159.26h1.7V170a31.29,31.29,0,0,0,6.7-.61Zm5.35,5.82V166.32H75.51v9.32H73.87V157.58h1.64v7.31h2.58v-7.77h1.66v19.53Z"/><path class="cls-2" d="M95.69,164.22V167h4.56v1.41H82.61V167H87.1V164.2c-1.59-.63-2.48-1.68-2.48-3,0-2.23,2.52-3.68,6.81-3.68s6.82,1.45,6.82,3.68C98.25,162.54,97.33,163.59,95.69,164.22Zm-4.22,12.3c-4.3,0-6.91-1.19-6.91-3.44s2.61-3.44,6.89-3.44,6.93,1.21,6.93,3.44S95.75,176.52,91.47,176.52Zm-5.21-3.44c0,1.28,2.08,2,5.19,2s5.23-.69,5.23-2-2.08-2-5.23-2S86.26,171.8,86.26,173.08Zm5.17-14.17c-3.13,0-5.15.86-5.15,2.31s2,2.29,5.15,2.29,5.16-.87,5.16-2.29S94.56,158.91,91.43,158.91Zm-2.63,5.75V167H94v-2.31a15.52,15.52,0,0,1-2.56.19A14.09,14.09,0,0,1,88.8,164.66Z"/><path class="cls-2" d="M113.37,167.3a63,63,0,0,1-8.82.66h-1.84v-5.65h6.82v-2.54h-6.87v-1.41h8.57v5.33h-6.82v2.84h.25a52.76,52.76,0,0,0,8.48-.61Zm-2.69,9.24c-4.24,0-6.44-1.34-6.44-3.52s2.2-3.57,6.44-3.57,6.47,1.38,6.47,3.57S114.93,176.54,110.68,176.54ZM106,173c0,1.32,1.74,2.12,4.7,2.12s4.73-.76,4.73-2.12-1.76-2.17-4.73-2.17S106,171.65,106,173Zm13.92-7.25h-3V169h-1.7V157.12h1.7v3h3v1.4h-3v2.79h3Z"/><path class="cls-2" d="M128.51,162.54h1.94v2h-1.94Zm0,8.21h1.94v2h-1.94Z"/><path class="cls-2" d="M139.9,173.08l3.57-3.7c2.12-2.2,3.54-3.84,3.54-6s-.94-3-3.06-3a6.08,6.08,0,0,0-3.36,1.24l-.5-1.41a7.8,7.8,0,0,1,4.13-1.36c3,0,4.66,1.68,4.66,4.34s-1.57,4.39-4.15,7l-2.36,2.38h6.85v1.51H139.9Z"/><path class="cls-2" d="M151.09,173.27l.34-1.43a7,7,0,0,0,3.52,1.07c2.38,0,3.76-1.34,3.76-3.46,0-2.29-1.34-3.19-3.69-3.19a9.12,9.12,0,0,0-3.13.73l.54-7.85H160v1.51h-6.15l-.31,4.56a9.08,9.08,0,0,1,2.14-.32c3,0,4.87,1.43,4.87,4.58a4.9,4.9,0,0,1-5.27,4.93A7.53,7.53,0,0,1,151.09,173.27Z"/><path class="cls-2" d="M163.14,167.24V166c0-5.29,2.56-7.07,5.5-7.07s5.36,1.78,5.36,7v1.36c0,5.06-2.33,7.14-5.38,7.14S163.14,172.3,163.14,167.24Zm9,.28v-1.64c0-3.78-1.22-5.5-3.53-5.5S165,162,165,165.75v1.66c0,3.74,1.26,5.52,3.59,5.52S172.17,171.38,172.17,167.52Z"/><path class="cls-2" d="M177.28,163.06h1.61v1H179a6.52,6.52,0,0,1,3.44-1.18,2.87,2.87,0,0,1,2.67,1.24h.08a7,7,0,0,1,3.76-1.24c1.93,0,3,.89,3,3v8.25h-1.68v-7.9c0-1.34-.54-1.91-2-1.91a7.25,7.25,0,0,0-2.86.82,4.32,4.32,0,0,1,.07.74v8.25h-1.71v-7.9c0-1.34-.52-1.91-2-1.91a6.58,6.58,0,0,0-2.81.82v9h-1.7Z"/><path class="cls-2" d="M195.25,158.15H197v16h-1.72Z"/><path class="cls-2" d="M209.68,176.42a12.93,12.93,0,0,1-3.87-9.12V167a12.87,12.87,0,0,1,3.87-9.11h1.53a13.59,13.59,0,0,0-3.59,8.94v.55a14.29,14.29,0,0,0,3.59,9.09Z"/><path class="cls-2" d="M215.7,160.94l-2.77.65v-1l3.55-1.66h.92v15.32h-1.7Z"/><path class="cls-2" d="M224.21,160.94l-2.77.65v-1l3.55-1.66h.92v15.32h-1.7Z"/><path class="cls-2" d="M237,160.71h-7.62v-1.49H239v1.14l-5.88,13.87h-2Z"/><path class="cls-2" d="M247.08,158.15h1.7v16h-1.7ZM249,168.42l4.47-5.33h1.83l-4.35,5.2,4.7,5.84h-2Z"/><path class="cls-2" d="M257.07,168.82v-.34c0-3.93,2.31-5.63,5.19-5.63a5.3,5.3,0,0,1,3,.74V165a6.56,6.56,0,0,0-3.14-.72c-2,0-3.32,1.37-3.32,3.91v.54c0,2.84,1.17,4.12,3.55,4.12a6.19,6.19,0,0,0,3-.78v1.37a5.9,5.9,0,0,1-3.25.88C259,174.34,257.07,172.47,257.07,168.82Z"/><path class="cls-2" d="M267.07,171.23c0-1.93,1.24-3,3.36-3.21l3-.36v-1.15c0-1.72-.75-2.19-2.75-2.19a9.83,9.83,0,0,0-2.64.36v-1.22a8.43,8.43,0,0,1,3.31-.61c2.44,0,3.8,1,3.8,3.26v8h-1.38l-.19-.95h-.11a3.71,3.71,0,0,1-3,1.16C268.52,174.34,267.07,173.31,267.07,171.23Zm6.36,1v-3.26l-2.56.28c-1.34.14-2,.69-2,2s.82,1.81,2.1,1.81A3.8,3.8,0,0,0,273.43,172.2Z"/><path class="cls-2" d="M278.41,158.15h1.72v16h-1.72Z"/><path class="cls-2" d="M282.21,176.42a13.74,13.74,0,0,0,3.59-8.95v-.54a14.35,14.35,0,0,0-3.59-9.09h1.53a12.89,12.89,0,0,1,3.85,9.11v.35a12.88,12.88,0,0,1-3.85,9.12Z"/><path class="cls-2" d="M68.77,213.34v-3.55c-1.85.08-3.8.15-5.42.15l-.27-1.45c2,0,4.39,0,6.51-.09s4.3-.27,6.19-.48l.15,1.32c-1.24.17-3.4.32-5.46.44v3.66Zm.71-6.11c-3,0-5.22-1.33-5.22-3.59s2.2-3.61,5.22-3.61,5.19,1.4,5.19,3.63S72.51,207.23,69.48,207.23Zm-3.71,10.94v-5.65h1.7v4.22H79.73v1.43Zm3.71-16.74c-2.1,0-3.52.88-3.52,2.23s1.42,2.18,3.52,2.18S73,205,73,203.66,71.58,201.43,69.48,201.43Zm8.15,12.7V212H73.54v-1.34h4.09V199.12h1.7v15Z"/><path class="cls-2" d="M91.36,213.92a11.38,11.38,0,0,1-3.86-5.35,10.25,10.25,0,0,1-4,5.82l-1.13-1.2a10.06,10.06,0,0,0,4.34-8.34v-2H82.78v-1.41h9.3v1.41H88.34v1.93a9.28,9.28,0,0,0,4.1,7.9Zm6,4.73V208.36H95v9.3H93.36V199.58H95V207h2.41v-7.83h1.68v19.53Z"/><path class="cls-2" d="M114.76,210.94v3.78h4.81v1.43H101.93v-1.43h4.93v-3.78h-2.77V205h11.57v-3H104.15v-1.43h13.21v5.84H105.79v3.11h12.12v1.42Zm-6.22,3.78h4.54v-3.78h-4.54Z"/><path class="cls-2" d="M122.13,209.56v-8.95h8.92v8.95Zm7.22-7.54h-5.52v6.15h5.52Zm1.37,16.63c-4.26,0-6.64-1.45-6.64-3.72s2.38-3.76,6.64-3.76,6.63,1.45,6.63,3.76S135,218.65,130.72,218.65Zm-4.89-3.72c0,1.45,1.82,2.27,4.89,2.27s4.89-.82,4.89-2.27-1.81-2.31-4.89-2.31S125.83,213.46,125.83,214.93ZM132,202.27h3.51v-3.15h1.7v12.16h-1.7v-3.59H132v-1.41h3.53v-2.6H132Z"/><path class="cls-2" d="M147.83,204.54h1.94v2h-1.94Zm0,8.21h1.94v2h-1.94Z"/><path class="cls-2" d="M168.31,210.73v3.91h8v1.43H158.67v-1.43h7.94v-3.91c-3.74-.27-6.18-2.2-6.18-5.1,0-3.08,2.82-5.12,7-5.12s7.05,2,7.05,5.12C174.52,208.53,172.07,210.48,168.31,210.73Zm-.84-8.79c-3.26,0-5.38,1.49-5.38,3.73s2.12,3.72,5.38,3.72,5.41-1.49,5.41-3.72S170.76,201.94,167.47,201.94Z"/><path class="cls-2" d="M187.48,210.29a41.65,41.65,0,0,1-7.43.61h-1.26V205h5.75v-3h-5.75v-1.41h7.45v5.76h-5.75v3.1a33.46,33.46,0,0,0,6.82-.56ZM181.41,218v-5.82h1.7v4.41H195V218ZM187,206.13v-1.42h2.35v-5.23H191v13.6h-1.64v-7Zm5.81,7.54V199.12h1.68v14.55Z"/><path class="cls-2" d="M208.33,214c-1.82-1.18-4.3-3.63-5-5.94a12.28,12.28,0,0,1-5.06,6.4l-1.05-1.26a10.48,10.48,0,0,0,5.2-8.69v-2H197.9v-1.41h10.87v1.41h-4.55v2a9.84,9.84,0,0,0,5.16,8.25Zm5-14.87v19.53h-1.7V199.12Z"/><path class="cls-2" d="M219.88,202.94l-2.77.65v-1l3.55-1.66h.92v15.32h-1.7Z"/><path class="cls-2" d="M225.87,209.24V208c0-5.29,2.56-7.07,5.5-7.07s5.35,1.78,5.35,7v1.36c0,5.06-2.33,7.14-5.37,7.14S225.87,214.3,225.87,209.24Zm9,.28v-1.64c0-3.78-1.22-5.5-3.53-5.5s-3.61,1.63-3.61,5.37v1.66c0,3.74,1.26,5.52,3.59,5.52S234.9,213.38,234.9,209.52Z"/><path class="cls-2" d="M239.94,209.24V208c0-5.29,2.56-7.07,5.5-7.07s5.35,1.78,5.35,7v1.36c0,5.06-2.33,7.14-5.37,7.14S239.94,214.3,239.94,209.24Zm9,.28v-1.64c0-3.78-1.22-5.5-3.53-5.5s-3.61,1.63-3.61,5.37v1.66c0,3.74,1.26,5.52,3.59,5.52S249,213.38,249,209.52Z"/><path class="cls-2" d="M253.42,205.23v-.35c0-2.33,1.32-4,3.44-4s3.45,1.47,3.45,3.84v.36c0,2.37-1.32,4-3.45,4S253.42,207.65,253.42,205.23Zm5.36,0v-.5c0-1.83-.72-2.71-1.92-2.71s-1.91.86-1.91,2.69v.5c0,1.91.72,2.75,1.91,2.75S258.78,207.14,258.78,205.25Zm7.24-4.53h1.49L257.14,217h-1.49Zm-3,11.74v-.34c0-2.37,1.36-4,3.48-4s3.42,1.49,3.42,3.84v.36c0,2.37-1.3,4-3.42,4S263,214.85,263,212.46Zm5.35,0V212c0-1.81-.69-2.69-1.87-2.69s-1.93.86-1.93,2.67v.53c0,1.88.69,2.72,1.93,2.72S268.37,214.34,268.37,212.48Z"/><path class="cls-2" d="M72.93,252.5v4.22h8v1.43H63.29v-1.43h7.94V252.5H64.86v-1.43h3.2l-.55-5.22,1.76-.23.4,5.45h4.79l.69-5.43,1.68.27-.77,5.16h3.19v1.43Zm-8.09-7.93v-1.43H79.27v1.43Z"/><path class="cls-2" d="M82.74,242.53H93.38V244H89c0,.48,0,.86,0,1.07.15,2.5,2.48,4.64,4.7,5.37l-.94,1.37a9.39,9.39,0,0,1-4.66-4.29c-.53,1.83-2.82,3.93-4.91,4.83l-1-1.32c2.45-.94,4.93-3.4,5-6,0-.19,0-.57,0-1H82.74Zm8.58,18.1c-4.07,0-6.53-1.43-6.53-3.72s2.46-3.76,6.53-3.76,6.57,1.41,6.57,3.76S95.42,260.63,91.32,260.63Zm0-6c-2.94,0-4.76.82-4.76,2.33s1.82,2.29,4.76,2.29,4.83-.84,4.83-2.29S94.28,254.58,91.32,254.58Zm6.3-6.63v5.16h-1.7v-12h1.7v5.4h3V248Z"/><path class="cls-2" d="M110.68,255.92a11.38,11.38,0,0,1-3.86-5.35,10.25,10.25,0,0,1-4,5.82l-1.13-1.2a10.06,10.06,0,0,0,4.34-8.34v-2H102.1v-1.41h9.3v1.41h-3.74v1.93a9.28,9.28,0,0,0,4.1,7.9Zm6,4.73V250.36h-2.41v9.3h-1.64V241.58h1.64V249h2.41v-7.83h1.68v19.53Z"/><path class="cls-2" d="M122,242.3h10.8v1.43h-4.58l0,.6c0,2.5,2.54,4.62,4.77,5.36l-.95,1.32a9.5,9.5,0,0,1-4.72-4.28c-.53,1.82-2.82,4-5.06,4.89l-1-1.3c2.71-1,5.11-3.42,5.15-6v-.58H122Zm2.46,18.2v-4.83h11v-2h-11v-1.39h12.75V257H126.16v2.14h11.76v1.41Zm11-9.3V241.12h1.7V251.2Z"/><path class="cls-2" d="M147.83,246.54h1.94v2h-1.94Zm0,8.21h1.94v2h-1.94Z"/><path class="cls-2" d="M158.67,251.75v-1.41h7.94v-1.81h-6.2v-1.38h3l-.49-2.9,1.77-.23.33,3.13h4.77l.4-3.17,1.76.23-.52,2.94h3v1.38h-6.17v1.81h8v1.41Zm1.72-8.46v-1.41h14.09v1.41Zm.57,17.09V256H172.3v-1.51H160.88v-1.39H174v4.18H162.66V259h12.07v1.43Z"/><path class="cls-2" d="M190.71,255.32A66.16,66.16,0,0,1,181,256h-2v-7.52h7.41v-4.12H179v-1.4h9.19v6.93h-7.41v4.66h.48a59.78,59.78,0,0,0,9.33-.61Zm3.32-14.2v19.53h-1.7V241.12Z"/><path class="cls-2" d="M206.21,248.85h2.1V241.5H210v18.2h-1.66v-9.44h-2.1c-.19,3.52-1.61,5.92-4.28,5.92-2.86,0-4.31-2.75-4.31-6.68s1.45-6.68,4.31-6.68C204.62,242.82,206.07,245.3,206.21,248.85Zm-4.28-4.54c-1.58,0-2.58,2-2.58,5.19s1,5.19,2.58,5.19,2.6-2,2.6-5.19S203.5,244.31,201.93,244.31Zm10.18,16.34V241.12h1.68v19.53Z"/><path class="cls-2" d="M228.74,250.13a54.88,54.88,0,0,1-9.19.59h-1.83v-8.57h9v1.41h-7.33v2h7.06V247h-7.06v2.33h.63a55.06,55.06,0,0,0,8.53-.52ZM220,260.5v-4.76h10.9v-1.83h-11v-1.43h12.71V257h-10.9v2H233.3v1.43Zm10.9-9V241.12h1.7v10.35Z"/><path class="cls-2" d="M245.44,252.29a41.65,41.65,0,0,1-7.43.61h-1.26V247h5.75v-3h-5.75v-1.41h7.45v5.76h-5.75v3.1a33.46,33.46,0,0,0,6.82-.56ZM239.37,260v-5.82h1.7v4.41H253V260ZM245,248.13v-1.42h2.35v-5.23H249v13.6h-1.64v-7Zm5.81,7.54V241.12h1.68v14.55Z"/><path class="cls-2" d="M72.19,298a11.55,11.55,0,0,1-4-5.31,10.24,10.24,0,0,1-4.05,5.83L63,297.36A10.06,10.06,0,0,0,67.34,289v-2.2H63.46v-1.41h9.3v1.41H69V289a8.8,8.8,0,0,0,4.24,7.83Zm2,3.63v-10H71.1v-1.41h3.13v-6.7h1.66v18.08Zm3.86,1V283.12h1.68v19.53Z"/><path class="cls-2" d="M82.61,300.15v-1.43h7.94v-4.85h1.7v4.85h8v1.43Zm9.72-13.69v.42c0,3.07,4.3,5.94,7.24,6.51l-.88,1.43c-3.13-.88-6.34-3.32-7.26-5.46-.82,2.2-4.05,4.6-7.29,5.42l-.82-1.43c3.09-.55,7.23-3.36,7.23-6.47v-.42H84.12V285.1H98.78v1.36Z"/><path class="cls-2" d="M109.24,296.06V298c2.18-.13,4.49-.32,5.75-.51l.15,1.37c-1.54.21-4.43.44-6.81.58-2.18.13-4.36.19-6,.21l-.28-1.49c1.47,0,3.45,0,5.51-.06v-2c-2.34-.24-3.85-1.47-3.85-3.24,0-2,1.89-3.29,4.71-3.29s4.7,1.26,4.7,3.29C113.1,294.63,111.59,295.82,109.24,296.06Zm-6.6-7.56v-1.41h11.61v1.41Zm5.76,2.43c-1.81,0-3.05.76-3.05,1.89s1.24,1.89,3.05,1.89,3-.77,3-1.89S110.22,290.93,108.4,290.93Zm-2.86-5.41v-1.43h5.61v1.43Zm10.73,17.13V283.12H118v19.53Z"/><path class="cls-2" d="M131.64,297.88a13.28,13.28,0,0,1-5-6.07,12.64,12.64,0,0,1-4.9,6.51l-1.09-1.3a10.88,10.88,0,0,0,5.13-8.71v-3.47h1.74v3.41a10.17,10.17,0,0,0,5.16,8.33Zm4.62-5.46v10.23h-1.7V283.12h1.7V291h3.15v1.42Z"/><path class="cls-2" d="M147.83,288.54h1.94v2h-1.94Zm0,8.21h1.94v2h-1.94Z"/><path class="cls-2" d="M158.9,292.82v-.38c0-4.7,2.48-7.53,6.62-7.53s6.52,2.66,6.52,7.56v.37c0,4.71-2.47,7.54-6.59,7.54S158.9,297.72,158.9,292.82Zm11.23.34v-.69c0-3.64-1.32-6.09-4.7-6.11-3.09,0-4.62,2.41-4.62,5.75v.69c0,3.63,1.32,6.13,4.68,6.13C168.6,298.93,170.13,296.5,170.13,293.16Z"/><path class="cls-2" d="M174.76,289.06h1.61v1.24h.13a4.3,4.3,0,0,1,3.06-1.36,2.86,2.86,0,0,1,.68.06v1.53a6.43,6.43,0,0,0-.8-.06,5.11,5.11,0,0,0-3,1v8.69h-1.72Z"/><path class="cls-2" d="M181.79,294.82v-.34c0-3.93,2.31-5.63,5.19-5.63a5.3,5.3,0,0,1,3,.74V291a6.58,6.58,0,0,0-3.15-.72c-2,0-3.31,1.37-3.31,3.91v.54c0,2.84,1.17,4.12,3.54,4.12a6.23,6.23,0,0,0,3.05-.78v1.37a5.94,5.94,0,0,1-3.26.88C183.72,300.34,181.79,298.47,181.79,294.82Z"/><path class="cls-2" d="M192.54,284.15h1.7V290h.11a6.85,6.85,0,0,1,3.74-1.16c2.16,0,3.21.91,3.21,3v8.23h-1.7v-7.9c0-1.34-.49-1.91-2.25-1.91a7.59,7.59,0,0,0-3.11.84v9h-1.7Z"/><path class="cls-2" d="M204.55,285.05h1.75v1.79h-1.75Zm0,4h1.7v11h-1.7Z"/><path class="cls-2" d="M208.94,294.92v-.29c0-4,2.08-5.78,4.94-5.78a5.48,5.48,0,0,1,2.89.74v-5.44h1.73v16h-1.43l-.19-.9h-.11a4.51,4.51,0,0,1-3.23,1.11C211.34,300.34,208.94,299,208.94,294.92Zm7.83,3.07v-7a4.62,4.62,0,0,0-2.66-.72c-2.1,0-3.38,1.09-3.38,4.1v.44c0,3.11,1.34,4.09,3.32,4.09A4.09,4.09,0,0,0,216.77,298Z"/><path class="cls-2" d="M228,285.16h1.77v15H228Z"/><path class="cls-2" d="M232.69,299.54v-1.36a8.23,8.23,0,0,0,3.32.69c1.76,0,2.48-.63,2.48-1.64s-.51-1.47-1.91-1.87l-1.09-.29c-1.62-.44-2.71-1.18-2.71-3.07s1.22-3.15,3.78-3.15a6.14,6.14,0,0,1,3,.66v1.38a7.09,7.09,0,0,0-2.92-.59c-1.49,0-2.25.53-2.25,1.56s.49,1.36,1.66,1.7l1.12.29c2.12.57,3,1.28,3,3.21,0,2.1-1.47,3.26-3.91,3.26A7.32,7.32,0,0,1,232.69,299.54Z"/><path class="cls-2" d="M242.77,284.15h1.73v16h-1.73Z"/><path class="cls-2" d="M247.06,297.23c0-1.93,1.24-3,3.36-3.21l3-.36v-1.15c0-1.72-.76-2.19-2.75-2.19a10,10,0,0,0-2.65.36v-1.22a8.51,8.51,0,0,1,3.32-.61c2.44,0,3.8,1,3.8,3.26v8h-1.39l-.18-.95h-.11a3.71,3.71,0,0,1-3,1.16C248.51,300.34,247.06,299.31,247.06,297.23Zm6.36,1v-3.26l-2.56.28c-1.35.14-2,.69-2,2s.82,1.81,2.1,1.81A3.8,3.8,0,0,0,253.42,298.2Z"/><path class="cls-2" d="M258.35,289.06H260v1h.11a7.25,7.25,0,0,1,3.82-1.18c2.16,0,3.21.89,3.21,3v8.25h-1.7v-7.9c0-1.34-.48-1.91-2.25-1.91a7.8,7.8,0,0,0-3.1.82v9h-1.71Z"/><path class="cls-2" d="M269.67,294.92v-.29c0-4,2.08-5.78,4.94-5.78a5.55,5.55,0,0,1,2.9.74v-5.44h1.72v16H277.8l-.19-.9h-.1a4.56,4.56,0,0,1-3.24,1.11C272.07,300.34,269.67,299,269.67,294.92Zm7.84,3.07v-7a4.68,4.68,0,0,0-2.67-.72c-2.1,0-3.38,1.09-3.38,4.1v.44c0,3.11,1.34,4.09,3.32,4.09A4.14,4.14,0,0,0,277.51,298Z"/><path class="cls-2" d="M287.52,299.73v-1.41a8.42,8.42,0,0,0,2.63.44c1.7,0,2.39-.9,2.39-2.47V285.16h1.81v11.17c0,2.22-1.2,4-4.06,4A6.16,6.16,0,0,1,287.52,299.73Z"/><path class="cls-2" d="M297.75,297.11v-8.05h1.7v7.79c0,1.43.53,2,2.16,2a6.64,6.64,0,0,0,3.07-.88v-8.93h1.7v11.07h-1.47l-.17-1h-.08a6.39,6.39,0,0,1-3.53,1.2C299,300.34,297.75,299.25,297.75,297.11Z"/><path class="cls-2" d="M309.7,285.05h1.74v1.79H309.7Zm0,4h1.7v11h-1.7Z"/><path class="cls-2" d="M314.05,294.82v-.34c0-3.93,2.3-5.63,5.18-5.63a5.36,5.36,0,0,1,3,.74V291a6.61,6.61,0,0,0-3.15-.72c-2,0-3.32,1.37-3.32,3.91v.54c0,2.84,1.17,4.12,3.55,4.12a6.19,6.19,0,0,0,3-.78v1.37a5.9,5.9,0,0,1-3.25.88C316,300.34,314.05,298.47,314.05,294.82Z"/><path class="cls-2" d="M324.1,294.75v-.31c0-3.86,2.27-5.59,4.83-5.59,3,0,4.45,1.77,4.45,5.21v1h-7.53c.08,2.77,1.4,3.84,3.75,3.84a7.31,7.31,0,0,0,3.47-.84v1.28a6.61,6.61,0,0,1-3.72,1C325.87,300.34,324.1,298.22,324.1,294.75Zm1.75-1.09h5.75c0-2.41-.92-3.42-2.73-3.42C327.48,290.24,326,291,325.85,293.66Z"/><path class="cls-2" d="M341.3,292.82v-.46c0-5.35,3-7.45,6.83-7.45a7.52,7.52,0,0,1,3.67.82v1.47a9.58,9.58,0,0,0-3.78-.8c-2.83,0-4.83,1.7-4.83,5.67v.75c0,3.84,1.43,6.07,4.85,6.07a8,8,0,0,0,3.93-1v1.49a8.1,8.1,0,0,1-4.14,1C343.78,300.38,341.3,297.88,341.3,292.82Z"/><path class="cls-2" d="M353.88,294.8v-.34c0-3.51,2-5.61,5-5.61,3.13,0,5,2,5,5.55v.31c0,3.53-2,5.63-5,5.63S353.88,298.32,353.88,294.8Zm8.29.1v-.54c0-3.09-1.49-4.1-3.29-4.1-2,0-3.26,1.43-3.26,4v.55c0,3.08,1.45,4.09,3.3,4.09C360.94,298.93,362.17,297.53,362.17,294.9Z"/><path class="cls-2" d="M366.5,289.06h1.62v1h.1a6.56,6.56,0,0,1,3.45-1.18,2.84,2.84,0,0,1,2.66,1.24h.09a7,7,0,0,1,3.76-1.24c1.93,0,3,.89,3,3v8.25h-1.68v-7.9c0-1.34-.55-1.91-2-1.91a7.2,7.2,0,0,0-2.85.82,4.35,4.35,0,0,1,.06.74v8.25H373v-7.9c0-1.34-.52-1.91-2-1.91a6.59,6.59,0,0,0-2.82.82v9h-1.7Z"/><path class="cls-2" d="M384.44,289.09h1.63V290h.11a5,5,0,0,1,3.27-1.12c2.44,0,4.54,1.35,4.54,5.46v.3c0,4-1.95,5.73-5,5.73a5.5,5.5,0,0,1-2.83-.74v3.85h-1.72Zm7.76,5.75v-.44c0-3.13-1.15-4.1-3.19-4.1a5.13,5.13,0,0,0-2.85.82v7a4.41,4.41,0,0,0,2.66.77C390.92,298.93,392.2,297.82,392.2,294.84Z"/><path class="cls-2" d="M395.86,297.23c0-1.93,1.24-3,3.36-3.21l3-.36v-1.15c0-1.72-.75-2.19-2.75-2.19a9.83,9.83,0,0,0-2.64.36v-1.22a8.43,8.43,0,0,1,3.31-.61c2.44,0,3.8,1,3.8,3.26v8h-1.38l-.19-.95h-.11a3.71,3.71,0,0,1-3,1.16C397.31,300.34,395.86,299.31,395.86,297.23Zm6.36,1v-3.26l-2.56.28c-1.34.14-2,.69-2,2s.82,1.81,2.1,1.81A3.8,3.8,0,0,0,402.22,298.2Z"/><path class="cls-2" d="M407.16,289.06h1.61v1h.11a7.3,7.3,0,0,1,3.82-1.18c2.16,0,3.21.89,3.21,3v8.25h-1.7v-7.9c0-1.34-.48-1.91-2.24-1.91a7.84,7.84,0,0,0-3.11.82v9h-1.7Z"/><path class="cls-2" d="M418.58,303.15v-1.28a6.5,6.5,0,0,0,1.07.17,2,2,0,0,0,2.21-1.39l.35-.92L418,289.06h1.85l3.25,8.42h.05l3-8.42h1.7l-4.35,11.76c-.73,2-1.66,2.65-3.48,2.65A3.6,3.6,0,0,1,418.58,303.15Z"/><path class="cls-2" d="M68.77,339.34v-3.55c-1.85.08-3.8.15-5.42.15l-.27-1.45c2,0,4.39,0,6.51-.09s4.3-.27,6.19-.48l.15,1.32c-1.24.17-3.4.32-5.46.44v3.66Zm.71-6.11c-3,0-5.22-1.33-5.22-3.59s2.2-3.61,5.22-3.61,5.19,1.4,5.19,3.63S72.51,333.23,69.48,333.23Zm-3.71,10.94v-5.65h1.7v4.22H79.73v1.43Zm3.71-16.74c-2.1,0-3.52.88-3.52,2.23s1.42,2.18,3.52,2.18S73,331,73,329.66,71.58,327.43,69.48,327.43Zm8.15,12.7V338H73.54v-1.34h4.09V325.12h1.7v15Z"/><path class="cls-2" d="M92.77,336.14a9.21,9.21,0,0,1-4.7-4.7,9.9,9.9,0,0,1-4.79,5.4l-1-1.37a8.23,8.23,0,0,0,4.94-7.09v-2.21h1.72v2.14a7.2,7.2,0,0,0,4.87,6.47ZM85.4,344v-6.09h1.7v4.68H98.31V344Zm12.22-11.51v6.79h-1.7V325.12h1.7v6h3v1.42Z"/><path class="cls-2" d="M113,340c-1.82-1.18-4.3-3.63-5-5.94a12.28,12.28,0,0,1-5.06,6.4l-1-1.26a10.48,10.48,0,0,0,5.2-8.69v-2h-4.55v-1.41h10.87v1.41h-4.55v2a9.82,9.82,0,0,0,5.16,8.25Zm5-14.87v19.53h-1.7V325.12Z"/><path class="cls-2" d="M128.51,330.54h1.94v2h-1.94Zm0,8.21h1.94v2h-1.94Z"/><path class="cls-2" d="M140.44,339.61V327.14h9.22v12.47ZM148,328.55h-5.82v9.65H148Zm5.6,16.1V325.12h1.71v19.53Z"/><path class="cls-2" d="M166.63,338.18v-3.63h-8v-1.43h13a24.23,24.23,0,0,0,.63-5.52H160.83v-1.41h13.25a29.75,29.75,0,0,1-.69,6.93h2.92v1.43h-8v3.63h5.73v6.59h-1.7v-5.18h-11.8v-1.41Z"/><path class="cls-2" d="M72.93,378.8v4h8v1.42H63.29v-1.42h7.94v-4h-5.8V368.47h1.7v3.59h10v-3.59h1.7V378.8Zm4.15-5.34h-10v3.93h10Z"/><path class="cls-2" d="M94.81,378.27c-1.77.25-4.5.48-6.34.57-2,.08-4.37.19-6,.19l-.23-1.54c1.14,0,2.92,0,4.37,0v-4.62h1.68v4.58a59.06,59.06,0,0,0,6.32-.5Zm-1.49-9.74a29.51,29.51,0,0,1-.61,6.86l-1.64-.25a21.34,21.34,0,0,0,.5-5.18h-8.1v-1.43Zm-8.11,17.64v-5.69h1.7v4.26H98.48v1.43Zm12.5-11.34v6.95H96V367.12h1.71v6.28h2.91v1.43Z"/><path class="cls-2" d="M102.58,377.45v-9.28h1.7v3.21H110v-3.21h1.7v9.28Zm7.45-4.66h-5.75v3.26H110Zm.72,13.8c-4.12,0-6.36-1.45-6.36-3.7s2.24-3.72,6.36-3.72,6.4,1.49,6.4,3.72S114.84,386.59,110.75,386.59Zm-4.6-3.7c0,1.43,1.72,2.31,4.6,2.31s4.66-.88,4.66-2.31-1.68-2.33-4.66-2.33S106.15,381.48,106.15,382.89Zm10.79-9.22v5.11h-1.7V367.12h1.7v5.13h3v1.42Z"/><path class="cls-2" d="M122,377.22v-9.05h1.71v3.05h5.62v-3.05H131v9.05Zm7.33-4.6h-5.62v3.19h5.62Zm-4.55,13.76v-7.63h1.7v2.42h9.11v-2.46h1.7v7.67Zm10.81-3.83h-9.11V385h9.11ZM132,373.27v-1.44h3.57v-4.71h1.7v10.54h-1.7v-4.39Z"/><path class="cls-2" d="M147.83,372.54h1.94v2h-1.94Zm0,8.21h1.94v2h-1.94Z"/><path class="cls-2" d="M168,376.51a36.09,36.09,0,0,1-7,.69h-1.45v-8.61h1.7v7.14a33.58,33.58,0,0,0,6.53-.61Zm.57,10.12c-4.24,0-6.72-1.41-6.72-3.63s2.48-3.66,6.72-3.66,6.76,1.41,6.76,3.66S172.82,386.63,168.56,386.63Zm0-5.86c-3,0-5,.82-5,2.23s1.94,2.22,5,2.22,5-.82,5-2.22S171.67,380.77,168.56,380.77Zm4.89-1.57v-5.46h-2.6v4.74h-1.64v-11h1.64v4.85h2.6v-5.21h1.68V379.2Z"/><path class="cls-2" d="M187.65,374.51V377h8v1.41H178V377h8v-2.48h-5.8v-6.46H193.4v1.42H181.85v3.64h11.66v1.4Zm-.84,12.14c-4.28,0-6.7-1.26-6.7-3.42s2.42-3.41,6.7-3.41,6.72,1.2,6.72,3.41S191.09,386.65,186.81,386.65Zm-5-3.42c0,1.3,1.89,2,5,2s5-.71,5-2-1.88-2-5-2S181.85,382,181.85,383.23Z"/><path class="cls-2" d="M207,378.8v4h8v1.42H197.31v-1.42h7.94v-4h-5.8V368.47h1.7v3.59h9.95v-3.59h1.71V378.8Zm4.15-5.34h-9.95v3.93h9.95Z"/><path class="cls-2" d="M228.83,378.27c-1.77.25-4.49.48-6.34.57-2,.08-4.37.19-6,.19l-.23-1.54c1.14,0,2.92,0,4.37,0v-4.62h1.68v4.58a59.06,59.06,0,0,0,6.32-.5Zm-1.49-9.74a29.51,29.51,0,0,1-.61,6.86l-1.64-.25a21.85,21.85,0,0,0,.51-5.18h-8.11v-1.43Zm-8.11,17.64v-5.69h1.7v4.26H232.5v1.43Zm12.5-11.34v6.95H230V367.12h1.7v6.28h2.91v1.43Z"/><path class="cls-2" d="M242.14,376.17h7.37v1.49h-7.37Z"/><path class="cls-2" d="M253.53,370.94l-2.78.65v-1l3.55-1.66h.93v15.32h-1.7Z"/><path class="cls-2" d="M259.11,380.31c0-1.95,1.7-3.32,3.36-4-1.62-.63-2.92-1.76-2.92-3.67,0-2.19,1.85-3.78,4.73-3.78s4.72,1.36,4.72,3.67c0,1.83-1.51,2.88-3,3.67,1.84.61,3.63,1.68,3.63,3.93s-2,4.26-5.25,4.26S259.11,382.79,259.11,380.31Zm8.59,0c0-1.85-1.24-2.52-3.82-3.34-1.47.53-3,1.6-3,3.23s1.43,2.71,3.4,2.71S267.7,381.88,267.7,380.35Zm-.57-7.71c0-1.32-1-2.28-2.83-2.28s-2.86.81-2.86,2.24,1.22,2.46,3.19,3C266,375,267.13,374.07,267.13,372.64Z"/><path class="cls-2" d="M271.44,370.42a2.37,2.37,0,1,1,2.37,2.37A2.33,2.33,0,0,1,271.44,370.42Zm3.59,0a1.23,1.23,0,1,0-2.44,0,1.23,1.23,0,1,0,2.44,0Zm.59,6.09v-.46c0-5.36,3-7.46,6.82-7.46a7.68,7.68,0,0,1,3.68.82v1.47a9.76,9.76,0,0,0-3.78-.8c-2.84,0-4.83,1.7-4.83,5.67v.76c0,3.84,1.43,6.07,4.85,6.07a8,8,0,0,0,3.92-1v1.49a8.06,8.06,0,0,1-4.13,1C278.1,384.07,275.62,381.57,275.62,376.51Z"/><path class="cls-2" d="M299.87,368.59c3.24,0,5,2.77,5,6.91s-1.8,6.89-5,6.89-5-2.75-5-6.91S296.66,368.59,299.87,368.59Zm0,1.47c-2.06,0-3.42,2.23-3.42,5.44s1.36,5.42,3.42,5.42,3.42-2.23,3.42-5.42S302,370.06,299.87,370.06Zm8.67,16.59V367.12h1.7v19.53Z"/><path class="cls-2" d="M313.42,373.21V371.8h11.52v1.41Zm5.81,9.32c-2.73,0-4.55-1.74-4.55-4s1.82-4,4.55-4,4.56,1.74,4.56,4S322,382.53,319.23,382.53Zm-2.89-12.62v-1.44h5.73v1.44Zm2.89,6a2.63,2.63,0,1,0,2.86,2.6A2.64,2.64,0,0,0,319.23,375.9Zm9.28.88v9.87h-1.7V367.12h1.7v8.23h3.17v1.43Z"/><path class="cls-2" d="M63.9,420.33v-9.88h1.7v3.33h5.82v-3.33h1.7v9.88Zm7.52-5.16H65.6V419h5.82ZM65.89,428v-6h1.7v4.62H79.06V428ZM78.3,416.34v6.93H76.6V409.12h1.7v5.8h3v1.42Z"/><path class="cls-2" d="M84.75,428.38v-6.16h5.8V420H82.61v-1.41h17.64V420h-8v2.2h5.83v6.16Zm-.42-16.95V410H98.42v1.4Zm.15,5.48v-1.4h3l-.51-3.13,1.77-.21.36,3.34H93.7l.44-3.36,1.76.18-.57,3.18h2.94v1.4Zm11.92,6.72h-10V427h10Z"/><path class="cls-2" d="M108.71,418.53v-8h9.39v8ZM124.21,429c-2.77-.33-5.42-1.63-6.51-3.38-1,1.77-4,3.11-6.66,3.34l-.69-1.32c2.79-.23,5.88-1.64,6.38-3.4h-5.65v-1.41H124.4v1.41h-5.74c.55,1.76,3.89,3.17,6.39,3.42Zm-7.79-17.07h-6v5.21h6Zm-1.81,9.29v-1.45h6.17v1.45Zm7.5-1.45V409.12h1.7v10.63Z"/><path class="cls-2" d="M133,425.75v-1.43h4.43v-6.74h1.7v6.74h3.23v-6.74h1.7v6.74h6.58v1.43Zm15.47-12.13a41.63,41.63,0,0,1-.77,8.48l-1.68-.28a35.63,35.63,0,0,0,.69-7.34v-1.77H134.88v-1.42h13.6Z"/><path class="cls-2" d="M164.61,422c-1.43.19-4,.42-6.26.57s-4.64.21-6,.21l-.27-1.43c1.42,0,3.38,0,5.35-.08v-1.37c-2.08-.19-3.65-1.07-3.65-2.73,0-1.93,2.08-2.87,4.57-2.87s4.62.92,4.62,2.85c0,1.7-1.68,2.58-3.82,2.77v1.26c2.06-.12,4.2-.31,5.36-.48Zm-12-8.33v-1.39H164v1.39ZM155,428.31v-4.85h1.7v3.45h11.17v1.4Zm3.33-12.7c-1.7,0-3,.48-3,1.49s1.28,1.47,3,1.47,3-.5,3-1.47S160.08,415.61,158.35,415.61ZM155.71,411v-1.42h5.37V411Zm11.67,6.51v6.76h-1.7V409.08h1.7v7h3.07v1.43Z"/><path class="cls-2" d="M171.77,410.53h10.65V412H178c0,.48,0,.86,0,1.07.15,2.5,2.48,4.64,4.7,5.37l-.94,1.37a9.39,9.39,0,0,1-4.66-4.29c-.53,1.83-2.82,3.93-4.92,4.83l-1-1.32c2.45-.94,4.93-3.4,5-6,0-.19,0-.57,0-1.05h-4.5Zm8.59,18.1c-4.07,0-6.53-1.43-6.53-3.72s2.46-3.76,6.53-3.76,6.57,1.41,6.57,3.76S184.46,428.63,180.36,428.63Zm0-6.05c-2.94,0-4.76.82-4.76,2.33s1.82,2.29,4.76,2.29,4.83-.84,4.83-2.29S183.32,422.58,180.36,422.58Zm6.3-6.63v5.16H185v-12h1.7v5.4h3V416Z"/><path class="cls-2" d="M191,426.15v-1.43h7.93v-5h1.71v5h8v1.43Zm16-6c-3.43-.94-6.36-3.38-7.2-5.58-.76,2.25-3.76,4.66-7.19,5.58l-.88-1.36c3.4-.65,7.2-3.42,7.2-6.78v-1.41h1.77V412c0,3.36,4,6.17,7.24,6.78Z"/><path class="cls-2" d="M217.55,414.54h1.94v2h-1.94Zm0,8.21h1.94v2h-1.94Z"/><path class="cls-2" d="M243.72,410.57a40.76,40.76,0,0,1-.72,8.65h3v1.43h-8v8h-1.7v-8h-8v-1.43H241.3A33.26,33.26,0,0,0,242,412H230.47v-1.41Z"/><path class="cls-2" d="M258.27,414.64c0,2.78-2.27,4.52-5,4.52s-5-1.74-5-4.49,2.27-4.58,5-4.58S258.27,411.87,258.27,414.64Zm-8.33,0a3.07,3.07,0,0,0,3.31,3.11,3.1,3.1,0,1,0,0-6.19A3.07,3.07,0,0,0,249.94,414.64Zm1.15,13.74v-7.73h1.7v2.48H262v-2.48h1.7v7.73Zm10.9-3.87h-9.2V427H262Zm0-4.93V409.12h1.7v10.46Z"/><path class="cls-2" d="M277.7,424.55a10.61,10.61,0,0,1-5-5.22,11.18,11.18,0,0,1-5,5.75l-1-1.26a9.2,9.2,0,0,0,5.06-7.79v-.69h-4.54v-1.41h10.79v1.41h-4.51V416a8.27,8.27,0,0,0,5.12,7.24Zm-8-12.76v-1.45h5.9v1.45Zm7.28,7.33v-1.43h4.27v-8.57H283v19.53h-1.7v-9.53Z"/><path class="cls-2" d="M293.13,418.53v-8h9.39v8ZM308.63,429c-2.77-.33-5.42-1.63-6.51-3.38-1,1.77-3.95,3.11-6.66,3.34l-.69-1.32c2.79-.23,5.88-1.64,6.38-3.4H295.5v-1.41h13.32v1.41h-5.74c.55,1.76,3.89,3.17,6.39,3.42Zm-7.79-17.07h-6v5.21h6ZM299,421.2v-1.45h6.17v1.45Zm7.5-1.45V409.12h1.7v10.63Z"/><path class="cls-2" d="M325.37,428.67v-7.1h-7.94v-1.43h17.64v1.43h-8v7.1Zm8.16-10.6c-2.92-.59-6.11-2.44-7.28-4.71-.95,2.27-4.29,4.18-7.25,4.77l-.82-1.47c3.74-.48,7.19-3,7.19-5.63v-1.24h1.78V411c0,2.67,3.76,5.17,7.2,5.59Z"/><path class="cls-2" d="M347.31,414.64c0,2.78-2.27,4.52-5,4.52s-5-1.74-5-4.49,2.27-4.58,5-4.58S347.31,411.87,347.31,414.64Zm-8.34,0a3.08,3.08,0,0,0,3.32,3.11,3.1,3.1,0,1,0,0-6.19A3.08,3.08,0,0,0,339,414.64Zm1.16,13.74v-7.73h1.7v2.48H351v-2.48h1.7v7.73Zm10.9-3.87h-9.2V427H351Zm0-4.93V409.12h1.71v10.46Z"/><path class="cls-2" d="M361.55,423.34v-3.55c-1.85.08-3.8.15-5.42.15l-.27-1.45c2,0,4.39,0,6.51-.09s4.3-.27,6.19-.48l.15,1.32c-1.24.17-3.4.32-5.46.44v3.66Zm.71-6.11c-3,0-5.23-1.33-5.23-3.59s2.21-3.61,5.23-3.61,5.19,1.4,5.19,3.63S365.29,417.23,362.26,417.23Zm-3.71,10.94v-5.65h1.7v4.22h12.26v1.43Zm3.71-16.74c-2.1,0-3.53.88-3.53,2.23s1.43,2.18,3.53,2.18,3.51-.86,3.51-2.18S364.36,411.43,362.26,411.43Zm8.15,12.7V422h-4.1v-1.34h4.1V409.12h1.7v15Z"/><path class="cls-2" d="M71.23,470.67v-6.45H63.29V462.8H80.93v1.42h-8v6.45Zm-5.8-10.18v-8.61h1.7v2.87h10v-2.87h1.7v8.61Zm11.65-4.35h-10v2.94h10Z"/><path class="cls-2" d="M83.13,452.74H93.7v1.43H89.31c0,.4,0,.84,0,1.07.15,2.64,2.64,4.76,5,5.48l-1,1.36a9.62,9.62,0,0,1-4.93-4.39c-.53,1.83-2.88,4.18-5,5.09l-.92-1.37c2.45-.94,4.93-3.42,5-6.19a10.41,10.41,0,0,0,0-1.05H83.13Zm9,17.91c-4.18,0-6.53-1.43-6.53-3.72s2.35-3.73,6.53-3.73,6.55,1.42,6.55,3.73S96.36,470.65,92.16,470.65Zm-4.81-3.72c0,1.45,1.81,2.29,4.81,2.29s4.83-.84,4.83-2.29-1.78-2.31-4.83-2.31S87.35,465.46,87.35,466.93Zm5.59-9.32v-1.43h3.93v-5.06h1.7v12.12h-1.7v-5.63Z"/><path class="cls-2" d="M103.31,459.35h2.21v2.29h-2.21Z"/><path class="cls-2" d="M110.81,470.31V466h11.63v-1.56H110.75V463h5.88v-1.85h-7.94v-1.39h17.64v1.39h-8V463h5.81v4.26H112.51v1.64h12.37v1.4Zm.13-12v-6.71h1.7v2h9.78v-2h1.7v6.71ZM122.42,455h-9.78v2h9.78Z"/><path class="cls-2" d="M139.45,461.3a63,63,0,0,1-8.81.66h-1.85v-5.65h6.82v-2.54h-6.86v-1.41h8.56v5.33h-6.82v2.84h.25a52.76,52.76,0,0,0,8.48-.61Zm-2.68,9.24c-4.25,0-6.45-1.34-6.45-3.52s2.2-3.57,6.45-3.57,6.46,1.38,6.46,3.57S141,470.54,136.77,470.54ZM132.06,467c0,1.32,1.75,2.12,4.71,2.12s4.72-.76,4.72-2.12-1.76-2.17-4.72-2.17S132.06,465.65,132.06,467ZM146,459.77h-3V463h-1.7V451.12H143v3h3v1.4h-3v2.79h3Z"/><path class="cls-2" d="M158.12,461.6a9.66,9.66,0,0,1-4.89-4.62c-.59,2-2.54,4-5,5.29l-1-1.36c2.78-1.16,5.15-3.8,5.15-6.91v-2.08h1.72v2c0,3.12,2.73,5.52,5.08,6.32Zm3.47,9v-5.42H150.27v-1.41h13v6.83Zm0-7.9V451.12h1.7v11.63Z"/><path class="cls-2" d="M168.79,470.38v-6.16h5.8V462h-7.94v-1.41h17.64V462h-8v2.2h5.83v6.16Zm-.42-16.95V452h14.09v1.4Zm.15,5.48v-1.4h3l-.5-3.13,1.76-.21.36,3.34h4.64l.44-3.36,1.76.18-.57,3.18h2.94v1.4Zm11.92,6.72h-9.95V469h9.95Z"/><path class="cls-2" d="M196.8,462.23a9.42,9.42,0,0,1-4.8-4.79c-.59,2.1-2.84,4.35-5,5.42l-1-1.32c2.58-1.16,5.1-4,5.1-7.14v-2.17h1.72v2.13c0,3.25,2.63,5.66,5,6.5ZM189.33,470v-6H191v4.59h11.32V470Zm10.9-4.74V451.12h1.7V465.3Z"/><path class="cls-2" d="M205.29,467.81v-1.42H212v-7.06h1.7v7.06h9.2v1.42Zm15.26-12.19a41.63,41.63,0,0,1-.77,8.48l-1.68-.28a35.63,35.63,0,0,0,.69-7.34v-1.89H207.12v-1.43h13.43Z"/><path class="cls-2" d="M231.88,456.54h1.93v2h-1.93Zm0,8.21h1.93v2h-1.93Z"/><path class="cls-2" d="M250.67,464.18v-3.63h-8v-1.43h13a24.23,24.23,0,0,0,.63-5.52H244.87v-1.41h13.25a29.75,29.75,0,0,1-.69,6.93h2.92v1.43h-8v3.63h5.73v6.59h-1.7v-5.18H244.6v-1.41Z"/><path class="cls-2" d="M262.79,462.33v-9.91h1.7V456h5.65v-3.55h1.7v9.91Zm7.35-4.95h-5.65v3.55h5.65ZM265.33,470v-5.94H267v4.53h11.44V470Zm7.54-11.87v-1.42h3.42v-5.59H278v14.22h-1.7v-7.21Z"/><path class="cls-2" d="M291.56,456.64c0,2.78-2.27,4.52-5,4.52s-5-1.74-5-4.49,2.27-4.58,5-4.58S291.56,453.87,291.56,456.64Zm-8.34,0a3.08,3.08,0,0,0,3.32,3.11,3.1,3.1,0,1,0,0-6.19A3.08,3.08,0,0,0,283.22,456.64Zm.44,13.74V462.8h1.62v2.43h3.42V462.8h1.62v7.58Zm5-3.85h-3.42V469h3.42Zm9.53,4.08a7.54,7.54,0,0,1-3.29-3.64,7,7,0,0,1-3.22,3.74l-.94-1.26a5.72,5.72,0,0,0,3.36-5.23v-1.66h1.66v1.66a5.85,5.85,0,0,0,3.44,5.15Zm-2.62-9v-4.45h-3.28v-1.41h3.28v-4.64h1.7v10.5Z"/><path class="cls-2" d="M306.36,452.59c3.23,0,5,2.77,5,6.91s-1.81,6.89-5,6.89-5-2.75-5-6.91S303.15,452.59,306.36,452.59Zm0,1.47c-2.06,0-3.42,2.23-3.42,5.44s1.36,5.42,3.42,5.42,3.42-2.23,3.42-5.42S308.44,454.06,306.36,454.06ZM315,470.65V451.12h1.7v19.53Z"/><path class="cls-2" d="M329.12,454.94l-2.77.65v-1l3.55-1.66h.93v15.32h-1.71Z"/><path class="cls-2" d="M334.67,467.29l.38-1.41a7.11,7.11,0,0,0,3.46,1c2.48,0,3.87-1.09,3.87-3s-1.47-2.84-3.74-2.84h-1.47v-1.51h1.34c1.95,0,3.28-1,3.28-2.66s-1.2-2.48-3-2.48a7.05,7.05,0,0,0-3.33,1.07l-.26-1.43a8.17,8.17,0,0,1,3.95-1.15c2.69,0,4.51,1.36,4.51,3.71,0,1.85-1.15,2.94-2.85,3.51,1.93.38,3.4,1.47,3.4,3.78,0,2.62-2.12,4.45-5.44,4.45A7.42,7.42,0,0,1,334.67,467.29Z"/><path class="cls-2" d="M356.42,459.46v1c0,5.23-2.1,8-5.73,8a7.15,7.15,0,0,1-3.63-.92l.48-1.3a6.83,6.83,0,0,0,3.07.73c2.45,0,3.86-1.57,4-5.77a4.83,4.83,0,0,1-3.7,1.66,4.47,4.47,0,0,1-4.57-4.69c0-2.81,1.8-5.2,4.85-5.2C354.55,452.91,356.42,455.2,356.42,459.46ZM348.13,458c0,2.35,1.36,3.35,3.17,3.35a4.43,4.43,0,0,0,3.34-1.88V459c0-2.8-1-4.62-3.4-4.62C349.28,454.38,348.13,455.87,348.13,458Z"/><path class="cls-2" d="M368.6,459.46v1c0,5.23-2.1,8-5.73,8a7.15,7.15,0,0,1-3.63-.92l.48-1.3a6.83,6.83,0,0,0,3.07.73c2.45,0,3.86-1.57,4-5.77a4.83,4.83,0,0,1-3.7,1.66,4.47,4.47,0,0,1-4.57-4.69c0-2.81,1.8-5.2,4.85-5.2C366.73,452.91,368.6,455.2,368.6,459.46ZM360.31,458c0,2.35,1.36,3.35,3.17,3.35a4.43,4.43,0,0,0,3.34-1.88V459c0-2.8-1-4.62-3.4-4.62C361.46,454.38,360.31,455.87,360.31,458Z"/></g></g></svg>