<svg xmlns="http://www.w3.org/2000/svg" viewBox="0 0 445.49 178.55"><defs><style>.cls-1{fill:#ddd7cb;}</style></defs><g id="레이어_2" data-name="레이어 2"><g id="레이어_1-2" data-name="레이어 1"><path class="cls-1" d="M7.17,7H0V1.6H21.91V7h-7.1V28.72H7.17Z"/><path class="cls-1" d="M25.68,1.6h7.63V28.72H25.68Z"/><path class="cls-1" d="M38.56,1.6H49.8c7.26,0,10.76,3.15,10.76,8.81,0,6.16-3.69,9.31-10.53,9.31H46.16v9h-7.6ZM48.93,14.86c2.77,0,3.76-1.33,3.76-4,0-3-1.14-4-3.61-4H46.16v8.06Z"/><path class="cls-1" d="M63.48,0h7.83l-1,19.45H64.51Zm.65,23.59h6.61v6H64.13Z"/><path class="cls-1" d="M14.15,73.25a65.06,65.06,0,0,1-11.95,1H.77v-15h2V72.53a58.64,58.64,0,0,0,11.07-1Zm3.7-7.07h3.8v1.73h-3.8V80.2h-2V57h2Z"/><path class="cls-1" d="M26.65,66.73a58.56,58.56,0,0,0,9.82-.65l.23,1.6a64.11,64.11,0,0,1-9.7.68l-3.23,0v-10h10.8V60H25.8v2.37h8.42V64H25.8v2.75ZM26.12,80v-5.7h12.7V72.13H26V70.46H40.85v5.37H28.15v2.45H41.72V80ZM40.85,63.93v5.3h-2V57h2v5.3H44.4v1.67Z"/><path class="cls-1" d="M61.15,73.85a77.36,77.36,0,0,1-11.53.78H47.25V65.68h8.82v-4.9H47.15V59.11h11v8.25H49.27v5.55h.58A70.28,70.28,0,0,0,61,72.18ZM65.1,57V80.2h-2V57Z"/><path class="cls-1" d="M69,77V75.3H90V77Zm19.1-6.37c-3.9-1.17-7.68-4.47-8.63-6.85-.82,2.38-4.52,5.68-8.57,6.83l-1.07-1.75c3.79-.73,8.62-4.33,8.62-8.13V58.88h2.1v1.85c0,3.8,5.1,7.4,8.67,8.2Z"/><path class="cls-1" d="M108.45,80.2V71.88H99v-1.7h21v1.7h-9.53V80.2ZM118.05,68c-3.8-.65-7.5-3-8.55-5.18-1,2.18-4.55,4.58-8.53,5.23l-.92-1.7c3.8-.4,8.3-2.83,8.4-6.08h-7.53V58.61h17.13v1.67h-7.48c.1,3.28,4.88,5.63,8.43,6Z"/><path class="cls-1" d="M122,77V75.3h21V77Zm19.1-6.37c-3.9-1.17-7.68-4.47-8.63-6.85-.82,2.38-4.52,5.68-8.57,6.83l-1.08-1.75c3.8-.73,8.63-4.33,8.63-8.13V58.88h2.1v1.85c0,3.8,5.1,7.4,8.67,8.2Z"/><path class="cls-1" d="M145,69.36V67.78h21v1.58Zm2.42,10.42V74.6H161.5V72.68H147.45v-1.5h16.07v4.87H149.45v2.13h14.8v1.6Zm.25-13.85v-4.8h13.7V59.31H147.65V57.73H163.4v4.85H149.7v1.85h14.15v1.5Z"/><path class="cls-1" d="M175,64.28V62.61h11.57v1.67ZM181,74.9c-3,0-5.07-2-5.07-4.62,0-2.82,2.1-4.65,5.07-4.65s5.08,1.85,5.08,4.65S184,74.9,181,74.9Zm-3.35-14.42V58.73H184v1.75ZM181,67.33a3,3,0,1,0,0,5.9,3,3,0,1,0,0-5.9Zm11.6,12.87v-12h-2.8V79h-2V57.51h2v8.95h2.8V57h2V80.2Z"/><path class="cls-1" d="M209.5,65.76v2.95H219v1.67H198V68.71h9.47V65.76h-6.9v-7.7h15.78v1.7H202.6v4.32h13.87v1.68Zm-1,14.44c-5.1,0-8-1.5-8-4.07s2.88-4,8-4,8,1.42,8,4S213.6,80.2,208.5,80.2Zm-5.9-4.07c0,1.55,2.25,2.4,5.9,2.4s5.92-.85,5.92-2.4-2.25-2.4-5.92-2.4S202.6,74.63,202.6,76.13Z"/><path class="cls-1" d="M220.9,62.18V60.53h13.65v1.65Zm6.8,7.95c-3,0-5.45-1.25-5.45-3.52s2.37-3.5,5.45-3.5,5.5,1.22,5.5,3.5S230.9,70.13,227.7,70.13Zm-3.45,9.92V74.88h12.6v-2h-12.7V71.36h14.72v5h-12.6V78.5h13.48v1.55Zm3.45-15.39c-1.83,0-3.5.65-3.5,2s1.7,2,3.5,2,3.55-.67,3.55-2S229.55,64.66,227.7,64.66Zm-3.33-5.6v-1.7h6.7v1.7Zm14.5,5.75v5.35h-2V57h2v6.15h3.55v1.7Z"/><path class="cls-1" d="M257,73.55a21.79,21.79,0,0,1-5.42.53V59.86h4.87v1.67h-2.9V72.3a10.77,10.77,0,0,0,3.23-.39Zm6.65,0a22.25,22.25,0,0,1-6,.68V59.86h5.2v1.67h-3.25V72.38a12.81,12.81,0,0,0,3.77-.52Zm5.45,6.7v-12H266.4V79h-1.93V57.51h1.93v9h2.72V57h1.95V80.2Z"/><path class="cls-1" d="M274.5,75.48h2.4L275,80.68H273.5Z"/><path class="cls-1" d="M12.3,112.81c0,3.42-2.73,5.55-6,5.55s-6-2.13-6-5.53,2.72-5.6,6-5.6S12.3,109.46,12.3,112.81Zm-10.08,0a3.83,3.83,0,0,0,4,3.9,3.79,3.79,0,0,0,4.08-3.88,3.83,3.83,0,0,0-4.08-4A3.87,3.87,0,0,0,2.22,112.81ZM15.85,129.2v-6.67H2.9v-1.7h15v8.37Zm5.57-12.82H17.87v3.33h-2V106h2v3.65h3.55v1.7H17.87v3.37h3.55Z"/><path class="cls-1" d="M34.4,108c-.28,6.32-4.58,10.77-10.5,12.65l-1-1.7c5-1.28,8.75-5,9.32-9.25H23.8V108ZM26.25,128.6v-7.17h2v5.5H41.6v1.67Zm14.62-13.67v8.4h-2V106h2v7.27h3.55v1.7Z"/><path class="cls-1" d="M65.07,117.33a11.14,11.14,0,0,1-5.72-5.15c-.75,2.5-3,4.58-5.75,5.9l-1.15-1.62c3-1.2,5.8-3.83,5.8-7.55v-2.18h2v2.1c0,3.73,3.45,6.1,5.9,6.9ZM56.25,129v-5.85h12.6v-2.4H56.1v-1.65H70.87v5.57H58.27v2.68H71.72V129Zm14.62-15.7v4.55h-2V106h2v5.67h3.55v1.7Z"/><path class="cls-1" d="M88,112c0,3.15-2.62,5.2-5.85,5.2s-5.87-2-5.87-5.2,2.62-5.27,5.87-5.27S88,108.88,88,112Zm-9.75,0c0,2.07,1.7,3.45,3.9,3.45s3.88-1.38,3.88-3.43-1.55-3.5-3.88-3.5A3.6,3.6,0,0,0,78.27,112Zm1.8,17v-5.9H93v-2.35H80.05v-1.67H95v5.57H82.1v2.67H95.87V129Zm9-16.27v-1.7h4V106h2v11.87H93v-5.07Z"/><path class="cls-1" d="M99,118.88v-1.7h21v1.7Zm10.5-3.6c-5.1,0-8.1-1.72-8.1-4.35s3-4.37,8.1-4.37,8.12,1.72,8.12,4.37S114.6,115.28,109.5,115.28Zm-7.9,13.6V121.3h15.85v7.58Zm7.9-20.7c-3.73,0-6.13,1-6.13,2.75s2.4,2.73,6.13,2.73,6.15-1,6.15-2.73S113.22,108.18,109.5,108.18ZM115.42,123h-11.8v4.24h11.8Z"/><path class="cls-1" d="M128.77,107.71c3.85,0,6,3.3,6,8.22s-2.15,8.2-6,8.2-6-3.27-6-8.22S125,107.71,128.77,107.71Zm0,1.75c-2.45,0-4.07,2.65-4.07,6.47s1.62,6.45,4.07,6.45,4.08-2.65,4.08-6.45S131.25,109.46,128.77,109.46ZM139.1,129.2V106h2V129.2Z"/><path class="cls-1" d="M159,107.81A13.91,13.91,0,0,1,153.6,119l-1.45-1.33c3-1.75,4.52-5.5,4.77-8.1h-4v-1.72Zm-3.1,20.82V121.3h2v5.63h13.62v1.7Zm9.95-20.8c0,5.53-2.15,9.8-5.43,12.5L158.9,119c3.22-2.23,4.77-6.48,4.87-9.48H160v-1.7Zm3.17,15V106h2v16.87Z"/><path class="cls-1" d="M194,118.28a11.1,11.1,0,0,1-5.45-5.42c-.73,2.47-3.08,4.8-5.8,6.2l-1.13-1.58c3.33-1.55,5.83-4.47,5.83-8.17v-2.25h2v2.17c0,3.7,3.07,6.53,5.7,7.45Zm-1.58,10.9c-4.85,0-7.75-1.7-7.75-4.45s2.9-4.48,7.75-4.48,7.83,1.71,7.83,4.48S197.27,129.18,192.37,129.18Zm-5.67-4.45c0,1.77,2.17,2.77,5.67,2.77s5.75-1,5.75-2.77-2.2-2.8-5.75-2.8S186.7,123,186.7,124.73ZM199.87,114v6.32h-2V106h2v6.3h3.55V114Z"/><path class="cls-1" d="M208.77,121.66a35.46,35.46,0,0,0,7.28-.63l.27,1.65a44.62,44.62,0,0,1-9.15.7H205.9v-14.8H215v1.68h-7.08v4.6h6.8v1.62h-6.8v5.18Zm13.85,7.54V117h-3.1v11h-2V106.51h2v8.8h3.1V106h2V129.2Z"/><path class="cls-1" d="M234.7,108.51a22,22,0,0,1-5.78,15.37l-1.65-1.2c3.45-3.12,5.33-8.65,5.4-12.47h-4.2v-1.7Zm6.35,0c0,6.17-1.28,11.82-5.45,16.79l-1.7-1.12c3.82-3.85,5.15-10.4,5.15-14h-3.28v-1.7Zm5.17,7.12h3.55v1.7h-3.55V129.2h-2V106h2Z"/><path class="cls-1" d="M264.12,123.65c-2.17-1.4-5.12-4.32-5.92-7.07a14.55,14.55,0,0,1-6,7.62l-1.25-1.49a12.47,12.47,0,0,0,6.2-10.35V110H251.7v-1.68h12.95V110h-5.43v2.37a11.71,11.71,0,0,0,6.15,9.83ZM270.07,106V129.2h-2V106Z"/><path class="cls-1" d="M281,113.28v-1.67h11.57v1.67ZM287,123.9c-3,0-5.07-2-5.07-4.62,0-2.82,2.1-4.65,5.07-4.65s5.08,1.85,5.08,4.65S290,123.9,287,123.9Zm-3.35-14.42v-1.75H290v1.75Zm3.35,6.85a3,3,0,1,0,0,5.9,3,3,0,1,0,0-5.9Zm11.6,12.87v-12h-2.8V128h-2V106.51h2v8.95h2.8V106h2V129.2Z"/><path class="cls-1" d="M315.5,114.76v2.95H325v1.67H304v-1.67h9.47v-2.95h-6.9v-7.7h15.78v1.7H308.6v4.32h13.87v1.68Zm-1,14.44c-5.1,0-8-1.5-8-4.07s2.88-4,8-4,8,1.42,8,4S319.6,129.2,314.5,129.2Zm-5.9-4.07c0,1.55,2.25,2.4,5.9,2.4s5.92-.85,5.92-2.4-2.25-2.4-5.92-2.4S308.6,123.63,308.6,125.13Z"/><path class="cls-1" d="M326.9,113.21v-1.68h13.72v1.68Zm6.92,11.09c-3.25,0-5.42-2.07-5.42-4.79s2.17-4.8,5.42-4.8,5.43,2.07,5.43,4.8S337.07,124.3,333.82,124.3Zm-3.45-15v-1.72h6.83v1.72Zm3.45,7.13a3.12,3.12,0,1,0,3.4,3.1A3.14,3.14,0,0,0,333.82,116.41Zm11.05,1V129.2h-2V106h2v9.8h3.77v1.7Z"/><path class="cls-1" d="M355.9,107.58c3.7,0,5.75,3.3,5.75,8.23s-2,8.19-5.75,8.19-5.75-3.27-5.75-8.22S352.22,107.58,355.9,107.58Zm0,1.75c-2.25,0-3.78,2.65-3.78,6.48s1.53,6.44,3.78,6.44,3.77-2.64,3.77-6.44S358.17,109.33,355.9,109.33Zm6.45,3.48v-1.68H367V106h2V129.2h-2v-8.92h-4.69v-1.67H367v-5.8Z"/><path class="cls-1" d="M380.72,123.35v-15H391.6v15ZM389.57,110h-6.82v11.65h6.82Zm8.3,7V129.2h-2V106h2v9.35h3.8V117Z"/><path class="cls-1" d="M415.87,123.6c-2.1-1.42-4.82-4.29-5.72-7.09a15.65,15.65,0,0,1-5.95,7.67l-1.33-1.53c3.4-2.12,6.2-6.34,6.2-10.47V108h2.05v4.13c0,4.25,2.83,8,6,9.94Zm4.25,5.6V106h2V129.2Z"/><path class="cls-1" d="M427.05,118.88V108h10.6v10.85Zm8.57-9.17h-6.55v7.52h6.55ZM430,128.43V121.3h2v5.43h13.44v1.7Zm8.63-16.75V110H443V106h2v16.87h-2v-6h-4.32v-1.68H443v-3.45Z"/><path class="cls-1" d="M0,166.76v-1.68H21v1.68Zm19-3.28c-3.87-.67-7.37-2.87-8.47-5.07-.93,2.27-4.3,4.42-8.38,5.07l-.89-1.67c4-.43,8.24-2.78,8.24-5.9v-.65h2.1v.65c0,3.15,4.7,5.55,8.28,5.87ZM2.67,178V172.6H16.22v-2H2.55V169h15.7v5.17H4.7v2.25H19.12V178Z"/><path class="cls-1" d="M36.42,171.9a79.13,79.13,0,0,1-11,.78H23.8v-9.05h8.57v-4.8H23.8v-1.67H34.4v8.17H25.82V171a68.29,68.29,0,0,0,10.38-.73ZM40,178.2V165.76H35.77V164H40V155h2V178.2Z"/><path class="cls-1" d="M58.87,172.6c-2.1-1.42-4.82-4.29-5.72-7.09a15.65,15.65,0,0,1-5.95,7.67l-1.32-1.53c3.39-2.12,6.19-6.34,6.19-10.47V157h2v4.13c0,4.25,2.83,8,6,9.94Zm4.25,5.6V155h2V178.2Z"/><path class="cls-1" d="M80.4,156.48c-.53,6.38-4.55,10.1-10.42,11.85l-1-1.62c4.82-1.33,8.34-4.18,9.14-8.53h-8.3v-1.7ZM72.22,178v-9.17H87.05v1.6H74.25v2.14h12.5v1.55H74.25v2.3H87.57V178Zm14.65-15.5v5.1h-2V155h2v5.82h3.55v1.7Z"/><path class="cls-1" d="M92,168.58v-1.7h21v1.7Zm10.5-3.8c-5.08,0-8.08-1.62-8.08-4.6s3-4.55,8.1-4.55,8.08,1.63,8.08,4.55S107.57,164.78,102.5,164.78Zm-7.73,12.75v-6.78h2v5.08h13.82v1.7Zm1.68-17.32c0,1.9,2.37,2.87,6,2.87s6.1-1,6.1-2.87-2.4-2.9-6.08-2.9S96.45,158.28,96.45,160.21Z"/><path class="cls-1" d="M133.47,168.78v4.65H143v1.7H122v-1.7h9.45v-4.65c-4.45-.32-7.35-2.62-7.35-6.07,0-3.68,3.35-6.1,8.37-6.1s8.4,2.42,8.4,6.1C140.87,166.16,138,168.48,133.47,168.78Zm-1-10.47c-3.87,0-6.4,1.77-6.4,4.45s2.53,4.42,6.4,4.42,6.45-1.77,6.45-4.42S136.4,158.31,132.47,158.31Z"/><path class="cls-1" d="M156.3,168.26a50.23,50.23,0,0,1-8.85.72H146v-7h6.85v-3.53H146v-1.67h8.87v6.85H148v3.7a39.39,39.39,0,0,0,8.13-.68Zm-7.23,9.17V170.5h2v5.25h14.19v1.68Zm6.68-14.12v-1.7h2.8v-6.23h1.95v16.2h-1.95v-8.27Zm6.92,9V155h2v17.32Z"/><path class="cls-1" d="M181.12,172.65c-2.17-1.4-5.12-4.32-5.92-7.07a14.55,14.55,0,0,1-6,7.62l-1.25-1.49a12.47,12.47,0,0,0,6.2-10.35V159H168.7v-1.68h13V159h-5.43v2.37a11.71,11.71,0,0,0,6.15,9.83ZM187.07,155V178.2h-2V155Z"/><path class="cls-1" d="M207.45,178.2v-8.32H198v-1.7h21v1.7h-9.52v8.32ZM217,166c-3.79-.65-7.49-3-8.54-5.18-.95,2.18-4.55,4.58-8.53,5.23l-.92-1.7c3.8-.4,8.3-2.83,8.4-6.08h-7.53v-1.67H217v1.67h-7.47c.1,3.28,4.88,5.63,8.43,6Z"/><path class="cls-1" d="M221,175v-1.7h21V175Zm19.1-6.37c-3.9-1.17-7.68-4.47-8.63-6.85-.82,2.38-4.52,5.68-8.57,6.83l-1.08-1.75c3.8-.73,8.63-4.33,8.63-8.13v-1.85h2.1v1.85c0,3.8,5.1,7.4,8.67,8.2Z"/><path class="cls-1" d="M244,167.36v-1.58h21v1.58Zm2.42,10.42V172.6H260.5v-1.92H246.45v-1.5h16.07v4.87H248.45v2.13h14.8v1.6Zm.25-13.85v-4.8h13.7v-1.82H246.65v-1.58H262.4v4.85H248.7v1.85h14.15v1.5Z"/><path class="cls-1" d="M274,167v-1.68h21V167Zm19-3.13c-3.72-.6-7.32-2.35-8.47-4.42-.9,2.1-4.58,3.9-8.43,4.4l-.9-1.65c3.6-.33,7.5-1.78,8.18-4.48H276v-1.67h17v1.67H285.7c.77,2.65,5,4.15,8.2,4.45Zm-16.47,13.9v-5.3h13.9v-2H276.5v-1.63h15.92V174h-13.9v2.1h14.7v1.68Z"/><path class="cls-1" d="M309,156.23c-.6,6.15-5,9.63-10.67,11.33l-1.05-1.68c5.1-1.3,8.57-4.27,9.4-7.95h-8.2v-1.7ZM301,178v-5.78h13v-2.42H300.87v-1.65H316v5.62H303v2.55h13.85V178Zm13-11.3V155h2v11.77Z"/><path class="cls-1" d="M336.45,178.23v-8.45H327v-1.7h21v1.7h-9.52v8.45Zm9.72-12.62c-3.47-.7-7.27-2.9-8.67-5.6-1.13,2.7-5.1,5-8.63,5.67l-1-1.75c4.45-.57,8.55-3.52,8.55-6.7v-1.47h2.12v1.47c0,3.18,4.48,6.15,8.58,6.65Z"/><path class="cls-1" d="M369.62,161.83c0,3.43-2.72,5.55-6,5.55s-6-2.12-6-5.52,2.73-5.6,6-5.6S369.62,158.48,369.62,161.83ZM367,176.43a6.88,6.88,0,0,1-3-3.08,9.76,9.76,0,0,1-4.6,5l-1.22-1.45c2.37-1,4.72-3.57,4.72-6.39v-1.15h2v1a5.11,5.11,0,0,0,3.45,4.77Zm-7.42-14.6a3.82,3.82,0,0,0,4.05,3.9,3.78,3.78,0,0,0,4.07-3.87,3.82,3.82,0,0,0-4.07-4A3.87,3.87,0,0,0,359.55,161.83ZM377,178.25a9.68,9.68,0,0,1-4.25-4.47,9.48,9.48,0,0,1-4.4,4.77l-1.27-1.35c2.5-1.22,4.65-3.75,4.65-6.57v-1.4h2v1.32a7.19,7.19,0,0,0,4.52,6.25L377,178.25Zm-3-9.79V155h2v13.5Z"/><path class="cls-1" d="M386.17,156.58c3.53,0,5.58,2.9,5.83,7.3h5V155h2V178.2h-2V165.61h-5c-.2,4.47-2.28,7.39-5.83,7.39-3.75,0-5.87-3.27-5.87-8.22S382.42,156.58,386.17,156.58Zm0,1.75c-2.3,0-3.85,2.65-3.85,6.48s1.55,6.44,3.85,6.44,3.85-2.64,3.85-6.44S388.47,158.33,386.17,158.33Z"/><path class="cls-1" d="M403,175.23v-1.7h5.2v-4.62l2,0v4.67h6.48v-4.67l2,0v4.62H424v1.7Zm10.47-7c-5,0-8.37-2.3-8.37-5.8s3.35-5.85,8.37-5.85,8.4,2.35,8.4,5.85S418.52,168.18,413.47,168.18Zm0-10c-3.87,0-6.42,1.7-6.42,4.22s2.55,4.23,6.42,4.23,6.45-1.7,6.45-4.23S417.37,158.16,413.47,158.16Z"/><path class="cls-1" d="M427.37,156.41h2.4l-.3,14.8h-1.8Zm.08,16.94h2.27v2.38h-2.27Z"/></g></g></svg>