<svg xmlns="http://www.w3.org/2000/svg" viewBox="0 0 424.79 177.06"><defs><style>.cls-1{fill:#ddd7cb;}</style></defs><g id="레이어_2" data-name="레이어 2"><g id="레이어_1-2" data-name="레이어 1"><path class="cls-1" d="M1.68.46H11.87l4.94,16.33H17L21.9.46H32V27.58H24.48V9.27h-.15L18.86,27.58H13.58L8.14,9.23H8V27.58H1.68Z"/><path class="cls-1" d="M36,14.55v-.91C36,4,42.27,0,49.22,0c7.26,0,13,4,13,13.49v.91C62.25,24.05,56,28,49,28,41.73,28,36,24.05,36,14.55Zm18.23.31V13.49c0-5.66-1.59-7.94-5.16-7.94C45.72,5.55,44,8,44,13.15v1.36c0,5.86,1.74,8,5.2,8S54.23,20,54.23,14.86Z"/><path class="cls-1" d="M66.32.46h11.4C84.6.46,88,3.08,88,8.93a6.68,6.68,0,0,1-4.49,6.84v.15l6,11.66h-7.9l-4.94-9.87H73.92v9.87h-7.6ZM76.69,13.15c2.7,0,3.77-1.3,3.77-3.88s-1.11-3.65-3.88-3.65H73.84v7.53Z"/><path class="cls-1" d="M92.77.46H111.5V5.89H100.29v5.17h8.78v5.35h-8.78v5.74h11.59v5.43H92.77Z"/><path class="cls-1" d="M14.25,72.12a65.94,65.94,0,0,1-11.95,1H.87V58.12h2V71.39a57.82,57.82,0,0,0,11.07-1ZM18,65h3.79v1.73H18V79.06h-2V55.82h2Z"/><path class="cls-1" d="M26.75,65.59a58.56,58.56,0,0,0,9.82-.65l.23,1.6a64.11,64.11,0,0,1-9.7.68l-3.23,0v-10h10.8v1.65H25.9v2.37h8.42v1.6H25.9v2.75Zm-.53,13.25v-5.7h12.7V71H26.12V69.32H41v5.37H28.25v2.45H41.82v1.7ZM41,62.79v5.3h-2V55.82h2v5.3h3.54v1.67Z"/><path class="cls-1" d="M61.25,72.71a77.36,77.36,0,0,1-11.53.78H47.35V64.54h8.82v-4.9H47.25V58h11v8.25H49.37v5.55H50A70.28,70.28,0,0,0,61.05,71Zm4-16.89V79.06h-2V55.82Z"/><path class="cls-1" d="M69.1,75.86V74.17h21v1.69Zm19.1-6.37c-3.9-1.17-7.68-4.47-8.63-6.85C78.75,65,75.05,68.32,71,69.47l-1.08-1.75c3.8-.73,8.63-4.33,8.63-8.13V57.74h2.1v1.85c0,3.8,5.1,7.4,8.67,8.2Z"/><path class="cls-1" d="M108.55,79.06V70.74H99.1V69h21v1.7h-9.52v8.32Zm9.6-12.19c-3.8-.65-7.5-3-8.55-5.18-.95,2.18-4.55,4.58-8.53,5.23l-.92-1.7c3.8-.4,8.3-2.83,8.4-6.08H101V57.47h17.13v1.67h-7.48c.1,3.28,4.88,5.63,8.42,6Z"/><path class="cls-1" d="M122.1,75.86V74.17h21v1.69Zm19.09-6.37c-3.89-1.17-7.67-4.47-8.62-6.85-.82,2.38-4.52,5.68-8.57,6.83l-1.08-1.75c3.8-.73,8.63-4.33,8.63-8.13V57.74h2.1v1.85c0,3.8,5.1,7.4,8.67,8.2Z"/><path class="cls-1" d="M145.1,69.52v-1.7h21v1.7Zm2.75,9V71.69h2v5.17h14v1.68Zm.07-13.62V56.79h2v6.45h13.79v1.68Z"/><path class="cls-1" d="M184.55,79.09V70.64H175.1v-1.7h21v1.7h-9.52v8.45Zm9.72-12.62c-3.47-.7-7.27-2.9-8.67-5.6-1.13,2.7-5.1,5-8.63,5.67l-1-1.75c4.45-.57,8.55-3.52,8.55-6.7V56.62h2.12v1.47c0,3.18,4.48,6.15,8.57,6.65Z"/><path class="cls-1" d="M212.67,70.17c-1.67.2-4.45.47-7.2.62s-5.82.28-7.45.28l-.32-1.68c1.7,0,4.05,0,6.42-.15V67.67c-2.45-.23-4.32-1.18-4.32-3,0-2.15,2.42-3.15,5.37-3.15s5.43,1,5.43,3.12c0,1.88-1.93,2.88-4.43,3.08v1.47c2.45-.12,5-.32,6.33-.52Zm-14.15-9.48V59.07H211.9v1.62ZM216,72.49v6.72h-2v-5H200.8V72.49ZM205.17,63c-2,0-3.45.53-3.45,1.6s1.5,1.63,3.45,1.63,3.5-.55,3.5-1.63S207.12,63,205.17,63ZM202,57.79V56.12h6.38v1.67Zm14,7.43v6h-2V55.82h2v7.7h3.52v1.7Z"/><path class="cls-1" d="M236.5,69.57c-1.83.22-4.65.47-7.48.62-2.62.13-6.05.2-7.6.2l-.3-1.75c1.8,0,4.18,0,6.7-.07V65.42H223v-7.9h11.82v1.65H225v4.62h9.95v1.63h-5.07v3.07c2.5-.12,5-.32,6.47-.52ZM225,78.46V71.89h2v4.9h13.6v1.67Zm13.12-5.09V55.82h2V73.37Z"/><path class="cls-1" d="M262.57,69.64v4.65h9.52V76h-21v-1.7h9.45V69.64c-4.45-.32-7.35-2.62-7.35-6.07,0-3.68,3.35-6.1,8.37-6.1s8.4,2.42,8.4,6.1C270,67,267.05,69.34,262.57,69.64Zm-1-10.47c-3.87,0-6.4,1.77-6.4,4.45S257.7,68,261.57,68,268,66.27,268,63.62,265.5,59.17,261.57,59.17Z"/><path class="cls-1" d="M285.4,69.12a50.23,50.23,0,0,1-8.85.72h-1.5v-7h6.85V59.29h-6.85V57.62h8.87v6.85h-6.85v3.7a39.39,39.39,0,0,0,8.13-.68Zm-7.23,9.17V71.37h2v5.24h14.19v1.68Zm6.68-14.12v-1.7h2.8V56.24h2v16.2h-2V64.17Zm6.92,9V55.82h2V73.14Z"/><path class="cls-1" d="M310.22,73.51c-2.17-1.39-5.12-4.32-5.92-7.07a14.55,14.55,0,0,1-6,7.62L297,72.57a12.47,12.47,0,0,0,6.2-10.35v-2.4H297.8V58.14h12.95v1.68h-5.43v2.37A11.71,11.71,0,0,0,311.47,72Zm5.95-17.69V79.06h-2V55.82Z"/><path class="cls-1" d="M341,63c0,3.05-2.23,5.13-5.3,5.5v3.67c2.62-.09,5.42-.29,6.95-.5l.17,1.66c-1.82.19-4.95.44-7.77.59-2.6.13-6.05.21-7.58.21l-.32-1.78c1.77,0,4.1,0,6.52-.1V68.54c-3.07-.37-5.3-2.42-5.3-5.47,0-3.38,2.73-5.63,6.3-5.63S341,59.67,341,63Zm-10.65,0c0,2.37,1.82,3.87,4.32,3.87s4.35-1.5,4.35-3.85-1.72-4-4.35-4S330.35,60.67,330.35,63.07Zm13.82,16V55.82h2V79.06Z"/><path class="cls-1" d="M360.7,65h2.5V56.27h2V77.94h-2V66.69h-2.5c-.23,4.2-1.93,7-5.1,7-3.4,0-5.13-3.27-5.13-7.95s1.73-8,5.13-8C358.8,57.84,360.52,60.79,360.7,65Zm-5.1-5.4c-1.88,0-3.08,2.42-3.08,6.17S353.72,72,355.6,72s3.1-2.39,3.1-6.17S357.47,59.62,355.6,59.62Zm12.12,19.44V55.82h2V79.06Z"/><path class="cls-1" d="M.72,106.74H13.3v1.7H8.07c0,.48,0,1,0,1.28.17,3.15,3.15,5.67,6,6.52l-1.2,1.63A11.54,11.54,0,0,1,7,112.64c-.62,2.18-3.42,5-5.92,6L0,117.07c2.92-1.13,5.87-4.08,6-7.38,0-.25,0-.8,0-1.25H.72Zm10.75,21.32c-5,0-7.77-1.7-7.77-4.42s2.8-4.45,7.77-4.45,7.8,1.7,7.8,4.45S16.47,128.06,11.47,128.06Zm-5.72-4.42c0,1.72,2.15,2.72,5.72,2.72s5.75-1,5.75-2.72-2.12-2.75-5.75-2.75S5.75,121.89,5.75,123.64Zm6.65-11.1v-1.7h4.67v-6h2v14.42h-2v-6.7Z"/><path class="cls-1" d="M23.92,115.77v-9.5H35v9.5Zm9-7.83H26v6.15h7Zm-6.78,20V122H39v-2.35H26.17V118H41v5.59H28.2v2.65H41.82v1.68ZM41,111.67v5H39V104.82h2V110h3.55v1.7Z"/><path class="cls-1" d="M47.47,106.27h2.4l-.3,14.8h-1.8Zm.08,16.94h2.27v2.38H47.55Z"/><path class="cls-1" d="M66.25,106.57c3.8,0,6,3.3,6,8.22s-2.15,8.2-6,8.2-6-3.27-6-8.22S62.47,106.57,66.25,106.57Zm0,1.75c-2.4,0-4,2.65-4,6.47s1.58,6.45,4,6.45,4-2.65,4-6.45S68.67,108.32,66.25,108.32Zm11.6,7.55v12.19h-2V104.82h2v9.35h3.79v1.7Z"/><path class="cls-1" d="M92.42,128.09v-7.92H83v-1.7h21v1.7H94.45v7.92Zm-6.85-12.6v-9.37h15.77v9.37Zm13.75-7.7H87.62v6h11.7Z"/><path class="cls-1" d="M117.77,106.79c-.35,6.38-4.55,10.38-10.55,12.45l-1-1.7c5.1-1.32,8.83-4.85,9.35-9.05h-8.35v-1.7Zm7.87,21.12c-3.32-.55-6.89-3-8-5.47-.9,2.42-4.68,4.92-8.18,5.57l-1-1.62c3.73-.48,8.1-3.38,8.1-6.75v-1.3h2.13v1.3c0,3.32,4.17,6.15,7.84,6.67Zm-7.79-15v-1.72H123v-6.35h2v15.6h-2v-7.53Z"/><path class="cls-1" d="M129,125.09v-1.7h9.45v-5.67h-6.9v-11h15.95v1.67H133.55V116h14v1.68h-7.14v5.67H150v1.7Z"/><path class="cls-1" d="M159.57,109.14H172.1v1.65H167c.17,2.8,2.92,5.15,5.57,5.8l-1.05,1.58a10.54,10.54,0,0,1-5.6-4.68,10,10,0,0,1-5.82,5.3l-1.1-1.55c3-.9,5.72-3.57,5.87-6.45h-5.25Zm3-3.82h6.6v1.75h-6.6Zm.47,22.39v-7.94H178v7.94Zm12.9-6.29H165.1V126H176Zm0-2.8v-5h-4.48V112H176v-7.15h2v13.8Z"/><path class="cls-1" d="M193.82,107.32c-.12,7.55-4.5,13-10.47,16.1l-1.25-1.58c5.8-2.7,9.12-7.6,9.55-12.82H182.9v-1.7Zm6,7.17h3.79v1.73h-3.79v11.84h-2V104.82h2Z"/><path class="cls-1" d="M204.87,112.07v-1.68H218.6v1.68Zm6.93,11.1c-3.25,0-5.43-2.08-5.43-4.8s2.18-4.8,5.43-4.8,5.42,2.07,5.42,4.8S215.05,123.17,211.8,123.17Zm-3.45-15v-1.72h6.82v1.72Zm3.45,7.13a3.12,3.12,0,1,0,3.4,3.1A3.14,3.14,0,0,0,211.8,115.27Zm11,1v11.74h-2V104.82h2v9.8h3.77v1.7Z"/><path class="cls-1" d="M241.1,122.51c-2.18-1.39-5.13-4.32-5.93-7.07-.77,2.9-3.32,5.88-6,7.62l-1.25-1.49a12.47,12.47,0,0,0,6.2-10.35v-2.4h-5.43v-1.68h13v1.68H236.2v2.37a11.71,11.71,0,0,0,6.15,9.83ZM247,104.82v23.24h-2V104.82Z"/><path class="cls-1" d="M270.27,111.44c0,3.35-2.72,5.45-6,5.45s-6-2.1-6-5.42,2.73-5.5,6-5.5S270.27,108.17,270.27,111.44Zm-3.15,15.1a25,25,0,0,1-7,.87V119h2v6.62a17.76,17.76,0,0,0,4.7-.77Zm-6.92-15.1a3.74,3.74,0,0,0,4.05,3.73c2.42,0,4.07-1.5,4.07-3.7a3.75,3.75,0,0,0-4.07-3.78A3.79,3.79,0,0,0,260.2,111.44Zm6.27,10v-1.62h11.62v1.62Zm5.78,7c-2.4,0-4.38-1.25-4.38-3.13s2-3.12,4.38-3.12,4.4,1.17,4.4,3.12S274.67,128.34,272.25,128.34Zm-2.58-9.7V117H275v1.65Zm2.58,5c-1.3,0-2.4.62-2.4,1.52s1.1,1.53,2.4,1.53,2.42-.6,2.42-1.53S273.6,123.69,272.25,123.69Zm3.6-11.85v4.1h-2V104.82h2v5.32h3.54v1.7Z"/><path class="cls-1" d="M293.27,111.67c0,3.42-2.72,5.55-6,5.55s-6-2.13-6-5.53,2.73-5.6,6-5.6S293.27,108.32,293.27,111.67Zm-2.62,14.62a7.09,7.09,0,0,1-2.95-3.08,9.67,9.67,0,0,1-4.6,5l-1.2-1.45c2.37-1,4.7-3.57,4.7-6.39v-1.23h2v1a4.92,4.92,0,0,0,3.3,4.72Zm-7.45-14.62a4.06,4.06,0,1,0,4.05-3.93A3.87,3.87,0,0,0,283.2,111.67Zm17.32,16.44a9.68,9.68,0,0,1-4.25-4.47,9.46,9.46,0,0,1-4.37,4.77l-1.25-1.4c2.52-1.22,4.6-3.7,4.6-6.52v-1.42h2v1.35a7.21,7.21,0,0,0,4.55,6.24l-1.28,1.45Zm-1.67-15.59v5.35h-2V104.82h2v6h3.54v1.7Z"/><path class="cls-1" d="M310.15,106.44c3.52,0,5.57,2.9,5.82,7.3h5v-8.92h2v23.24h-2V115.47h-5c-.2,4.47-2.27,7.39-5.82,7.39-3.75,0-5.88-3.27-5.88-8.22S306.4,106.44,310.15,106.44Zm0,1.75c-2.3,0-3.85,2.65-3.85,6.48s1.55,6.45,3.85,6.45,3.85-2.65,3.85-6.45S312.45,108.19,310.15,108.19Z"/><path class="cls-1" d="M327,125.09v-1.7h5.2v-4.62l2,0v4.67h6.47v-4.67l2,0v4.62H348v1.7Zm10.48-7c-5,0-8.38-2.3-8.38-5.8s3.35-5.85,8.38-5.85,8.39,2.35,8.39,5.85S342.5,118,337.45,118Zm0-10c-3.88,0-6.43,1.7-6.43,4.22s2.55,4.23,6.43,4.23,6.44-1.7,6.44-4.23S341.35,108,337.45,108Z"/><path class="cls-1" d="M.1,173.61v-1.69h21v1.69Zm18-17.19a73.64,73.64,0,0,1-1.05,13.75l-2-.28a65,65,0,0,0,1-11.8H2.3v-1.67Z"/><path class="cls-1" d="M36,172c-2.2-1.42-5.05-4.37-6-7.15-.77,2.83-3.17,5.7-5.95,7.62l-1.35-1.52c3.43-2,6.25-6.07,6.25-10.27V158H23.57v-1.7H36.45V158H31.12v2.65c0,4.35,2.95,8,6.15,9.8Zm-.82-8.07v-1.73h4.87v-8.37h2v23.24h-2V163.92Z"/><path class="cls-1" d="M59.6,168.64a7.55,7.55,0,0,1-2.23-3.1,12.1,12.1,0,0,1-3.55,5.7L52.45,170a11.53,11.53,0,0,0,3.85-9.15v-3H53.38v-1.67H60v1.67H58.25v2.9c0,3.48,1.25,5.53,2.5,6.38Zm7.67,2.62a11,11,0,0,1-3.55-5.39,14.36,14.36,0,0,1-4,6.82l-1.43-1.27c3-2.43,4.45-6.7,4.45-10.58v-3h-2v-1.67H67.6v1.67H64.7v2.85c0,4.15,1.2,7.15,3.82,9.18Zm4-6.37v12.17h-2V153.82h2v9.37h3.47v1.7Z"/><path class="cls-1" d="M88.77,171.49A16,16,0,0,1,83,164.32a15.17,15.17,0,0,1-5.8,7.69l-1.32-1.5c3.37-2.12,6.07-6.24,6.07-10.37v-4.3h2.08v4.23A11.94,11.94,0,0,0,90,170Zm4.38,5.57V163.82H87.72v-1.7h5.43v-8.3h2v23.24Z"/><path class="cls-1" d="M117.2,165a42.78,42.78,0,0,1-8.28.83H107.2V155.57h2v8.5a40.36,40.36,0,0,0,7.78-.73Zm.67,12c-5.05,0-8-1.68-8-4.33s2.95-4.34,8-4.34,8,1.67,8,4.34S123,177,117.87,177Zm0-7c-3.62,0-5.92,1-5.92,2.64s2.3,2.65,5.92,2.65,6-1,6-2.65S121.57,170.07,117.87,170.07Zm5.83-1.88v-6.5h-3.1v5.65h-1.95v-13.1h1.95V160h3.1v-6.2h2v14.37Z"/><path class="cls-1" d="M140.6,162.62v2.95h9.49v1.67h-21v-1.67h9.47v-2.95h-6.9v-7.7h15.77v1.7H133.7v4.32h13.87v1.68Zm-1,14.44c-5.1,0-8-1.5-8-4.07s2.88-4.05,8-4.05,8,1.43,8,4.05S144.7,177.06,139.6,177.06ZM133.7,173c0,1.55,2.25,2.4,5.9,2.4s5.92-.85,5.92-2.4-2.25-2.4-5.92-2.4S133.7,171.49,133.7,173Z"/><path class="cls-1" d="M152,159.84v-1.67h13.62v1.67Zm6.82,9.4c-3.1,0-5.47-1.62-5.47-4.07s2.35-4.08,5.47-4.08,5.48,1.58,5.48,4.08S162,169.24,158.82,169.24Zm0-6.55c-1.87,0-3.55.93-3.55,2.48s1.68,2.45,3.55,2.45,3.55-.93,3.55-2.45S160.7,162.69,158.82,162.69Zm-3.5-6.27v-1.78H162v1.78Zm.08,19.89v-6h2v4.27h13.45v1.7ZM170,163.39V171h-2V153.82h2v7.87h3.55v1.7Z"/><path class="cls-1" d="M191.92,156.52a18,18,0,0,1-8.67,15.57l-1.38-1.5a15.39,15.39,0,0,0,8-12.37h-7.08v-1.7Zm3.33,19.37V164.57h-3.9v-1.7h3.9v-8.5h1.95v21.52Zm4.47,1.17V153.82h2v23.24Z"/><path class="cls-1" d="M221.55,177.06v-8.32H212.1V167h21v1.7h-9.52v8.32Zm9.59-12.19c-3.79-.65-7.49-3-8.54-5.18-.95,2.18-4.55,4.58-8.53,5.23l-.92-1.7c3.8-.4,8.3-2.83,8.4-6.08H214v-1.67h17.12v1.67h-7.47c.1,3.28,4.88,5.63,8.42,6Z"/><path class="cls-1" d="M235.1,173.86v-1.69h21v1.69Zm19.09-6.37c-3.89-1.17-7.67-4.47-8.62-6.85-.82,2.38-4.52,5.68-8.57,6.83l-1.08-1.75c3.8-.73,8.63-4.33,8.63-8.13v-1.85h2.1v1.85c0,3.8,5.1,7.4,8.67,8.2Z"/><path class="cls-1" d="M273.82,171.14c-2,.25-5.32.45-8.27.6-2.73.12-5.28.2-7.05.22l-.35-1.77c2,0,4.72,0,7.55-.17,3.22-.13,6.25-.31,7.95-.53Zm-8.35-4.6c-3.42,0-6.05-2.27-6.05-5.4s2.68-5.52,6.05-5.52,6,2.12,6,5.52S268.82,166.54,265.47,166.54Zm0-9.2a3.94,3.94,0,0,0-4.1,3.8,4.11,4.11,0,0,0,8.18,0A3.8,3.8,0,0,0,265.47,157.34Zm11.72-3.52v23.24h-2V153.82Z"/><path class="cls-1" d="M289.35,171.29v-15.5h2v6h7v-6h2v15.5Zm9-7.87h-7v6.17h7Zm6.85,13.64V153.82h2v23.24Z"/><path class="cls-1" d="M323,155.09c-.48,6.13-4.8,9.83-10.58,11.5l-1-1.62c5.1-1.3,8.52-4.38,9.27-8.18H312.4v-1.7Zm-7.93,21.82v-5.84h13v-2.55H315v-1.6h15.09v5.62h-13v2.77H331v1.6Zm8.18-19.67h4.82v-3.42h2v11.82h-2v-2.5H323v-1.62h5.12v-2.68h-4.82Z"/><path class="cls-1" d="M340.87,155.57c3.85,0,6,3.3,6,8.22s-2.15,8.2-6,8.2-6-3.27-6-8.22S337.05,155.57,340.87,155.57Zm0,1.75c-2.45,0-4.07,2.65-4.07,6.47s1.62,6.45,4.07,6.45,4.08-2.65,4.08-6.45S343.35,157.32,340.87,157.32Zm10.33,19.74V153.82h2v23.24Z"/><path class="cls-1" d="M370.72,165.32a76.64,76.64,0,0,1-10.5.77H358v-6.6h8.13v-2.9H358v-1.67h10.2v6.22h-8.12v3.25h.3a63.42,63.42,0,0,0,10.17-.72Zm-10.35,11.42v-8.82h2v2.72h10.54v-2.77h2v8.87Zm12.57-4.45H362.4v2.77h10.54Zm2-11v5.35h-2V153.82h2v5.72h3.55v1.7Z"/><path class="cls-1" d="M394.77,170.26a72.42,72.42,0,0,1-12.32,1.08h-1v-15.1h2v13.33a65.2,65.2,0,0,0,11.12-1Zm4.17,6.8h-2V153.82h2Z"/><path class="cls-1" d="M407.4,169.64a60,60,0,0,0,9.82-.75l.23,1.68a71.22,71.22,0,0,1-11.15.8H404V156.24h11v1.7h-9v11.7ZM421,163h3.77v1.7H421v12.32h-2V153.82h2Z"/></g></g></svg>