<svg xmlns="http://www.w3.org/2000/svg" viewBox="0 0 971.45 53.82"><defs><style>.cls-1{fill:#fff;}</style></defs><g id="레이어_2" data-name="레이어 2"><g id="레이어_1-2" data-name="레이어 1"><path class="cls-1" d="M24.84,1.86h1.5V34.38H31.8v1.56H26.34V47.46H18.9V35.94H0v-.78ZM18.9,12.66,2.58,34.38H18.9Z"/><path class="cls-1" d="M37.44,43.68l-1-1.5C48.24,36.72,53.82,27,53.82,13.86v-8H38V4.32H61.32v8.16C61.32,27.36,54,37.86,37.44,43.68ZM78.6,52.8V24.36H73.14V52h-6.9V.78h6.9v21.9H78.6V0h7.08V52.8Z"/><path class="cls-1" d="M106.08,43.14H94.2v-1.5h12.18c7,0,20.82-.3,27.42-2.64l.6,1.44C127.74,43,113,43.14,106.08,43.14ZM131,16.2c0,7.86-6.84,13-17,13s-17-5.1-17-13,6.84-13,17-13S131,8.34,131,16.2Zm-7.8,0c0-6.66-3.78-11.46-9.18-11.46s-9.18,4.8-9.18,11.46S108.6,27.66,114,27.66,123.18,22.86,123.18,16.2Zm13.68,36.6V0h7.8V52.8Z"/><path class="cls-1" d="M222.66,23.94v1.44H167.58V23.94Zm-41.28-7.68L179.7,5.34h8L189,16.26h11.1l2.76-10.92h8l-3.3,10.92h9.84V17.7H172.92V16.26ZM216.48,1V2.46H173.82V1ZM206.7,40.56v-7.8H175.26V31.32H215V42H183.54v9h32.34v1.44H175.26V40.56Z"/><path class="cls-1" d="M250.38,44.88V34h8.28V44.88h23.4v1.44H227V44.88Zm-15.24-29.4h30.42V4.92H235.14V3.48h38.64V17H243.36V28.74h2.1c10,0,21.9-.12,29.52-2l.36,1.44c-7.38,1.92-19.74,2-29.4,2h-10.8Z"/><path class="cls-1" d="M318.6,3.72V22.44H298.8V40H302c7.08,0,15.36-.42,22.56-3.6l.72,1.56c-6.24,3-15.78,3.54-24,3.54H290.88V20.88h19.8V5.22H291V3.72Zm9.72,49.08V0h7.8V52.8Z"/><path class="cls-1" d="M376.62,4.26v1.5H356.94v33.6h3.72c6.36,0,14.22-.72,21.3-3.54l.66,1.5c-6.18,2.7-14.28,3.54-22.56,3.54h-11V4.26ZM385.2,52.8V0H393V21.9l8.16-.18v1.8L393,23.4V52.8Z"/><path class="cls-1" d="M443,44.88V34.14h8.28V44.88h23.39v1.44H419.58V44.88Zm25-28.2c0,8.28-8,14-20.88,14s-20.88-5.7-20.88-14,8-14,20.88-14S468,8.46,468,16.68Zm-8.17,0c0-6.72-3.95-12.36-12.71-12.36S434.4,10,434.4,16.68,438.3,29,447.12,29,459.83,23.4,459.83,16.68Z"/><path class="cls-1" d="M492.42,29.34h-10V14.64h14.52V4.2H482.4V2.76h22.38V16.08H490.26V27.9h2.34c3.48,0,10.32.06,16.37-2.4l.54,1.38C503.33,29.28,497.28,29.34,492.42,29.34Zm6.06,6.12V50.28h32.57v1.44H490.56V35.46Zm13.8-20.22V.48h6.77V36.3h-6.77V16.74l-5.4.12v-1.8ZM529.79,0V36.78h-7.14V0Z"/><path class="cls-1" d="M559.92,21.42a52.53,52.53,0,0,1,14.87,17.7l-5.4,3.18c-2.93-7.74-6.53-14.46-10.26-18.84-3.47,8.22-10.49,15.24-19.19,19.8l-1.26-1.38A32.69,32.69,0,0,0,553.44,14V5.52H541.26V4h32.45V5.52H561.48v6.54A28.9,28.9,0,0,1,559.92,21.42ZM579.23,52.8V0H587V52.8Z"/><path class="cls-1" d="M597.72,43.86l-.9-1.44c12.89-4.74,20.93-14.4,20.93-28.32V5.52H598.62V4h27.29v8.76C625.91,27.12,616.31,38.7,597.72,43.86Zm35.75,8.94V0h7.8V22.26l9.06-.18v1.8l-9.06-.12v29Z"/><path class="cls-1" d="M723.65,23.64v1.44H668.58V23.64Zm-47.4,16.92h31.44v-7.8H676.25V31.32H716V42H684.53v9h32.34v1.44H676.25ZM715.07,1V2.46H685V16h31V17.4H676.79V1Z"/><path class="cls-1" d="M762,22.62c0,11.16-4.74,20.16-15.78,20.16s-15.78-9-15.78-20.16,4.74-20.1,15.78-20.1S762,11.46,762,22.62Zm-7.92,0c0-10.2-2.22-18.36-7.86-18.36s-7.86,8.16-7.86,18.36S740.51,41,746.21,41,754.07,32.82,754.07,22.62Zm16-1.32V0h7.8V52.8h-7.8v-30l-6.36.12v-1.8Z"/><path class="cls-1" d="M824.09,35.22a12,12,0,0,1-1.14,5.1,34.94,34.94,0,0,1,9.24,7.14,18.22,18.22,0,0,0,4.38-11.52V32.22h8v3a13.47,13.47,0,0,1-1.62,6.3,31.25,31.25,0,0,1,11.34,8.58L850,53.82a37.85,37.85,0,0,0-8-10.56c-3.54,5.22-10.14,9-16.62,10.2l-.66-1.26a20.27,20.27,0,0,0,3.48-1.5,32.6,32.6,0,0,0-6.12-8.76c-3.48,5.52-11,9.36-17.88,10.92l-.72-1.26c9.18-2.76,12.6-11,12.6-15.66V32.22h8Zm11.1-21.36c0,7.5-5.16,12.78-15.54,12.78s-15.78-5.28-15.78-12.78,5.4-12.78,15.78-12.78S835.19,6.36,835.19,13.86Zm-7.8,0c0-6.72-2.88-11.28-7.74-11.28s-8,4.56-8,11.28,3.12,11.28,8,11.28S827.39,20.58,827.39,13.86ZM850.91,0V28.38h-7.8V0Z"/><path class="cls-1" d="M892.79,22.62c0,11.16-4.74,20.16-15.78,20.16s-15.78-9-15.78-20.16S866,2.52,877,2.52,892.79,11.46,892.79,22.62Zm-7.92,0c0-10.2-2.22-18.36-7.86-18.36s-7.86,8.16-7.86,18.36S871.31,41,877,41,884.87,32.82,884.87,22.62Zm16-1.32V0h7.8V52.8h-7.8v-30l-6.36.12v-1.8Z"/><path class="cls-1" d="M929.15,44.88V33h7.92V44.88h13.68V33h7.92V44.88h12.78v1.44H916.37V44.88Zm35.64-28.2c0,8.28-8,14-20.88,14S923,25,923,16.68s8-14,20.88-14S964.79,8.46,964.79,16.68Zm-8.16,0c0-6.72-4-12.36-12.72-12.36S931.19,10,931.19,16.68,935.09,29,943.91,29,956.63,23.4,956.63,16.68Z"/></g></g></svg>