<svg xmlns="http://www.w3.org/2000/svg" viewBox="0 0 393.48 399"><defs><style>.cls-1{fill:#ed7524;}.cls-2{fill:#455c2a;}</style></defs><g id="레이어_2" data-name="레이어 2"><g id="레이어_1-2" data-name="레이어 1"><path class="cls-1" d="M35.37,40.48V27.73h11V40.48H79.09v2H2.64v-2ZM46.61,4.66a17.36,17.36,0,0,1-3.33,10C53.52,17,65.52,22.15,72,26.57l-5.58,5.24c-6.24-5.24-16.9-11.91-24.9-15.07C34.87,24.07,22.46,28.82,9.38,30.23L8.3,28.4C22.46,26.07,35.12,16,35.12,5.16V0H46.61ZM24.29,49.39V68H70.51v2H13.3V49.39Z"/><path class="cls-1" d="M161.53,60.38v2.08H85.08V60.38Zm-9.24-37.81c0,11.91-11.16,20.24-29,20.24s-29-8.33-29-20.24,11.16-20.24,29-20.24S152.29,10.74,152.29,22.57Zm-11.33,0c0-9.33-5.08-18-17.65-18-12.41,0-17.66,8.66-17.66,18s5,18,17.66,18C135.8,40.56,141,31.9,141,22.57Z"/><path class="cls-1" d="M200,60.46V45.31h11.5V60.46H244v2H167.52v-2Zm-21.15-40.8h42.22V5H178.85V3h53.63V21.74H190.26V38.06h2.92c13.82,0,30.39-.17,41-2.75l.5,2c-10.24,2.67-27.4,2.75-40.81,2.75h-15Z"/><path class="cls-1" d="M53,125.59v2.25H4.55v-2.25ZM51.27,152.5c0,11-8.91,18.9-22.06,18.9S7.14,163.49,7.14,152.5s8.91-18.74,22.07-18.74S51.27,141.5,51.27,152.5ZM44.7,114.68v2.25H12.88v-2.25ZM40.37,152.5c0-9-3.59-16.5-11.16-16.5s-11.16,7.5-11.16,16.5,3.49,16.65,11.16,16.65C36.7,169.15,40.37,161.49,40.37,152.5Zm19.15,32V111.19H70.35v33l11.32-.25v2.5l-11.32-.17v38.23Z"/><path class="cls-1" d="M103.65,167.07H89.58V115.85h11V164.9h4.08c8,0,19.74-1,29.82-5.16l.91,2.17C126,165.82,114.23,167.07,103.65,167.07Zm35.4,17.41V111.19h10.83V142l11.32-.25v2.5l-11.32-.17v40.4Z"/><path class="cls-1" d="M215.41,125.59v2.25H166.94v-2.25Zm-1.75,26.91c0,11-8.91,18.9-22.07,18.9s-22.07-7.91-22.07-18.9,8.91-18.74,22.07-18.74S213.66,141.5,213.66,152.5Zm-6.58-37.82v2.25H175.27v-2.25Zm-4.33,37.82c0-9-3.58-16.5-11.16-16.5-7.41,0-11.16,7.5-11.16,16.5s3.5,16.65,11.16,16.65C199.09,169.15,202.75,161.49,202.75,152.5Zm19.16,32V111.19h10.82v33l11.33-.25v2.5l-11.33-.17v38.23Z"/><path class="cls-1" d="M266,167.07H252V115.85h11V164.9H267c8,0,19.74-1,29.82-5.16l.91,2.17C288.36,165.82,276.62,167.07,266,167.07Zm35.4,17.41V111.19h10.82V142l11.33-.25v2.5l-11.33-.17v40.4Z"/><path class="cls-1" d="M26.87,230.12v2.08H16.8v46.64h1.33a17.63,17.63,0,0,0,8.66-2.09v2.09a19.8,19.8,0,0,1-9.49,2.08H6.14v-50.8Zm27.24,0v2.08H40v46.64h1.33a43.49,43.49,0,0,0,15.33-3.17l.75,1.92c-5.42,2.5-12.16,3.33-16.91,3.33H29.46v-50.8Zm5.83,67.37V224.2H70.76v30l10.5-.25v2.49l-10.5-.16v41.22Z"/><path class="cls-1" d="M112.48,254.77a65.59,65.59,0,0,1,19.66,24.15l-7.75,4.16a90.84,90.84,0,0,0-13.24-25.15c-5.16,11.75-14.91,20.91-25.07,26.32L84.33,282a47.76,47.76,0,0,0,19.49-39.06V228.87H115v11.32A44,44,0,0,1,112.48,254.77ZM141.05,252V224.2h10.82v73.29H141.05v-43.3l-17,.16v-2.58Z"/><path class="cls-1" d="M234.15,234.78v2H217.66v2.08a17.24,17.24,0,0,1-2.33,8.58c6.83,2.75,16,8.83,20.15,14.16L229.65,266c-3.83-6.08-10.58-13.24-15.41-16.65-5.58,8.32-16.9,14.4-26.56,16.65l-1.08-1.66c12.82-4.33,19.9-15,19.9-23.57v-4H190v-2Zm-7.5-9.74v2.08H197.51V225Zm15.58,50.55H197.67v-2.17h55.38v24.07H242.23Zm10.82-51.39v21.41l11-.25v2.5l-11-.17v20.07H242.23V224.2Z"/><path class="cls-1" d="M343.91,261.26v2H267.46v-2ZM333,226.45v2H311.43v3.33a13.82,13.82,0,0,1-2.33,7.66c9.41,2,20.9,6.42,27.23,10.66l-5.66,5.25c-5.92-5.16-15.24-11.16-23.07-14.07-5.66,6.33-17.33,10.41-32.9,12.41l-1-1.75c14.58-2.17,26.24-9.66,26.24-19v-4.5H278.37v-2Zm-10.16,53.47v-9.24h10.83v26h-56v-26h10.83v9.24Zm-34.31,2.16v12.58h34.31V282.08Z"/><path class="cls-2" d="M5.58,354.21a20.14,20.14,0,0,1-4.72.48v-7.25h4.2v1.2H2.3v4.81A13.14,13.14,0,0,0,5.38,353Zm2.5,8.48c-3.63,0-5.52-1.28-5.52-3.19s1.89-3.2,5.52-3.2,5.55,1.31,5.55,3.2S11.72,362.69,8.08,362.69Zm-4-3.19c0,1.21,1.5,2,4,2s4.06-.73,4.06-2-1.52-2-4.06-2S4.05,358.31,4.05,359.5Zm7.24-5.26a25.44,25.44,0,0,1-5.19.45v-7.25h4.34v1.2H7.54v4.81a15.83,15.83,0,0,0,3.55-.38Zm2.23-2.53v4.37H12.08V346h1.44v4.46h2.29v1.23Z"/><path class="cls-2" d="M24.55,352.64h1.81v-6.3h1.42V362H26.36v-8.1H24.55c-.16,3-1.38,5.08-3.67,5.08-2.45,0-3.69-2.36-3.69-5.73s1.24-5.73,3.69-5.73S24.43,349.6,24.55,352.64Zm-3.67-3.89c-1.35,0-2.21,1.75-2.21,4.45s.86,4.45,2.21,4.45,2.23-1.73,2.23-4.45S22.23,348.75,20.88,348.75Zm8.73,14V346h1.44v16.74Z"/><path class="cls-2" d="M43.62,353.58a17.24,17.24,0,0,1-4.52.45v-7h4v1.19H40.54v4.57a11,11,0,0,0,2.9-.38Zm-2.08,9.05v-4.05H51v-1.67h-9.5v-1.19h11v4H43v1.77h10v1.18Zm8.09-9a28.82,28.82,0,0,1-5.46.4v-7h4.76v1.19H45.61v4.57a19.6,19.6,0,0,0,3.84-.32ZM51,354.82v-3.91H47.83v-1.15H51V346h1.44v8.8Z"/><path class="cls-2" d="M59.53,347.19c2.54,0,4,2.08,4.19,5.25h3.59V346h1.45v16.74H67.31v-9.07H63.72c-.14,3.22-1.64,5.33-4.19,5.33-2.7,0-4.23-2.36-4.23-5.93S56.83,347.19,59.53,347.19Zm0,1.26c-1.66,0-2.78,1.91-2.78,4.66s1.12,4.64,2.78,4.64,2.77-1.9,2.77-4.64S61.18,348.45,59.53,348.45Z"/><path class="cls-2" d="M81.09,358.76c-1.56-1-3.69-3.11-4.26-5.09a10.52,10.52,0,0,1-4.34,5.49l-.9-1.08a9,9,0,0,0,4.46-7.46V348.9H72.14v-1.21h9.33v1.21H77.56v1.71A8.43,8.43,0,0,0,82,357.68ZM85.38,346v16.74H83.92V346Z"/><path class="cls-2" d="M97.65,358.76c-1.56-1-3.69-3.11-4.26-5.09a10.52,10.52,0,0,1-4.34,5.49l-.9-1.08a9,9,0,0,0,4.46-7.46V348.9H88.7v-1.21H98v1.21H94.12v1.71a8.43,8.43,0,0,0,4.43,7.07ZM101.94,346v16.74h-1.46V346Z"/><path class="cls-2" d="M118.66,350.79c0,2.41-2,3.92-4.34,3.92S110,353.2,110,350.8a4.36,4.36,0,0,1,8.68,0Zm-2.27,10.87a18,18,0,0,1-5,.63v-6h1.42V361a12.79,12.79,0,0,0,3.39-.56Zm-5-10.87a2.7,2.7,0,0,0,2.92,2.68,2.66,2.66,0,0,0,2.93-2.67,2.69,2.69,0,0,0-2.93-2.71A2.73,2.73,0,0,0,111.4,350.79Zm4.52,7.16v-1.17h8.37V358Zm4.16,5c-1.73,0-3.15-.9-3.15-2.25s1.42-2.25,3.15-2.25,3.17.84,3.17,2.25S121.83,363,120.08,363Zm-1.85-7v-1.19h3.85V356Zm1.85,3.64c-.93,0-1.73.45-1.73,1.1s.8,1.1,1.73,1.1,1.75-.44,1.75-1.1S121.05,359.61,120.08,359.61Zm2.59-8.53V354h-1.45v-8h1.45v3.83h2.56v1.23Z"/><path class="cls-2" d="M126.36,355.83V354.6h15.12v1.23Zm7.56-2.74c-3.65,0-5.81-1.17-5.81-3.31s2.18-3.28,5.83-3.28,5.82,1.17,5.82,3.28S137.58,353.09,133.92,353.09Zm-5.56,9.18V357.4h1.46v3.65h10v1.22Zm1.2-12.47c0,1.37,1.72,2.07,4.36,2.07s4.4-.7,4.4-2.07-1.73-2.09-4.38-2.09S129.56,348.41,129.56,349.8Z"/><path class="cls-2" d="M156.22,356v3.35h6.86v1.23H148v-1.23h6.81V356c-3.21-.23-5.3-1.89-5.3-4.37,0-2.65,2.42-4.4,6-4.4s6.05,1.75,6.05,4.4C161.55,354.08,159.45,355.76,156.22,356Zm-.72-7.54c-2.79,0-4.6,1.28-4.6,3.2s1.81,3.19,4.6,3.19,4.65-1.28,4.65-3.19S158.33,348.43,155.5,348.43Z"/><path class="cls-2" d="M172.66,355.59a35.06,35.06,0,0,1-6.38.53H165.2v-5.06h4.94v-2.54H165.2v-1.21h6.4v4.94h-4.94v2.66a28.44,28.44,0,0,0,5.85-.49Zm-5.2,6.61v-5h1.45V361h10.23v1.2Zm4.8-10.17V350.8h2v-4.48h1.4V358h-1.4v-6Zm5,6.46V346h1.44v12.47Z"/><path class="cls-2" d="M190.53,358.76c-1.56-1-3.69-3.11-4.26-5.09a10.52,10.52,0,0,1-4.34,5.49l-.9-1.08a9,9,0,0,0,4.46-7.46V348.9h-3.91v-1.21h9.33v1.21H187v1.71a8.43,8.43,0,0,0,4.43,7.07ZM194.82,346v16.74h-1.46V346Z"/><path class="cls-2" d="M210.24,362.69c-3.65,0-5.87-1.05-5.87-2.95s1.91-2.81,5.12-3V355h-6.81v-1.21H217.8V355h-6.86v1.76c3.25.13,5.19,1.17,5.19,3S213.9,362.69,210.24,362.69Zm6.12-9.94c-2.79-.45-5.29-1.82-6.12-3.35-.66,1.55-3.17,2.94-6.12,3.37l-.65-1.23c2.61-.23,5.48-1.47,6-3.45H204.1V346.9h12.26v1.19h-5.27c.5,2,3.6,3.22,5.92,3.44Zm-10.49,7c0,1.22,1.74,1.76,4.37,1.76s4.4-.54,4.4-1.76-1.77-1.77-4.4-1.77S205.87,358.53,205.87,359.74Z"/><path class="cls-2" d="M224.28,354.84v-1.23H239.4v1.23Zm1.42-7v-1.21h12.21v1.21Zm0,4.5v-1.2h2.66l-.41-2.45,1.51-.2.29,2.65h4.07l.34-2.69,1.52.2-.45,2.49h2.66v1.2Zm.41,10.23v-3.89h10V357.3h-10v-1.18h11.49v3.69h-10v1.58h10.59v1.21Z"/><path class="cls-2" d="M240.84,360.62v-1.23h6.81v-2.84h-4.94v-5.24h9.92v-2.68h-9.94V347.4h11.4v5.12h-9.92v2.8h10.39v1.23H249.1v2.84H256v1.23Z"/><path class="cls-2" d="M268.31,358.19a56.25,56.25,0,0,1-8.3.56H258.3V352.3h6.36v-3.53h-6.43v-1.21h7.88v5.95h-6.35v4h.41a50.92,50.92,0,0,0,8-.52ZM271.16,346v16.74H269.7V346Z"/><path class="cls-2" d="M277.06,357.41a43.84,43.84,0,0,0,7.07-.54l.16,1.21a51,51,0,0,1-8,.58h-1.63v-10.9h7.94V349h-6.49v8.42Zm9.81-4.75h2.72v1.22h-2.72v8.88h-1.44V346h1.44Z"/><path class="cls-2" d="M295.49,350.25V349h8.32v1.21Zm4.28,6.37c-2,0-3.47-1.06-3.47-2.77s1.47-2.77,3.47-2.77,3.48,1,3.48,2.77S301.77,356.62,299.77,356.62Zm10,6.36c-2-.4-4.92-2-5.67-3.73-.67,1.76-3.39,3.21-5.69,3.67l-.79-1.19c2.59-.3,5.76-2.1,5.76-4.46v-.47h1.53v.47c0,2.41,3.2,4.12,5.67,4.48Zm-12.12-15.06v-1.24h4.31v1.24Zm2.16,4.34c-1.15,0-2.09.62-2.09,1.59s.94,1.56,2.09,1.56,2.09-.61,2.09-1.56S300.93,352.26,299.77,352.26Zm8.47,5v-5h-2V356h-1.42v-9.67h1.42V351h2v-5h1.44v11.23Z"/><path class="cls-2" d="M312.88,354.37v-7.62h1.45v2.65h4.43v-2.65h1.46v7.62Zm5.88-3.76h-4.43v2.55h4.43Zm-3.58,11.93v-6.46h10.68v1.13h-9.22v1.54h8.93v1.11h-8.93v1.55h9.6v1.13Zm10.62-7.45h-1.45v-2.3h-3.12v-1.21h3.12v-2.09h-3.12V348.3h3.12V346h1.45Z"/><path class="cls-2" d="M328.68,354.48v-1.23H343.8v1.23Zm1.76,8.12v-4h10v-1.48h-10V356h11.5v3.75h-10v1.69h10.55v1.19Zm5.82-10.55c-3.6,0-5.83-1.06-5.83-2.9s2.23-2.9,5.83-2.9,5.85,1.06,5.85,2.9S339.9,352.05,336.26,352.05Zm-4.34-2.9c0,1,1.71,1.69,4.34,1.69s4.38-.65,4.38-1.69-1.73-1.71-4.38-1.71S331.92,348.1,331.92,349.15Z"/><path class="cls-2" d="M350.91,354.69V347h1.46v2.57h4.91V347h1.46v7.72Zm6.37-3.94h-4.91v2.74h4.91Zm-4.62,11.69v-5.66h10.53V358h-9.06v3.24h9.22v1.21Zm10.49-10.75v4.07H361.7V346h1.45v4.44h2.56v1.23Z"/><path class="cls-2" d="M371.36,347.28c2.74,0,4.28,2.37,4.28,5.92s-1.54,5.91-4.28,5.91-4.29-2.36-4.29-5.93S368.64,347.28,371.36,347.28Zm0,1.26c-1.73,0-2.86,1.91-2.86,4.66s1.13,4.65,2.86,4.65,2.86-1.91,2.86-4.65S373.11,348.54,371.36,348.54Zm8.35,5.43v8.79h-1.46V346h1.46v6.73h2.74V354Z"/><path class="cls-2" d="M.59,383H9.52v1.23H5.74l0,.5c.13,2.14,2.14,3.89,4.05,4.52L9,390.42a7.83,7.83,0,0,1-4-3.56c-.45,1.57-2.34,3.29-4.14,4.07L0,389.83c2.11-.81,4.16-2.86,4.25-5.08v-.48H.59ZM2.7,398.63v-4.21h9.06v-1.69H2.65V391.5H13.22v4.06H4.16v1.85h9.69v1.22Zm10.52-11.55v3.56H11.76V382h1.46v3.83h2.55v1.23Z"/><path class="cls-2" d="M31.05,387a4,4,0,0,1-4.34,4,4,4,0,0,1-4.34-4,4.08,4.08,0,0,1,4.34-4A4.07,4.07,0,0,1,31.05,387Zm-7.25,0a2.75,2.75,0,0,0,2.91,2.81A2.73,2.73,0,0,0,29.65,387a2.76,2.76,0,0,0-2.94-2.85A2.79,2.79,0,0,0,23.8,387Zm10.4,11.79v-4.84H24.54v-1.21H35.66v6.05Zm0-6.91V382h1.45v9.83Z"/><path class="cls-2" d="M38.52,391.83V390.6H53.64v1.23Zm7.56-2.74c-3.65,0-5.81-1.17-5.81-3.31s2.18-3.28,5.83-3.28,5.82,1.17,5.82,3.28S49.74,389.09,46.08,389.09Zm-5.56,9.18V393.4H42v3.65h10v1.22Zm1.21-12.47c0,1.37,1.71,2.07,4.35,2.07s4.4-.7,4.4-2.07-1.73-2.09-4.38-2.09S41.73,384.41,41.73,385.8Z"/><path class="cls-2" d="M68.38,392v3.35h6.86v1.23H60.12v-1.23h6.81V392c-3.21-.23-5.3-1.89-5.3-4.37,0-2.65,2.42-4.4,6-4.4s6,1.75,6,4.4C73.71,390.08,71.61,391.76,68.38,392Zm-.72-7.54c-2.79,0-4.6,1.28-4.6,3.2s1.81,3.19,4.6,3.19,4.65-1.28,4.65-3.19S70.49,384.43,67.66,384.43Z"/><path class="cls-2" d="M84.82,391.59a35.06,35.06,0,0,1-6.38.53H77.36v-5.06H82.3v-2.54H77.36v-1.21h6.4v4.94H78.82v2.66a28.44,28.44,0,0,0,5.85-.49Zm-5.2,6.61v-5h1.45V397H91.3v1.2ZM84.42,388V386.8h2v-4.48h1.4V394h-1.4v-6Zm5,6.46V382h1.44v12.47Z"/><path class="cls-2" d="M102.69,394.76c-1.56-1-3.69-3.11-4.26-5.09a10.52,10.52,0,0,1-4.34,5.49l-.9-1.08a9,9,0,0,0,4.46-7.46V384.9H93.74v-1.21h9.33v1.21H99.16v1.71a8.43,8.43,0,0,0,4.43,7.07ZM107,382v16.74h-1.46V382Z"/><path class="cls-2" d="M110.38,391.25v-7.76h7.94v7.76Zm6.48-6.55h-5V390h5Zm-4.67,13.48V393h1.46V397h9.67v1.2Zm10.48-9.95v5.94h-1.45V382h1.45v5h2.56v1.23Z"/><path class="cls-2" d="M126.36,390.48v-1.23h15.12v1.23Zm1.76,8.12v-4h10v-1.48h-10V392h11.5v3.75h-10v1.69h10.55v1.19Zm5.82-10.55c-3.6,0-5.83-1.06-5.83-2.9s2.23-2.9,5.83-2.9,5.85,1.06,5.85,2.9S137.58,388.05,133.94,388.05Zm-4.34-2.9c0,1,1.71,1.69,4.34,1.69s4.38-.65,4.38-1.69-1.73-1.71-4.38-1.71S129.6,384.1,129.6,385.15Z"/><path class="cls-2" d="M148,392.13v-1.22h6.82v-2.74h1.46v2.74h6.84v1.22Zm13.7-2.91c-2.77-.51-5.38-2.45-6.14-4.07-.66,1.6-3.2,3.55-6.08,4.07l-.69-1.23c2.88-.3,6-2.43,6-4.75v-.68h1.52v.68c0,2.34,3.44,4.5,6,4.74Zm-11.83,9v-4.77h1.46V397h10.17v1.23Z"/><path class="cls-2" d="M164.52,396.46v-1.23h15.12v1.23Zm7.54-4.52c-3.65,0-6.08-1.68-6.08-4.23s2.43-4.24,6.08-4.24,6.11,1.68,6.11,4.24S175.74,391.94,172.06,391.94Zm0-7.24c-2.79,0-4.62,1.21-4.62,3s1.83,3,4.62,3,4.65-1.18,4.65-3S174.87,384.7,172.06,384.7Z"/><path class="cls-2" d="M181.08,396.62v-1.23h6.81v-2.84H183v-5.24h9.92v-2.68h-9.94V383.4h11.4v5.12h-9.92v2.8H194.8v1.23h-5.46v2.84h6.86v1.23Z"/><path class="cls-2" d="M202.61,387.24V386h9.88v1.21Zm5,8c-2.35,0-3.91-1.49-3.91-3.46s1.56-3.45,3.91-3.45,3.9,1.49,3.9,3.45S209.94,395.23,207.6,395.23Zm-2.49-10.82v-1.24H210v1.24Zm2.49,5.13a2.25,2.25,0,1,0,2.44,2.23A2.27,2.27,0,0,0,207.6,389.54Zm8,.76v8.46H214.1V382h1.45v7.05h2.72v1.23Z"/><path class="cls-2" d="M229.43,393.75a46.75,46.75,0,0,1-8.61.76h-1V383.67h1.46v9.56a42.28,42.28,0,0,0,8-.7Zm2.67-5.09h2.73v1.24H232.1v8.86h-1.46V382h1.46Z"/><path class="cls-2" d="M235.73,387.24V386h9.88v1.21Zm5,8c-2.35,0-3.91-1.49-3.91-3.46s1.56-3.45,3.91-3.45,3.9,1.49,3.9,3.45S243.06,395.23,240.72,395.23Zm-2.49-10.82v-1.24h4.92v1.24Zm2.49,5.13a2.25,2.25,0,1,0,2.44,2.23A2.27,2.27,0,0,0,240.72,389.54Zm7.95.76v8.46h-1.45V382h1.45v7.05h2.72v1.23Z"/><path class="cls-2" d="M262.55,393.75a46.75,46.75,0,0,1-8.61.76h-1V383.67h1.46v9.56a42.28,42.28,0,0,0,8-.7Zm2.67-5.09H268v1.24h-2.73v8.86h-1.46V382h1.46Z"/><path class="cls-2" d="M279,393.83a20.23,20.23,0,0,1-4.68.45v-10.5h4.19V385H275.8V393a11.89,11.89,0,0,0,3-.4Zm5.85.07a24.5,24.5,0,0,1-5.31.41V383.78H284V385h-3v8.08a17,17,0,0,0,3.69-.36Zm2.23-4v8.88h-1.46V382h1.46v6.64h2.43v1.22Z"/><path class="cls-2" d="M299.65,394.75a11.56,11.56,0,0,1-4.14-5.17,11,11,0,0,1-4.18,5.54l-.95-1.08a9.37,9.37,0,0,0,4.37-7.47v-3.1h1.5v3a8.61,8.61,0,0,0,4.3,7.13Zm3.15,4v-9.54h-3.91V388h3.91v-6h1.46v16.74Z"/><path class="cls-2" d="M312.35,385.31h9v1.19h-3.69c.12,2,2.1,3.69,4,4.16l-.74,1.13a7.51,7.51,0,0,1-4-3.35,7.28,7.28,0,0,1-4.21,3.84l-.79-1.12c2.17-.65,4.12-2.59,4.23-4.66h-3.77ZM325,393v5.72h-1.46v-4.52h-9.37V393ZM314.53,382.5h4.68v1.26h-4.68ZM325,387.69v4.48h-1.44V382H325v4.44h2.55v1.23Z"/><path class="cls-2" d="M328.68,390.89v-1.2H343.8v1.2Zm13.72-2.14c-2.79-.47-5.33-1.95-6.16-3.48-.66,1.55-3.15,3-6.1,3.46l-.67-1.22c2.65-.26,5.55-1.62,6-3.64h-5.33v-1.21h12.23v1.21h-5.28c.45,2,3.62,3.4,6,3.62Zm-11.7,9.78v-6.34h1.45v2h8.18v-2h1.46v6.34Zm9.63-3.19h-8.18v2h8.18Z"/><path class="cls-2" d="M345.17,386.39v-1.21h8.48v1.21Zm4.28,5.87c-2.05,0-3.62-.94-3.62-2.57s1.57-2.6,3.62-2.6,3.62,1,3.62,2.6S351.51,392.26,349.45,392.26Zm3.14,5.24a3.9,3.9,0,0,1-2.13-2,6,6,0,0,1-3.35,3.28l-.81-1c1.87-.75,3.39-2.14,3.39-4.32v-.36h1.44v.24a3,3,0,0,0,2.25,3.15Zm-3.14-9.27c-1.26,0-2.21.59-2.21,1.46s.95,1.45,2.21,1.45,2.22-.61,2.22-1.45S350.71,388.23,349.45,388.23ZM347.27,384v-1.26h4.36V384Zm12.39,14.76a6.15,6.15,0,0,1-3-2.95,5.87,5.87,0,0,1-3.19,3.21l-.81-1.07c2-.84,3.26-2.21,3.26-4.39V393h1.44v.45a4.64,4.64,0,0,0,3.24,4.23l-.9,1Zm-1.74-6.12V388h-2v4.39h-1.41V382.32h1.41v4.43h2V382h1.44v10.6Z"/><path class="cls-2" d="M366.25,383.19c2.54,0,4,2.08,4.19,5.25H374V382h1.46v16.74H374v-9.07h-3.58c-.14,3.22-1.64,5.33-4.19,5.33s-4.23-2.36-4.23-5.93S363.55,383.19,366.25,383.19Zm0,1.26c-1.66,0-2.78,1.91-2.78,4.66s1.12,4.64,2.78,4.64,2.77-1.9,2.77-4.64S367.9,384.45,366.25,384.45Z"/><path class="cls-2" d="M378.36,396.62v-1.23h3.74v-3.33l1.46,0v3.36h4.67V392l1.45,0v3.33h3.8v1.23Zm7.54-5.08c-3.62,0-6-1.66-6-4.18s2.41-4.21,6-4.21,6.05,1.69,6.05,4.21S389.54,391.54,385.9,391.54Zm0-7.22c-2.79,0-4.62,1.22-4.62,3s1.83,3.05,4.62,3.05,4.65-1.23,4.65-3.05S388.71,384.32,385.9,384.32Z"/></g></g></svg>