<svg xmlns="http://www.w3.org/2000/svg" viewBox="0 0 645.56 551.79"><defs><style>.cls-1{fill:#455c2a;}.cls-2{fill:#ed7524;}</style></defs><g id="레이어_2" data-name="레이어 2"><g id="레이어_1-2" data-name="레이어 1"><path class="cls-1" d="M9.15,323c0,2.26-1.95,3.74-4.34,3.74S.45,325.29.45,323s1.94-3.8,4.36-3.8S9.15,320.74,9.15,323Zm-7.28,0c0,1.49,1.28,2.48,2.94,2.48s2.91-1,2.91-2.46-1.17-2.53-2.91-2.53A2.67,2.67,0,0,0,1.87,323Zm1,12.22V331h9.39v-1.74H2.79v-1.19H13.68v4.05H4.3V334h10v1.19Zm9.39-8V318.7h1.45v8.47Z"/><path class="cls-1" d="M21,319.87c2.54,0,4,2.09,4.19,5.26h3.59V318.7h1.45v16.75H28.79v-9.08H25.2c-.14,3.23-1.64,5.33-4.19,5.33-2.7,0-4.23-2.36-4.23-5.92S18.31,319.87,21,319.87Zm0,1.26c-1.66,0-2.78,1.91-2.78,4.67s1.12,4.64,2.78,4.64,2.77-1.91,2.77-4.64S22.66,321.13,21,321.13Z"/><path class="cls-1" d="M43,327.18a42.32,42.32,0,0,1-7.85.74H33.68v-8.08h1.46v6.84a42.23,42.23,0,0,0,7.7-.7Zm-7.59,7.73v-5.17h1.46v4h9.59v1.21ZM46,323.55h2.57v1.24H46v6.07H44.52V318.7H46Z"/><path class="cls-1" d="M55.39,319.94h9.2v1.23H60.66c0,.31,0,.67,0,.88.13,2.14,2.16,4,4.07,4.61l-.81,1.17a8.12,8.12,0,0,1-4-3.67,8,8,0,0,1-4.2,4.19l-.85-1.13c2.11-.81,4.22-3,4.31-5.19,0-.19,0-.57,0-.86h-3.8Zm13,9.58v5.93H67v-4.72H57.22v-1.21ZM67,328.64v-9.92H68.4v9.92Z"/><path class="cls-1" d="M78.1,335.47v-4.79H71.28v-1.23H86.4v1.23H79.56v4.79Zm-6-12.79v-1.22H85.59v1.22Zm6.72,5.85c-3,0-5.15-.82-5.15-2.55s2.2-2.58,5.15-2.58S84,324.21,84,326,81.83,328.53,78.86,328.53Zm0-3.92c-1.66,0-3.64.34-3.64,1.37s2,1.33,3.64,1.33S82.5,327,82.5,326,80.54,324.61,78.86,324.61Zm-2.81-4.41V319h5.6v1.25Z"/><path class="cls-1" d="M101.15,328.66V332H108v1.22H92.88V332h6.81v-3.35c-3.21-.23-5.3-1.89-5.3-4.38s2.42-4.39,6-4.39,6,1.75,6,4.39S104.37,328.44,101.15,328.66Zm-.73-7.54c-2.79,0-4.6,1.27-4.6,3.2s1.81,3.19,4.6,3.19,4.65-1.28,4.65-3.19S103.25,321.12,100.42,321.12Z"/><path class="cls-1" d="M117.58,328.28a36,36,0,0,1-6.37.52h-1.09v-5.06h4.94v-2.53h-4.94V320h6.4v4.93h-4.94v2.67a28.44,28.44,0,0,0,5.85-.49Zm-5.2,6.61v-5h1.45v3.78h10.23v1.21Zm4.8-10.17v-1.23h2V319h1.4v11.67h-1.4v-6Zm5,6.46V318.7h1.44v12.48Z"/><path class="cls-1" d="M135.45,331.45c-1.56-1-3.69-3.11-4.26-5.1a10.54,10.54,0,0,1-4.34,5.5l-.9-1.08a9,9,0,0,0,4.46-7.46v-1.73H126.5v-1.2h9.33v1.2h-3.91v1.71a8.43,8.43,0,0,0,4.43,7.08Zm4.29-12.75v16.75h-1.46V318.7Z"/><path class="cls-1" d="M154.41,335.45v-6H147.6v-1.22h15.13v1.22h-6.86v6Zm6.91-8.79c-2.74-.47-5.4-2.16-6.16-3.73-.68,1.57-3.27,3.3-6.14,3.77l-.66-1.23c2.73-.28,6-2,6-4.37H149v-1.21h12.33v1.21h-5.38c.07,2.36,3.51,4,6.06,4.34Z"/><path class="cls-1" d="M164.16,333.14v-1.22h15.13v1.22Zm13.76-4.59c-2.81-.84-5.53-3.22-6.21-4.93-.6,1.71-3.26,4.09-6.18,4.91l-.78-1.26c2.74-.52,6.22-3.11,6.22-5.85v-1.33h1.51v1.33c0,2.74,3.67,5.33,6.25,5.91Z"/><path class="cls-1" d="M185.69,323v-1.2h9.81V323Zm4.91,6.77c-2.23,0-3.94-1.17-3.94-2.93s1.69-2.94,3.94-2.94,4,1.14,4,2.94S192.85,329.81,190.6,329.81Zm0-4.72c-1.35,0-2.55.67-2.55,1.79s1.2,1.76,2.55,1.76,2.56-.66,2.56-1.76S192,325.09,190.6,325.09Zm-2.52-4.51V319.3h4.83v1.28Zm.06,14.33V330.6h1.46v3.08h9.68v1.23Zm10.49-9.31v5.45h-1.45V318.7h1.45v5.67h2.56v1.23Z"/><path class="cls-1" d="M207.47,320.32h9.13v1.23h-3.86c0,.68,0,.93,0,1.17.13,2.14,2.16,4.07,4.07,4.7l-.81,1.17a8.27,8.27,0,0,1-4-3.77,7.83,7.83,0,0,1-4.14,4.15l-.85-1.14c2.11-.81,4.16-2.92,4.25-5.13,0-.22,0-.47,0-1.15h-3.8Zm2.2,14.55V329.7h1.45v4h9.74v1.2Zm10.55-11.07h2.57V325h-2.57v5.84h-1.44V318.7h1.44Z"/><path class="cls-1" d="M223.92,327.17v-1.23h15.13v1.23Zm1.77,8.12v-4h10v-1.48h-10v-1.17h11.5v3.74h-10v1.7h10.55v1.19Zm5.81-10.56c-3.6,0-5.83-1.06-5.83-2.89s2.23-2.9,5.83-2.9,5.85,1.06,5.85,2.9S235.14,324.73,231.5,324.73Zm-4.34-2.89c0,1,1.71,1.69,4.34,1.69s4.38-.65,4.38-1.69-1.73-1.71-4.38-1.71S227.16,320.79,227.16,321.84Z"/><path class="cls-1" d="M246,331.23v-10.8h7.84v10.8Zm6.38-9.59H247.5V330h4.92Zm6,5v8.79h-1.46V318.7h1.46v6.74h2.73v1.22Z"/><path class="cls-1" d="M271.35,331.41a11.31,11.31,0,0,1-4.12-5.11,11.28,11.28,0,0,1-4.28,5.53l-1-1.1a9.54,9.54,0,0,0,4.47-7.54v-3h1.47v3a8.77,8.77,0,0,0,4.34,7.17Zm3.06,4V318.7h1.46v16.75Z"/><path class="cls-1" d="M279.4,328V320.2H287V328Zm6.17-6.61h-4.71v5.42h4.71Zm-4,13.49v-5.13H283v3.91h9.69v1.22Zm6.21-12.06v-1.21h3.12V318.7h1.46v12.16h-1.46v-4.34h-3.12v-1.21h3.12v-2.48Z"/><path class="cls-1" d="M308.51,325.76v1.84h6.86v1.2H300.24v-1.2h6.81v-1.84c-3.24-.14-5.12-1.3-5.12-3.29s2.2-3.28,5.89-3.28,5.87,1.17,5.87,3.28S311.76,325.62,308.51,325.76Zm-6.27,9.2v-4.84h1.46v3.62h10V335Zm1.13-12.48c0,1.37,1.75,2.07,4.43,2.07s4.47-.7,4.47-2.07-1.77-2.08-4.45-2.08S303.37,321.1,303.37,322.48Z"/><path class="cls-1" d="M316.8,328.05v-1.23h6.81v-1.89h-4.9V319.4H330v5.53h-5v1.89h6.86v1.23Zm1.82,7.22v-5.64h11.47v5.64Zm10-4.43h-8.57v3.22h8.57Zm-.07-10.25h-8.41v3.14h8.41Z"/><path class="cls-1" d="M333.36,333.14v-1.22h15.13v1.22Zm7.55-4.52c-3.66,0-6.09-1.67-6.09-4.23s2.43-4.23,6.09-4.23,6.1,1.68,6.1,4.23S344.58,328.62,340.91,328.62Zm0-7.23c-2.8,0-4.63,1.2-4.63,3s1.83,3,4.63,3,4.64-1.19,4.64-3S343.71,321.39,340.91,321.39Z"/><path class="cls-1" d="M349.92,333.31v-1.23h6.81v-2.84h-4.94V324h9.92v-2.69h-9.93v-1.22h11.39v5.11h-9.92V328h10.39v1.23h-5.45v2.84h6.86v1.23Z"/><path class="cls-1" d="M377.37,326.64v.83c1.77-.09,3.59-.23,4.58-.38l.14,1.07c-1.22.14-3.38.36-5.36.46s-4.07.18-5.26.18l-.22-1.2c1.21,0,2.95,0,4.67-.06v-.9c-1.84-.11-3.17-.77-3.17-2.07,0-1.46,1.67-2.14,3.81-2.14s3.87.68,3.87,2.12C380.43,325.83,379.14,326.5,377.37,326.64Zm-5.67-4.71v-1.14h9.8v1.14Zm1.87,13.45V331.9H383v-1.21h-9.45V329.6h10.91v3.33H375v1.35h10v1.1Zm3-11.85c-1.37,0-2.45.34-2.45,1s1.12,1.05,2.45,1.05,2.49-.36,2.49-1.05S377.93,323.53,376.56,323.53ZM374.29,320v-1.19h4.61V320Zm10.14,4.92v3.82H383v-10h1.46v5H387v1.21Z"/><path class="cls-1" d="M396.85,320.48a13.08,13.08,0,0,1-7.74,11.65l-.85-1.15a11.29,11.29,0,0,0,7-9.27h-6.41v-1.23Zm3.46,15V318.7h1.46v16.75Z"/><path class="cls-1" d="M404.88,322.36h9v1.19h-3.69v.07c0,2.11,2.05,3.87,4,4.36l-.73,1.13a7.58,7.58,0,0,1-4-3.35,7.25,7.25,0,0,1-4.21,3.84l-.79-1.12c2.23-.67,4.23-2.7,4.23-4.83v-.1h-3.76ZM407,334.91v-4.85h1.45v3.62h9.67v1.23Zm0-15.43h4.69v1.26h-4.69Zm10.47,5.67v5.71h-1.46V318.7h1.46v5.22h2.55v1.23Z"/><path class="cls-1" d="M433.88,325.33h1.8V319h1.42v15.61h-1.42v-8.11h-1.8c-.17,3-1.39,5.08-3.68,5.08-2.45,0-3.69-2.36-3.69-5.72s1.24-5.73,3.69-5.73S433.75,322.29,433.88,325.33Zm-3.68-3.89c-1.35,0-2.21,1.75-2.21,4.45s.86,4.44,2.21,4.44,2.24-1.72,2.24-4.44S431.55,321.44,430.2,321.44Zm8.74,14V318.7h1.44v16.75Z"/><path class="cls-1" d="M445.16,331.41h-1.51V320.54h1.46v9.6a35.59,35.59,0,0,0,7.2-.65c.09.41.09.81.18,1.22A38.25,38.25,0,0,1,445.16,331.41ZM455,318.7h1.46v16.75H455v-9.91h-5.44V324.3H455Z"/><path class="cls-1" d="M468.81,331.45c-1.56-1-3.69-3.11-4.26-5.1a10.54,10.54,0,0,1-4.34,5.5l-.9-1.08a9,9,0,0,0,4.46-7.46v-1.73h-3.9v-1.2h9.32v1.2h-3.9v1.71a8.43,8.43,0,0,0,4.42,7.08Zm4.29-12.75v16.75h-1.46V318.7Z"/><path class="cls-1" d="M484.46,320.5c-.09,5.44-3.24,9.37-7.55,11.6L476,331a11.3,11.3,0,0,0,6.88-9.23h-6.3V320.5Zm4.34,5.17h2.73v1.24H488.8v8.54h-1.46V318.7h1.46Z"/><path class="cls-1" d="M498.17,328.32v-8.5h1.46v3h4.84v-3h1.46v8.5Zm6.3-4.25h-4.84v3h4.84Zm-4.12,10.82v-5.1h1.46v3.89h9.81v1.21Zm6.46-10.17v-1.23h2.94V318.7h1.46v12.19h-1.46v-6.17Z"/><path class="cls-1" d="M523.53,331.45c-1.56-1-3.69-3.11-4.26-5.1a10.54,10.54,0,0,1-4.34,5.5l-.9-1.08a9,9,0,0,0,4.46-7.46v-1.73h-3.9v-1.2h9.32v1.2H520v1.71a8.41,8.41,0,0,0,4.43,7.08Zm4.29-12.75v16.75h-1.46V318.7Z"/><path class="cls-1" d="M530.64,328.57v-1.22h15.13v1.22Zm2,6.5v-4.93h1.46v3.72h10.07v1.21Zm.06-9.81V319.4h1.46v4.65h9.93v1.21Z"/><path class="cls-1" d="M560.74,320.13c-.25,4.59-3.28,7.47-7.6,9l-.75-1.22c3.67-1,6.35-3.5,6.73-6.52h-6v-1.22Zm5.67,15.21c-2.39-.4-5-2.12-5.8-3.94-.64,1.74-3.36,3.54-5.88,4l-.69-1.17c2.69-.34,5.84-2.43,5.84-4.86v-.94h1.53v.94c0,2.39,3,4.43,5.65,4.81Zm-5.62-10.82v-1.24h3.68V318.7h1.46v11.24h-1.46v-5.42Z"/><path class="cls-1" d="M582.05,319.8c-.38,4.59-3.27,7.28-7.51,8.54l-.75-1.17c3.47-1,6-3,6.59-6.14h-6V319.8Zm-5.88,15.49v-6.61h10.67v1.15h-9.22v1.55h9v1.11h-9v1.66h9.6v1.14Zm10.55-11.17v3.68h-1.46v-9.1h1.46v4.2h2.55v1.22Z"/><path class="cls-1" d="M590.4,328.52v-1.23h15.13v1.23Zm7.56-2.74c-3.65,0-5.81-1.17-5.81-3.31s2.18-3.28,5.83-3.28,5.82,1.17,5.82,3.28S601.62,325.78,598,325.78ZM592.4,335v-4.88h1.46v3.66h10V335Zm1.21-12.48c0,1.37,1.71,2.07,4.35,2.07s4.4-.7,4.4-2.07-1.73-2.08-4.38-2.08S593.61,321.1,593.61,322.48Z"/><path class="cls-1" d="M0,369.07v-1.22H15.12v1.22Zm2-5.9v-7H3.42V362h9.89v1.21Z"/><path class="cls-1" d="M21.58,355.84a9.46,9.46,0,0,1-3.87,7.78l-1-1a7.41,7.41,0,0,0,3.42-5.58H17.14v-1.22Zm-2.12,15.37v-5.87h10.8v5.87Zm9.34-4.66H20.92V370H28.8Zm-2.45-10.71c0,4-1.44,6.62-3.72,8.44l-1.1-.95a7.72,7.72,0,0,0,3.31-6.27H22.39v-1.22Zm2.47,8.57V354.7h1.42v9.71Z"/><path class="cls-1" d="M33.12,363.17v-1.23H48.24v1.23Zm1.76,8.12v-4h10v-1.48h-10v-1.17h11.5v3.74h-10v1.7H46.89v1.19Zm5.82-10.56c-3.6,0-5.83-1.06-5.83-2.89s2.23-2.9,5.83-2.9,5.85,1.06,5.85,2.9S44.34,360.73,40.7,360.73Zm-4.34-2.89c0,1,1.71,1.69,4.34,1.69s4.38-.65,4.38-1.69-1.73-1.71-4.38-1.71S36.36,356.79,36.36,357.84Z"/><path class="cls-1" d="M55.35,363.38v-7.72h1.46v2.57h4.91v-2.57h1.46v7.72Zm6.37-3.94H56.81v2.74h4.91ZM57.1,371.12v-5.65H67.63v1.21H58.57v3.24h9.22v1.2Zm10.49-10.75v4.07H66.14V354.7h1.45v4.45h2.56v1.22Z"/><path class="cls-1" d="M71.28,369.14v-1.22H86.4v1.22Zm7.54-4.52c-3.65,0-6.08-1.67-6.08-4.23s2.43-4.23,6.08-4.23,6.11,1.68,6.11,4.23S82.5,364.62,78.82,364.62Zm0-7.23c-2.79,0-4.62,1.2-4.62,3s1.83,3,4.62,3,4.65-1.19,4.65-3S81.63,357.39,78.82,357.39Z"/><path class="cls-1" d="M97.13,364.23A8.1,8.1,0,0,1,93,360.12a8.72,8.72,0,0,1-4.27,4.65l-.88-1.14c2.21-1,4.37-3.44,4.37-6.12v-1.85h1.48v1.82A6.29,6.29,0,0,0,98,363.06Zm-6.41,6.7v-5.15h1.46v3.94h9.7v1.21Zm9.35-4.07V354.7h1.45v12.16Z"/><path class="cls-1" d="M109.89,356h9v1.22h-3.73c0,.35,0,.8,0,1,.13,2.27,2.16,4.12,4.07,4.75l-.81,1.18a8.41,8.41,0,0,1-4-3.82,8.49,8.49,0,0,1-4.27,4.36l-.79-1.18c2.11-.8,4.23-2.93,4.32-5.31,0-.19,0-.66,0-1h-3.82Zm13.25,9.56v5.89h-1.47v-4.68H112v-1.21Zm-1.47-.88v-4.31h-3.35v-1.2h3.35V354.7h1.45v10Z"/><path class="cls-1" d="M140.13,359.65a4.36,4.36,0,0,1-8.68,0,4.35,4.35,0,0,1,8.68,0Zm-1.91,10.52A5,5,0,0,1,136.1,368a7,7,0,0,1-3.31,3.57l-.89-1a5.5,5.5,0,0,0,3.41-4.61V365h1.44v.7a3.69,3.69,0,0,0,2.48,3.44Zm-5.34-10.52a2.93,2.93,0,1,0,2.91-2.82A2.78,2.78,0,0,0,132.88,359.65Zm12.55,11.83a6.87,6.87,0,0,1-3.06-3.22,6.93,6.93,0,0,1-3.17,3.44l-.92-1a5.65,5.65,0,0,0,3.35-4.74v-1h1.44v1a5.17,5.17,0,0,0,3.26,4.5l-.89,1Zm-2.16-7.05V354.7h1.45v9.73Z"/><path class="cls-1" d="M157.79,366.44a46.72,46.72,0,0,1-8.6.76h-1V356.36h1.46v9.56a42.28,42.28,0,0,0,8-.7Zm2.67-5.09h2.73v1.24h-2.73v8.86H159V354.7h1.46Z"/><path class="cls-1" d="M164.16,369.31v-1.23h3.75v-3.33l1.45,0v3.37H174v-3.37l1.46,0v3.33h3.8v1.23Zm7.55-5.08c-3.62,0-6-1.66-6-4.18s2.42-4.21,6-4.21,6,1.69,6,4.21S175.34,364.23,171.71,364.23Zm0-7.22c-2.8,0-4.63,1.22-4.63,3s1.83,3,4.63,3,4.64-1.22,4.64-3S174.51,357,171.71,357Z"/><path class="cls-1" d="M182.92,364.75c0-1.33.7-1.85,1.92-2.88a3,3,0,0,0,1.25-2.52c0-1.41-.9-2.14-2.4-2.14a7.64,7.64,0,0,0-2.75.55l-.15-1.18a8.58,8.58,0,0,1,3.24-.64c2,0,3.64,1.16,3.64,3.35,0,1.55-.58,2.33-1.93,3.46-.9.74-1.45,1.14-1.45,2.09v1.76h-1.37Zm-.13,3.22h1.66v1.73h-1.66Z"/><path class="cls-1" d="M199.28,356c2.77,0,4.32,2.38,4.32,5.93s-1.55,5.9-4.32,5.9-4.32-2.36-4.32-5.92S196.53,356,199.28,356Zm0,1.26c-1.76,0-2.93,1.91-2.93,4.67s1.17,4.64,2.93,4.64,2.94-1.91,2.94-4.64S201.06,357.22,199.28,357.22Zm7.44,14.23V354.7h1.45v16.75Z"/><path class="cls-1" d="M216,363.38v-1.2h15.13v1.2Zm13.67-2.25c-2.69-.43-5.28-1.69-6.11-3.19-.64,1.52-3.29,2.81-6.06,3.17l-.65-1.19c2.59-.23,5.4-1.27,5.88-3.22h-5.31v-1.21H229.7v1.21h-5.27c.56,1.91,3.58,3,5.9,3.21Zm-11.87,10v-3.82h10v-1.45h-10V364.7h11.47v3.72h-10v1.52h10.59v1.2Z"/><path class="cls-1" d="M241.06,356.48a13,13,0,0,1-7.67,11.65l-.85-1.15a11.21,11.21,0,0,0,7-9.27h-6.33v-1.23Zm-.05,6.15v-1.25h3.78V354.7h1.46v16.75h-1.46v-8.82Z"/><path class="cls-1" d="M257.39,363.58v2.21h5v5.42H251v-5.42h5v-2.21h-6.81v-1.21h15.13v1.21Zm-.71-2.32c-3.67,0-5.85-1.16-5.85-3.12S253,355,256.68,355s5.84,1.15,5.84,3.13S260.36,361.26,256.68,361.26Zm0-5.06c-2.68,0-4.41.61-4.41,1.94s1.73,1.93,4.41,1.93,4.43-.61,4.43-1.93S259.37,356.2,256.68,356.2ZM261,367h-8.52v3H261Z"/><path class="cls-1" d="M265.68,363.17v-1.23h15.13v1.23Zm1.77,8.12v-4h10v-1.48h-10v-1.17h11.51v3.74h-10v1.7h10.56v1.19Zm5.81-10.56c-3.6,0-5.83-1.06-5.83-2.89s2.23-2.9,5.83-2.9,5.85,1.06,5.85,2.9S276.9,360.73,273.26,360.73Zm-4.34-2.89c0,1,1.71,1.69,4.34,1.69s4.38-.65,4.38-1.69-1.73-1.71-4.38-1.71S268.92,356.79,268.92,357.84Z"/><path class="cls-1" d="M291.8,356c2.74,0,4.29,2.38,4.29,5.93s-1.55,5.9-4.29,5.9-4.28-2.36-4.28-5.92S289.08,356,291.8,356Zm0,1.26c-1.73,0-2.86,1.91-2.86,4.67s1.13,4.64,2.86,4.64,2.86-1.91,2.86-4.64S293.55,357.22,291.8,357.22Zm8.36,5.44v8.79H298.7V354.7h1.46v6.74h2.73v1.22Z"/><path class="cls-1" d="M313.11,367.41A11.31,11.31,0,0,1,309,362.3a11.28,11.28,0,0,1-4.28,5.53l-1-1.1a9.54,9.54,0,0,0,4.47-7.54v-3h1.47v3A8.77,8.77,0,0,0,314,366.3Zm3.06,4V354.7h1.46v16.75Z"/><path class="cls-1" d="M320.4,364.57v-1.22h15.13v1.22Zm2,6.5v-4.93h1.46v3.72h10.07v1.21Zm.06-9.81V355.4h1.45v4.65h9.94v1.21Z"/><path class="cls-1" d="M348.81,367.94v-3.23H342v-1.2h15.13v1.2h-6.86v3.23Zm-4.9-6.3v-6.4h1.46v2.06h8.37v-2.06h1.46v6.4Zm0,9.27v-4.54h1.46v3.33h10v1.21Zm9.81-12.41h-8.37v1.91h8.37Z"/><path class="cls-1" d="M363.44,356c2.77,0,4.32,2.38,4.32,5.93s-1.55,5.9-4.32,5.9-4.32-2.36-4.32-5.92S360.69,356,363.44,356Zm0,1.26c-1.76,0-2.93,1.91-2.93,4.67s1.17,4.64,2.93,4.64,2.94-1.91,2.94-4.64S365.22,357.22,363.44,357.22Zm7.44,14.23V354.7h1.46v16.75Z"/><path class="cls-1" d="M385.26,366.82a49.18,49.18,0,0,1-8.1.63h-1.43V361H382v-3.53H375.7v-1.21h7.74v5.94h-6.25v4a44.45,44.45,0,0,0,7.89-.58Zm2.72-5.38h2.7v1.22H388v8.79h-1.44V354.7H388Z"/><path class="cls-1" d="M392.44,364V356.2h7.63V364Zm6.17-6.61H393.9v5.42h4.71Zm-4,13.49v-5.13H396v3.91h9.69v1.22Zm6.21-12.06v-1.21h3.12V354.7h1.46v12.16h-1.46v-4.34h-3.12v-1.21h3.12v-2.48Z"/><path class="cls-1" d="M408.6,368h1.73l-1.4,3.75h-1.05Z"/><path class="cls-1" d="M418.54,367.13v-10.7h7.9v10.7Zm6.44-9.49h-5v8.28h5Zm4.81,13.81V354.7h1.46v16.75Z"/><path class="cls-1" d="M441,365.9v-3.11h-6.83v-1.23h11.18a20.32,20.32,0,0,0,.54-4.73H436v-1.21h11.36a25,25,0,0,1-.6,5.94h2.51v1.23h-6.85v3.11h4.92v5.66H445.9v-4.45H435.78V365.9Z"/><path class="cls-1" d="M462.05,367.18c-1.44.18-3.84.32-6,.43-2,.09-3.8.15-5.08.16l-.25-1.27c1.42,0,3.4,0,5.44-.13,2.32-.09,4.5-.22,5.72-.38Zm-6-3.31c-2.46,0-4.35-1.64-4.35-3.89a4.07,4.07,0,0,1,4.35-4c2.47,0,4.36,1.53,4.36,4S458.45,363.87,456,363.87Zm0-6.63a2.83,2.83,0,0,0-2.95,2.74,3,3,0,0,0,5.89,0A2.73,2.73,0,0,0,456,357.24Zm8.45-2.54v16.75H463V354.7Z"/><path class="cls-1" d="M479.15,365.9v-3.11h-6.83v-1.23H483.5a20.32,20.32,0,0,0,.54-4.73h-9.86v-1.21h11.36a25,25,0,0,1-.6,5.94h2.51v1.23H480.6v3.11h4.92v5.66h-1.46v-4.45H473.94V365.9Z"/><path class="cls-1" d="M489.75,364v-7.74h7.9V364Zm6.44-6.56h-5v5.35h5Zm-4.52,13.49v-5.17h1.46v4h9.8v1.21Zm9.44-4V354.7h1.46v12.16Z"/><path class="cls-1" d="M517.29,371.45v-6h-6.81v-1.22h15.13v1.22h-6.86v6Zm6.91-8.79c-2.73-.47-5.4-2.16-6.16-3.73-.68,1.57-3.27,3.3-6.14,3.77l-.66-1.23c2.74-.28,6-2,6-4.37h-5.42v-1.21H524.2v1.21h-5.38c.07,2.36,3.51,4,6.07,4.34Z"/><path class="cls-1" d="M527,369.14v-1.22h15.13v1.22Zm13.76-4.59c-2.81-.84-5.53-3.22-6.21-4.93-.6,1.71-3.26,4.09-6.18,4.91l-.77-1.26c2.73-.52,6.21-3.11,6.21-5.85v-1.33h1.51v1.33c0,2.74,3.67,5.33,6.25,5.91Z"/><path class="cls-1" d="M548.64,369.16v-1.22h15.13v1.22Zm1.87-4.55V356.2H552v3h8.47v-3h1.45v8.43Zm9.93-4.2H552v3h8.47Z"/><path class="cls-1" d="M573.47,364.32a41.12,41.12,0,0,1-6.47.5h-1.08v-5.11H571v-2.38h-5.15v-1.2h6.61v4.77h-5.1v2.7a31.89,31.89,0,0,0,6-.49Zm-5.31,6.57v-5h1.45v3.76h10.16v1.21Zm9.72-3.69v-6.32h-2v5.76h-1.41V355h1.41v4.64h2V354.7h1.44v12.5Z"/><path class="cls-1" d="M581.76,369.14v-1.22h15.13v1.22Zm1.91-4.89v-7.89h11.24v1.21h-9.78V363h9.94v1.21Z"/><path class="cls-1" d="M607.72,360a4.18,4.18,0,0,1-4.5,4.16c-2.56,0-4.52-1.64-4.52-4.14a4.52,4.52,0,0,1,9,0Zm-7.63,0a2.93,2.93,0,0,0,3.13,2.88,2.87,2.87,0,0,0,3.11-2.86,2.89,2.89,0,0,0-3.13-2.92A2.93,2.93,0,0,0,600.09,360Zm1,10.91v-5.17h1.46v4h9.87v1.21Zm9.46-4V354.7H612v12.23Z"/><path class="cls-1" d="M10.19,402.44a46.75,46.75,0,0,1-8.61.76h-1V392.36H2v9.56a42.28,42.28,0,0,0,8-.7Zm2.67-5.09h2.73v1.24H12.86v8.86H11.4V390.7h1.46Z"/><path class="cls-1" d="M19.19,397.74a42.53,42.53,0,0,0,7.08-.47l.16,1.16a46.08,46.08,0,0,1-7,.48l-2.32,0v-7.22H24.9v1.19H18.58v1.71h6.06v1.15H18.58v2Zm-.38,9.55v-4.11H28v-1.55H18.74v-1.2H29.42v3.87H20.27v1.76h9.78v1.23Zm10.61-11.56v3.81H28V390.7h1.46v3.82H32v1.21Z"/><path class="cls-1" d="M44,402.87a56.25,56.25,0,0,1-8.3.56H34V397h6.36v-3.53H34v-1.21h7.88v5.94H35.48v4h.41a50.92,50.92,0,0,0,8-.52Zm2.85-12.17v16.75H45.42V390.7Z"/><path class="cls-1" d="M49.68,405.14v-1.22H64.8v1.22Zm13.76-4.59c-2.81-.84-5.53-3.22-6.22-4.93-.59,1.71-3.25,4.09-6.17,4.91l-.78-1.26c2.74-.52,6.22-3.11,6.22-5.85v-1.33H58v1.33c0,2.74,3.67,5.33,6.25,5.91Z"/><path class="cls-1" d="M79.54,400.66V404H86.4v1.22H71.28V404h6.81v-3.35c-3.21-.23-5.3-1.89-5.3-4.38s2.42-4.39,6-4.39,6.05,1.75,6.05,4.39S82.77,400.44,79.54,400.66Zm-.72-7.54c-2.79,0-4.6,1.27-4.6,3.2s1.81,3.19,4.6,3.19,4.65-1.28,4.65-3.19S81.65,393.12,78.82,393.12Z"/><path class="cls-1" d="M96,400.28a36,36,0,0,1-6.38.52H88.52v-5.06h4.94v-2.53H88.52V392h6.4v4.93H90v2.67a28.44,28.44,0,0,0,5.85-.49Zm-5.2,6.61v-5h1.45v3.78h10.23v1.21Zm4.8-10.17v-1.23h2V391H99v11.67H97.6v-6Zm5,6.46V390.7H102v12.48Z"/><path class="cls-1" d="M113.85,403.45c-1.56-1-3.69-3.11-4.26-5.1a10.54,10.54,0,0,1-4.34,5.5l-.9-1.08a9,9,0,0,0,4.46-7.46v-1.73H104.9v-1.2h9.33v1.2h-3.91v1.71a8.43,8.43,0,0,0,4.43,7.08Zm4.29-12.75v16.75h-1.46V390.7Z"/><path class="cls-1" d="M132.81,407.45v-6H126v-1.22h15.12v1.22h-6.85v6Zm6.91-8.79c-2.74-.47-5.4-2.16-6.16-3.73-.68,1.57-3.27,3.3-6.14,3.77l-.66-1.23c2.73-.28,6-2,6-4.37h-5.42v-1.21h12.33v1.21h-5.38c.07,2.36,3.51,4,6.06,4.34Z"/><path class="cls-1" d="M142.56,405.14v-1.22h15.13v1.22Zm13.76-4.59c-2.81-.84-5.53-3.22-6.22-4.93-.59,1.71-3.25,4.09-6.17,4.91l-.78-1.26c2.74-.52,6.22-3.11,6.22-5.85v-1.33h1.51v1.33c0,2.74,3.67,5.33,6.25,5.91Z"/><path class="cls-1" d="M159.12,399.63V398.5h15.13v1.13Zm1.75,7.51v-3.73H171V402H160.89V401h11.57v3.51H162.33V406H173v1.15Zm.18-10v-3.46h9.86V392.4H161v-1.14h11.34v3.49h-9.86v1.34H172.7v1.08Z"/><path class="cls-1" d="M181.3,399.94v-7.76h7.94v7.76Zm6.48-6.55h-5v5.33h5Zm-4.66,13.48v-5.15h1.45v3.95h9.67v1.2Zm10.47-10v5.95h-1.45V390.7h1.45v5h2.56v1.22Z"/><path class="cls-1" d="M207.47,402.44a46.72,46.72,0,0,1-8.6.76h-1V392.36h1.46v9.56a42.2,42.2,0,0,0,8-.7Zm2.67-5.09h2.73v1.24h-2.73v8.86h-1.46V390.7h1.46Z"/><path class="cls-1" d="M222.11,400.71v3.42H229v1.23H213.84v-1.23h6.81v-3.42h-5v-8.86h1.46v3.08h8.53v-3.08h1.46v8.86Zm3.56-4.57h-8.53v3.37h8.53Z"/><path class="cls-1" d="M238,403.23a10.15,10.15,0,0,1-3.59-4.82,9.24,9.24,0,0,1-3.42,5.31l-.9-1.08a8.92,8.92,0,0,0,3.58-7.35v-3h1.44v3a8.38,8.38,0,0,0,3.77,6.89Zm1.9,3.37V398h-3v-1.23h3V391.1h1.43v15.5Zm3.3.85V390.7h1.44v16.75Z"/><path class="cls-1" d="M247,405.31v-1.23h3.75v-3.33l1.45,0v3.37h4.67v-3.37l1.46,0v3.33h3.8v1.23Zm7.55-5.08c-3.62,0-6-1.66-6-4.18s2.42-4.21,6-4.21,6.05,1.69,6.05,4.21S258.14,400.23,254.51,400.23Zm0-7.22c-2.8,0-4.63,1.22-4.63,3s1.83,3,4.63,3,4.64-1.22,4.64-3S257.31,393,254.51,393Z"/><path class="cls-1" d="M263.61,404.06h1.66v1.71h-1.66Z"/><path class="cls-1" d="M283.07,402.44a46.72,46.72,0,0,1-8.6.76h-1V392.36h1.46v9.56a42.2,42.2,0,0,0,8-.7Zm2.67-5.09h2.73v1.24h-2.73v8.86h-1.46V390.7h1.46Z"/><path class="cls-1" d="M292.07,397.74a42.46,42.46,0,0,0,7.08-.47l.16,1.16a46.08,46.08,0,0,1-7,.48l-2.32,0v-7.22h7.78v1.19h-6.32v1.71h6.07v1.15h-6.07v2Zm-.38,9.55v-4.11h9.15v-1.55h-9.22v-1.2H302.3v3.87h-9.15v1.76h9.78v1.23Zm10.61-11.56v3.81h-1.46V390.7h1.46v3.82h2.55v1.21Z"/><path class="cls-1" d="M316.91,402.87a56.14,56.14,0,0,1-8.3.56H306.9V397h6.36v-3.53h-6.43v-1.21h7.89v5.94h-6.36v4h.41a50.92,50.92,0,0,0,8-.52Zm2.85-12.17v16.75H318.3V390.7Z"/><path class="cls-1" d="M322.56,405.14v-1.22h15.13v1.22Zm13.76-4.59c-2.81-.84-5.53-3.22-6.21-4.93-.6,1.71-3.26,4.09-6.18,4.91l-.77-1.26c2.73-.52,6.21-3.11,6.21-5.85v-1.33h1.51v1.33c0,2.74,3.67,5.33,6.25,5.91Z"/><path class="cls-1" d="M339.12,400.57v-1.22h15.13v1.22Zm2,6.5v-4.93h1.46v3.72h10.06v1.21Zm.06-9.81V391.4h1.45v4.65h9.94v1.21Z"/><path class="cls-1" d="M369.26,392.5c-.09,5.44-3.25,9.37-7.55,11.6l-.9-1.14a11.3,11.3,0,0,0,6.88-9.23h-6.3V392.5Zm4.34,5.17h2.73v1.24H373.6v8.54h-1.46V390.7h1.46Z"/><path class="cls-1" d="M377.39,391.91h9.13v1.22h-3.8c0,.42,0,.74,0,.92.12,2.14,2.12,4,4,4.61l-.81,1.17a8.1,8.1,0,0,1-4-3.67c-.45,1.57-2.41,3.36-4.21,4.14l-.85-1.13c2.11-.82,4.23-2.92,4.32-5.14,0-.16,0-.48,0-.9h-3.85Zm7.36,15.52c-3.49,0-5.6-1.22-5.6-3.19s2.11-3.22,5.6-3.22,5.64,1.21,5.64,3.22S388.26,407.43,384.75,407.43Zm0-5.19c-2.52,0-4.08.71-4.08,2s1.56,2,4.08,2,4.14-.73,4.14-2S387.29,402.24,384.75,402.24Zm5.41-5.69V401H388.7V390.7h1.46v4.63h2.59v1.22Z"/><path class="cls-1" d="M399.12,391.73h8.93V393h-3.78v.51c.13,2.14,2.15,3.89,4.05,4.52l-.81,1.13a7.88,7.88,0,0,1-4-3.56c-.45,1.56-2.34,3.29-4.14,4.07l-.85-1.1c2.11-.81,4.16-2.87,4.25-5.08V393h-3.65Zm2.1,15.59v-4.21h9.06v-1.69h-9.11v-1.23h10.57v4.05h-9.06v1.86h9.69v1.22Zm10.52-11.56v3.57h-1.46V390.7h1.46v3.84h2.55v1.22Z"/><path class="cls-1" d="M429.57,395.65a4.35,4.35,0,0,1-8.67,0,4.35,4.35,0,0,1,8.67,0Zm-7.25,0a2.93,2.93,0,1,0,2.91-2.82A2.78,2.78,0,0,0,422.32,395.65Zm10.41,11.8V402.6h-9.67v-1.2h11.12v6.05Zm0-6.92V390.7h1.46v9.83Z"/><path class="cls-1" d="M437,400.52v-1.23h15.13v1.23Zm7.56-2.74c-3.65,0-5.81-1.17-5.81-3.31s2.18-3.28,5.83-3.28,5.82,1.17,5.82,3.28S448.26,397.78,444.6,397.78ZM439,407v-4.88h1.46v3.66h10V407Zm1.21-12.48c0,1.37,1.71,2.07,4.35,2.07s4.4-.7,4.4-2.07-1.73-2.08-4.38-2.08S440.25,393.1,440.25,394.48Z"/><path class="cls-1" d="M467.25,399.58a8.08,8.08,0,0,1-3.93-3.91,8.17,8.17,0,0,1-4.17,4.47l-.81-1.14a6.64,6.64,0,0,0,4.19-5.88v-1.63H464v1.57a6.1,6.1,0,0,0,4.1,5.37Zm-1.14,7.85c-3.49,0-5.58-1.22-5.58-3.2s2.09-3.23,5.58-3.23,5.64,1.23,5.64,3.23S469.64,407.43,466.11,407.43Zm-4.08-3.2c0,1.27,1.56,2,4.08,2s4.14-.72,4.14-2-1.58-2-4.14-2S462,403,462,404.23Zm9.49-7.77V401h-1.46V390.7h1.46v4.54h2.55v1.22Z"/><path class="cls-1" d="M477.92,402a25.56,25.56,0,0,0,5.24-.45l.2,1.19a32.08,32.08,0,0,1-6.59.5h-.92V392.59h6.55v1.21h-5.09v3.31h4.9v1.17h-4.9V402Zm10,5.44v-8.81h-2.24v7.94h-1.4V391.1h1.4v6.34h2.24V390.7h1.42v16.75Z"/><path class="cls-1" d="M503.09,403.18c-1.44.18-3.84.32-6,.43-2,.09-3.8.15-5.08.16l-.25-1.27c1.42,0,3.4,0,5.44-.13,2.32-.09,4.5-.22,5.72-.38Zm-6-3.31c-2.46,0-4.35-1.64-4.35-3.89a4.07,4.07,0,0,1,4.35-4c2.47,0,4.36,1.53,4.36,4S499.49,399.87,497.07,399.87Zm0-6.63a2.83,2.83,0,0,0-2.95,2.74,3,3,0,0,0,5.89,0A2.73,2.73,0,0,0,497.07,393.24Zm8.45-2.54v16.75h-1.46V390.7Z"/><path class="cls-1" d="M513.36,399.52V398.3h15.13v1.22Zm1.42-7v-1.21H527v1.21Zm0,4.5v-1.21h2.67l-.42-2.45,1.52-.19.28,2.64h4.07l.34-2.68,1.52.2-.45,2.48H527v1.21Zm.42,10.23V403.4h9.95V402h-10V400.8h11.49v3.69h-10v1.59h10.59v1.21Z"/><path class="cls-1" d="M529.92,405.31v-1.23h6.81v-2.84h-4.94V396h9.93v-2.69h-9.94v-1.22h11.39v5.11h-9.92V400h10.39v1.23h-5.45v2.84h6.86v1.23Z"/><path class="cls-1" d="M557.39,402.87a56,56,0,0,1-8.3.56h-1.71V397h6.36v-3.53h-6.43v-1.21h7.89v5.94h-6.36v4h.41a50.92,50.92,0,0,0,8-.52Zm2.85-12.17v16.75h-1.46V390.7Z"/><path class="cls-1" d="M566.14,402.1a43.84,43.84,0,0,0,7.07-.54l.17,1.21a51.26,51.26,0,0,1-8,.57h-1.64V392.45h7.94v1.22h-6.48v8.43Zm9.81-4.75h2.72v1.22H576v8.88h-1.44V390.7H576Z"/><path class="cls-1" d="M588.32,400.16a8,8,0,0,1-4-4,8.47,8.47,0,0,1-4.1,4.63l-.9-1.17a7.07,7.07,0,0,0,4.23-6.09V391.6H585v1.84a6.15,6.15,0,0,0,4.17,5.54ZM582,406.91v-5.22h1.46v4h9.61v1.21ZM592.48,397v5.82H591V390.7h1.46v5.12H595V397Z"/><path class="cls-1" d="M8.26,436.66V440h6.86v1.22H0V440H6.81v-3.35c-3.21-.23-5.3-1.89-5.3-4.38s2.42-4.39,6-4.39,6.05,1.75,6.05,4.39S11.49,436.44,8.26,436.66Zm-.72-7.54c-2.79,0-4.6,1.27-4.6,3.2s1.81,3.19,4.6,3.19,4.65-1.28,4.65-3.19S10.37,429.12,7.54,429.12Z"/><path class="cls-1" d="M24.7,436.28a36,36,0,0,1-6.38.52H17.24v-5.06h4.94v-2.53H17.24V428h6.4v4.93H18.7v2.67a28.44,28.44,0,0,0,5.85-.49Zm-5.2,6.61v-5H21v3.78H31.18v1.21Zm4.8-10.17v-1.23h2V427h1.4v11.67h-1.4v-6Zm5,6.46V426.7h1.44v12.48Z"/><path class="cls-1" d="M42.57,439.45c-1.56-1-3.69-3.11-4.26-5.1a10.54,10.54,0,0,1-4.34,5.5l-.9-1.08a9,9,0,0,0,4.46-7.46v-1.73H33.62v-1.2H43v1.2H39v1.71a8.43,8.43,0,0,0,4.43,7.08Zm4.29-12.75v16.75H45.4V426.7Z"/><path class="cls-1" d="M49.68,435.63V434.5H64.8v1.13Zm1.75,7.51v-3.73H61.56V438H51.44V437H63v3.51H52.89V442H63.54v1.15Zm.18-10v-3.46h9.86V428.4H51.59v-1.14H62.93v3.49H53.07v1.34H63.26v1.08Z"/><path class="cls-1" d="M71.21,431.92v-1.2h9.88v1.2Zm5,8c-2.35,0-3.91-1.5-3.91-3.46S73.85,433,76.2,433s3.9,1.5,3.9,3.46S78.54,439.92,76.2,439.92ZM73.71,429.1v-1.25h4.92v1.25Zm2.49,5.13a2.25,2.25,0,1,0,2.44,2.23A2.27,2.27,0,0,0,76.2,434.23Zm8,.75v8.47H82.7V426.7h1.45v7.06h2.72V435Z"/><path class="cls-1" d="M98,438.44a46.75,46.75,0,0,1-8.61.76h-1V428.36h1.46v9.56a42.28,42.28,0,0,0,8-.7Zm2.67-5.09h2.73v1.24H100.7v8.86H99.24V426.7h1.46Z"/><path class="cls-1" d="M104.33,431.92v-1.2h9.88v1.2Zm5,8c-2.34,0-3.91-1.5-3.91-3.46S107,433,109.32,433s3.9,1.5,3.9,3.46S111.66,439.92,109.32,439.92Zm-2.49-10.82v-1.25h4.92v1.25Zm2.49,5.13a2.25,2.25,0,1,0,2.44,2.23A2.27,2.27,0,0,0,109.32,434.23Zm8,.75v8.47h-1.45V426.7h1.45v7.06H120V435Z"/><path class="cls-1" d="M131.15,438.44a46.75,46.75,0,0,1-8.61.76h-1V428.36H123v9.56a42.28,42.28,0,0,0,8-.7Zm2.67-5.09h2.73v1.24h-2.73v8.86h-1.46V426.7h1.46Z"/><path class="cls-1" d="M142.56,436.82V435.6h6.82v-2.74h1.46v2.74h6.85v1.22Zm13.7-2.92c-2.77-.5-5.38-2.44-6.14-4.06-.66,1.6-3.2,3.54-6.08,4.06l-.69-1.22c2.88-.31,6-2.43,6-4.75v-.69h1.52v.69c0,2.34,3.44,4.5,6,4.73Zm-11.83,9v-4.78h1.46v3.55h10.17v1.23Z"/><path class="cls-1" d="M159.12,441.14v-1.22h15.13v1.22Zm7.55-4.52c-3.66,0-6.09-1.67-6.09-4.23s2.43-4.23,6.09-4.23,6.1,1.68,6.1,4.23S170.34,436.62,166.67,436.62Zm0-7.23c-2.8,0-4.63,1.2-4.63,3s1.83,3,4.63,3,4.64-1.19,4.64-3S169.47,429.39,166.67,429.39Z"/><path class="cls-1" d="M175.68,441.31v-1.23h6.81v-2.84h-4.94V432h9.92v-2.69h-9.93v-1.22h11.39v5.11H179V436H189.4v1.23H184v2.84h6.86v1.23Z"/><path class="cls-1" d="M202.36,438.51a19.69,19.69,0,0,1-4.68.45V428.47h4.19v1.2h-2.75v8.05a12.3,12.3,0,0,0,3-.39Zm5.85.08a24.45,24.45,0,0,1-5.31.41V428.47h4.46v1.2h-3v8.09a17,17,0,0,0,3.69-.36Zm2.23-4v8.88H209V426.7h1.46v6.65h2.43v1.22Z"/><path class="cls-1" d="M223,439.43a11.47,11.47,0,0,1-4.14-5.16,11,11,0,0,1-4.18,5.54l-1-1.08a9.37,9.37,0,0,0,4.37-7.47v-3.1h1.5v3a8.6,8.6,0,0,0,4.3,7.13Zm3.15,4V433.9h-3.91v-1.22h3.91v-6h1.46v16.75Z"/><path class="cls-1" d="M242.25,443.47v-6.09h-6.81v-1.22h15.13v1.22h-6.86v6.09Zm7-9.1c-2.5-.5-5.24-2.09-6.25-4-.81,1.94-3.67,3.58-6.21,4.09l-.7-1.26c3.2-.42,6.16-2.54,6.16-4.83v-1.06h1.53v1.06c0,2.29,3.22,4.43,6.17,4.79Z"/><path class="cls-1" d="M262.5,437c-1.21.14-3.21.34-5.19.45s-4.19.2-5.36.2l-.24-1.21c1.23,0,2.92,0,4.63-.11v-1.13c-1.76-.16-3.11-.85-3.11-2.2,0-1.55,1.74-2.27,3.87-2.27s3.9.7,3.9,2.25c0,1.35-1.38,2.07-3.18,2.22v1.06c1.76-.09,3.58-.23,4.55-.38Zm-10.19-6.83V429h9.63v1.17Zm12.6,8.5v4.85h-1.46v-3.64H254v-1.21Zm-7.81-6.84c-1.43,0-2.49.38-2.49,1.15s1.08,1.17,2.49,1.17,2.52-.39,2.52-1.17S258.5,431.87,257.1,431.87Zm-2.27-3.74v-1.21h4.59v1.21Zm10.08,5.34v4.36h-1.46V426.7h1.46v5.55h2.54v1.22Z"/><path class="cls-1" d="M268.49,430.5v-1.19h9.76v1.19Zm4.88,6.11c-2.27,0-3.89-1.07-3.89-2.71s1.58-2.71,3.89-2.71,3.89,1,3.89,2.71S275.64,436.61,273.37,436.61Zm-2.47,6.71v-6.08h1.46V439H280v-1.8h1.46v6.1Zm2.47-11c-1.3,0-2.45.55-2.45,1.54s1.17,1.55,2.45,1.55,2.43-.59,2.43-1.55S274.68,432.36,273.37,432.36Zm-2.41-4.2v-1.22h4.82v1.22Zm9,12.07h-7.62v1.87H280Zm1.46-7.57v3.75H280V426.7h1.46v4.74H284v1.22Z"/><path class="cls-1" d="M295.69,438.55a52.55,52.55,0,0,1-8.88.77h-.73V428.45h1.45v9.6a46.8,46.8,0,0,0,8-.76Zm3,4.9h-1.44V426.7h1.44Z"/><path class="cls-1" d="M304.78,438.1a43.84,43.84,0,0,0,7.07-.54l.17,1.21a51.26,51.26,0,0,1-8,.57h-1.64V428.45h7.94v1.22h-6.48v8.43Zm9.81-4.75h2.72v1.22h-2.72v8.88h-1.44V426.7h1.44Z"/><path class="cls-1" d="M318.33,440.06H320v1.71h-1.66Z"/><path class="cls-1" d="M334.41,443.47v-6.09H327.6v-1.22h15.13v1.22h-6.86v6.09Zm7-9.1c-2.5-.5-5.24-2.09-6.25-4-.81,1.94-3.67,3.58-6.21,4.09l-.7-1.26c3.2-.42,6.16-2.54,6.16-4.83v-1.06h1.53v1.06c0,2.29,3.22,4.43,6.17,4.79Z"/><path class="cls-1" d="M354.66,437c-1.21.14-3.21.34-5.19.45s-4.19.2-5.36.2l-.24-1.21c1.23,0,2.92,0,4.63-.11v-1.13c-1.76-.16-3.11-.85-3.11-2.2,0-1.55,1.74-2.27,3.87-2.27s3.9.7,3.9,2.25c0,1.35-1.38,2.07-3.18,2.22v1.06c1.76-.09,3.58-.23,4.55-.38Zm-10.19-6.83V429h9.63v1.17Zm12.6,8.5v4.85h-1.46v-3.64h-9.5v-1.21Zm-7.81-6.84c-1.43,0-2.49.38-2.49,1.15s1.08,1.17,2.49,1.17,2.52-.39,2.52-1.17S350.66,431.87,349.26,431.87ZM347,428.13v-1.21h4.59v1.21Zm10.08,5.34v4.36h-1.46V426.7h1.46v5.55h2.54v1.22Z"/><path class="cls-1" d="M360.65,431v-1.2h9.81V431Zm4.91,6.77c-2.23,0-3.94-1.17-3.94-2.93s1.69-2.94,3.94-2.94,3.95,1.14,3.95,2.94S367.82,437.81,365.56,437.81Zm0-4.72c-1.35,0-2.55.67-2.55,1.79s1.2,1.76,2.55,1.76,2.56-.66,2.56-1.76S366.92,433.09,365.56,433.09ZM363,428.58V427.3h4.83v1.28Zm.06,14.33V438.6h1.46v3.08h9.68v1.23Zm10.5-9.31v5.45h-1.46V426.7h1.46v5.67h2.55v1.23Z"/><path class="cls-1" d="M390.59,436.66V440h6.86v1.22H382.32V440h6.81v-3.35c-3.21-.23-5.3-1.89-5.3-4.38s2.42-4.39,6-4.39,6.05,1.75,6.05,4.39S393.81,436.44,390.59,436.66Zm-.72-7.54c-2.8,0-4.61,1.27-4.61,3.2s1.81,3.19,4.61,3.19,4.64-1.28,4.64-3.19S392.69,429.12,389.87,429.12Z"/><path class="cls-1" d="M407,436.28a35.92,35.92,0,0,1-6.37.52h-1.08v-5.06h4.93v-2.53h-4.93V428H406v4.93H401v2.67a28.6,28.6,0,0,0,5.86-.49Zm-5.2,6.61v-5h1.45v3.78H413.5v1.21Zm4.8-10.17v-1.23h2V427H410v11.67h-1.4v-6Zm5,6.46V426.7h1.44v12.48Z"/><path class="cls-1" d="M424.89,439.45c-1.56-1-3.69-3.11-4.26-5.1a10.54,10.54,0,0,1-4.34,5.5l-.9-1.08a9,9,0,0,0,4.46-7.46v-1.73H416v-1.2h9.32v1.2h-3.9v1.71a8.43,8.43,0,0,0,4.42,7.08Zm4.29-12.75v16.75h-1.46V426.7Z"/><path class="cls-1" d="M432,436.57v-1.22h15.13v1.22Zm2,6.5v-4.93h1.46v3.72h10.07v1.21Zm.06-9.81V427.4h1.45v4.65h9.94v1.21Z"/><path class="cls-1" d="M461.87,436.66V440h6.86v1.22H453.6V440h6.81v-3.35c-3.21-.23-5.3-1.89-5.3-4.38s2.42-4.39,6-4.39,6.05,1.75,6.05,4.39S465.09,436.44,461.87,436.66Zm-.72-7.54c-2.8,0-4.61,1.27-4.61,3.2s1.81,3.19,4.61,3.19,4.64-1.28,4.64-3.19S464,429.12,461.15,429.12Z"/><path class="cls-1" d="M479.31,431c0,2.26-1.95,3.74-4.34,3.74s-4.36-1.46-4.36-3.74,1.95-3.8,4.36-3.8S479.31,428.74,479.31,431ZM472,431c0,1.49,1.28,2.48,2.94,2.48s2.92-1,2.92-2.46-1.17-2.53-2.92-2.53A2.67,2.67,0,0,0,472,431Zm1,12.22V439h9.38v-1.74H473v-1.19h10.9v4.05h-9.39V442h10v1.19Zm9.38-8V426.7h1.46v8.47Z"/><path class="cls-1" d="M491.6,428c2.77,0,4.32,2.38,4.32,5.93s-1.55,5.9-4.32,5.9-4.32-2.36-4.32-5.92S488.85,428,491.6,428Zm0,1.26c-1.76,0-2.93,1.91-2.93,4.67s1.17,4.64,2.93,4.64,2.94-1.91,2.94-4.64S493.38,429.22,491.6,429.22ZM499,443.45V426.7h1.46v16.75Z"/><path class="cls-1" d="M513.47,438.44a46.72,46.72,0,0,1-8.6.76h-1V428.36h1.46v9.56a42.2,42.2,0,0,0,8-.7Zm2.67-5.09h2.73v1.24h-2.73v8.86h-1.46V426.7h1.46Z"/><path class="cls-1" d="M529.8,427.8a8.66,8.66,0,0,1-3.93,7.37l-1-1A6.84,6.84,0,0,0,528.3,429h-2.91V427.8Zm-1.95,15.41v-6.53h1.46v2.07h7.82v-2.07h1.45v6.53Zm9.28-3.27h-7.82V442h7.82Zm-2.87-12.14c0,3.93-1.44,6.5-3.74,8.3l-1.08-.93a7.66,7.66,0,0,0,3.33-6.13h-2.36V427.8Zm.15,4.41V431h2.73V426.7h1.43v9.06h-1.43v-3.55Z"/><path class="cls-1" d="M542.09,427.71h9.25v1.23h-3.92l0,.52c0,2.14,2.18,4,4.08,4.59l-.81,1.13a8.21,8.21,0,0,1-4.05-3.67c-.45,1.57-2.41,3.42-4.34,4.2l-.81-1.12c2.33-.83,4.38-2.94,4.42-5.15v-.5h-3.84Zm2.11,15.61v-4.14h9.47v-1.73H544.2v-1.19h10.93v4h-9.47v1.84h10.08v1.2Zm9.47-8V426.7h1.46v8.65Z"/><path class="cls-1" d="M569.33,439.18c-1.44.18-3.84.32-6,.43s-3.8.15-5.08.16L558,438.5c1.42,0,3.4,0,5.44-.13,2.32-.09,4.5-.22,5.72-.38Zm-6-3.31c-2.46,0-4.35-1.64-4.35-3.89a4.07,4.07,0,0,1,4.35-4c2.47,0,4.36,1.53,4.36,4S565.73,435.87,563.31,435.87Zm0-6.63a2.83,2.83,0,0,0-2.95,2.74,3,3,0,0,0,5.89,0A2.73,2.73,0,0,0,563.31,429.24Zm8.45-2.54v16.75H570.3V426.7Z"/><path class="cls-1" d="M579.6,436.61V435.4h15.13v1.21Zm6.63-3.52a5.31,5.31,0,0,1-2.31-2.12,6,6,0,0,1-3,2.95l-.87-1a4.77,4.77,0,0,0,3.19-4.25v-1h1.41v1.09a3.52,3.52,0,0,0,2.44,3.33Zm-4.67,9.84v-4.78H583v3.55h10v1.23Zm11.92-9.31a5.57,5.57,0,0,1-2.8-2.67,6,6,0,0,1-2.94,3l-.85-1a4.82,4.82,0,0,0,3.07-4.27v-1.22h1.4v1.19a4.25,4.25,0,0,0,2.95,3.9Z"/><path class="cls-1" d="M596.79,435.44v-7.28h8v7.28Zm12.93,8c-2.2-.43-5-2.21-5.65-3.76-.65,1.64-3.17,3.3-5.66,3.78l-.7-1.19c2.7-.34,5.62-2.34,5.62-4.7V437h1.53v.64c0,2.36,3.13,4.31,5.6,4.67Zm-6.41-14.11h-5.06v4.86h5.06Zm5.73,3.22v5.13h-1.46v-11H609v4.67h2.55v1.22Z"/><path class="cls-1" d="M617.6,428c2.77,0,4.32,2.38,4.32,5.93s-1.55,5.9-4.32,5.9-4.32-2.36-4.32-5.92S614.85,428,617.6,428Zm0,1.26c-1.76,0-2.93,1.91-2.93,4.67s1.17,4.64,2.93,4.64,2.94-1.91,2.94-4.64S619.38,429.22,617.6,429.22ZM625,443.45V426.7h1.46v16.75Z"/><path class="cls-1" d="M10.19,474.44a46.75,46.75,0,0,1-8.61.76h-1V464.36H2v9.56a42.28,42.28,0,0,0,8-.7Zm2.67-5.09h2.73v1.24H12.86v8.86H11.4V462.7h1.46Z"/><path class="cls-1" d="M26,475.45c-1.56-1-3.69-3.11-4.26-5.1a10.54,10.54,0,0,1-4.34,5.5l-.9-1.08A9,9,0,0,0,21,467.31v-1.73H17.06v-1.2h9.33v1.2H22.48v1.71a8.43,8.43,0,0,0,4.43,7.08ZM30.3,462.7v16.75H28.84V462.7Z"/><path class="cls-1" d="M47,467.47c0,2.42-2,3.93-4.34,3.93s-4.34-1.51-4.34-3.91a4.06,4.06,0,0,1,4.34-4A4.05,4.05,0,0,1,47,467.47Zm-2.27,10.88a18,18,0,0,1-5,.63v-6h1.42v4.77a12.79,12.79,0,0,0,3.39-.56Zm-5-10.88a2.7,2.7,0,0,0,2.92,2.69,2.66,2.66,0,0,0,2.93-2.67,2.7,2.7,0,0,0-2.93-2.72A2.73,2.73,0,0,0,39.76,467.47Zm4.52,7.17v-1.17h8.37v1.17Zm4.16,5c-1.73,0-3.15-.9-3.15-2.25s1.42-2.26,3.15-2.26,3.17.85,3.17,2.26S50.19,479.65,48.44,479.65Zm-1.85-7v-1.19h3.85v1.19Zm1.85,3.64c-.94,0-1.73.45-1.73,1.1s.79,1.09,1.73,1.09,1.75-.43,1.75-1.09S49.41,476.3,48.44,476.3ZM51,467.76v3H49.58v-8H51v3.84h2.56v1.22Z"/><path class="cls-1" d="M54.72,477.31v-1.23h6.81V472h-5v-7.88H68v1.2H58v5.48H68.13V472H63v4.09h6.86v1.23Z"/><path class="cls-1" d="M79.54,470.07v1.76H86.4v1.23H71.28v-1.23h6.81v-1.76h-4.9v-3.95H83v-1.6H73.17v-1.17H84.46v3.87H74.65v1.68h10.1v1.17Zm5,4.44v5.05H83v-3.84H72.9v-1.21Z"/><path class="cls-1" d="M101.7,469.85v.83c0,4.48-1.8,6.84-4.91,6.84a6.11,6.11,0,0,1-3.12-.79l.42-1.12a5.68,5.68,0,0,0,2.63.63c2.1,0,3.31-1.35,3.45-4.95A4.12,4.12,0,0,1,97,472.71a3.83,3.83,0,0,1-3.92-4,4.16,4.16,0,0,1,4.16-4.47C100.1,464.23,101.7,466.2,101.7,469.85Zm-7.11-1.3a2.55,2.55,0,0,0,2.72,2.89,3.8,3.8,0,0,0,2.86-1.63v-.36c0-2.39-.86-4-2.91-4C95.58,465.49,94.59,466.77,94.59,468.55Z"/><path class="cls-1" d="M103.34,476.55l.29-1.23a6.08,6.08,0,0,0,3,.92c2,0,3.22-1.15,3.22-3s-1.15-2.74-3.16-2.74a7.76,7.76,0,0,0-2.69.64l.47-6.74H111v1.3h-5.28l-.27,3.91a7.74,7.74,0,0,1,1.84-.28c2.59,0,4.18,1.23,4.18,3.93a4.2,4.2,0,0,1-4.52,4.23A6.4,6.4,0,0,1,103.34,476.55Z"/><path class="cls-1" d="M112.88,467.94v-.3c0-2,1.13-3.41,3-3.41s3,1.26,3,3.3v.3c0,2-1.13,3.43-3,3.43S112.88,470,112.88,467.94Zm4.59,0v-.43c0-1.57-.61-2.32-1.64-2.32s-1.64.73-1.64,2.3v.43c0,1.64.61,2.36,1.64,2.36S117.47,469.58,117.47,468Zm6.21-3.89H125L116.06,478h-1.27Zm-2.57,10.07v-.29c0-2,1.17-3.44,3-3.44s2.94,1.28,2.94,3.29V474c0,2-1.12,3.44-2.94,3.44S121.11,476.19,121.11,474.14Zm4.59,0v-.45c0-1.54-.6-2.3-1.61-2.3s-1.65.74-1.65,2.29v.45c0,1.62.59,2.34,1.65,2.34S125.7,475.76,125.7,474.15Z"/><path class="cls-1" d="M133.42,464.54a15.86,15.86,0,0,1-4.16,11.07l-1.19-.86a13.63,13.63,0,0,0,3.89-9h-3v-1.22Zm4.57,0c0,4.45-.92,8.52-3.93,12.1l-1.22-.81c2.76-2.77,3.71-7.49,3.71-10.07h-2.36v-1.22Zm3.73,5.13h2.55v1.23h-2.55v8.55h-1.44V462.7h1.44Z"/><path class="cls-1" d="M154.6,475.45c-1.56-1-3.69-3.11-4.26-5.1a10.54,10.54,0,0,1-4.34,5.5l-.9-1.08a9,9,0,0,0,4.46-7.46v-1.73h-3.9v-1.2H155v1.2h-3.9v1.71a8.43,8.43,0,0,0,4.42,7.08Zm4.29-12.75v16.75h-1.46V462.7Z"/><path class="cls-1" d="M162.29,471.94v-7.76h7.94v7.76Zm6.48-6.55h-5v5.33h5Zm-4.66,13.48v-5.15h1.45v3.95h9.67v1.2Zm10.48-10v5.95h-1.46V462.7h1.46v5h2.55v1.22Z"/><path class="cls-1" d="M183.55,466h9v1.19h-3.69c.13,2,2.11,3.69,4,4.16l-.73,1.13a7.58,7.58,0,0,1-4-3.35,7.25,7.25,0,0,1-4.21,3.84l-.79-1.12c2.18-.65,4.12-2.59,4.23-4.66h-3.76Zm12.62,7.72v5.73h-1.46v-4.52h-9.36v-1.21Zm-10.45-10.53h4.69v1.26h-4.69Zm10.45,5.18v4.49h-1.44V462.7h1.44v4.45h2.55v1.22Z"/><path class="cls-1" d="M199.87,471.58v-1.21H215v1.21Zm13.72-2.14c-2.79-.47-5.33-1.95-6.16-3.48-.66,1.55-3.15,3-6.1,3.46l-.67-1.23c2.65-.25,5.55-1.62,6-3.63h-5.33v-1.21h12.23v1.21h-5.28c.45,2,3.62,3.4,6,3.62Zm-11.7,9.77v-6.33h1.46v2h8.17v-2H213v6.33Zm9.63-3.18h-8.17v2h8.17Z"/><path class="cls-1" d="M216.4,468v-1.21h8.33V468Zm4.37,7.65a3.38,3.38,0,0,1-3.65-3.33,3.67,3.67,0,0,1,7.31,0C224.43,474.32,222.93,475.63,220.77,475.63Zm-2.41-10.39V464h4.57v1.26Zm2.41,4.94A2.12,2.12,0,1,0,223,472.3,2.07,2.07,0,0,0,220.77,470.18Zm8.36,9.27v-8.68h-2v7.83h-1.42V463.1h1.42v6.44h2V462.7h1.44v16.75Z"/><path class="cls-1" d="M233,477.31v-1.23h3.75v-3.33l1.46,0v3.37h4.66v-3.37l1.46,0v3.33h3.8v1.23Zm7.55-5.08c-3.62,0-6-1.66-6-4.18s2.42-4.21,6-4.21,6.05,1.69,6.05,4.21S244.17,472.23,240.54,472.23Zm0-7.22c-2.79,0-4.63,1.22-4.63,3s1.84,3,4.63,3,4.64-1.22,4.64-3S243.34,465,240.54,465Z"/><path class="cls-1" d="M249.64,476.06h1.66v1.71h-1.66Z"/><path class="cls-1" d="M258.91,477v-1.22H274V477Zm13-12.38a52.89,52.89,0,0,1-.76,9.9l-1.46-.2a46.57,46.57,0,0,0,.72-8.5H260.5v-1.2Z"/><path class="cls-1" d="M287.34,479.47v-4.79h-6.83v-1.23h15.13v1.23h-6.85v4.79Zm-6-12.79v-1.22h13.45v1.22Zm6.71,5.85c-2.95,0-5.15-.82-5.15-2.55s2.2-2.58,5.15-2.58,5.15.81,5.15,2.58S291.06,472.53,288.09,472.53Zm0-3.92c-1.65,0-3.63.34-3.63,1.37s2,1.33,3.63,1.33,3.64-.36,3.64-1.33S289.77,468.61,288.09,468.61Zm-2.81-4.41V463h5.6v1.25Z"/><path class="cls-1" d="M313.33,468.79v2.38h3.91v1.2H302.11v-1.2H306v-2.4a2.84,2.84,0,0,1-2.12-2.56c0-1.9,2.16-3.15,5.83-3.15s5.86,1.25,5.86,3.15C315.53,467.35,314.73,468.25,313.33,468.79Zm-3.62,10.55c-3.69,0-5.92-1-5.92-2.95s2.23-3,5.9-3,5.94,1.05,5.94,3S313.38,479.34,309.71,479.34Zm-4.47-2.95c0,1.09,1.79,1.69,4.45,1.69s4.49-.6,4.49-1.69-1.79-1.7-4.49-1.7S305.24,475.29,305.24,476.39Zm4.43-12.16c-2.68,0-4.41.74-4.41,2s1.73,2,4.41,2,4.43-.74,4.43-2S312.36,464.23,309.67,464.23Zm-2.25,4.94v2h4.45v-2a14.75,14.75,0,0,1-2.2.16A12.9,12.9,0,0,1,307.42,469.17Z"/><path class="cls-1" d="M327.44,464.48a13.08,13.08,0,0,1-7.74,11.65l-.85-1.15a11.29,11.29,0,0,0,7-9.27h-6.41v-1.23Zm3.46,15V462.7h1.46v16.75Z"/><path class="cls-1" d="M342.87,469.33h1.8V463h1.42v15.61h-1.42v-8.11h-1.8c-.17,3-1.39,5.08-3.68,5.08-2.45,0-3.69-2.36-3.69-5.72s1.24-5.73,3.69-5.73S342.74,466.29,342.87,469.33Zm-3.68-3.89c-1.35,0-2.21,1.75-2.21,4.45s.86,4.44,2.21,4.44,2.24-1.72,2.24-4.44S340.54,465.44,339.19,465.44Zm8.74,14V462.7h1.44v16.75Z"/><path class="cls-1" d="M359.77,469.83a37.45,37.45,0,0,0,6.52-.57l.12,1.2a46.61,46.61,0,0,1-7.56.58h-1.37v-7.13h7.46v1.22h-6v4.7Zm-.58,9.37v-6.07h10.52v6.07Zm9.06-4.87h-7.6V478h7.6Zm1.44-6.19v4.11h-1.46V462.7h1.46v4.22h2.56v1.22Z"/><path class="cls-1" d="M373.39,477v-1.23h5.78v-6.05h1.46v6.05h7.89V477Zm13.09-10.46a35.91,35.91,0,0,1-.66,7.27l-1.44-.23a31.28,31.28,0,0,0,.59-6.31v-1.62H375v-1.22h11.52Z"/><path class="cls-1" d="M395,472.26v-1.2h15.13v1.2Zm13.72-2.55c-2.79-.47-5.33-1.95-6.16-3.46-.66,1.53-3.15,3-6.1,3.46l-.66-1.25c2.71-.25,5.72-1.67,6-3.79h-5.35v-1.21h12.23v1.21h-5.31c.3,2.12,3.58,3.56,6,3.79Zm-.54,4.21v5.64h-1.46v-4.42h-10v-1.22Z"/><path class="cls-1" d="M420.83,475.41a11.26,11.26,0,0,1-4.13-5.11,11.28,11.28,0,0,1-4.28,5.53l-1-1.1a9.54,9.54,0,0,0,4.47-7.54v-3h1.47v3a8.77,8.77,0,0,0,4.34,7.17Zm3.06,4V462.7h1.45v16.75Z"/><path class="cls-1" d="M446.31,463.55a28.7,28.7,0,0,1-.57,6.12h2.52v1.21H433.13v-1.21h11.15a23.08,23.08,0,0,0,.54-4.91h-9.88v-1.21ZM435,479.2v-7h1.46v2.21H445v-2.25h1.46v7Zm10-3.55h-8.57V478H445Z"/><path class="cls-1" d="M449.71,472.34v-1.23h6.83v-2.66H458v2.66h6.84v1.23Zm13.76-3c-2.77-.52-5.4-2.32-6.2-3.93-.68,1.61-3.22,3.41-6.1,3.93l-.68-1.23c2.81-.3,6.05-2.23,6.05-4.59v-.61h1.51v.61c0,2.36,3.58,4.32,6.08,4.56Zm-.49,4.79v5.44h-1.46v-4.24H451.35v-1.2Z"/><path class="cls-1" d="M479.31,470.75a31.27,31.27,0,0,1-6,.6h-1.24V464h1.45v6.13a28.49,28.49,0,0,0,5.6-.53Zm.48,8.68c-3.63,0-5.76-1.21-5.76-3.12s2.13-3.13,5.76-3.13,5.8,1.21,5.8,3.13S483.45,479.43,479.79,479.43Zm0-5c-2.61,0-4.26.7-4.26,1.9s1.65,1.91,4.26,1.91,4.31-.7,4.31-1.91S482.46,474.41,479.79,474.41Zm4.2-1.35v-4.69h-2.23v4.07h-1.41V463h1.41v4.16H484V462.7h1.44v10.36Z"/><path class="cls-1" d="M496.16,469v2.13H503v1.2H487.87v-1.2h6.83V469h-5v-5.55h11.36v1.23h-9.9v3.11h10V469Zm-.73,10.41c-3.67,0-5.74-1.08-5.74-2.94s2.07-2.91,5.74-2.91,5.77,1,5.77,2.91S499.11,479.45,495.43,479.45Zm-4.24-2.94c0,1.12,1.62,1.73,4.24,1.73s4.27-.61,4.27-1.73-1.62-1.73-4.27-1.73S491.19,475.43,491.19,476.51Z"/><path class="cls-1" d="M504.36,467.92v-1.2h9.89v1.2Zm5,8c-2.34,0-3.91-1.5-3.91-3.46S507,469,509.35,469s3.91,1.5,3.91,3.46S511.69,475.92,509.35,475.92Zm-2.49-10.82v-1.25h4.92v1.25Zm2.49,5.13a2.25,2.25,0,1,0,2.45,2.23A2.27,2.27,0,0,0,509.35,470.23Zm8,.75v8.47h-1.46V462.7h1.46v7.06H520V471Z"/><path class="cls-1" d="M525.24,463.87c2.67,0,4.14,2.38,4.14,5.93s-1.47,5.9-4.14,5.9-4.14-2.36-4.14-5.92S522.6,463.87,525.24,463.87Zm0,1.26c-1.62,0-2.72,1.91-2.72,4.67s1.1,4.64,2.72,4.64,2.72-1.91,2.72-4.64S526.88,465.13,525.24,465.13Zm4.65,2.51v-1.21h3.38V462.7h1.46v16.75h-1.46V473h-3.38v-1.21h3.38v-4.17Z"/><path class="cls-1" d="M544.43,479.21v-5.27h5v-1.89h-6.81v-1.21h15.13v1.21h-6.86v1.89h5v5.27Zm-.36-14.53v-1.2h12.08v1.2Zm.13,4.7v-1.2h2.53l-.43-2.69,1.51-.18.31,2.87h4l.38-2.88,1.51.16-.49,2.72H556v1.2Zm10.22,5.76h-8.53V478h8.53Z"/><path class="cls-1" d="M559.8,463.71h9.26v1.23h-3.93l0,.52c0,2.14,2.18,4,4.09,4.59l-.81,1.13a8.19,8.19,0,0,1-4.06-3.67c-.45,1.57-2.41,3.42-4.33,4.2l-.82-1.12c2.33-.83,4.38-2.94,4.42-5.15v-.5H559.8Zm2.11,15.61v-4.14h9.47v-1.73h-9.47v-1.19h10.93v4h-9.47v1.84h10.08v1.2Zm9.47-8V462.7h1.46v8.65Z"/><path class="cls-1" d="M575.71,471.17v-1.23h15.13v1.23Zm1.77,8.12v-4h10v-1.48h-10v-1.17H589v3.74h-10v1.7h10.55v1.19Zm5.81-10.56c-3.6,0-5.83-1.06-5.83-2.89s2.23-2.9,5.83-2.9,5.86,1.06,5.86,2.9S586.93,468.73,583.29,468.73ZM579,465.84c0,1,1.72,1.69,4.34,1.69s4.38-.65,4.38-1.69-1.73-1.71-4.38-1.71S579,464.79,579,465.84Z"/><path class="cls-1" d="M597.31,477v-1.22h15.13V477Zm13-12.38a52.89,52.89,0,0,1-.76,9.9l-1.46-.2a46.57,46.57,0,0,0,.72-8.5H598.9v-1.2Z"/><path class="cls-1" d="M616.36,473.87a32,32,0,0,0,5.6-.42l.14,1.19a41.05,41.05,0,0,1-6.59.49h-1.12V464.76h6.5V466h-5v7.89Zm10.21,5.58v-8.93h-2.25v8.06h-1.41V463.1h1.41v6.19h2.25V462.7H628v16.75Z"/><path class="cls-1" d="M630.43,477.31v-1.23h6.81v-2.84H632.3V468h9.93v-2.69h-9.94v-1.22h11.39v5.11h-9.92V472h10.39v1.23H638.7v2.84h6.86v1.23Z"/><path class="cls-1" d="M3.91,515.45v-5.94H0v-1.23H15.12v1.23h-4v5.94H9.71v-5.94H5.37v5.94Zm3.65-8.72c-3.71,0-5.94-1.46-5.94-3.63s2.23-3.64,5.94-3.64,5.94,1.46,5.94,3.64S11.27,506.73,7.56,506.73Zm-4.5-3.63c0,1.42,1.71,2.34,4.5,2.34s4.52-.92,4.52-2.34-1.71-2.34-4.52-2.34S3.06,501.67,3.06,503.1Z"/><path class="cls-1" d="M26,511.45c-1.56-1-3.69-3.11-4.26-5.1a10.54,10.54,0,0,1-4.34,5.5l-.9-1.08A9,9,0,0,0,21,503.31v-1.73H17.06v-1.2h9.33v1.2H22.48v1.71a8.43,8.43,0,0,0,4.43,7.08ZM30.3,498.7v16.75H28.84V498.7Z"/><path class="cls-1" d="M33.05,503.92v-1.2h9.88v1.2Zm5,8c-2.35,0-3.91-1.5-3.91-3.46S35.69,505,38,505s3.9,1.5,3.9,3.46S40.38,511.92,38,511.92ZM35.55,501.1v-1.25h4.92v1.25ZM38,506.23a2.25,2.25,0,1,0,2.44,2.23A2.27,2.27,0,0,0,38,506.23Zm8,.75v8.47H44.54V498.7H46v7.06h2.72V507Z"/><path class="cls-1" d="M49.68,513.31v-1.23h4.07v-3.71h1.46v3.71h4v-3.71H60.7v3.71h4.1v1.23ZM58,501.4v.22c0,2.63,3.69,5.11,6.21,5.6l-.79,1.24c-2.69-.75-5.41-2.84-6.2-4.68-.66,1.89-3.45,3.93-6.23,4.65l-.72-1.26c2.58-.44,6.2-2.89,6.2-5.55v-.22H51.08v-1.2H63.4v1.2Z"/><path class="cls-1" d="M66.33,512.06H68v1.71H66.33Z"/><path class="cls-1" d="M80.48,500c2.77,0,4.32,2.38,4.32,5.93s-1.55,5.9-4.32,5.9-4.32-2.36-4.32-5.92S77.72,500,80.48,500Zm0,1.26c-1.77,0-2.94,1.91-2.94,4.67s1.17,4.64,2.94,4.64,2.93-1.91,2.93-4.64S82.26,501.22,80.48,501.22Zm7.44,14.23V498.7h1.45v16.75Z"/><path class="cls-1" d="M97.2,513.31v-1.23H104v-4H99V500.2h11.45v7.88h-5v4h6.86v1.23ZM109,501.4h-8.53v5.48H109Z"/><path class="cls-1" d="M113.76,508.8v-1.2h15.12v1.2Zm1.87-3.42v-5.79H127v1.22h-9.89v3.37h10v1.2Zm0,9.55V510.3h1.46v3.4h10v1.23Z"/><path class="cls-1" d="M145.93,511.2c-1.62.21-4.09.39-5.71.49s-3.55.12-4.95.12l-.22-1.28c.92,0,2.42,0,3.68,0v-5.27h1.46v5.24a54.09,54.09,0,0,0,5.61-.49Zm-1.28-10.73a40,40,0,0,1-.59,7.67l-1.39-.18a29.55,29.55,0,0,0,.52-6.27H135.9v-1.22Zm3.69,6.46v8.52h-1.46V498.7h1.46v7h2.72v1.24Z"/><path class="cls-1" d="M152.37,500.09h9.06v1.22h-3.77c0,.35,0,.72,0,.92.13,2.27,2.27,4.09,4.32,4.7l-.86,1.17a8.26,8.26,0,0,1-4.23-3.76,8.49,8.49,0,0,1-4.27,4.36l-.79-1.18c2.11-.8,4.23-2.93,4.32-5.31,0-.18,0-.57,0-.9h-3.82Zm7.74,15.36c-3.58,0-5.6-1.23-5.6-3.19s2-3.2,5.6-3.2,5.62,1.22,5.62,3.2S163.71,515.45,160.11,515.45ZM156,512.26c0,1.24,1.55,2,4.12,2s4.14-.72,4.14-2-1.53-2-4.14-2S156,511,156,512.26Zm4.79-8V503h3.37V498.7h1.45v10.39h-1.45v-4.82Z"/><path class="cls-1" d="M168.48,508.52v-1.23H183.6v1.23Zm7.56-2.74c-3.65,0-5.81-1.17-5.81-3.31s2.18-3.28,5.83-3.28,5.82,1.17,5.82,3.28S179.7,505.78,176,505.78ZM170.48,515v-4.88h1.46v3.66h9.95V515Zm1.21-12.48c0,1.37,1.71,2.07,4.35,2.07s4.4-.7,4.4-2.07-1.73-2.08-4.38-2.08S171.69,501.1,171.69,502.48Z"/><path class="cls-1" d="M190.55,512.39l3.06-3.17c1.82-1.89,3-3.3,3-5.13s-.81-2.56-2.63-2.56a5.26,5.26,0,0,0-2.88,1.06l-.43-1.2a6.67,6.67,0,0,1,3.55-1.17c2.59,0,4,1.44,4,3.72s-1.35,3.77-3.56,6l-2,2h5.87v1.3h-8Z"/><path class="cls-1" d="M205.9,510.59h-6.06v-1.14l6.28-9.18h1.19v9.07h2.14v1.25h-2.14v3H205.9Zm0-1.25v-6.66l-4.44,6.66Z"/><path class="cls-1" d="M219.89,511.41a11.31,11.31,0,0,1-4.12-5.11,11.24,11.24,0,0,1-4.29,5.53l-.95-1.1a9.53,9.53,0,0,0,4.46-7.54v-3h1.48v3a8.74,8.74,0,0,0,4.34,7.17Zm3.06,4V498.7h1.46v16.75Z"/><path class="cls-1" d="M235.39,500.18c-.2,4.55-3.3,7.76-7.56,9.11l-.76-1.22c3.6-.92,6.3-3.59,6.72-6.67h-6v-1.22ZM229.52,515v-5.17H231v4h9.59V515Zm10.53-9.85v6.05h-1.46V498.7h1.46v5.24h2.56v1.23Z"/><path class="cls-1" d="M257.89,504.14a4.45,4.45,0,1,1-4.45-4.21A4.17,4.17,0,0,1,257.89,504.14Zm-7.42,0a2.89,2.89,0,0,0,3,2.95,2.82,2.82,0,0,0,3-2.93,2.86,2.86,0,0,0-3-3A2.89,2.89,0,0,0,250.47,504.14Zm.69,10.73v-5.2h1.45v4h9.65v1.2Zm10.49-10.05v6h-1.46V498.7h1.46v4.9h2.56v1.22Z"/><path class="cls-1" d="M273,505.33h1.8V499h1.43v15.61h-1.43v-8.11H273c-.16,3-1.38,5.08-3.67,5.08-2.45,0-3.69-2.36-3.69-5.72s1.24-5.73,3.69-5.73S272.85,502.29,273,505.33Zm-3.67-3.89c-1.35,0-2.22,1.75-2.22,4.45s.87,4.44,2.22,4.44,2.23-1.72,2.23-4.44S270.65,501.44,269.3,501.44Zm8.73,14V498.7h1.44v16.75Z"/><path class="cls-1" d="M297.38,508.73c-1.2.15-3.31.36-5.29.49s-4,.18-5.21.18l-.23-1.28c1.17,0,2.81,0,4.45-.07v-1.7c-2.11-.26-3.5-1.58-3.5-3.42,0-2,1.75-3.49,4.27-3.49s4.25,1.5,4.25,3.51-1.42,3.17-3.56,3.4V508c1.8-.1,3.69-.28,4.71-.43Zm-5.51-8.05c-1.76,0-2.82,1-2.82,2.25s1.06,2.24,2.82,2.24,2.85-.94,2.85-2.24S293.64,500.68,291.87,500.68Zm-2.64,14.39V510.5h1.45v3.36h9.62v1.21Zm10.62-9.42v5.69h-1.46V498.7h1.46v5.73h2.54v1.22Z"/><path class="cls-1" d="M314.5,508.84v3.24h4.12v1.23H303.5v-1.23h4.23v-3.24h-2.38v-5.1h9.92v-2.57h-9.86v-1.23h11.32v5h-9.92v2.67H317.2v1.22Zm-5.33,3.24h3.89v-3.24h-3.89Z"/><path class="cls-1" d="M331.29,511.52c-1.33.17-3.43.33-5.47.43-1.87.09-4.39.17-5.49.17l-.23-1.28c1.27,0,2.95,0,4.71-.07V507.2h-3.47v-6.82H330v1.2H322.8V506h7.29v1.21h-3.82v3.51c1.86-.07,3.82-.21,4.88-.36Zm1.17,3.93V498.7h1.45v16.75Z"/><path class="cls-1" d="M341.07,499.87c2.53,0,4,2.09,4.19,5.26h3.58V498.7h1.46v16.75h-1.46v-9.08h-3.58c-.14,3.23-1.64,5.33-4.19,5.33s-4.24-2.36-4.24-5.92S338.37,499.87,341.07,499.87Zm0,1.26c-1.66,0-2.78,1.91-2.78,4.67s1.12,4.64,2.78,4.64,2.77-1.91,2.77-4.64S342.72,501.13,341.07,501.13Z"/><path class="cls-1" d="M368.79,511.2c-1.62.21-4.09.39-5.71.49s-3.55.12-4.95.12l-.22-1.28c.92,0,2.42,0,3.68,0v-5.27H363v5.24a54.05,54.05,0,0,0,5.62-.49Zm-1.28-10.73a40.86,40.86,0,0,1-.59,7.67l-1.39-.18a29.55,29.55,0,0,0,.52-6.27h-7.29v-1.22Zm3.69,6.46v8.52h-1.46V498.7h1.46v7h2.72v1.24Z"/><path class="cls-1" d="M383.93,503c0,2.26-1.95,3.74-4.34,3.74s-4.36-1.46-4.36-3.74,1.94-3.8,4.36-3.8S383.93,500.74,383.93,503Zm-7.28,0c0,1.49,1.28,2.48,2.94,2.48s2.91-1,2.91-2.46-1.17-2.53-2.91-2.53A2.67,2.67,0,0,0,376.65,503Zm1,12.22V511H387v-1.74h-9.43v-1.19h10.89v4.05h-9.38V514h10v1.19Zm9.38-8V498.7h1.46v8.47Z"/><path class="cls-1" d="M402.66,511.18c-1.44.18-3.83.32-6,.43-2,.09-3.8.15-5.08.16l-.25-1.27c1.42,0,3.4,0,5.43-.13,2.33-.09,4.5-.22,5.73-.38Zm-6-3.31c-2.47,0-4.36-1.64-4.36-3.89a4.08,4.08,0,0,1,4.36-4c2.47,0,4.36,1.53,4.36,4S399.06,507.87,396.65,507.87Zm0-6.63A2.83,2.83,0,0,0,393.7,504a3,3,0,0,0,5.89,0A2.73,2.73,0,0,0,396.65,501.24Zm8.45-2.54v16.75h-1.46V498.7Z"/><path class="cls-1" d="M413.57,507.44v-7.28h8v7.28Zm12.93,8c-2.2-.43-5-2.21-5.66-3.76-.64,1.64-3.17,3.3-5.65,3.78l-.7-1.19c2.7-.34,5.61-2.34,5.61-4.7V509h1.54v.64c0,2.36,3.13,4.31,5.6,4.67Zm-6.41-14.11H415v4.86h5.06Zm5.72,3.22v5.13h-1.46v-11h1.46v4.67h2.56v1.22Z"/><path class="cls-1" d="M440.07,511.2c-1.62.21-4.09.39-5.71.49s-3.55.12-4.95.12l-.22-1.28c.92,0,2.42,0,3.68,0v-5.27h1.46v5.24a54.09,54.09,0,0,0,5.61-.49Zm-1.28-10.73a40.86,40.86,0,0,1-.59,7.67l-1.39-.18a29.55,29.55,0,0,0,.52-6.27H430v-1.22Zm3.69,6.46v8.52H441V498.7h1.46v7h2.72v1.24Z"/><path class="cls-1" d="M459.85,503.73a4.32,4.32,0,0,1-8.61,0,4.31,4.31,0,0,1,8.61,0Zm-7.15,0a2.69,2.69,0,0,0,2.85,2.79,2.79,2.79,0,1,0,0-5.57A2.69,2.69,0,0,0,452.7,503.73Zm6.39,11.75c-3.63,0-5.69-1.24-5.69-3.18s2.06-3.21,5.69-3.21,5.71,1.23,5.71,3.21S462.75,515.48,459.09,515.48Zm0-5.15c-2.61,0-4.17.72-4.17,2s1.56,1.94,4.17,1.94,4.22-.72,4.22-1.94S461.76,510.33,459.09,510.33Zm1.19-5.25h3v-2.92h-3v-1.24h3V498.7h1.46v10.36h-1.46v-2.74h-3Z"/><path class="cls-1" d="M476.52,503.64a4.36,4.36,0,0,1-8.68,0,4.35,4.35,0,0,1,8.68,0Zm-7.26,0a2.75,2.75,0,0,0,2.92,2.8,2.72,2.72,0,0,0,2.93-2.79,2.75,2.75,0,0,0-2.93-2.84A2.79,2.79,0,0,0,469.26,503.64Zm5.85,11.75c-3.63,0-5.51-1.29-5.51-3.2s1.88-3.22,5.51-3.22,5.57,1.31,5.57,3.22S478.77,515.39,475.11,515.39Zm-4-3.2c0,1.21,1.49,2,4,2s4.07-.76,4.07-2-1.53-2-4.07-2S471.1,511,471.1,512.19Zm12-6.07h-2.56v2.67h-1.45V498.7h1.45v2.58h2.56v1.22h-2.56v2.4h2.56Z"/><path class="cls-1" d="M484.22,507.17v-1.23h15.12v1.23Zm1.76,8.12v-4h10v-1.48H486v-1.17h11.5v3.74h-10v1.7H498v1.19Zm5.82-10.56c-3.6,0-5.83-1.06-5.83-2.89s2.23-2.9,5.83-2.9,5.85,1.06,5.85,2.9S495.44,504.73,491.8,504.73Zm-4.34-2.89c0,1,1.71,1.69,4.34,1.69s4.37-.65,4.37-1.69-1.72-1.71-4.37-1.71S487.46,500.79,487.46,501.84Z"/><path class="cls-1" d="M506.05,499.73H515V501H511.2l0,.51c.13,2.14,2.14,3.89,4,4.52l-.81,1.13a7.88,7.88,0,0,1-4-3.56c-.45,1.56-2.34,3.29-4.14,4.07l-.85-1.1c2.11-.81,4.16-2.87,4.25-5.08V501h-3.66Zm2.11,15.59v-4.21h9.06v-1.69h-9.11v-1.23h10.57v4.05h-9.06v1.86h9.69v1.22Zm10.52-11.56v3.57h-1.46V498.7h1.46v3.84h2.55v1.22Z"/><path class="cls-1" d="M535.68,508.71v3.42h6.86v1.23H527.42v-1.23h6.81v-3.42h-5v-8.86h1.45v3.08h8.54v-3.08h1.46v8.86Zm3.57-4.57h-8.54v3.37h8.54Z"/><path class="cls-1" d="M544,508.93v-1.22h6.81V505h1.45v2.72h6.86v1.22Zm13.72-2.84c-2.79-.47-5.33-1.93-6.16-3.44-.66,1.53-3.15,3-6.1,3.44l-.67-1.23c2.79-.25,5.89-1.78,6-4h-5.46v-1.22h12.39v1.22h-5.4c.14,2.24,3.54,3.77,6,4Zm-11.85,8.84v-4.72h1.46v3.49h10.25v1.23Z"/><path class="cls-1" d="M560.47,503v-1.2h9.81V503Zm4.91,6.77c-2.23,0-3.94-1.17-3.94-2.93s1.69-2.94,3.94-2.94,4,1.14,4,2.94S567.63,509.81,565.38,509.81Zm0-4.72c-1.35,0-2.55.67-2.55,1.79s1.2,1.76,2.55,1.76,2.56-.66,2.56-1.76S566.73,505.09,565.38,505.09Zm-2.52-4.51V499.3h4.83v1.28Zm.06,14.33V510.6h1.45v3.08h9.69v1.23Zm10.49-9.31v5.45H572V498.7h1.45v5.67H576v1.23Z"/><path class="cls-1" d="M580,505.71a38.1,38.1,0,0,0,6.58-.58l.13,1.21a48.9,48.9,0,0,1-7.63.57h-1.37v-7.09h7.47V501h-6v4.67Zm-.6,9.5v-6.6h1.46v2.1h7.62v-2.16H590v6.66Zm9.08-3.33H580.9V514h7.62Zm1.44-8v3.82H588.5v-9H590v3.95h2.55v1.22Z"/><path class="cls-1" d="M604.23,510.55a52.64,52.64,0,0,1-8.88.77h-.74V500.45h1.46v9.6a46.58,46.58,0,0,0,8-.76Zm3,4.9h-1.45V498.7h1.45Z"/><path class="cls-1" d="M613.32,510.1a43.84,43.84,0,0,0,7.07-.54l.16,1.21a51.17,51.17,0,0,1-8,.57h-1.63V500.45h7.94v1.22h-6.49v8.43Zm9.81-4.75h2.72v1.22h-2.72v8.88h-1.44V498.7h1.44Z"/><path class="cls-1" d="M626.87,512.06h1.66v1.71h-1.66Z"/><path class="cls-1" d="M8,542.75a31.1,31.1,0,0,1-6,.6H.79V536H2.25v6.13a28.49,28.49,0,0,0,5.6-.53Zm.49,8.68c-3.64,0-5.76-1.21-5.76-3.12s2.12-3.13,5.76-3.13,5.8,1.21,5.8,3.13S12.14,551.43,8.48,551.43Zm0-5c-2.61,0-4.27.7-4.27,1.9s1.66,1.91,4.27,1.91,4.3-.7,4.3-1.91S11.15,546.41,8.48,546.41Zm4.2-1.35v-4.69H10.44v4.07H9V535h1.4v4.16h2.24V534.7h1.44v10.36Z"/><path class="cls-1" d="M16.67,535.91H25.8v1.22H22c0,.42,0,.74,0,.92.12,2.14,2.12,4,4,4.61l-.81,1.17a8.1,8.1,0,0,1-4-3.67c-.45,1.57-2.41,3.36-4.21,4.14l-.85-1.13c2.11-.82,4.23-2.92,4.32-5.14,0-.16,0-.48,0-.9H16.67ZM24,551.43c-3.49,0-5.6-1.22-5.6-3.19S20.54,545,24,545s5.64,1.21,5.64,3.22S27.54,551.43,24,551.43Zm0-5.19c-2.52,0-4.08.71-4.08,2s1.56,2,4.08,2,4.14-.73,4.14-2S26.57,546.24,24,546.24Zm5.4-5.69V545H28V534.7h1.45v4.63H32v1.22Z"/><path class="cls-1" d="M42.3,542.91a7.68,7.68,0,0,1-4.14-3.78,8,8,0,0,1-4.27,4.31l-.81-1.12c2.18-.87,4.31-2.86,4.31-5.55v-1.49h1.47v1.44c0,2.68,2.2,4.32,4.27,5.06Zm-6.37,8.34v-4.16h9.42v-1.73H35.89v-1.19H46.8v4H37.39v1.87h10v1.19Zm9.42-8V534.7H46.8v8.56Z"/><path class="cls-1" d="M57.31,541.33h1.81V535h1.42v15.61H59.12v-8.11H57.31c-.16,3-1.38,5.08-3.67,5.08-2.45,0-3.69-2.36-3.69-5.72s1.24-5.73,3.69-5.73S57.19,538.29,57.31,541.33Zm-3.67-3.89c-1.35,0-2.21,1.75-2.21,4.45s.86,4.44,2.21,4.44,2.23-1.72,2.23-4.44S55,537.44,53.64,537.44Zm8.73,14V534.7h1.44v16.75Z"/><path class="cls-1" d="M75.37,547.43a11.47,11.47,0,0,1-4.14-5.16,11,11,0,0,1-4.18,5.54l-1-1.08a9.37,9.37,0,0,0,4.37-7.47v-3.1H72v3a8.6,8.6,0,0,0,4.3,7.13Zm3.15,4V541.9H74.61v-1.22h3.91v-6H80v16.75Z"/><path class="cls-1" d="M96.9,547.52a10.84,10.84,0,0,1-4.23-5.11,10.79,10.79,0,0,1-4.2,5.51l-1-1.1a9.06,9.06,0,0,0,4.41-7.42v-1.71H88v-1.22h9.25v1.22H93.42v1.68a8.35,8.35,0,0,0,4.36,7Zm3.81-4.8v8.73H99.26V534.7h1.45v6.79h2.72v1.23Z"/><path class="cls-1" d="M113.21,540a4.35,4.35,0,1,1-4.36-4.17A4.1,4.1,0,0,1,113.21,540Zm-7.28,0a2.83,2.83,0,0,0,2.94,2.89,2.89,2.89,0,1,0,0-5.78A2.82,2.82,0,0,0,105.93,540Zm1.33,10.88v-5.1h1.46v3.89h9.72v1.21Zm6.32-12.6v-1.21h3V534.7h1.45v12.16h-1.45v-4.29h-3v-1.21h3v-3.07Z"/><path class="cls-1" d="M120.92,540v-1.21h8.34V540Zm4.38,7.65a3.39,3.39,0,0,1-3.66-3.33,3.67,3.67,0,0,1,7.32,0C129,546.32,127.46,547.63,125.3,547.63Zm-2.41-10.39V536h4.57v1.26Zm2.41,4.94a2.12,2.12,0,1,0,0,4.24,2.09,2.09,0,0,0,2.25-2.12A2.07,2.07,0,0,0,125.3,542.18Zm8.35,9.27v-8.68h-2v7.83h-1.42V535.1h1.42v6.44h2V534.7h1.44v16.75Z"/><path class="cls-1" d="M145.8,541v2.13h6.85v1.2H137.52v-1.2h6.82V541h-5v-5.55h11.36v1.23h-9.91v3.11h10V541Zm-.72,10.41c-3.67,0-5.74-1.08-5.74-2.94s2.07-2.91,5.74-2.91,5.76,1,5.76,2.91S148.76,551.45,145.08,551.45Zm-4.25-2.94c0,1.12,1.62,1.73,4.25,1.73s4.27-.61,4.27-1.73-1.62-1.73-4.27-1.73S140.83,547.43,140.83,548.51Z"/><path class="cls-1" d="M154,539v-1.2h9.81V539Zm4.91,6.77c-2.23,0-3.94-1.17-3.94-2.93s1.69-2.94,3.94-2.94,4,1.14,4,2.94S161.17,545.81,158.92,545.81Zm0-4.72c-1.35,0-2.55.67-2.55,1.79s1.2,1.76,2.55,1.76,2.56-.66,2.56-1.76S160.27,541.09,158.92,541.09Zm-2.52-4.51V535.3h4.83v1.28Zm.06,14.33V546.6h1.46v3.08h9.68v1.23ZM167,541.6v5.45H165.5V534.7H167v5.67h2.56v1.23Z"/><path class="cls-1" d="M180.47,550.94v-6.05c-1.69.06-3.08.11-4.74.11l-.25-1.29c1.87,0,3.71,0,5.66-.09,2.17-.1,4.46-.22,5.72-.38l.16,1.15c-1,.16-3.27.34-5.09.43v6.12Zm-3.4-9.25v-6.07h8.24v1.21h-6.78v3.65h7v1.21Zm10.85,9.76V534.7h1.46v16.75Z"/><path class="cls-1" d="M199.88,541.33h1.8V535h1.42v15.61h-1.42v-8.11h-1.8c-.17,3-1.39,5.08-3.68,5.08-2.45,0-3.69-2.36-3.69-5.72s1.24-5.73,3.69-5.73S199.75,538.29,199.88,541.33Zm-3.68-3.89c-1.35,0-2.21,1.75-2.21,4.45s.86,4.44,2.21,4.44,2.23-1.72,2.23-4.44S197.55,537.44,196.2,537.44Zm8.73,14V534.7h1.45v16.75Z"/><path class="cls-1" d="M208.8,544.57v-1.22h15.13v1.22Zm2,6.5v-4.93h1.46v3.72H222.3v1.21Zm.06-9.81V535.4h1.45v4.65h9.94v1.21Z"/><path class="cls-1" d="M238.59,536.13c-.16,4.28-3.36,7.45-7.47,8.69l-.77-1.2c3.24-.72,6.19-3.34,6.64-6.27H231.1v-1.22Zm5.21,15.48c-2.2-.43-4.92-2.34-5.6-3.89-.63,1.69-3.26,3.4-5.75,3.89l-.77-1.17c2.68-.34,5.78-2.38,5.78-4.81v-.88H239v.88c0,2.36,3.17,4.43,5.62,4.79Zm-.53-10.86v5.13h-1.45V534.7h1.45v4.83h2.56v1.22Z"/><path class="cls-1" d="M256.68,545.38a5.53,5.53,0,0,1-1.6-2.23,8.71,8.71,0,0,1-2.56,4.1l-1-.88a8.26,8.26,0,0,0,2.78-6.59v-2.14H252.2v-1.21H257v1.21h-1.28v2.09c0,2.5.9,4,1.8,4.59Zm5.53,1.89a8,8,0,0,1-2.56-3.89,10.4,10.4,0,0,1-2.86,4.92l-1-.92a10.07,10.07,0,0,0,3.21-7.62v-2.12h-1.46v-1.21h4.93v1.21h-2.08v2.05c0,3,.86,5.15,2.75,6.61Zm2.92-4.59v8.77h-1.46V534.7h1.46v6.75h2.5v1.23Z"/><path class="cls-1" d="M276.61,543a32.69,32.69,0,0,1-6.1.61h-1.25v-7.81h1.46v6.52a30.18,30.18,0,0,0,5.75-.53Zm-4.84,7.87v-5.44h1.45v4.23h9.91v1.21Zm9.47-3.71V541H279v5.58h-1.4V535H279v4.82h2.24V534.7h1.44v12.48Z"/><path class="cls-1" d="M290.16,544.17V543h15.13v1.22Zm13.51,7.1c-2.42-.33-5.15-2-6-3.58-.65,1.44-3,3.11-5.84,3.54l-.64-1.17c3.07-.27,5.76-2.3,5.76-4.25v-.59h1.49v.59c0,1.93,2.92,4.05,5.84,4.31Zm-11.64-10v-5.72h11.4v1.22h-9.94v3.28h10v1.22Z"/><path class="cls-1" d="M307.08,548h1.73l-1.4,3.75h-1.05Z"/><path class="cls-1" d="M325.37,544.23a8.1,8.1,0,0,1-4.12-4.11,8.72,8.72,0,0,1-4.27,4.65l-.88-1.14c2.21-1,4.37-3.44,4.37-6.12v-1.85H322v1.82a6.29,6.29,0,0,0,4.25,5.58Zm-6.41,6.7v-5.15h1.46v3.94h9.7v1.21Zm9.35-4.07V534.7h1.46v12.16Z"/><path class="cls-1" d="M341.61,544.37a8.15,8.15,0,0,1-4.09-4.09,8.28,8.28,0,0,1-4.12,4.56l-.9-1.13a6.92,6.92,0,0,0,4.25-6v-2.09h1.47v2a6.22,6.22,0,0,0,4.22,5.53Zm-6.05,6.56v-5.12H337v3.91h9.67v1.21Zm9.31-4.07v-6.7H341.3v-1.23h3.57V534.7h1.46v12.16Z"/><path class="cls-1" d="M349.13,539v-1.2h9.81V539Zm4.91,6.77c-2.23,0-3.94-1.17-3.94-2.93s1.69-2.94,3.94-2.94,3.95,1.14,3.95,2.94S356.3,545.81,354,545.81Zm0-4.72c-1.35,0-2.55.67-2.55,1.79s1.2,1.76,2.55,1.76,2.56-.66,2.56-1.76S355.4,541.09,354,541.09Zm-2.52-4.51V535.3h4.83v1.28Zm.06,14.33V546.6H353v3.08h9.68v1.23Zm10.5-9.31v5.45h-1.46V534.7h1.46v5.67h2.55v1.23Z"/><path class="cls-1" d="M371.43,543.44v-7.28h8v7.28Zm12.93,8c-2.2-.43-5-2.21-5.65-3.76-.65,1.64-3.17,3.3-5.66,3.78l-.7-1.19c2.7-.34,5.62-2.34,5.62-4.7V545h1.53v.64c0,2.36,3.13,4.31,5.6,4.67ZM378,537.37h-5.06v4.86H378Zm5.73,3.22v5.13h-1.46v-11h1.46v4.67h2.55v1.22Z"/><path class="cls-1" d="M387.36,543.17v-1.23h15.13v1.23Zm1.77,8.12v-4h10v-1.48H389.09v-1.17H400.6v3.74h-10v1.7h10.56v1.19Zm5.81-10.56c-3.6,0-5.83-1.06-5.83-2.89s2.23-2.9,5.83-2.9,5.85,1.06,5.85,2.9S398.58,540.73,394.94,540.73Zm-4.34-2.89c0,1,1.71,1.69,4.34,1.69s4.38-.65,4.38-1.69-1.73-1.71-4.38-1.71S390.6,536.79,390.6,537.84Z"/><path class="cls-1" d="M409,543.38v-1.2h15.13v1.2Zm13.67-2.25c-2.69-.43-5.28-1.69-6.11-3.19-.64,1.52-3.29,2.81-6.06,3.17l-.65-1.19c2.59-.23,5.4-1.27,5.89-3.22h-5.32v-1.21h12.28v1.21h-5.27c.56,1.91,3.58,3,5.9,3.21Zm-11.87,10v-3.82h10v-1.45h-10V544.7h11.47v3.72h-10v1.52h10.59v1.2Z"/><path class="cls-1" d="M433.8,536.5c-.1,5.44-3,9.28-7.36,11.62l-.9-1.14a11.33,11.33,0,0,0,6.72-9.25h-6.2V536.5Zm0,7.26h3.95V540.5h-3.69v-1.24h3.69V534.7h1.46v16.75h-1.46V545H433.8Z"/><path class="cls-1" d="M450.35,544.71v3.42h6.86v1.23H442.08v-1.23h6.81v-3.42h-5v-8.86h1.46v3.08h8.53v-3.08h1.46v8.86Zm3.56-4.57h-8.53v3.37h8.53Z"/><path class="cls-1" d="M466.19,547.23a10.15,10.15,0,0,1-3.59-4.82,9.24,9.24,0,0,1-3.42,5.31l-.9-1.08a8.92,8.92,0,0,0,3.58-7.35v-3h1.45v3a8.37,8.37,0,0,0,3.76,6.89Zm1.9,3.37V542h-3v-1.23h3V535.1h1.43v15.5Zm3.3.85V534.7h1.44v16.75Z"/><path class="cls-1" d="M475.2,549.31v-1.23H479v-3.33l1.46,0v3.37h4.66v-3.37l1.46,0v3.33h3.8v1.23Zm7.55-5.08c-3.62,0-6-1.66-6-4.18s2.42-4.21,6-4.21,6.05,1.69,6.05,4.21S486.38,544.23,482.75,544.23Zm0-7.22c-2.79,0-4.63,1.22-4.63,3s1.84,3,4.63,3,4.64-1.22,4.64-3S485.55,537,482.75,537Z"/><path class="cls-1" d="M492.75,535.75h1.73l-.22,10.66H493Zm.06,12.2h1.63v1.72h-1.63Z"/><path class="cls-2" d="M32,1.35v1.3H21.85V4.81a14,14,0,0,1-1.13,5.61,43.05,43.05,0,0,1,12.09,9.51L29,22.79a58.54,58.54,0,0,0-9-10.86c-3.19,5.84-9.94,9.83-16.64,11.72l-.81-1.08c8.54-3.4,12-9.72,12-16.52V2.65H4.52V1.35ZM36.7,36V28.51H9.59V27.22H44.15v10H17.05V45.9H45v1.3H9.59V36ZM44.15,0V11l7.13-.17v1.62l-7.13-.1v11h-7V0Z"/><path class="cls-2" d="M98.8,12.85c0,6.75-4.91,11.88-14.09,11.88s-14.1-5.13-14.1-11.88S75.53,1,84.71,1,98.8,6.1,98.8,12.85Zm7.13,19.39H77V30.83H113V47.52h-7ZM91.78,12.85c0-6-2.7-10.53-7.07-10.53S77.63,6.8,77.63,12.85s2.7,10.53,7.08,10.53S91.78,18.9,91.78,12.85ZM113,0V27.16h-7V0Z"/><path class="cls-2" d="M169.6,26.19v1.3H120v-1.3ZM126.94,32.4h7.12V45.25h30v1.3H126.94Zm34.93-21.49c0,7-8.53,10.15-17,10.15s-17-3.13-17-10.15,8.54-10.1,17-10.1S161.87,3.89,161.87,10.91Zm-7.07,0c0-6.48-5.35-8.75-9.94-8.75s-9.93,2.27-9.93,8.75,5.29,8.8,9.93,8.8S154.8,17.39,154.8,10.91Z"/><path class="cls-2" d="M22.28,115.39v-9.66h7.46v9.66H50.8v1.3H1.22v-1.3ZM44.8,90c0,7.45-7.23,12.58-18.79,12.58S7.22,97.46,7.22,90,14.45,77.43,26,77.43,44.8,82.61,44.8,90Zm-7.34,0C37.46,84,33.89,78.89,26,78.89S14.56,84,14.56,90,18.07,101.14,26,101.14,37.46,96.06,37.46,90Z"/><path class="cls-2" d="M66.78,101.41h-9V88.18H70.83v-9.4H57.76v-1.3H77.9v12H64.83v10.64h2.11c3.13,0,9.29.06,14.74-2.16l.49,1.24C76.61,101.35,71.15,101.41,66.78,101.41Zm5.45,5.51v13.33h29.33v1.3H65.1V106.92Zm12.42-18.2V75.43h6.11v32.24H84.65V90.07l-4.86.1V88.55ZM100.42,75v33.1H94V75Z"/><path class="cls-2" d="M127.53,94.28a47.2,47.2,0,0,1,13.39,15.93l-4.86,2.86c-2.64-7-5.88-13-9.23-16.95-3.14,7.39-9.45,13.71-17.28,17.82l-1.14-1.25a29.39,29.39,0,0,0,13.29-25V80h-11V78.56H140V80h-11v5.88A26,26,0,0,1,127.53,94.28Zm17.39,28.24V75h7v47.52Z"/><path class="cls-2" d="M162.79,77.43h26.46v22.3H162.79Zm13.12,28.95v13.87h28.24v1.3H168.78V106.38Zm6.32-7.94V78.73H169.81V98.44ZM203.08,75V89.85l7.12-.16v1.62l-7.12-.11v16.9h-7V75Z"/><path class="cls-2" d="M261.94,98.6v1.29H212.36V98.6ZM219,105.89h36.29V122H219Zm28.14-18.68H219.27v-1.3h27.87V77.75H220.19V76.46h34V94.71h-7Zm1.13,33.48V107.18H226v13.51Z"/><path class="cls-2" d="M297.25,95.36c0,10-4.54,18.14-14.47,18.14s-14.47-8.1-14.47-18.14,4.53-18.09,14.47-18.09S297.25,85.31,297.25,95.36Zm-7.13,0c0-9.18-2.43-16.53-7.34-16.53s-7.35,7.35-7.35,16.53,2.38,16.58,7.35,16.58S290.12,104.54,290.12,95.36Zm13.34,27.16V75h7v47.52Z"/><path class="cls-2" d="M330.24,111.24h-9.12V78h7.13v31.81h2.64c5.19,0,12.8-.65,19.33-3.35l.6,1.41C344.72,110.42,337.1,111.24,330.24,111.24Zm22.95,11.28V75h7V95l7.35-.16v1.62l-7.35-.11v26.19Z"/><path class="cls-2" d="M20.77,156a15.22,15.22,0,0,1-1.19,5.89c5,2.86,9.72,6.86,12.15,10.37L28,175.17a43.29,43.29,0,0,0-9-11.78C15.75,169.55,8.84,173.92,2.47,176l-.71-1.19a18.46,18.46,0,0,0,11.78-17.6v-5.89h7.23Zm23.55,32.13c0,6.81-8.86,9.94-18.15,9.94S8,194.93,8,188.12s8.85-9.82,18.14-9.82S44.32,181.32,44.32,188.12Zm-7.13,0c0-5.83-4.59-8.42-11-8.42s-11,2.59-11,8.42,4.53,8.54,11,8.54S37.19,194,37.19,188.12ZM43.07,150v12.91l7.13-.16v1.61l-7.13-.1v11.82h-7V150Z"/><path class="cls-2" d="M103.18,173.6v1.29H53.6V173.6Zm-42.94,7.29H96.53V197H60.24Zm28.14-18.68H60.52v-1.3H88.38v-8.16H61.43v-1.29h34v18.25h-7Zm1.13,33.48V182.18H67.27v13.51Z"/><path class="cls-2" d="M138.81,156.75v1.3h-29.7v-1.3Zm-1,13.66c0,5.24-4.8,9.24-13.5,9.24s-13.5-4-13.5-9.24,4.76-9.12,13.5-9.12S137.84,165.17,137.84,170.41Zm-4.69-19.33v1.35H114.78v-1.35Zm-9.51,32.72v11.45h28.24v1.3H116.51V183.8Zm7.24-13.39c0-3.89-2-7.66-6.54-7.66s-6.53,3.77-6.53,7.66,1.94,7.78,6.53,7.78S130.88,174.3,130.88,170.41ZM150.8,150v17.28l7.13-.16v1.62l-7.13-.11v15.82h-7V150Z"/><path class="cls-2" d="M195.08,190.39v-9.66h7.45v9.66h21.06v1.3H174v-1.3ZM217.6,165c0,7.45-7.24,12.58-18.79,12.58S180,172.46,180,165s7.23-12.58,18.79-12.58S217.6,157.61,217.6,165Zm-7.34,0c0-6-3.57-11.12-11.45-11.12S187.36,159,187.36,165s3.51,11.13,11.45,11.13S210.26,171.06,210.26,165Z"/><path class="cls-2" d="M239.58,176.41h-9V163.18h13.07v-9.4H230.56v-1.3H250.7v12H237.63v10.64h2.11c3.13,0,9.29.06,14.74-2.16l.49,1.24C249.41,176.35,244,176.41,239.58,176.41Zm5.45,5.51v13.33h29.32v1.3H237.9V181.92Zm12.42-18.2V150.43h6.1v32.24h-6.1v-17.6l-4.86.1v-1.62ZM273.22,150v33.1h-6.43V150Z"/><path class="cls-2" d="M300.33,169.28a47.2,47.2,0,0,1,13.39,15.93l-4.86,2.86c-2.65-7-5.89-13-9.23-16.95-3.14,7.39-9.45,13.71-17.28,17.82l-1.14-1.25a29.41,29.41,0,0,0,13.29-25.05V155h-11v-1.41h29.22V155h-11v5.88A26,26,0,0,1,300.33,169.28Zm17.39,28.24V150h7v47.52Z"/><path class="cls-2" d="M367.34,180.19H346.28v-1.3h49.57v1.3H374.79v17.33h-7.45ZM389,151.4v1.41H374.79v1.62a14.09,14.09,0,0,1-1.46,6.26c6.81,2.43,13.45,6.21,17.45,10.26l-3.84,3.4A51.59,51.59,0,0,0,372.58,162c-3.46,5.67-10.91,10-21.39,11.5l-.7-1.19c11.34-2.48,16.85-10.2,16.85-17v-2.48H353.08V151.4Z"/><path class="cls-2" d="M449.31,190.34v1.35H399.74v-1.35Zm-21.06-33.16a16.6,16.6,0,0,1-2.16,8c7.78,2.75,15.5,7.61,18.47,11.45l-3.94,3.67c-4.21-5.46-10.1-10.85-15.44-13.66-4.33,6.42-12.64,11.07-20.8,13.06l-.75-1.29c10.26-3.51,17.17-12.8,17.17-20.31V153h7.45Z"/><path class="cls-2" d="M474.26,190.39V178.73h7.45v11.66h21.06v1.3H453.2v-1.3Zm20.57-37.15v1.35H467.56v18.95h2.16c11.56,0,18.63.11,26.25-1.94l.38,1.46c-6.7,1.83-14.42,1.83-24.47,1.83H460.27V153.24Z"/><path class="cls-2" d="M22.45,246.17v-6.64h7.12v6.64H50.8v1.29H1.22v-1.29Zm21.27-20.25v1.29h-14v1.41a7.86,7.86,0,0,1-1.3,4.37c6,1.14,13.39,3.4,17.44,6.16l-3.67,3.4a50,50,0,0,0-14.69-8.37c-3.45,3.78-10.74,6.26-21.6,7.24l-.65-1.08c9.35-1.14,17-5.3,17-11.29v-1.84H8.3v-1.29Zm.76,30.29v1.3H7.54v-1.3Zm-2,10.64c0,4.65-7.18,6.43-16.47,6.43S9.54,271.5,9.54,266.85s7.18-6.32,16.47-6.32S42.48,262.21,42.48,266.85Zm-6-15.17V253h-21v-1.35Zm-1.25,15.17c0-3.18-3.07-4.91-9.23-4.91s-9.23,1.73-9.23,4.91,3,5,9.23,5S35.24,270,35.24,266.85Z"/><path class="cls-2" d="M85.84,245.36c0,10-4.32,18.14-14.47,18.14S56.9,255.4,56.9,245.36s4.32-18.09,14.47-18.09S85.84,235.31,85.84,245.36Zm-7.13,0c0-9.18-2.1-16.53-7.34-16.53S64,236.18,64,245.36s2.06,16.58,7.35,16.58S78.71,254.54,78.71,245.36ZM91.3,272.52V225h7v19.76l7.34-.16v1.62l-7.34-.1v26.4Z"/><path class="cls-2" d="M140.27,234.34v1.46H108.85v-1.46Zm-1.13,17.45c0,7.12-5.78,12.25-14.31,12.25s-14.31-5.13-14.31-12.25,5.78-12.16,14.31-12.16S139.14,244.66,139.14,251.79Zm-4.27-24.52v1.46H114.24v-1.46Zm-2.81,24.52c0-5.84-2.32-10.7-7.23-10.7s-7.24,4.86-7.24,10.7,2.27,10.79,7.24,10.79S132.06,257.62,132.06,251.79Zm12.42,20.73V225h7v21.38l7.34-.16v1.62l-7.34-.11v24.79Z"/><path class="cls-2" d="M210.1,250.33v1.29H160.52v-1.29Zm-42.66,6.59h7.12v13.33h30v1.3H167.44Zm1-30.73h7.12v16.14h27.71v1.3H168.41Z"/><path class="cls-2" d="M256.75,226.89v1.3H238.93v18.36h4.86c4.21,0,11.83-.17,17.6-2.92L262,245c-5.24,2.54-12.36,2.86-18.41,2.86H231.91v-21Zm15.44,36.23c0,6.81-8.85,9.94-18.14,9.94s-18.14-3.13-18.14-9.94,8.85-9.82,18.14-9.82S272.19,256.32,272.19,263.12Zm-7.12,0c0-5.83-4.59-8.42-11-8.42s-11,2.59-11,8.42,4.54,8.54,11,8.54S265.07,269,265.07,263.12ZM271.38,225v11.39l7.13-.16v1.62l-7.13-.1v13.33h-7V225Z"/><path class="cls-2" d="M301.25,232.4a17.16,17.16,0,0,1-1.25,6.26,43.66,43.66,0,0,1,12.21,11.18l-3.84,2.92a52.49,52.49,0,0,0-9.12-12.53c-3.19,6.21-9.88,10.8-16.42,13.07l-.75-1.19A20,20,0,0,0,294,233.64v-6.75h7.24Zm-3.78,24v13.87h28.24v1.3H290.34V256.38ZM324.63,225v33.1h-7V225Z"/><path class="cls-2" d="M362.32,271.82v-26.3h-4v.16c0,10-3.4,17.44-12,17.44s-12-7.39-12-17.44,3.4-17.44,12-17.44c8.16,0,11.61,6.59,12,15.77h4.05V225.7h6.21v46.12Zm-10.58-26.14c0-9.18-1.62-16-5.46-16s-5.45,6.8-5.45,16,1.62,16,5.45,16S351.74,254.86,351.74,245.68Zm21,26.84V225h6.37v47.52Z"/><path class="cls-2" d="M408,244h5.84V225.7h6.21v46.12h-6.21V245.47h-6.21c-2.54,8.58-9.08,14.9-20.25,18.84l-.87-1.35c10.59-4.91,15.61-13.66,15.61-25.49v-7.18h-14.2v-1.4h20.95v7.34A31.67,31.67,0,0,1,408,244Zm16.42,28.56V225h6.37v47.52Z"/></g></g></svg>