<svg xmlns="http://www.w3.org/2000/svg" viewBox="0 0 392.48 392.57"><defs><style>.cls-1{fill:#ed7524;}.cls-2{fill:#455c2a;}</style></defs><g id="레이어_2" data-name="레이어 2"><g id="레이어_1-2" data-name="레이어 1"><path class="cls-1" d="M47.55,10.58v2H31.06v2.09a17.17,17.17,0,0,1-2.33,8.57c6.83,2.75,16,8.83,20.16,14.16l-5.83,4.42c-3.83-6.08-10.58-13.25-15.41-16.66C22.07,33.48,10.74,39.56,1.08,41.81L0,40.14c12.83-4.33,19.9-15,19.9-23.57v-4H3.41v-2ZM40.06.83V2.91H10.91V.83ZM55.63,51.38H11.08V49.22H66.46V73.29H55.63ZM66.46,0V21.4l11-.25v2.5l-11-.17V43.56H55.63V0Z"/><path class="cls-1" d="M157.31,37.06v2H80.86v-2ZM146.4,2.25v2H124.83V7.58a13.82,13.82,0,0,1-2.33,7.66c9.41,2,20.91,6.41,27.24,10.66l-5.67,5.25C138.16,26,128.83,20,121,17.07c-5.66,6.33-17.32,10.41-32.89,12.41l-1-1.75c14.57-2.16,26.23-9.66,26.23-19V4.25H91.77v-2ZM136.24,55.71V46.47h10.83v26h-56v-26h10.83v9.24Zm-34.31,2.17V70.46h34.31V57.88Z"/><path class="cls-1" d="M211.77,31.4c0,15.49-7,28-22.32,28s-22.32-12.49-22.32-28,7-27.9,22.32-27.9S211.77,15.91,211.77,31.4Zm-11,0c0-14.16-3.75-25.49-11.33-25.49S178.13,17.24,178.13,31.4,181.79,57,189.45,57C197,57,200.78,45.55,200.78,31.4Zm20.57,41.89V0h10.83V73.29Z"/><path class="cls-1" d="M287.39,5.16V31H259.9V55.46h4.5c9.83,0,20.66-.74,30.57-4.91l.91,2.08c-8.74,3.92-21.07,4.92-32.48,4.92H248.91V28.81h27.48V7.24H249.08V5.16Zm12.32,68.13V0h10.83V29.65l11.33-.25v2.5l-11.33-.17V73.29Z"/><path class="cls-1" d="M353.09,30.56a65.72,65.72,0,0,1,19.66,24.16L365,58.88a90.69,90.69,0,0,0-13.24-25.15c-5.16,11.74-14.91,20.9-25.07,26.32l-1.75-2.25a47.76,47.76,0,0,0,19.49-39.06V4.66h11.16V16A43.9,43.9,0,0,1,353.09,30.56Zm28.57-2.74V0h10.82V73.29H381.66V30l-17,.17V27.57Z"/><path class="cls-1" d="M2.5,173.9l-1.25-2c17.9-6.58,29.06-20,29.06-39.31V120.68H3.75v-2.16H41.64v12.15C41.64,150.66,28.32,166.73,2.5,173.9Zm49.63,12.41V113H63v30.9l12.58-.25v2.49L63,146v40.31Z"/><path class="cls-1" d="M155.65,147.66v2H79.19v-2Zm-9.58,24.74c0,10.49-14.41,14.74-28.65,14.74s-28.65-4.25-28.65-14.74,14.41-14.58,28.65-14.58S146.07,161.9,146.07,172.4Zm-43.72-58.05v22h42.72v2H91.35v-24Zm32.73,58.05c0-8.5-7.66-12.41-17.66-12.41-9.83,0-17.65,3.91-17.65,12.41S107.34,185,117.42,185C127.33,185,135.08,180.89,135.08,172.4Z"/><path class="cls-1" d="M210.61,123.43v2H164.8v-2Zm-1.5,21.07c0,8.08-7.41,14.24-20.82,14.24s-20.82-6.16-20.82-14.24,7.33-14.08,20.82-14.08S209.11,136.42,209.11,144.5Zm-7.25-29.82v2.09H173.55v-2.09Zm-14.65,50.47v17.66h43.55v2H176.21V165.15Zm11.16-20.65c0-6-3.09-11.83-10.08-11.83-6.83,0-10.08,5.83-10.08,11.83s3,12,10.08,12C195.2,156.49,198.37,150.5,198.37,144.5ZM229.1,113v26.65l11-.25v2.5l-11-.17v24.4H218.27V113Z"/><path class="cls-1" d="M34.65,232v25.4H14V281h3.42c3.33,0,15.15-.33,23.31-4.08l.75,2c-7.91,4.08-20.65,4.16-25.31,4.16H3.66V255.27H24.4V234.11H3.83V232Zm10.66,24.74V227.12h9.57v71.12H45.31V258.85l-8.17.17v-2.5ZM61,299.32V226h9.75v73.28Z"/><path class="cls-1" d="M110,256.6c7.08,5.41,14.74,12.74,20.15,24.15l-7.74,4.17a90.3,90.3,0,0,0-13.66-25.24c-5.25,11.83-15.24,21-25.4,26.4l-1.75-2.25a48,48,0,0,0,19.82-39.06V230.7h11.16V242A44.35,44.35,0,0,1,110,256.6Zm27.48,42.72V226h10.83v73.28Z"/><path class="cls-1" d="M173.46,280.67,172,238.36h10.82l1.09,42.31c2.66,0,5.74-.08,8.91-.33l4.08-42h10.74L203,279.09a57.25,57.25,0,0,0,12.66-3.5l1,2.16c-9.25,3.92-22.82,5-35.9,5H164.05v-2.08ZM213,231.53v2.17H164.89v-2.17Zm7.08,67.79V226h10.83v73.28Z"/><path class="cls-2" d="M5.33,343.06h9v1.19H10.63c.12,2,2.1,3.69,4,4.16l-.74,1.14a7.56,7.56,0,0,1-4-3.35A7.26,7.26,0,0,1,5.66,350l-.79-1.11c2.17-.65,4.12-2.6,4.23-4.67H5.33ZM18,350.79v5.72H16.5V352H7.13v-1.2ZM7.51,340.25h4.68v1.27H7.51ZM18,345.44v4.48H16.52V339.77H18v4.45h2.55v1.22Z"/><path class="cls-2" d="M21.66,348.65v-1.21H36.78v1.21Zm13.72-2.15c-2.79-.47-5.33-1.94-6.16-3.47-.66,1.55-3.15,3-6.1,3.45l-.67-1.22c2.65-.25,5.55-1.62,6-3.64H23.1v-1.2H35.33v1.2H30.05c.45,2,3.62,3.41,6,3.62Zm-11.7,9.78v-6.34h1.45v2h8.18v-2h1.46v6.34Zm9.63-3.19H25.13v2h8.18Z"/><path class="cls-2" d="M43.1,341c2.77,0,4.32,2.38,4.32,5.92s-1.55,5.91-4.32,5.91-4.32-2.36-4.32-5.93S40.34,341,43.1,341Zm0,1.26c-1.77,0-2.94,1.91-2.94,4.66s1.17,4.65,2.94,4.65S46,349.69,46,347,44.88,342.29,43.1,342.29Zm7.44,14.22V339.77H52v16.74Z"/><path class="cls-2" d="M64.92,351.89a50.43,50.43,0,0,1-8.11.63H55.39v-6.47h6.25v-3.53H55.36v-1.2H63.1v5.94H56.85v4a43.64,43.64,0,0,0,7.89-.57Zm2.72-5.39h2.7v1.23h-2.7v8.78H66.2V339.77h1.44Z"/><path class="cls-2" d="M80.47,352.5a11.5,11.5,0,0,1-4.14-5.17,11.06,11.06,0,0,1-4.18,5.55l-1-1.08a9.39,9.39,0,0,0,4.37-7.48v-3.09h1.5v3a8.61,8.61,0,0,0,4.3,7.13Zm3.15,4V347H79.71v-1.22h3.91v-6h1.46v16.74Z"/><path class="cls-2" d="M101.47,341.57c-.09,5.44-3.24,9.36-7.54,11.6L93,352a11.3,11.3,0,0,0,6.88-9.24h-6.3v-1.22Zm4.34,5.17h2.74V348h-2.74v8.53h-1.45V339.77h1.45Z"/><path class="cls-2" d="M109.5,348.79v-1.21h15.12v1.21Zm7.6,7.62c-3.66,0-5.87-1.1-5.87-3.12s2.21-3.11,5.85-3.11,5.89,1.11,5.89,3.11S120.74,356.41,117.1,356.41Zm-5.49-10.65V340.2h1.45v4.36h9.82v1.2Zm1.1,7.53c0,1.3,1.74,1.91,4.37,1.91s4.41-.61,4.41-1.91-1.74-1.91-4.41-1.91S112.71,352,112.71,353.29Z"/><path class="cls-2" d="M126,344.11V342.9h9.81v1.21Zm4.91,6.77c-2.23,0-3.94-1.17-3.94-2.94s1.69-2.93,3.94-2.93,3.95,1.13,3.95,2.93S133.15,350.88,130.9,350.88Zm0-4.72c-1.35,0-2.55.67-2.55,1.78s1.2,1.77,2.55,1.77,2.56-.67,2.56-1.77S132.25,346.16,130.9,346.16Zm-2.52-4.52v-1.28h4.83v1.28Zm.06,14.33v-4.3h1.45v3.08h9.69V356Zm10.49-9.3v5.45h-1.45V339.77h1.45v5.67h2.56v1.23Z"/><path class="cls-2" d="M157.85,351.51a47.68,47.68,0,0,1-8.61.75h-1V341.42h1.46V351a41.37,41.37,0,0,0,8-.71Zm2.67-5.1h2.73v1.25h-2.73v8.85h-1.46V339.77h1.46Z"/><path class="cls-2" d="M166.85,346.81a42.34,42.34,0,0,0,7.07-.47l.17,1.15a45.92,45.92,0,0,1-7,.49l-2.32,0v-7.22h7.78V342h-6.32v1.71h6.06v1.15h-6.06v2Zm-.38,9.54v-4.1h9.15V350.7H166.4v-1.21h10.68v3.87h-9.15v1.77h9.78v1.22Zm10.61-11.56v3.82h-1.46v-8.84h1.46v3.82h2.55v1.2Z"/><path class="cls-2" d="M191.69,351.94a56.25,56.25,0,0,1-8.3.56h-1.71v-6.45H188v-3.53h-6.43v-1.2h7.88v5.94h-6.35v4h.41a50.83,50.83,0,0,0,8-.53Zm2.85-12.17v16.74h-1.46V339.77Z"/><path class="cls-2" d="M197.34,354.21V353h15.12v1.23Zm13.76-4.59c-2.81-.85-5.53-3.23-6.22-4.94-.59,1.71-3.26,4.09-6.17,4.92l-.78-1.26c2.74-.52,6.22-3.12,6.22-5.85v-1.33h1.51v1.33c0,2.73,3.67,5.33,6.25,5.9Z"/><path class="cls-2" d="M227.2,349.73v3.34h6.86v1.23H218.94v-1.23h6.81v-3.34c-3.21-.24-5.3-1.9-5.3-4.38,0-2.65,2.41-4.39,6-4.39s6.05,1.74,6.05,4.39C232.53,347.83,230.43,349.51,227.2,349.73Zm-.72-7.55c-2.79,0-4.61,1.28-4.61,3.21s1.82,3.18,4.61,3.18,4.65-1.28,4.65-3.18S229.31,342.18,226.48,342.18Z"/><path class="cls-2" d="M243.64,349.35a36.12,36.12,0,0,1-6.38.52h-1.08v-5.06h4.94v-2.54h-4.94v-1.2h6.4V346h-4.94v2.66a28.46,28.46,0,0,0,5.85-.48ZM238.43,356v-5h1.46v3.78h10.23V356Zm4.81-10.18v-1.22h2v-4.48h1.4v11.66h-1.4v-6Zm5,6.47V339.77h1.44v12.48Z"/><path class="cls-2" d="M261.51,352.52c-1.56-1-3.69-3.12-4.26-5.1a10.52,10.52,0,0,1-4.34,5.49l-.91-1.08a9,9,0,0,0,4.47-7.45v-1.73h-3.91v-1.21h9.33v1.21H258v1.71a8.46,8.46,0,0,0,4.43,7.08Zm4.29-12.75v16.74h-1.46V339.77Z"/><path class="cls-2" d="M279.94,352.25c-1.44.18-3.83.32-5.95.43s-3.8.14-5.08.16l-.25-1.28c1.42,0,3.4,0,5.43-.12,2.33-.09,4.5-.22,5.73-.38Zm-6-3.32c-2.47,0-4.36-1.64-4.36-3.89a4.07,4.07,0,0,1,4.36-4c2.47,0,4.36,1.53,4.36,4S276.34,348.93,273.93,348.93Zm0-6.62A2.83,2.83,0,0,0,271,345a3,3,0,0,0,5.89,0A2.73,2.73,0,0,0,273.93,342.31Zm8.45-2.54v16.74h-1.46V339.77Z"/><path class="cls-2" d="M297.78,356.55c-3.74,0-5.85-1-5.85-2.9,0-1.71,1.82-2.74,5.1-2.88v-1.6h-6.81v-1.23h15.12v1.23h-6.86v1.6c3.3.13,5.17,1.1,5.17,2.88S301.53,356.55,297.78,356.55Zm-6.08-14.73v-1.2h12.08v1.2Zm.12,4.68v-1.2h2.54l-.43-2.61,1.51-.18.32,2.79h4l.37-2.81,1.52.16-.49,2.65h2.52v1.2Zm6,5.48c-2.66,0-4.32.59-4.32,1.69s1.66,1.66,4.32,1.66,4.34-.56,4.34-1.66S300.46,352,297.78,352Z"/><path class="cls-2" d="M313.58,356.53V351h-6.8v-1.22H321.9V351H315v5.53Zm-5-8.73v-7.38h1.45v2.46h8.54v-2.46h1.46v7.38Zm10-3.73h-8.54v2.52h8.54Z"/><path class="cls-2" d="M323.27,344.11V342.9h9.81v1.21Zm4.91,6.77c-2.23,0-3.94-1.17-3.94-2.94s1.69-2.93,3.94-2.93,3.95,1.13,3.95,2.93S330.43,350.88,328.18,350.88Zm0-4.72c-1.35,0-2.55.67-2.55,1.78s1.2,1.77,2.55,1.77,2.56-.67,2.56-1.77S329.53,346.16,328.18,346.16Zm-2.52-4.52v-1.28h4.83v1.28Zm.06,14.33v-4.3h1.45v3.08h9.69V356Zm10.49-9.3v5.45h-1.46V339.77h1.46v5.67h2.56v1.23Z"/><path class="cls-2" d="M5.73,384.5v-7.27h8v7.27Zm12.93,8.05c-2.2-.43-5-2.22-5.66-3.76-.64,1.63-3.17,3.29-5.65,3.78l-.7-1.19c2.7-.34,5.62-2.34,5.62-4.7V386H13.8v.65c0,2.36,3.13,4.3,5.6,4.66Zm-6.41-14.12H7.19v4.86h5.06ZM18,381.66v5.13H16.52v-11H18v4.66h2.56v1.23Z"/><path class="cls-2" d="M26.54,377c2.77,0,4.32,2.38,4.32,5.92s-1.55,5.91-4.32,5.91-4.32-2.36-4.32-5.93S23.78,377,26.54,377Zm0,1.26c-1.77,0-2.94,1.91-2.94,4.66s1.17,4.65,2.94,4.65,2.93-1.91,2.93-4.65S28.32,378.29,26.54,378.29ZM34,392.51V375.77h1.45v16.74Z"/><path class="cls-2" d="M43.26,390.14v-1.23H58.38v1.23Zm2-5.91v-7h1.46V383h9.89v1.21Z"/><path class="cls-2" d="M64.66,377.61a15.61,15.61,0,0,1-4.17,11.07l-1.17-.87a13.65,13.65,0,0,0,3.88-9h-3v-1.22Zm4.22,0c0,5-1.25,8.91-3.95,12.11l-1.24-.81c2.34-2.36,3.73-6.88,3.73-10.08h-2v-1.22ZM72,392.51v-6.23h-3V385h3v-3.33h-2.8v-1.24H72v-4.7H73.5v16.74Z"/><path class="cls-2" d="M85.83,388.52c-1.56-1-3.69-3.12-4.26-5.1a10.52,10.52,0,0,1-4.34,5.49l-.9-1.08a9,9,0,0,0,4.46-7.45v-1.73H76.88v-1.21h9.33v1.21H82.3v1.71a8.46,8.46,0,0,0,4.43,7.08Zm4.29-12.75v16.74H88.66V375.77Z"/><path class="cls-2" d="M92.94,385.64v-1.23h15.12v1.23Zm2,6.5V387.2h1.46v3.73h10.06v1.21Zm0-9.82v-5.85h1.46v4.65h9.94v1.2Z"/><path class="cls-2" d="M117.64,387.17a43.84,43.84,0,0,0,7.07-.54l.17,1.2a51.25,51.25,0,0,1-8,.58h-1.63V377.52h7.94v1.22h-6.49v8.43Zm9.81-4.76h2.72v1.23h-2.72v8.87H126V375.77h1.44Z"/><path class="cls-2" d="M140,380.7a4.36,4.36,0,0,1-8.68,0,4.35,4.35,0,0,1,8.68,0Zm-7.26,0a2.75,2.75,0,0,0,2.92,2.81,2.72,2.72,0,0,0,2.93-2.79,2.75,2.75,0,0,0-2.93-2.84A2.78,2.78,0,0,0,132.7,380.7Zm5.85,11.76c-3.63,0-5.51-1.3-5.51-3.21s1.88-3.22,5.51-3.22,5.57,1.32,5.57,3.22S142.21,392.46,138.55,392.46Zm-4-3.21c0,1.21,1.49,2,4,2s4.07-.75,4.07-2-1.53-2-4.07-2S134.54,388.05,134.54,389.25Zm12-6.06H144v2.66h-1.46V375.77H144v2.57h2.56v1.23H144V382h2.56Z"/><path class="cls-2" d="M147.59,380.11V378.9h9.81v1.21Zm4.91,6.77c-2.23,0-3.94-1.17-3.94-2.94s1.69-2.93,3.94-2.93,3.95,1.13,3.95,2.93S154.75,386.88,152.5,386.88Zm0-4.72c-1.35,0-2.55.67-2.55,1.78s1.2,1.77,2.55,1.77,2.56-.67,2.56-1.77S153.85,382.16,152.5,382.16ZM150,377.64v-1.28h4.83v1.28ZM150,392v-4.3h1.45v3.08h9.69V392Zm10.49-9.3v5.45h-1.45V375.77h1.45v5.67h2.56v1.23Z"/><path class="cls-2" d="M177.07,387.94a31.53,31.53,0,0,1-5.9.47h-1.44v-6.27h4.68v-3.31h-4.72v-1.21h6.18v5.73h-4.68v3.82a31.85,31.85,0,0,0,5.7-.45Zm1.73,3.71v-8.16h-2.16v-1.22h2.16v-6.1h1.42v15.48Zm3.23.86V375.77h1.42v16.74Z"/><path class="cls-2" d="M195.09,388.48a11.41,11.41,0,0,1-4.12-5.11,11.18,11.18,0,0,1-4.29,5.52l-1-1.09a9.56,9.56,0,0,0,4.47-7.55v-3h1.47v3a8.73,8.73,0,0,0,4.34,7.16Zm3.06,4V375.77h1.46v16.74Z"/><path class="cls-2" d="M213.27,387.8c-1.24.16-3.17.32-5.2.43s-4,.16-5.47.18l-.22-1.28c.79,0,1.62,0,2.48,0l-.61-7,1.48-.16c.14,2.36.32,4.74.47,7.1l2-.09.61,0c.14-2.32.31-4.67.47-7l1.46.17-.62,6.77c1.23-.08,2.29-.18,3.05-.29Zm-10.42-9v-1.23h9.38v1.23Zm11.72,13.75V375.77H216v16.74Z"/><path class="cls-2" d="M218.94,384.7v-1.13h15.12v1.13Zm1.75,7.51v-3.73h10.13v-1.39H220.7V386h11.58v3.51H222.14v1.54H232.8v1.15Zm.18-10v-3.45h9.86v-1.32h-9.88v-1.13h11.34v3.49h-9.87v1.33h10.2v1.08Z"/><path class="cls-2" d="M240.54,384.45v-1.21h15.12v1.21Zm13.67-2.25c-2.69-.44-5.28-1.7-6.11-3.19-.65,1.51-3.29,2.81-6.07,3.17l-.64-1.19c2.59-.23,5.4-1.28,5.88-3.22H242v-1.21h12.28v1.21H249c.55,1.91,3.58,3,5.9,3.2Zm-11.87,10v-3.82h10v-1.46h-10v-1.17h11.47v3.73h-10V391h10.59v1.21Z"/><path class="cls-2" d="M265.38,377.57c-.11,5.44-3,9.27-7.36,11.61l-.9-1.13a11.3,11.3,0,0,0,6.71-9.26h-6.19v-1.22Zm0,7.26h3.95v-3.26h-3.7v-1.25h3.7v-4.55h1.45v16.74h-1.45v-6.46h-3.95Z"/><path class="cls-2" d="M281.92,385.78v3.42h6.86v1.22H273.66V389.2h6.81v-3.42h-5v-8.86H277V380h8.54v-3.08H287v8.86Zm3.57-4.57H277v3.36h8.54Z"/><path class="cls-2" d="M297.76,388.3a10.28,10.28,0,0,1-3.58-4.83,9.32,9.32,0,0,1-3.42,5.32l-.9-1.08a8.92,8.92,0,0,0,3.58-7.35v-3h1.44v3a8.42,8.42,0,0,0,3.77,6.9Zm1.91,3.37V383h-3V381.8h3v-5.63h1.42v15.5Zm3.3.84V375.77h1.44v16.74Z"/><path class="cls-2" d="M306.78,390.37v-1.22h3.74v-3.33l1.46,0v3.37h4.67v-3.37l1.45,0v3.33h3.8v1.22Zm7.54-5.08c-3.62,0-6-1.65-6-4.17s2.41-4.22,6-4.22,6.05,1.7,6.05,4.22S318,385.29,314.32,385.29Zm0-7.22c-2.79,0-4.62,1.23-4.62,3.05s1.83,3,4.62,3,4.65-1.23,4.65-3S317.13,378.07,314.32,378.07Z"/></g></g></svg>