<svg xmlns="http://www.w3.org/2000/svg" viewBox="0 0 985.79 53.4"><defs><style>.cls-1{fill:#ed7524;}</style></defs><g id="레이어_2" data-name="레이어 2"><g id="레이어_1-2" data-name="레이어 1"><path class="cls-1" d="M10.14,40.26H0V3.36H7.92V38.7h2.94c5.76,0,14.22-.72,21.48-3.72L33,36.54C26.22,39.36,17.76,40.26,10.14,40.26ZM35.64,52.8V0h7.8V22.2L51.6,22v1.8l-8.16-.12V52.8Z"/><path class="cls-1" d="M86.28,1.5V2.94H67.08v8.64h18.6V13H67.08V23.64h5.4c5.94,0,12.78,0,19.5-3.12L92.64,22C87.06,24.66,79,25.08,72.3,25.08h-13V1.5Zm8.58,38.76v-8H64.74V30.84h38.4V41.7H73V51h31v1.44H64.74V40.26ZM103.14,0V12.24l7.92-.18v1.8l-7.92-.12V26.58h-7.8V0Z"/><path class="cls-1" d="M145.38,3.72V22.44h-19.8V40h3.24c7.08,0,15.36-.42,22.56-3.6l.72,1.56c-6.24,3-15.78,3.54-24,3.54H117.66V20.88h19.8V5.22H117.78V3.72ZM155.1,52.8V0h7.8V52.8Z"/><path class="cls-1" d="M227,44.82v1.5H172v-1.5ZM203.64,8a18.45,18.45,0,0,1-2.4,8.94c8.64,3.06,17.22,8.46,20.52,12.72l-4.38,4.08c-4.68-6.06-11.22-12.06-17.16-15.18-4.8,7.14-14,12.3-23.1,14.52l-.84-1.44c11.4-3.9,19.08-14.22,19.08-22.56V3.3h8.28Z"/><path class="cls-1" d="M270.36,44.88V34.14h8.28V44.88H302v1.44H247V44.88Zm25-28.2c0,8.28-8,14-20.88,14s-20.88-5.7-20.88-14,8-14,20.88-14S295.38,8.46,295.38,16.68Zm-8.16,0c0-6.72-4-12.36-12.72-12.36S261.78,10,261.78,16.68,265.68,29,274.5,29,287.22,23.4,287.22,16.68Z"/><path class="cls-1" d="M319.8,29.34h-10V14.64H324.3V4.2H309.78V2.76h22.38V16.08H317.64V27.9H320c3.48,0,10.32.06,16.38-2.4l.54,1.38C330.72,29.28,324.66,29.34,319.8,29.34Zm6.06,6.12V50.28h32.58v1.44h-40.5V35.46Zm13.8-20.22V.48h6.78V36.3h-6.78V16.74l-5.4.12v-1.8ZM357.17,0V36.78H350V0Z"/><path class="cls-1" d="M387.3,21.42a52.55,52.55,0,0,1,14.88,17.7l-5.4,3.18c-2.94-7.74-6.54-14.46-10.26-18.84C383,31.68,376,38.7,367.32,43.26l-1.26-1.38A32.69,32.69,0,0,0,380.82,14V5.52H368.64V4H401.1V5.52H388.86v6.54A28.9,28.9,0,0,1,387.3,21.42ZM406.62,52.8V0h7.8V52.8Z"/><path class="cls-1" d="M461.75,33.54H438.36V32.1h55.07v1.44H470V52.8h-8.29Zm24.06-32V3.12H470v1.8a15.78,15.78,0,0,1-1.62,7c7.55,2.7,14.93,6.9,19.37,11.4l-4.26,3.78c-4.26-5.22-10.07-10.56-15.95-13.74-3.84,6.3-12.12,11.16-23.76,12.78L443,24.78c12.6-2.76,18.71-11.34,18.71-18.9V3.12H445.92V1.56Z"/><path class="cls-1" d="M552.83,44.82v1.5H497.76v-1.5ZM529.43,8a18.45,18.45,0,0,1-2.4,8.94c8.64,3.06,17.22,8.46,20.52,12.72l-4.38,4.08C538.49,27.66,532,21.66,526,18.54c-4.8,7.14-14,12.3-23.09,14.52l-.84-1.44c11.39-3.9,19.07-14.22,19.07-22.56V3.3h8.28Z"/><path class="cls-1" d="M572.51,46.44a141.82,141.82,0,0,0,15.36-18c3.36-4.86,5.16-9.72,5.16-14.7,0-5.64-1.86-10.14-7.2-10.14-4.86,0-8.76,5-8.76,9.6l-.48.42-2.4-1.74c1.74-5.76,6.42-10,12.66-10,4.26,0,7.56,1,9.9,3.12a11.76,11.76,0,0,1,3.84,8c0,4.62-2.22,8-5,11.46-1.68,2.1-5.52,6.3-8.46,9.36L579,42.36h22.14v5.1H572.51Z"/><path class="cls-1" d="M608.33,40c1.5,4.92,5.46,6.54,9.72,6.54,6.06,0,9.66-6,9.66-13.26s-3.42-12.3-9.54-12.3a13.3,13.3,0,0,0-8.4,3.48l-.72-.42V2.4h23.34V8.1H611.15V21.42c2.22-1.56,5.46-2.28,9.06-2.28,8.28,0,15.12,5.46,15.12,13.08,0,10.2-7.32,16-17.82,16-4.68,0-9.48-2.28-11.28-5.28L607.61,40Z"/><path class="cls-1" d="M669.65,25c0,13.56-5,23.16-14.88,23.16S639.89,38.58,639.89,25s5-23.16,14.88-23.16S669.65,11.46,669.65,25Zm-7.56,0c0-12.6-1.62-21.6-7.32-21.6s-7.32,9-7.32,21.6,1.62,21.6,7.32,21.6S662.09,37.62,662.09,25Z"/><path class="cls-1" d="M676,47.46V18.78h7.32v3.06a9.22,9.22,0,0,1,7.14-3.66c4.14,0,7.38,1.74,8.82,5.52,1.68-2.7,4.32-5.52,8.52-5.52,5.64,0,9.72,3.24,9.72,10.44V47.46h-7.26V28.32c0-5.46-1.08-8.34-3.36-8.34-1.92,0-5,2.4-7,6.12a16.6,16.6,0,0,1,.18,2.52V47.46h-7.26V28.32c0-5.46-1-8.34-3.3-8.34-1.8,0-4.38,1.92-6.24,4.86V47.46Z"/><path class="cls-1" d="M725.45,47.46V2.4h7.32V47.46Z"/><path class="cls-1" d="M789.59,7.5V8.94h-33V7.5Zm-1.08,15.18c0,5.82-5.34,10.26-15,10.26s-15-4.44-15-10.26,5.28-10.14,15-10.14S788.51,16.86,788.51,22.68ZM783.29,1.2V2.7h-20.4V1.2ZM772.73,37.56V50.28h31.38v1.44h-39.3V37.56Zm8-14.88c0-4.32-2.22-8.52-7.26-8.52s-7.26,4.2-7.26,8.52,2.16,8.64,7.26,8.64S780.77,27,780.77,22.68ZM802.91,0V19.2l7.92-.18v1.8l-7.92-.12V38.28h-7.8V0Z"/><path class="cls-1" d="M817,1.5h7.8v9.36H838V1.5h7.8V25.38H817Zm47.16,40.86c0,7.56-9.84,11-20.16,11s-20.16-3.48-20.16-11S833.63,31.44,844,31.44,864.11,34.8,864.11,42.36ZM838,23.94V12.42h-13.2V23.94Zm18.24,18.42c0-6.48-5.1-9.36-12.24-9.36s-12.24,2.88-12.24,9.36,5,9.48,12.24,9.48S856.19,48.84,856.19,42.36Zm-.54-24.54V9.18l-7.92.12V7.5l7.92.18V0h7.8V29.58h-7.8V19.32l-7.92.12v-1.8Z"/><path class="cls-1" d="M904.73,52V22.8h-4.44V23c0,11.16-3.78,19.38-13.38,19.38S873.53,34.14,873.53,23,877.31,3.6,886.91,3.6c9.06,0,12.9,7.32,13.32,17.52h4.5V.78h6.9V52ZM893,23c0-10.2-1.8-17.76-6.06-17.76s-6.06,7.56-6.06,17.76,1.8,17.76,6.06,17.76S893,33.18,893,23ZM916.31,52.8V0h7.08V52.8Z"/><path class="cls-1" d="M985.79,28.14v1.44H930.71V28.14Zm-47.4,7.32h7.92V50.28h33.3v1.44H938.39Zm1.08-34.14h7.92V19.26h30.78V20.7h-38.7Z"/></g></g></svg>