<svg xmlns="http://www.w3.org/2000/svg" viewBox="0 0 363.66 473.26"><defs><style>.cls-1{fill:#ed7524;}.cls-2{fill:#455c2a;}</style></defs><g id="레이어_2" data-name="레이어 2"><g id="레이어_1-2" data-name="레이어 1"><path class="cls-1" d="M19.83,35.23H6.17V2.91H16.83V33.23h3.25c5,0,14.66-.25,21.41-3.75l.91,1.92C36.32,34.89,27.24,35.23,19.83,35.23Zm52.8,24.23c0,10.5-14.57,15.08-28.81,15.08S15,70,15,59.46s14.58-14.9,28.82-14.9S72.63,49,72.63,59.46Zm-11,0c0-8.82-7.83-12.74-17.82-12.74C34,46.72,26,50.64,26,59.46s7.74,12.91,17.82,12.91C53.73,72.37,61.64,68.29,61.64,59.46ZM72,.42v41.3H61.89V20.82h-6.5V39.89H45.73V1.08h9.66V18.49h6.5V.42Z"/><path class="cls-1" d="M115.77,37.56V26.65H94.45v-24h53.13v2H105.77v20h43.06v2H126.76V37.56h32.73v2H83v-2Zm34.56,22.9c0,10.5-14.83,14.08-29.07,14.08S92.2,71,92.2,60.46,107,46.55,121.26,46.55,150.33,50,150.33,60.46Zm-11,0c0-8.49-8.08-11.74-18.08-11.74-9.82,0-18.07,3.25-18.07,11.74s8,11.91,18.07,11.91C131.17,72.37,139.34,69,139.34,60.46Z"/><path class="cls-1" d="M241.93,34.4v2H165.48v-2ZM176.14,57.13h43.64V46.3H176.14v-2h55.13V59.13H187.63V71.21h44.89v2H176.14ZM230.19,14c0,9.75-13.32,14.08-26.4,14.08s-26.4-4.33-26.4-14.08,13.32-14,26.4-14S230.19,4.25,230.19,14Zm-10.91,0c0-8.24-8.41-11.91-15.49-11.91S188.3,5.75,188.3,14s8.33,12,15.49,12C210.79,26,219.28,22.24,219.28,14Z"/><path class="cls-1" d="M32.24,124.84a27.28,27.28,0,0,1-1.83,9.75,65.49,65.49,0,0,1,18.32,17.15l-5.91,4.5c-3.58-6.58-8.5-14.32-13.58-19.15-4.74,9.41-14.65,16.49-24.73,20l-1.17-1.83c12.74-5.66,17.74-17.74,17.74-28.48V116.35H32.24Zm-15.49,37h11v21.41H71.3v2H16.75Zm42.06-28.9V113.43H69.64v51.06H58.81V135l-14.41.17v-2.5Z"/><path class="cls-1" d="M100.61,151.74H87v-35h31.9v2H97.36v13.58H118v2H97.36v15.41h3.5c6.08,0,14.74.25,22.15-3.34l.92,2C117.43,151.83,108.27,151.74,100.61,151.74ZM142,164.82H95.78v-2.17h57.05v24.07H142Zm10.74-51.39v44h-10V134.92h-6V157h-9.57V114.1h9.57v18.49h6V113.43Z"/><path class="cls-1" d="M204.54,127.93v2.24H164.9v-2.24ZM204,154.66c0,11-7.41,18.4-18.82,18.4s-18.83-7.41-18.83-18.4,7.42-18.41,18.83-18.41S204,143.67,204,154.66Zm-6.08-37.14v2.24H171.56v-2.24Zm-4.08,37.14c0-8.74-3-16.07-8.66-16.07s-8.67,7.33-8.67,16.07,3,16.07,8.67,16.07S193.8,163.4,193.8,154.66Zm32.06,32.06v-38h-7.24v36.89H209V114.52h9.58v31.89h7.24v-33h9.83v73.29Z"/><path class="cls-1" d="M293.48,144.83c0,15.49-6.66,28-22.32,28s-22.32-12.5-22.32-28,6.66-27.9,22.32-27.9S293.48,129.34,293.48,144.83Zm-11,0c0-14.16-3.25-25.48-11.33-25.48s-11.33,11.32-11.33,25.48S263,170.4,271.16,170.4C279.16,170.4,282.49,159,282.49,144.83Zm19.4,41.89V113.43h10.83V132l11.32-.25v2.49l-11.32-.16v20.24l11.32-.25v2.5l-11.32-.17v30.31Z"/><path class="cls-1" d="M52.65,240.86v2.25H4.18v-2.25Zm-1.75,26.9c0,11-8.91,18.91-22.07,18.91S6.76,278.75,6.76,267.76,15.67,249,28.83,249,50.9,256.77,50.9,267.76ZM44.32,230v2.25H12.5V230ZM40,267.76c0-9-3.58-16.49-11.16-16.49-7.41,0-11.16,7.5-11.16,16.49s3.5,16.66,11.16,16.66C36.32,284.42,40,276.75,40,267.76Zm19.15,32V226.45H70v33l11.32-.25v2.5L70,261.51v38.23Z"/><path class="cls-1" d="M160.32,265.51v2H83.87v-2ZM94.53,275.67h11v20.57h46.23v2H94.53ZM96,228.28h11v24.91h42.73v2H96Z"/><path class="cls-1" d="M236.44,257.85c0,15.49-7,28-22.32,28s-22.32-12.49-22.32-28,7-27.9,22.32-27.9S236.44,242.36,236.44,257.85Zm-11,0c0-14.16-3.75-25.48-11.32-25.48s-11.33,11.32-11.33,25.48,3.66,25.57,11.33,25.57C221.61,283.42,225.44,272,225.44,257.85ZM246,299.74V226.45h10.83v73.29Z"/><path class="cls-1" d="M315.8,272.59H296.48v27.15h-11V272.59H267.91v-2h76.45v2H326.79v27.15h-11Zm18.9-28.07c0,11.33-12.24,17.24-28.56,17.24s-28.57-5.91-28.57-17.24,12.24-17.07,28.57-17.07S334.7,233.2,334.7,244.52Zm-11.32,0c0-8.82-5.92-14.82-17.24-14.82-11.16,0-17.24,6-17.24,14.82s5.83,15,17.24,15C317.38,259.52,323.38,253.35,323.38,244.52Z"/><path class="cls-2" d="M8.52,350.06c-.09,5.44-3.24,9.37-7.55,11.6l-.9-1.13A11.33,11.33,0,0,0,7,351.29H.65v-1.23Zm4.34,5.17h2.73v1.24H12.86V365H11.4V348.26h1.46Z"/><path class="cls-2" d="M16.65,349.47h9.13v1.22H22c0,.42,0,.74,0,.92.12,2.15,2.12,4,4,4.61l-.81,1.17a8.1,8.1,0,0,1-4-3.67c-.45,1.57-2.41,3.37-4.21,4.14l-.85-1.13c2.11-.81,4.24-2.92,4.33-5.14,0-.16,0-.48,0-.9H16.65ZM24,365c-3.49,0-5.6-1.22-5.6-3.19s2.11-3.22,5.6-3.22,5.64,1.21,5.64,3.22S27.53,365,24,365Zm0-5.18c-2.52,0-4.08.7-4.08,2s1.56,2,4.08,2,4.15-.72,4.15-2S26.55,359.81,24,359.81Zm5.41-5.69v4.42H28V348.26h1.46v4.63H32v1.23Z"/><path class="cls-2" d="M38.38,349.29h8.93v1.22H43.53V351c.13,2.14,2.15,3.89,4.05,4.52l-.81,1.13a7.88,7.88,0,0,1-4-3.56c-.45,1.56-2.34,3.29-4.14,4.07l-.85-1.1c2.11-.81,4.16-2.87,4.25-5.08v-.49H38.38Zm2.1,15.59v-4.21h9.06V359H40.43v-1.23H51v4.05H41.94v1.86h9.69v1.22ZM51,353.32v3.57H49.54v-8.63H51v3.84h2.55v1.22Z"/><path class="cls-2" d="M68.83,353.21a4.35,4.35,0,0,1-8.67,0,4.35,4.35,0,0,1,8.67,0Zm-7.25,0A2.75,2.75,0,0,0,64.5,356a2.72,2.72,0,0,0,2.93-2.79,2.75,2.75,0,0,0-2.93-2.84A2.79,2.79,0,0,0,61.58,353.21ZM72,365v-4.84H62.32V359H73.44V365Zm0-6.92v-9.83h1.46v9.83Z"/><path class="cls-2" d="M76.3,358.08v-1.23H91.43v1.23Zm7.56-2.74c-3.65,0-5.81-1.17-5.81-3.31s2.18-3.28,5.83-3.28,5.82,1.17,5.82,3.28S87.52,355.34,83.86,355.34Zm-5.56,9.18v-4.88h1.46v3.66h10v1.22ZM79.51,352c0,1.37,1.71,2.08,4.35,2.08s4.4-.71,4.4-2.08S86.53,350,83.88,350,79.51,350.66,79.51,352Z"/><path class="cls-2" d="M106.51,357.14a8,8,0,0,1-3.93-3.91,8.14,8.14,0,0,1-4.17,4.47l-.81-1.14a6.64,6.64,0,0,0,4.19-5.88v-1.62h1.48v1.56a6.1,6.1,0,0,0,4.1,5.37ZM105.37,365c-3.49,0-5.58-1.22-5.58-3.2s2.09-3.23,5.58-3.23,5.64,1.23,5.64,3.23S108.9,365,105.37,365Zm-4.08-3.2c0,1.27,1.56,2,4.08,2s4.15-.72,4.15-2-1.59-2-4.15-2S101.29,360.51,101.29,361.79Zm9.49-7.76v4.55h-1.46V348.26h1.46v4.54h2.55V354Z"/><path class="cls-2" d="M117.18,359.57a25.56,25.56,0,0,0,5.24-.45l.2,1.19a32.08,32.08,0,0,1-6.59.5h-.92V350.15h6.55v1.21h-5.09v3.31h4.9v1.17h-4.9v3.73Zm10,5.44V356.2h-2.24v7.94h-1.4V348.66h1.4V355h2.24v-6.74h1.42V365Z"/><path class="cls-2" d="M138.66,354.89h1.8v-6.3h1.42V364.2h-1.42v-8.1h-1.8c-.17,3-1.39,5.07-3.68,5.07-2.45,0-3.69-2.36-3.69-5.72s1.24-5.73,3.69-5.73S138.53,351.85,138.66,354.89ZM135,351c-1.35,0-2.21,1.75-2.21,4.45s.86,4.45,2.21,4.45,2.24-1.73,2.24-4.45S136.33,351,135,351Zm8.74,14V348.26h1.44V365Z"/><path class="cls-2" d="M156.71,361a11.54,11.54,0,0,1-4.14-5.16,10.89,10.89,0,0,1-4.18,5.54l-.95-1.08a9.37,9.37,0,0,0,4.37-7.47v-3.1h1.5v3a8.65,8.65,0,0,0,4.3,7.13Zm3.15,4v-9.54H156v-1.23h3.91v-6h1.46V365Z"/><path class="cls-2" d="M173.88,356.15a4.8,4.8,0,0,1-1.62-1.89,7.09,7.09,0,0,1-2.63,3.37l-.9-1a5.79,5.79,0,0,0,2.81-4.91v-.86h-2.21v-1.21h4.86v1.21h-1.26v.86a3.54,3.54,0,0,0,1.8,3.38Zm-2.36,8.32v-5.24H173v4h9.92v1.21Zm8-7a6,6,0,0,1-2.56-2.88,7.67,7.67,0,0,1-2.84,3.84l-.92-1a6.8,6.8,0,0,0,3-5.71v-.86h-1.49v-1.21h4.89v1.21h-2v.79a5,5,0,0,0,2.7,4.73Zm2.79-2.71v5.67h-1.46V348.26h1.46v5.24h2.34v1.25Z"/><path class="cls-2" d="M197.61,365v-4.79h-6.83V359h15.13v1.23h-6.85V365Zm-6-12.79V351H205.1v1.22Zm6.71,5.85c-3,0-5.15-.82-5.15-2.55s2.2-2.58,5.15-2.58,5.15.81,5.15,2.58S201.33,358.09,198.36,358.09Zm0-3.92c-1.65,0-3.64.34-3.64,1.37s2,1.33,3.64,1.33,3.64-.36,3.64-1.33S200,354.17,198.36,354.17Zm-2.81-4.41v-1.24h5.6v1.24Z"/><path class="cls-2" d="M225.54,349.11a28.7,28.7,0,0,1-.57,6.12h2.52v1.21H212.36v-1.21h11.15a23.08,23.08,0,0,0,.54-4.91h-9.89v-1.21Zm-11.36,15.65v-7h1.46V360h8.57v-2.25h1.46v7Zm10-3.55h-8.57v2.34h8.57Z"/><path class="cls-2" d="M236.94,356.31a31.27,31.27,0,0,1-6,.6h-1.25v-7.39h1.46v6.13a28.49,28.49,0,0,0,5.6-.53Zm.48,8.68c-3.64,0-5.76-1.21-5.76-3.11s2.12-3.14,5.76-3.14,5.8,1.21,5.8,3.14S241.08,365,237.42,365Zm0-5c-2.61,0-4.27.7-4.27,1.91s1.66,1.9,4.27,1.9,4.31-.7,4.31-1.9S240.09,360,237.42,360Zm4.2-1.35v-4.68h-2.24V358H238v-9.43h1.4v4.16h2.24v-4.47h1.44v10.36Z"/><path class="cls-2" d="M254.77,361a11.39,11.39,0,0,1-4.12-5.12,11.28,11.28,0,0,1-4.28,5.53l-1-1.1a9.54,9.54,0,0,0,4.47-7.54v-3h1.47v3a8.77,8.77,0,0,0,4.34,7.17Zm3.06,4V348.26h1.46V365Z"/><path class="cls-2" d="M271.15,350c0,6.07-3.16,9.69-7.76,11.91l-.93-1.12a11.75,11.75,0,0,0,6.17-5.55l-5.78.51-.3-1.33,6.57-.38a10.74,10.74,0,0,0,.5-2.81h-6.35V350Zm3.23,15V348.26h1.46V365Z"/><path class="cls-2" d="M287.39,350.05a13.11,13.11,0,0,1-7.74,11.65l-.85-1.16a11.29,11.29,0,0,0,7-9.27h-6.41v-1.22Zm3.46,15V348.26h1.46V365Z"/><path class="cls-2" d="M304.56,360.22a15.88,15.88,0,0,1-3.91.38V350.35h3.51v1.21h-2.08v7.76a7.89,7.89,0,0,0,2.32-.29Zm4.79,0a16.11,16.11,0,0,1-4.3.49V350.35h3.74v1.21h-2.34v7.81a9.17,9.17,0,0,0,2.72-.37Zm3.92,4.83v-8.66h-2v7.81h-1.38v-15.5h1.38v6.46h2v-6.86h1.41V365Z"/><path class="cls-2" d="M323.64,361.46v-3.29h-6.86V357h15.13v1.21H325.1v3.29Zm-5,3v-4.74h1.46v3.53H330.2v1.21Zm0-9.38v-5.91H330v5.91Zm9.87-4.7h-8.41v3.49h8.41Z"/><path class="cls-2" d="M341,354.89h1.8v-6.3h1.42V364.2h-1.42v-8.1H341c-.17,3-1.39,5.07-3.68,5.07-2.45,0-3.69-2.36-3.69-5.72s1.24-5.73,3.69-5.73S340.85,351.85,341,354.89ZM337.3,351c-1.35,0-2.21,1.75-2.21,4.45s.86,4.45,2.21,4.45,2.24-1.73,2.24-4.45S338.65,351,337.3,351ZM346,365V348.26h1.44V365Z"/><path class="cls-2" d="M8.79,389.58a4.09,4.09,0,0,1-4.34,4.15,4.08,4.08,0,0,1-4.36-4.14,4.13,4.13,0,0,1,4.34-4.19A4.14,4.14,0,0,1,8.79,389.58Zm-7.28,0a2.83,2.83,0,0,0,2.94,2.88,2.89,2.89,0,1,0,0-5.78A2.82,2.82,0,0,0,1.51,389.58Zm1.33,10.87v-5.09H4.3v3.88H14v1.21Zm6.32-12.6v-1.21h3.05v-2.38h1.46v12.16H12.21v-4.29H9.16v-1.2h3.05v-3.08Z"/><path class="cls-2" d="M24.1,400.94c-3.65,0-5.87-1.05-5.87-3s1.91-2.81,5.12-3v-1.76H16.54v-1.21H31.67v1.21H24.81V395c3.24.13,5.18,1.17,5.18,3S27.76,400.94,24.1,400.94ZM30.23,391c-2.79-.45-5.3-1.82-6.13-3.35-.66,1.55-3.16,2.93-6.12,3.37l-.65-1.23c2.61-.23,5.48-1.47,6-3.46H18v-1.18H30.23v1.18H25c.5,2,3.6,3.23,5.92,3.44Zm-10.5,7c0,1.23,1.75,1.77,4.37,1.77s4.4-.54,4.4-1.77-1.77-1.76-4.4-1.76S19.73,396.78,19.73,398Z"/><path class="cls-2" d="M38.9,393.84v-8.48h1.46v3.08h4.43v-3.08h1.45v8.48Zm5.89-4.19H40.36v3h4.43ZM41,400.45v-5.08H42.5v3.86h9.74v1.22Zm10.79-3.83H50.37V392H47.16v-1.23h3.21v-2.48H47.16v-1.23h3.21v-2.79h1.46Z"/><path class="cls-2" d="M54.63,389.49v-1.21h9.88v1.21Zm5,8c-2.34,0-3.91-1.49-3.91-3.46s1.57-3.45,3.91-3.45,3.9,1.49,3.9,3.45S62,397.48,59.62,397.48Zm-2.49-10.82v-1.24h4.92v1.24Zm2.49,5.13A2.25,2.25,0,1,0,62.07,394,2.27,2.27,0,0,0,59.62,391.79Zm8,.76V401H66.12V384.26h1.46v7.06h2.71v1.23Z"/><path class="cls-2" d="M80.71,397c-1.56-1-3.69-3.11-4.26-5.09a10.55,10.55,0,0,1-4.34,5.49l-.9-1.08a9,9,0,0,0,4.46-7.46v-1.73h-3.9v-1.2h9.32v1.2h-3.9v1.72a8.42,8.42,0,0,0,4.42,7.07ZM85,384.26V401H83.54V384.26Z"/><path class="cls-2" d="M101.72,389c0,2.41-2,3.92-4.34,3.92S93,391.45,93,389.05a4.36,4.36,0,0,1,8.68,0Zm-2.27,10.87a18,18,0,0,1-5,.63v-6h1.42v4.77a12.79,12.79,0,0,0,3.39-.56Zm-5-10.87a2.7,2.7,0,0,0,2.92,2.68,2.67,2.67,0,0,0,2.94-2.67,2.7,2.7,0,0,0-2.94-2.72A2.74,2.74,0,0,0,94.46,389ZM99,396.2V395h8.38v1.17Zm4.16,5c-1.73,0-3.15-.9-3.15-2.25s1.42-2.25,3.15-2.25,3.17.84,3.17,2.25S104.89,401.21,103.14,401.21Zm-1.85-7V393h3.85v1.19Zm1.85,3.64c-.93,0-1.73.45-1.73,1.1s.8,1.09,1.73,1.09,1.75-.43,1.75-1.09S104.12,397.86,103.14,397.86Zm2.6-8.54v3h-1.46v-8h1.46v3.84h2.55v1.22Z"/><path class="cls-2" d="M109.42,394.13v-1.22h15.13v1.22Zm2,6.5V395.7h1.46v3.72h10.07v1.21Zm.06-9.81V385h1.46v4.64h9.93v1.21Z"/><path class="cls-2" d="M140.17,388.57c0,2.27-1.95,3.74-4.34,3.74s-4.36-1.46-4.36-3.74,1.95-3.8,4.36-3.8S140.17,386.3,140.17,388.57Zm-7.28,0c0,1.49,1.28,2.48,2.94,2.48s2.92-1,2.92-2.46-1.17-2.52-2.92-2.52A2.66,2.66,0,0,0,132.89,388.55Zm1,12.22v-4.23h9.38V394.8h-9.44v-1.19h10.9v4.05h-9.39v1.93h10v1.18Zm9.38-8v-8.47h1.46v8.47Z"/><path class="cls-2" d="M148,385.65h9.06v1.23h-3.76c0,.34,0,.71,0,.91.13,2.27,2.27,4.09,4.32,4.7l-.86,1.17a8.26,8.26,0,0,1-4.23-3.76,8.45,8.45,0,0,1-4.27,4.36l-.79-1.17c2.11-.81,4.23-2.94,4.32-5.32,0-.18,0-.57,0-.89H148ZM155.77,401c-3.58,0-5.6-1.23-5.6-3.19s2-3.2,5.6-3.2,5.62,1.22,5.62,3.2S159.38,401,155.77,401Zm-4.12-3.19c0,1.24,1.55,2,4.12,2s4.15-.72,4.15-2-1.54-2-4.15-2S151.65,396.56,151.65,397.82Zm4.79-8V388.6h3.37v-4.34h1.46v10.39h-1.46v-4.82Z"/><path class="cls-2" d="M164.07,388.6v-1.2h9.81v1.2Zm4.91,6.77c-2.23,0-3.94-1.17-3.94-2.93s1.69-2.94,3.94-2.94,4,1.14,4,2.94S171.24,395.37,169,395.37Zm0-4.71c-1.35,0-2.55.66-2.55,1.78s1.2,1.76,2.55,1.76,2.56-.66,2.56-1.76S170.34,390.66,169,390.66Zm-2.52-4.52v-1.28h4.83v1.28Zm.06,14.33v-4.3H168v3.07h9.68v1.23Zm10.5-9.31v5.46h-1.46V384.26H177v5.68h2.55v1.22Z"/><path class="cls-2" d="M186.37,393v-7.28h8V393Zm12.93,8c-2.2-.43-5-2.21-5.65-3.76-.65,1.64-3.17,3.3-5.66,3.78l-.7-1.19c2.7-.34,5.62-2.34,5.62-4.7v-.64h1.53v.64c0,2.36,3.13,4.31,5.6,4.67Zm-6.41-14.11h-5.06v4.86h5.06Zm5.73,3.22v5.13h-1.46v-11h1.46v4.67h2.55v1.22Z"/><path class="cls-2" d="M212.87,396.76c-1.62.22-4.09.4-5.71.49s-3.54.12-4.95.12l-.21-1.28c.91,0,2.41,0,3.67,0V390.8h1.46V396a54.09,54.09,0,0,0,5.61-.49ZM211.59,386a40,40,0,0,1-.59,7.67l-1.39-.18a28.91,28.91,0,0,0,.52-6.27h-7.29V386Zm3.69,6.46V401h-1.46V384.26h1.46v7H218v1.24Z"/><path class="cls-2" d="M232.65,389.29a4.31,4.31,0,0,1-8.6,0,4.31,4.31,0,0,1,8.6,0Zm-7.15,0a2.69,2.69,0,0,0,2.85,2.79,2.79,2.79,0,1,0,0-5.57A2.69,2.69,0,0,0,225.5,389.29ZM231.9,401c-3.64,0-5.69-1.24-5.69-3.18s2-3.21,5.69-3.21,5.7,1.23,5.7,3.21S235.55,401,231.9,401Zm0-5.14c-2.61,0-4.18.72-4.18,2s1.57,1.94,4.18,1.94,4.21-.72,4.21-1.94S234.56,395.9,231.9,395.9Zm1.18-5.26h3v-2.92h-3v-1.24h3v-2.22h1.46v10.36h-1.46v-2.74h-3Z"/><path class="cls-2" d="M249.32,389.2a4.36,4.36,0,0,1-8.68,0,4.35,4.35,0,0,1,8.68,0Zm-7.26,0A2.76,2.76,0,0,0,245,392a2.82,2.82,0,1,0,0-5.64A2.79,2.79,0,0,0,242.06,389.2ZM247.92,401c-3.64,0-5.51-1.3-5.51-3.21s1.87-3.22,5.51-3.22,5.56,1.31,5.56,3.22S251.57,401,247.92,401Zm-4-3.21c0,1.21,1.5,2,4,2s4.06-.76,4.06-2-1.53-2-4.06-2S243.9,396.54,243.9,397.75Zm12-6.07h-2.55v2.67h-1.46V384.26h1.46v2.58h2.55v1.22h-2.55v2.4h2.55Z"/><path class="cls-2" d="M257,392.73V391.5h15.13v1.23Zm1.77,8.12v-4h10v-1.48H258.75v-1.17h11.51V398h-10v1.69H270.8v1.19Zm5.81-10.55c-3.6,0-5.83-1.07-5.83-2.9s2.23-2.9,5.83-2.9,5.85,1.06,5.85,2.9S268.24,390.3,264.6,390.3Zm-4.34-2.9c0,1,1.71,1.69,4.34,1.69s4.38-.65,4.38-1.69-1.73-1.71-4.38-1.71S260.26,386.35,260.26,387.4Z"/><path class="cls-2" d="M286.89,394.27v3.43h6.86v1.22H278.62V397.7h6.81v-3.43h-5v-8.85h1.46v3.08h8.53v-3.08h1.46v8.85Zm3.56-4.57h-8.53v3.37h8.53Z"/><path class="cls-2" d="M295.18,394.49v-1.22H302v-2.72h1.46v2.72h6.86v1.22Zm13.72-2.84c-2.79-.47-5.33-1.93-6.16-3.44-.66,1.53-3.15,3-6.1,3.44l-.67-1.23c2.79-.25,5.89-1.78,6-4h-5.46V385.2h12.39v1.22h-5.4c.14,2.24,3.54,3.77,6.05,4Zm-11.85,8.84v-4.72h1.46v3.49h10.25v1.23Z"/><path class="cls-2" d="M311.67,389.49v-1.21h9.88v1.21Zm5,8c-2.34,0-3.91-1.49-3.91-3.46s1.57-3.45,3.91-3.45,3.9,1.49,3.9,3.45S319,397.48,316.66,397.48Zm-2.49-10.82v-1.24h4.92v1.24Zm2.49,5.13a2.25,2.25,0,1,0,2.45,2.23A2.27,2.27,0,0,0,316.66,391.79Zm8,.76V401h-1.46V384.26h1.46v7.06h2.71v1.23Z"/><path class="cls-2" d="M328.91,396.76V385.94h7.6v10.82Zm6.14-9.62h-4.68v8.41h4.68Zm2.4,1h3.17v-3.91h1.46V401h-1.46v-6.95h-3.17v-1.21h3.17v-3.47h-3.17Z"/><path class="cls-2" d="M345.22,397.61H347l-1.4,3.74H344.5Z"/><path class="cls-2" d="M10.17,432a46.72,46.72,0,0,1-8.6.76h-1V421.92H2v9.56a42.4,42.4,0,0,0,8-.7Zm2.67-5.09h2.73v1.24H12.84V437H11.38V420.26h1.46Z"/><path class="cls-2" d="M19.17,427.3a43.58,43.58,0,0,0,7.08-.46l.16,1.15a46.08,46.08,0,0,1-7,.48l-2.32,0v-7.22h7.78v1.19H18.56v1.71h6.07v1.15H18.56v2Zm-.38,9.55v-4.11h9.15v-1.55H18.72V430H29.4v3.87H20.25v1.76H30v1.23ZM29.4,425.29v3.81H27.94v-8.84H29.4v3.82H32v1.21Z"/><path class="cls-2" d="M44,432.44a56.34,56.34,0,0,1-8.3.55H34v-6.44h6.36V423H33.93v-1.21h7.89v5.94H35.46v4h.42a50.87,50.87,0,0,0,8-.52Zm2.85-12.18V437H45.4V420.26Z"/><path class="cls-2" d="M49.66,434.7v-1.22H64.79v1.22Zm13.76-4.59c-2.81-.84-5.53-3.22-6.21-4.93-.6,1.71-3.26,4.09-6.18,4.91l-.77-1.26c2.73-.52,6.21-3.11,6.21-5.85v-1.33H58V423c0,2.74,3.67,5.33,6.25,5.91Z"/><path class="cls-2" d="M78.07,437v-6H71.26v-1.22H86.39V431H79.53v6ZM85,428.22c-2.73-.47-5.4-2.16-6.16-3.72-.68,1.56-3.27,3.29-6.14,3.76L72,427c2.73-.28,6-2,6-4.37H72.65v-1.21H85v1.21H79.6c.07,2.36,3.51,4,6.07,4.34Z"/><path class="cls-2" d="M87.82,434.7v-1.22H103v1.22Zm13.76-4.59c-2.81-.84-5.53-3.22-6.21-4.93-.6,1.71-3.26,4.09-6.18,4.91l-.77-1.26c2.73-.52,6.21-3.11,6.21-5.85v-1.33h1.51V423c0,2.74,3.67,5.33,6.25,5.91Z"/><path class="cls-2" d="M104.38,429.19v-1.13h15.13v1.13Zm1.75,7.51V433h10.14v-1.39H106.15v-1.08h11.57V434H107.59v1.53h10.66v1.15Zm.18-10v-3.46h9.87V422h-9.89v-1.14h11.34v3.5h-9.86v1.33H118v1.08Z"/><path class="cls-2" d="M134.26,426.17v2.32h6.85v1.23H126v-1.23h6.83v-2.32h-4.72v-5.53h1.46V425h9.72v1.21Zm4.9,5.42v5.53H137.7V432.8h-10v-1.21Z"/><path class="cls-2" d="M146.79,421.43c2.67,0,4.14,2.38,4.14,5.93s-1.47,5.9-4.14,5.9-4.14-2.35-4.14-5.92S144.14,421.43,146.79,421.43Zm0,1.26c-1.62,0-2.72,1.91-2.72,4.67s1.1,4.64,2.72,4.64,2.72-1.91,2.72-4.64S148.43,422.69,146.79,422.69Zm4.65,2.51V424h3.38v-3.73h1.46V437h-1.46v-6.43h-3.38v-1.2h3.38V425.2Z"/><path class="cls-2" d="M164.14,434.7v-1.22h15.13v1.22Zm1.91-4.89v-7.89h11.24v1.21h-9.78v5.47h9.94v1.21Z"/><path class="cls-2" d="M189.88,428.47a7.71,7.71,0,0,1-4.14-3.78,8,8,0,0,1-4.26,4.31l-.81-1.12c2.17-.86,4.3-2.86,4.3-5.55v-1.49h1.48v1.44c0,2.68,2.19,4.32,4.26,5.06Zm-6.37,8.34v-4.16h9.42v-1.73h-9.46v-1.19h10.92v4H185v1.87H195v1.19Zm9.42-8v-8.56h1.46v8.56Z"/><path class="cls-2" d="M206.64,432.22a15.88,15.88,0,0,1-3.91.38V422.35h3.51v1.21h-2.08v7.76a7.89,7.89,0,0,0,2.32-.29Zm4.79,0a16.11,16.11,0,0,1-4.3.49V422.35h3.74v1.21h-2.34v7.81a9.17,9.17,0,0,0,2.72-.37Zm3.92,4.83v-8.66h-2v7.81H212v-15.5h1.38v6.46h2v-6.86h1.41V437Z"/><path class="cls-2" d="M233.05,433.5a9.17,9.17,0,0,1-4.27-4.49,9.6,9.6,0,0,1-4.25,4.94l-.86-1.08a7.89,7.89,0,0,0,4.34-6.68v-.6h-3.89v-1.2h9.25v1.2H229.5v.58a7.11,7.11,0,0,0,4.39,6.21Zm-6.83-10.95v-1.24h5.06v1.24Zm6.25,6.28v-1.22h3.66v-7.35h1.46V437h-1.46v-8.18Z"/><path class="cls-2" d="M240.46,429.57v-1.22h15.13v1.22ZM248,427c-3.67,0-5.83-1.24-5.83-3.13s2.16-3.15,5.83-3.15,5.86,1.24,5.86,3.15S251.7,427,248,427Zm-5.69,9.79v-5.45h11.42v5.45Zm5.69-14.9c-2.68,0-4.41.73-4.41,2s1.73,2,4.41,2,4.43-.74,4.43-2S250.71,421.87,248,421.87Zm4.27,10.64h-8.5v3.06h8.5Z"/><path class="cls-2" d="M262.3,423.56h9v1.19h-3.69c.13,2,2.11,3.69,4,4.16l-.73,1.13a7.54,7.54,0,0,1-4-3.35,7.25,7.25,0,0,1-4.21,3.84l-.79-1.12c2.18-.65,4.12-2.59,4.23-4.66H262.3Zm12.62,7.72V437h-1.46v-4.52H264.1v-1.21Zm-10.45-10.53h4.69V422h-4.69Zm10.45,5.19v4.48h-1.44V420.26h1.44v4.45h2.55v1.23Z"/><path class="cls-2" d="M278.62,429.14v-1.21h15.13v1.21ZM292.34,427c-2.79-.47-5.33-1.95-6.16-3.48-.66,1.55-3.15,3-6.1,3.46l-.67-1.22c2.65-.26,5.55-1.63,6-3.64h-5.33v-1.21h12.23v1.21H287c.45,2,3.62,3.4,6,3.62Zm-11.7,9.77v-6.33h1.46v2h8.17v-2h1.46v6.33Zm9.63-3.18H282.1v2h8.17Z"/><path class="cls-2" d="M295.11,424.64v-1.21h8.48v1.21Zm4.28,5.87c-2.05,0-3.61-.94-3.61-2.58s1.56-2.59,3.61-2.59,3.62,1,3.62,2.59S301.45,430.51,299.39,430.51Zm3.14,5.24a3.94,3.94,0,0,1-2.13-2,5.93,5.93,0,0,1-3.35,3.28l-.81-1c1.88-.75,3.39-2.14,3.39-4.32v-.36h1.44v.24a3,3,0,0,0,2.25,3.15Zm-3.14-9.27c-1.26,0-2.21.59-2.21,1.45s.95,1.46,2.21,1.46,2.22-.61,2.22-1.46S300.65,426.48,299.39,426.48Zm-2.17-4.25V421h4.35v1.26ZM309.6,437a6.15,6.15,0,0,1-3-2.95,5.83,5.83,0,0,1-3.19,3.2l-.81-1.06c2-.85,3.26-2.21,3.26-4.39v-.51h1.44v.45a4.63,4.63,0,0,0,3.24,4.23l-.9,1Zm-1.74-6.12v-4.65h-2v4.4h-1.41V420.57h1.41V425h2v-4.74h1.44v10.61Z"/><path class="cls-2" d="M311.74,428.73V427.5h15.13v1.23Zm1.77,8.12v-4h10v-1.48h-10v-1.17H325V434H315v1.69h10.56v1.19Zm5.81-10.55c-3.6,0-5.83-1.07-5.83-2.9s2.23-2.9,5.83-2.9,5.85,1.06,5.85,2.9S323,426.3,319.32,426.3ZM315,423.4c0,1,1.71,1.69,4.34,1.69s4.38-.65,4.38-1.69-1.73-1.71-4.38-1.71S315,422.35,315,423.4Z"/><path class="cls-2" d="M337.68,432.22a15.88,15.88,0,0,1-3.91.38V422.35h3.51v1.21H335.2v7.76a7.89,7.89,0,0,0,2.32-.29Zm4.79,0a16.11,16.11,0,0,1-4.3.49V422.35h3.74v1.21h-2.34v7.81a9.17,9.17,0,0,0,2.72-.37ZM346.4,437v-8.66h-2v7.81h-1.38v-15.5h1.38v6.46h2v-6.86h1.4V437Z"/><path class="cls-2" d="M361.23,432.74c-1.44.18-3.84.33-6,.43-2,.09-3.8.15-5.08.17l-.25-1.28c1.42,0,3.4,0,5.44-.13,2.32-.09,4.5-.22,5.72-.38Zm-6-3.31c-2.46,0-4.35-1.64-4.35-3.89a4.07,4.07,0,0,1,4.35-4c2.47,0,4.36,1.53,4.36,4S357.63,429.43,355.21,429.43Zm0-6.63a2.83,2.83,0,0,0-2.95,2.74,3,3,0,1,0,2.95-2.74Zm8.45-2.54V437H362.2V420.26Z"/><path class="cls-2" d="M9.27,465.79a8.1,8.1,0,0,1-4.12-4.11,8.69,8.69,0,0,1-4.27,4.65L0,465.19c2.21-1,4.38-3.43,4.38-6.12v-1.85H5.85V459a6.29,6.29,0,0,0,4.25,5.58Zm-6.41,6.7v-5.15H4.32v3.94H14v1.21Zm9.35-4.07V456.26h1.46v12.16Z"/><path class="cls-2" d="M25.51,465.93a8.17,8.17,0,0,1-4.09-4.08,8.29,8.29,0,0,1-4.12,4.55l-.9-1.13a6.92,6.92,0,0,0,4.25-6v-2.09h1.47v2a6.22,6.22,0,0,0,4.22,5.53Zm-6.05,6.56v-5.12h1.46v3.91h9.67v1.21Zm9.31-4.07v-6.7H25.2V460.5h3.57v-4.24h1.46v12.16Z"/><path class="cls-2" d="M33,460.6v-1.2h9.81v1.2ZM38,467.37c-2.24,0-4-1.17-4-2.93s1.69-2.94,4-2.94,3.94,1.14,3.94,2.94S40.2,467.37,38,467.37Zm0-4.71c-1.35,0-2.56.66-2.56,1.78S36.6,466.2,38,466.2s2.55-.66,2.55-1.76S39.3,462.66,38,462.66Zm-2.53-4.52v-1.28h4.83v1.28Zm.06,14.33v-4.3h1.46v3.07h9.68v1.23ZM46,463.16v5.46H44.52V456.26H46v5.68h2.55v1.22Z"/><path class="cls-2" d="M55.33,465v-7.28h8V465Zm12.93,8c-2.2-.43-5-2.21-5.65-3.76-.65,1.64-3.17,3.3-5.66,3.78l-.7-1.19c2.7-.34,5.62-2.34,5.62-4.7v-.64H63.4v.64c0,2.36,3.13,4.31,5.6,4.67Zm-6.41-14.11H56.79v4.86h5.06Zm5.73,3.22v5.13H66.12v-11h1.46v4.67h2.55v1.22Z"/><path class="cls-2" d="M81.83,468.76c-1.62.22-4.09.4-5.71.49s-3.54.12-5,.12L71,468.09c.91,0,2.41,0,3.67,0V462.8h1.46V468a54.09,54.09,0,0,0,5.61-.49ZM80.55,458A40,40,0,0,1,80,465.7l-1.39-.18a28.91,28.91,0,0,0,.52-6.27H71.8V458Zm3.69,6.46V473H82.79V456.26h1.45v7H87v1.24Z"/><path class="cls-2" d="M101.61,461.29a4.31,4.31,0,0,1-8.6,0,4.31,4.31,0,0,1,8.6,0Zm-7.15,0a2.69,2.69,0,0,0,2.85,2.79,2.79,2.79,0,1,0,0-5.57A2.69,2.69,0,0,0,94.46,461.29Zm6.4,11.75c-3.64,0-5.69-1.24-5.69-3.18s2-3.21,5.69-3.21,5.7,1.23,5.7,3.21S104.51,473,100.86,473Zm0-5.14c-2.61,0-4.18.72-4.18,2s1.57,1.94,4.18,1.94,4.21-.72,4.21-1.94S103.52,467.9,100.86,467.9Zm1.18-5.26h3v-2.92h-3v-1.24h3v-2.22h1.46v10.36h-1.46v-2.74h-3Z"/><path class="cls-2" d="M118.28,461.2a4.36,4.36,0,0,1-8.68,0,4.35,4.35,0,0,1,8.68,0Zm-7.26,0a2.76,2.76,0,0,0,2.92,2.81,2.82,2.82,0,1,0,0-5.64A2.79,2.79,0,0,0,111,461.2ZM116.88,473c-3.64,0-5.51-1.3-5.51-3.21s1.87-3.22,5.51-3.22,5.56,1.31,5.56,3.22S120.53,473,116.88,473Zm-4-3.21c0,1.21,1.5,2,4,2s4.07-.76,4.07-2-1.53-2-4.07-2S112.86,468.54,112.86,469.75Zm12-6.07H122.3v2.67h-1.46V456.26h1.46v2.58h2.55v1.22H122.3v2.4h2.55Z"/><path class="cls-2" d="M126,464.73V463.5h15.13v1.23Zm1.77,8.12v-4h10v-1.48h-10v-1.17h11.51V470h-10v1.69h10.56v1.19Zm5.81-10.55c-3.6,0-5.83-1.07-5.83-2.9s2.23-2.9,5.83-2.9,5.85,1.06,5.85,2.9S137.2,462.3,133.56,462.3Zm-4.34-2.9c0,1,1.71,1.69,4.34,1.69s4.38-.65,4.38-1.69-1.73-1.71-4.38-1.71S129.22,458.35,129.22,459.4Z"/><path class="cls-2" d="M147.58,470.52V469.3h15.13v1.22Zm13-12.38a52.89,52.89,0,0,1-.76,9.9l-1.46-.2a46.57,46.57,0,0,0,.72-8.5h-9.88v-1.2Z"/><path class="cls-2" d="M166.63,467.43a32,32,0,0,0,5.6-.42l.14,1.19a41.05,41.05,0,0,1-6.59.49h-1.12V458.32h6.5v1.22h-5v7.89ZM176.84,473v-8.93h-2.26v8.06h-1.4V456.66h1.4v6.19h2.26v-6.59h1.42V473Z"/><path class="cls-2" d="M180.7,470.87v-1.23h6.81V466.8h-4.94v-5.24h9.93v-2.68h-9.94v-1.23H194v5.11H184v2.81h10.39v1.23H189v2.84h6.86v1.23Z"/><path class="cls-2" d="M202.93,465v-7.28h8V465Zm12.93,8c-2.2-.43-5-2.21-5.65-3.76-.65,1.64-3.17,3.3-5.66,3.78l-.7-1.19c2.7-.34,5.62-2.34,5.62-4.7v-.64H211v.64c0,2.36,3.13,4.31,5.6,4.67Zm-6.41-14.11h-5.06v4.86h5.06Zm5.73,3.22v5.13h-1.46v-11h1.46v4.67h2.55v1.22Z"/><path class="cls-2" d="M227.13,466.27v3.43H234v1.22H218.86V469.7h6.81v-3.43h-5v-8.85h1.46v3.08h8.53v-3.08h1.46v8.85Zm3.56-4.57h-8.53v3.37h8.53Z"/><path class="cls-2" d="M244.6,464.47a7.71,7.71,0,0,1-4.14-3.78A8,8,0,0,1,236.2,465l-.81-1.12c2.17-.86,4.3-2.86,4.3-5.55v-1.49h1.48v1.44c0,2.68,2.19,4.32,4.26,5.06Zm-6.37,8.34v-4.16h9.42v-1.73h-9.46v-1.19h10.92v4h-9.42v1.87h10.05v1.19Zm9.42-8v-8.56h1.46v8.56Z"/><path class="cls-2" d="M263.83,473v-6.09H257v-1.22h15.13v1.22h-6.86V473Zm7-9.1c-2.5-.5-5.24-2.08-6.25-4-.81,2-3.67,3.58-6.21,4.09l-.7-1.26c3.2-.42,6.16-2.54,6.16-4.83v-1.06h1.53v1.06c0,2.29,3.22,4.43,6.17,4.79Z"/><path class="cls-2" d="M287.71,461.21a4.35,4.35,0,0,1-8.67,0,4.35,4.35,0,0,1,8.67,0Zm-1.9,10.52a5,5,0,0,1-2.13-2.21,7,7,0,0,1-3.31,3.56l-.88-1a5.51,5.51,0,0,0,3.4-4.61v-.83h1.44v.7a3.68,3.68,0,0,0,2.48,3.44Zm-5.35-10.52a2.93,2.93,0,1,0,2.91-2.82A2.78,2.78,0,0,0,280.46,461.21ZM293,473a6.87,6.87,0,0,1-3.06-3.22,6.93,6.93,0,0,1-3.17,3.44l-.92-1a5.65,5.65,0,0,0,3.35-4.74v-1h1.44v1a5.17,5.17,0,0,0,3.26,4.5l-.88,1ZM290.85,466v-9.73h1.46V466Z"/><path class="cls-2" d="M299.63,457.43c2.54,0,4,2.09,4.19,5.26h3.59v-6.43h1.46V473h-1.46v-9.08h-3.59c-.14,3.23-1.63,5.33-4.19,5.33s-4.23-2.35-4.23-5.92S296.93,457.43,299.63,457.43Zm0,1.26c-1.66,0-2.77,1.91-2.77,4.67S298,468,299.63,468s2.77-1.91,2.77-4.64S301.29,458.69,299.63,458.69Z"/><path class="cls-2" d="M311.74,470.87v-1.23h3.75v-3.33l1.45,0v3.37h4.67v-3.37l1.46,0v3.33h3.8v1.23Zm7.55-5.08c-3.62,0-6-1.66-6-4.18s2.42-4.21,6-4.21,6,1.69,6,4.21S322.92,465.79,319.29,465.79Zm0-7.22c-2.8,0-4.63,1.22-4.63,3s1.83,3,4.63,3,4.64-1.22,4.64-3S322.09,458.57,319.29,458.57Z"/></g></g></svg>