<svg xmlns="http://www.w3.org/2000/svg" viewBox="0 0 397.03 508.84"><defs><style>.cls-1{fill:#ed7524;}.cls-2{fill:#455c2a;}</style></defs><g id="레이어_2" data-name="레이어 2"><g id="레이어_1-2" data-name="레이어 1"><path class="cls-1" d="M21.92,55.88H7.84V4.66h11V53.72h4.09c8,0,19.73-1,29.81-5.17l.92,2.17C44.24,54.63,32.49,55.88,21.92,55.88ZM57.31,73.29V0H68.14V30.81l11.32-.25v2.5L68.14,32.9V73.29Z"/><path class="cls-1" d="M127.6,2.08v2H101v12h25.81v2H101V32.81h7.49c8.25,0,17.74,0,27.07-4.33l.91,2c-7.74,3.75-18.9,4.33-28.23,4.33H90.12V2.08Zm11.9,53.8V44.81H97.7v-2H151V57.88H109.19V70.79h43.06v2H97.7V55.88ZM151,0V17l11-.25v2.5l-11-.17V36.89H140.17V0Z"/><path class="cls-1" d="M209.62,5.16v26H182.14V55.47h4.5c9.82,0,21.32-.59,31.31-5l1,2.16c-8.66,4.17-21.9,4.92-33.31,4.92H171.15V29h27.48V7.25H171.31V5.16Zm13.49,68.13V0h10.83V73.29Z"/><path class="cls-1" d="M323,62.21v2.08H246.51V62.21ZM290.48,11.08a25.68,25.68,0,0,1-3.33,12.41c12,4.24,23.9,11.74,28.48,17.65l-6.08,5.66c-6.49-8.41-15.57-16.73-23.81-21.07-6.67,9.91-19.49,17.08-32.07,20.16l-1.16-2C268.33,38.48,279,24.15,279,12.58v-8h11.49Z"/><path class="cls-1" d="M35,159.57H2.51v-2H79v2H46.49v26.74H35Zm33.4-44.39v2.17H46.49v2.5a21.89,21.89,0,0,1-2.25,9.66c10.49,3.75,20.73,9.58,26.9,15.82l-5.92,5.25c-5.91-7.25-14-14.66-22.15-19.07-5.33,8.74-16.82,15.49-33,17.74L9,147.41c17.49-3.83,26-15.74,26-26.23v-3.83H13v-2.17Z"/><path class="cls-1" d="M161.41,175.23v2.08H85v-2.08Zm-32.48-51.14a25.62,25.62,0,0,1-3.33,12.41c12,4.25,23.9,11.75,28.48,17.66L148,159.82c-6.5-8.41-15.57-16.74-23.82-21.07-6.66,9.91-19.49,17.08-32.06,20.16l-1.17-2c15.83-5.41,26.49-19.74,26.49-31.32v-8h11.49Z"/><path class="cls-1" d="M185.3,172.9H168.81v-2.08h16.91c9.74,0,28.9-.42,38.06-3.67l.83,2C215.37,172.65,195,172.9,185.3,172.9Zm34.57-37.4c0,10.92-9.5,18-23.57,18s-23.57-7.07-23.57-18,9.49-18,23.57-18S219.87,124.59,219.87,135.5Zm-10.83,0c0-9.24-5.25-15.9-12.74-15.9s-12.75,6.66-12.75,15.9,5.25,15.91,12.75,15.91S209,144.75,209,135.5Zm19,50.81V113h10.82v73.29Z"/><path class="cls-1" d="M50.82,236.61v2H34.33v2.08A17.19,17.19,0,0,1,32,249.27c6.83,2.75,16,8.83,20.16,14.16l-5.83,4.41c-3.83-6.08-10.58-13.24-15.41-16.65C25.33,259.52,14,265.6,4.34,267.84l-1.08-1.66c12.83-4.33,19.91-15,19.91-23.57v-4H6.68v-2Zm-7.5-9.74V229H14.17v-2.08Zm15.57,50.55H14.34v-2.16H69.72v24.07H58.89ZM69.72,226v21.4l11-.25v2.5l-11-.17v20.07H58.89V226Z"/><path class="cls-1" d="M160.58,263.1v2H84.12v-2Zm-10.91-34.81v2H128.1v3.34a13.82,13.82,0,0,1-2.34,7.66c9.41,2,20.91,6.41,27.24,10.66l-5.67,5.24c-5.91-5.16-15.24-11.16-23.07-14.07-5.66,6.33-17.32,10.41-32.89,12.41l-1-1.75c14.57-2.17,26.23-9.66,26.23-19v-4.5H95v-2ZM139.5,281.75v-9.24h10.83v26h-56v-26h10.82v9.24Zm-34.31,2.17v12.57H139.5V283.92Z"/><path class="cls-1" d="M194.13,230.7H205v22.07h19.57V230.7h10.82v52.88H194.13Zm30.4,50.8V254.94H205V281.5ZM247,299.33V226h10.83v73.29Z"/><path class="cls-1" d="M275.49,228.12H316.3v31.06H275.49Zm52.22,53.38V270H285.9v-2h53.3V283.5H297.39v13.33h43.06v2H285.9V281.5Zm-22.24-24.32V230.12H286.32v27.06ZM339.2,226V262.1H328.38V226Z"/><path class="cls-2" d="M.47,351.14h9v1.19H5.76c.13,2,2.11,3.69,4,4.16L9,357.62a7.5,7.5,0,0,1-4-3.34,7.29,7.29,0,0,1-4.22,3.83L0,357c2.18-.64,4.12-2.59,4.23-4.66H.47Zm12.62,7.73v5.72H11.63v-4.52H2.27v-1.2ZM2.65,348.33H7.33v1.26H2.65Zm10.44,5.19V358H11.65V347.85h1.44v4.44h2.56v1.23Z"/><path class="cls-2" d="M16.79,356.72v-1.2H31.92v1.2Zm13.72-2.14c-2.79-.47-5.33-1.94-6.15-3.47-.67,1.55-3.15,3-6.11,3.45l-.66-1.22c2.64-.25,5.54-1.62,6-3.64H18.23v-1.2H30.46v1.2H25.18c.45,2,3.62,3.41,6,3.62Zm-11.7,9.78V358h1.46v2h8.17v-2H29.9v6.34Zm9.63-3.19H20.27v2h8.17Z"/><path class="cls-2" d="M45.2,364.61v-6.08H38.39V357.3H53.52v1.23H46.66v6.08Zm7-9.09c-2.5-.51-5.24-2.09-6.24-4-.81,1.95-3.68,3.59-6.22,4.09l-.7-1.26c3.21-.41,6.16-2.54,6.16-4.82v-1.07h1.53v1.07c0,2.28,3.22,4.43,6.18,4.79Z"/><path class="cls-2" d="M56.86,364.43v-3.8h9.8v-1.31H56.79v-1.23h2.3v-1.91H55V355H70.08v1.2H65.85v1.91h2.27v3.69h-9.8v1.43H68.76v1.22Zm5.67-10.51c-3.53,0-5.72-1.09-5.72-2.92s2.19-2.92,5.72-2.92,5.75,1.08,5.75,2.92S66.1,353.92,62.53,353.92ZM58.3,351c0,1.06,1.66,1.75,4.23,1.75s4.27-.69,4.27-1.75-1.67-1.77-4.27-1.77S58.3,349.94,58.3,351Zm2.25,7.09h3.84v-1.91H60.55Z"/><path class="cls-2" d="M71.51,356.31v-1.22H86.64v1.22Zm1.77,8.12v-4h10V359H73.24V357.8H84.75v3.75h-10v1.69H85.29v1.19Zm5.81-10.55c-3.6,0-5.83-1.06-5.83-2.9s2.23-2.9,5.83-2.9S85,349.14,85,351,82.73,353.88,79.09,353.88ZM74.75,351c0,1,1.72,1.69,4.34,1.69s4.38-.64,4.38-1.69-1.73-1.71-4.38-1.71S74.75,349.94,74.75,351Z"/><path class="cls-2" d="M95.9,351.12l-2.37.56v-.88l3-1.42h.79v13.14H95.9Z"/><path class="cls-2" d="M101,356.53v-1.08c0-4.54,2.2-6.07,4.72-6.07s4.59,1.53,4.59,6v1.17c0,4.34-2,6.13-4.61,6.13S101,360.87,101,356.53Zm7.75.23v-1.4c0-3.24-1-4.72-3-4.72s-3.1,1.4-3.1,4.61v1.42c0,3.21,1.08,4.74,3.08,4.74S108.78,360.07,108.78,356.76Z"/><path class="cls-2" d="M113.09,356.53v-1.08c0-4.54,2.2-6.07,4.72-6.07s4.59,1.53,4.59,6v1.17c0,4.34-2,6.13-4.61,6.13S113.09,360.87,113.09,356.53Zm7.75.23v-1.4c0-3.24-1-4.72-3-4.72s-3.1,1.4-3.1,4.61v1.42c0,3.21,1.08,4.74,3.08,4.74S120.84,360.07,120.84,356.76Z"/><path class="cls-2" d="M124.65,353.09v-.31c0-2,1.13-3.4,2.95-3.4s3,1.26,3,3.29V353c0,2-1.14,3.42-3,3.42S124.65,355.16,124.65,353.09Zm4.59,0v-.44c0-1.56-.61-2.32-1.64-2.32s-1.64.74-1.64,2.31v.43c0,1.64.62,2.36,1.64,2.36S129.24,354.73,129.24,353.11Zm6.21-3.89h1.28l-8.89,13.95h-1.28Zm-2.57,10.06V359c0-2,1.17-3.44,3-3.44s2.93,1.28,2.93,3.3v.31c0,2-1.11,3.43-2.93,3.43S132.88,361.33,132.88,359.28Zm4.59,0v-.45c0-1.55-.59-2.31-1.6-2.31s-1.66.74-1.66,2.29v.45c0,1.62.59,2.34,1.66,2.34S137.47,360.9,137.47,359.3Z"/><path class="cls-2" d="M140.36,356.78v-1.14h15.13v1.14Zm1.75,7.51v-3.73h10.14v-1.39H142.13v-1.08h11.58v3.51H143.57v1.53h10.66v1.16Zm.18-10v-3.46h9.87v-1.31h-9.89v-1.13h11.35v3.49h-9.87v1.33h10.19v1.08Z"/><path class="cls-2" d="M166.59,364.09v-5.75c-1.57.08-3.06.09-4.54.11l-.23-1.29c2,0,3.82,0,5.67-.06,2.09-.07,4.21-.2,5.83-.38l.08,1.14c-1.28.18-3.44.31-5.35.41v5.82Zm.79-8.27c-2.59,0-4.39-1.45-4.39-3.54s1.8-3.6,4.39-3.6,4.4,1.45,4.4,3.6S170,355.82,167.38,355.82Zm0-5.92c-1.67,0-3,.85-3,2.38s1.32,2.32,3,2.32,3-.85,3-2.32S169.06,349.9,167.38,349.9Zm7,14.69V347.85h1.46v16.74Z"/><path class="cls-2" d="M178.49,353.12v-1.2h8.33v1.2Zm4.37,7.66a3.39,3.39,0,0,1-3.65-3.34,3.67,3.67,0,0,1,7.31,0C186.52,359.46,185,360.78,182.86,360.78Zm-2.41-10.39v-1.26H185v1.26Zm2.41,4.93a2.13,2.13,0,1,0,2.25,2.12A2.08,2.08,0,0,0,182.86,355.32Zm8.36,9.27v-8.68h-2v7.84h-1.42V348.24h1.42v6.45h2v-6.84h1.44v16.74Z"/><path class="cls-2" d="M200.41,351.81v-1.19h10v1.19Zm5,6.27c-2.25,0-4-1.09-4-2.76s1.69-2.77,4-2.77,4,1,4,2.77S207.61,358.08,205.36,358.08Zm0-4.4c-1.31,0-2.54.6-2.54,1.64s1.25,1.62,2.54,1.62,2.52-.61,2.52-1.62S206.69,353.68,205.36,353.68Zm-2.48,10.73v-5.33h11v5.33Zm.16-15v-1.22h4.81v1.22Zm9.33,10.86h-8v2.92h8Zm0-2.12V347.85h1.46v10.32Z"/><path class="cls-2" d="M216.68,356.31v-1.22h15.13v1.22Zm1.77,8.12v-4h10V359H218.41V357.8h11.51v3.75h-10v1.69h10.55v1.19Zm5.81-10.55c-3.6,0-5.83-1.06-5.83-2.9s2.23-2.9,5.83-2.9,5.86,1.06,5.86,2.9S227.9,353.88,224.26,353.88Zm-4.34-2.9c0,1,1.71,1.69,4.34,1.69s4.38-.64,4.38-1.69-1.73-1.71-4.38-1.71S219.92,349.94,219.92,351Z"/><path class="cls-2" d="M248.85,360.34c-1.62.22-4.08.4-5.71.49s-3.54.13-4.95.13l-.21-1.28c.92,0,2.41,0,3.67,0v-5.28h1.46v5.24c2-.09,4.12-.25,5.62-.48Zm-1.28-10.73a40,40,0,0,1-.59,7.67l-1.39-.18a29.44,29.44,0,0,0,.53-6.26h-7.3v-1.23Zm3.7,6.47v8.51h-1.46V347.85h1.46v7H254v1.25Z"/><path class="cls-2" d="M254.84,362.45v-1.22h6.81v-4.09h-5v-7.89h11.49v1.21h-10v5.47h10.12v1.21h-5.15v4.09H270v1.22Z"/><path class="cls-2" d="M271.33,353.07v-1.21h9.89v1.21Zm5,8c-2.34,0-3.91-1.49-3.91-3.45s1.57-3.46,3.91-3.46,3.91,1.49,3.91,3.46S278.66,361.06,276.32,361.06Zm-2.49-10.82V349h4.92v1.24Zm2.49,5.13a2.25,2.25,0,1,0,2.45,2.24A2.27,2.27,0,0,0,276.32,355.37Zm8,.76v8.46h-1.46V347.85h1.46v7.06H287v1.22Z"/><path class="cls-2" d="M295,349.79A13,13,0,0,1,288.79,361l-1-1.08a11.09,11.09,0,0,0,5.74-8.91h-5.09v-1.23Zm2.39,14v-8.16h-2.81v-1.22h2.81v-6.13h1.41v15.51Zm3.23.84V347.85h1.44v16.74Z"/><path class="cls-2" d="M318.48,360.51a11.43,11.43,0,0,1-4.27-5.21,10.83,10.83,0,0,1-4.2,5.58l-.93-1.11a9.35,9.35,0,0,0,4.39-7.48v-3H315v2.92a8.74,8.74,0,0,0,4.43,7.15Zm4-4.69v8.77H321V347.85h1.46v6.75h2.7v1.22Z"/><path class="cls-2" d="M337.34,353.93v2.38h3.91v1.21H326.12v-1.21H330v-2.39a2.84,2.84,0,0,1-2.13-2.56c0-1.91,2.16-3.15,5.84-3.15s5.85,1.24,5.85,3.15C339.54,352.49,338.74,353.39,337.34,353.93Zm-3.62,10.55c-3.69,0-5.92-1-5.92-3s2.23-2.95,5.9-2.95,5.95,1,5.95,2.95S337.39,364.48,333.72,364.48Zm-4.46-3c0,1.1,1.78,1.69,4.44,1.69s4.49-.59,4.49-1.69-1.79-1.69-4.49-1.69S329.26,360.43,329.26,361.53Zm4.43-12.15c-2.69,0-4.42.74-4.42,2s1.73,2,4.42,2,4.42-.74,4.42-2S336.37,349.38,333.69,349.38Zm-2.26,4.93v2h4.45v-2a13.31,13.31,0,0,1-2.19.16A12,12,0,0,1,331.43,354.31Z"/><path class="cls-2" d="M342.61,353.07v-1.21h9.89v1.21Zm5,8c-2.34,0-3.91-1.49-3.91-3.45s1.57-3.46,3.91-3.46,3.91,1.49,3.91,3.46S349.94,361.06,347.6,361.06Zm-2.49-10.82V349H350v1.24Zm2.49,5.13a2.25,2.25,0,1,0,2.45,2.24A2.27,2.27,0,0,0,347.6,355.37Zm8,.76v8.46H354.1V347.85h1.46v7.06h2.72v1.22Z"/><path class="cls-2" d="M360,357.16v-7.82h7.63v7.82Zm6.18-6.61h-4.72V356h4.72Zm-4,13.48V358.9h1.46v3.91h9.69V364ZM368.35,352v-1.21h3.12v-2.91h1.46V360h-1.46v-4.34h-3.12v-1.2h3.12V352Z"/><path class="cls-2" d="M9.34,389.29a4.15,4.15,0,0,1-4.42,4.19A4.15,4.15,0,0,1,.47,389.3a4.2,4.2,0,0,1,4.43-4.23A4.2,4.2,0,0,1,9.34,389.29Zm-7.41,0a2.89,2.89,0,0,0,3,2.95,2.83,2.83,0,0,0,3-2.94,2.86,2.86,0,0,0-3-3A2.89,2.89,0,0,0,1.93,389.29ZM2.61,400v-5.21H4.07v4h9.65V400Zm10.5-10v6H11.65V383.85h1.46v4.9h2.55V390Z"/><path class="cls-2" d="M16.79,392.35v-1.19H23.6v-2h1.46v2h6.86v1.19ZM30.46,390c-2.68-.4-5.29-1.53-6.1-3-.69,1.45-3.26,2.55-6.05,2.95l-.65-1.21c2.48-.23,5.2-1.13,5.83-2.88H18.27v-1.19H30.42v1.19H25.27c.71,1.71,3.61,2.68,5.86,2.9Zm-12.39,6.23v-1.17H30.69v1.17Zm6.3,4.35c-3.74,0-5-.75-5-1.92s1.26-1.93,5-1.93,5,.74,5,1.93S28.07,400.59,24.37,400.59Zm0-2.77c-2.25,0-3.42.27-3.42.85s1.17.84,3.42.84,3.43-.27,3.43-.84S26.55,397.82,24.37,397.82Zm-2.7-3.49v-1.21h5.41v1.21Z"/><path class="cls-2" d="M33.35,393.66v-1.22H48.48v1.22Zm7.57-2.74c-3.66,0-5.82-1.17-5.82-3.31s2.18-3.28,5.83-3.28,5.82,1.17,5.82,3.28S44.57,390.92,40.92,390.92Zm-5.57,9.19v-4.88h1.46v3.65h10v1.23Zm1.21-12.48c0,1.37,1.71,2.07,4.36,2.07s4.39-.7,4.39-2.07-1.73-2.09-4.38-2.09S36.56,386.24,36.56,387.63Z"/><path class="cls-2" d="M63.22,393.8v3.35h6.86v1.23H55v-1.23h6.81V393.8c-3.21-.23-5.29-1.89-5.29-4.37,0-2.65,2.41-4.39,6-4.39s6,1.74,6,4.39C68.55,391.91,66.44,393.59,63.22,393.8Zm-.72-7.54c-2.79,0-4.61,1.28-4.61,3.21s1.82,3.18,4.61,3.18,4.64-1.28,4.64-3.18S65.32,386.26,62.5,386.26Z"/><path class="cls-2" d="M80.66,388.15c0,2.27-1.94,3.75-4.34,3.75S72,390.44,72,388.15s2-3.8,4.36-3.8S80.66,385.88,80.66,388.15Zm-7.27,0c0,1.5,1.27,2.49,2.93,2.49s2.92-1,2.92-2.47-1.17-2.52-2.92-2.52A2.66,2.66,0,0,0,73.39,388.13Zm1,12.23v-4.23h9.38v-1.75H74.3v-1.19H85.2v4.05H75.82v1.93h10v1.19Zm9.38-8.05v-8.46H85.2v8.46Z"/><path class="cls-2" d="M99.4,396.33c-1.44.18-3.84.32-6,.43-2,.09-3.8.14-5.08.16l-.25-1.28c1.42,0,3.4,0,5.44-.12,2.32-.1,4.5-.22,5.72-.38Zm-6-3.32c-2.47,0-4.36-1.64-4.36-3.89a4.07,4.07,0,0,1,4.36-4c2.46,0,4.35,1.53,4.35,4S95.8,393,93.39,393Zm0-6.62a2.83,2.83,0,0,0-3,2.73,3,3,0,0,0,5.89,0A2.73,2.73,0,0,0,93.39,386.39Zm8.44-2.54v16.74h-1.46V383.85Z"/><path class="cls-2" d="M118.33,392.94a7.94,7.94,0,0,1-3.92-3.89,8.1,8.1,0,0,1-4,4.47l-.9-1.14a6.62,6.62,0,0,0,4.16-5.9V384.8h1.47v1.62a6.12,6.12,0,0,0,4.09,5.39Zm-.41,7.64c-3.58,0-5.6-1.23-5.6-3.17s2-3.17,5.6-3.17,5.62,1.22,5.62,3.17S121.52,400.58,117.92,400.58Zm-4.12-3.17c0,1.26,1.55,2,4.12,2s4.14-.72,4.14-2-1.53-2-4.14-2S113.8,396.16,113.8,397.41Zm4.5-8.5V387.7h3.6v-3.85h1.46v10.39H121.9v-5.33Z"/><path class="cls-2" d="M133,397.08v-3.22h-6.81v-1.21h15.13v1.21H134.5v3.22Zm-4.9-6.3v-6.39h1.46v2.05H138v-2.05h1.46v6.39Zm0,9.27v-4.53h1.46v3.33h10v1.2Zm9.81-12.4H129.6v1.91H138Z"/><path class="cls-2" d="M147.62,385.68a15.87,15.87,0,0,1-4.16,11.08l-1.19-.87a13.53,13.53,0,0,0,3.89-9h-3v-1.23Zm4.57,0c0,4.45-.92,8.52-3.92,12.1L147,397c2.76-2.77,3.71-7.49,3.71-10.06h-2.36v-1.23Zm3.73,5.14h2.56V392h-2.56v8.55h-1.44V383.85h1.44Z"/><path class="cls-2" d="M168.81,396.6c-1.57-1-3.69-3.12-4.27-5.1A10.52,10.52,0,0,1,160.2,397l-.9-1.08a9,9,0,0,0,4.46-7.45v-1.73h-3.9v-1.21h9.32v1.21h-3.9v1.71a8.44,8.44,0,0,0,4.43,7.08Zm4.28-12.75v16.74h-1.46V383.85Z"/><path class="cls-2" d="M181,398.45v-1.22h6.81v-4h-5v-7.89h11.45v7.89h-5v4h6.86v1.22Zm11.82-11.9h-8.54V392h8.54Z"/><path class="cls-2" d="M204.32,400.41v-5.56h-6.81v-1.23h15.13v1.23h-6.86v5.56Zm-4.9-9v-6.59h11.33v1.22h-9.87v4.16H211v1.21Z"/><path class="cls-2" d="M223.79,394.53a5.5,5.5,0,0,1-1.6-2.24,8.8,8.8,0,0,1-2.55,4.11l-1-.88a8.31,8.31,0,0,0,2.77-6.59v-2.15h-2.11v-1.2h4.79v1.2h-1.28v2.09c0,2.5.9,4,1.8,4.59Zm5.53,1.89a8,8,0,0,1-2.55-3.89,10.39,10.39,0,0,1-2.87,4.91l-1-.92a10.06,10.06,0,0,0,3.2-7.61v-2.13h-1.46v-1.2h4.94v1.2h-2.09v2.05c0,3,.86,5.15,2.75,6.61Zm2.92-4.6v8.77h-1.46V383.85h1.46v6.75h2.5v1.22Z"/><path class="cls-2" d="M243.78,395.61a32.26,32.26,0,0,1-6.09.55h-1.28V385.68h1.46v9.22a26.69,26.69,0,0,0,5.74-.52Zm4.59,5v-8.86h-2.22v8h-1.4V384.24h1.4v6.27h2.22v-6.66h1.42v16.74Z"/><path class="cls-2" d="M259.31,385.79A13,13,0,0,1,253.06,397l-1-1.08a11.07,11.07,0,0,0,5.74-8.91h-5.09v-1.23Zm2.39,14v-8.16h-2.8v-1.22h2.8v-6.13h1.41v15.51Zm3.23.84V383.85h1.44v16.74Z"/><path class="cls-2" d="M285.07,396.67c-1.33.16-3.44.32-5.47.43s-4.4.16-5.5.16l-.23-1.28c1.28,0,2.95,0,4.72-.07v-3.56h-3.48v-6.83h8.7v1.21h-7.24v4.41h7.29v1.21h-3.81v3.51c1.85-.07,3.81-.22,4.87-.36Zm1.17,3.92V383.85h1.44v16.74Z"/><path class="cls-2" d="M294.84,385c2.54,0,4,2.09,4.2,5.26h3.58v-6.43h1.46v16.74h-1.46v-9.07H299c-.15,3.22-1.64,5.33-4.2,5.33s-4.23-2.36-4.23-5.93S292.14,385,294.84,385Zm0,1.26c-1.66,0-2.77,1.91-2.77,4.66s1.11,4.65,2.77,4.65,2.77-1.91,2.77-4.65S296.5,386.28,294.84,386.28Z"/><path class="cls-2" d="M322.56,396.34c-1.62.22-4.08.4-5.71.49s-3.54.13-5,.13l-.21-1.28c.92,0,2.41,0,3.67,0v-5.28h1.46v5.24c2-.09,4.12-.25,5.62-.48Zm-1.28-10.73a40,40,0,0,1-.59,7.67l-1.39-.18a29.44,29.44,0,0,0,.53-6.26h-7.3v-1.23Zm3.7,6.47v8.51h-1.46V383.85H325v7h2.71v1.25Z"/><path class="cls-2" d="M337.7,388.15c0,2.27-1.94,3.75-4.34,3.75s-4.36-1.46-4.36-3.75,1.95-3.8,4.36-3.8S337.7,385.88,337.7,388.15Zm-7.27,0c0,1.5,1.27,2.49,2.93,2.49s2.92-1,2.92-2.47-1.17-2.52-2.92-2.52A2.66,2.66,0,0,0,330.43,388.13Zm1,12.23v-4.23h9.38v-1.75h-9.44v-1.19h10.9v4.05h-9.38v1.93h10v1.19Zm9.38-8.05v-8.46h1.46v8.46Z"/><path class="cls-2" d="M350.15,398.16v-1.22h5.78v-6.05h1.46v6.05h7.89v1.22Zm13.09-10.46a35.14,35.14,0,0,1-.66,7.27l-1.44-.23a31.17,31.17,0,0,0,.59-6.3v-1.62h-10v-1.23h11.52Z"/><path class="cls-2" d="M370.62,400.59v-5.94h-3.91v-1.22h15.13v1.22h-4v5.94h-1.46v-5.94h-4.34v5.94Zm3.65-8.71c-3.7,0-5.94-1.46-5.94-3.64s2.24-3.64,5.94-3.64,6,1.46,6,3.64S378,391.88,374.27,391.88Zm-4.5-3.64c0,1.42,1.71,2.34,4.5,2.34s4.52-.92,4.52-2.34-1.71-2.34-4.52-2.34S369.77,386.82,369.77,388.24Z"/><path class="cls-2" d="M394.6,396.33c-1.44.18-3.84.32-6,.43-2,.09-3.8.14-5.08.16l-.25-1.28c1.42,0,3.4,0,5.44-.12,2.32-.1,4.5-.22,5.72-.38Zm-6-3.32c-2.46,0-4.35-1.64-4.35-3.89a4.07,4.07,0,0,1,4.35-4c2.47,0,4.36,1.53,4.36,4S391,393,388.58,393Zm0-6.62a2.83,2.83,0,0,0-2.95,2.73,3,3,0,0,0,5.89,0A2.73,2.73,0,0,0,388.58,386.39Zm8.45-2.54v16.74h-1.46V383.85Z"/><path class="cls-2" d="M.86,428.58v-7.27h8v7.27Zm12.93,8.05c-2.19-.43-5-2.22-5.65-3.76-.65,1.63-3.17,3.29-5.66,3.78l-.7-1.19c2.7-.34,5.62-2.34,5.62-4.7v-.65H8.93v.65c0,2.36,3.13,4.3,5.6,4.66ZM7.38,422.51H2.32v4.86H7.38Zm5.73,3.23v5.13H11.65v-11h1.46v4.66h2.55v1.23Z"/><path class="cls-2" d="M16.79,428.31v-1.22H31.92v1.22Zm1.77,8.12v-4h10V431h-10V429.8H30v3.75H20v1.69H30.57v1.19Zm5.81-10.55c-3.6,0-5.83-1.06-5.83-2.9s2.23-2.9,5.83-2.9,5.86,1.06,5.86,2.9S28,425.88,24.37,425.88ZM20,423c0,1,1.72,1.69,4.34,1.69s4.38-.64,4.38-1.69-1.73-1.71-4.38-1.71S20,421.94,20,423Z"/><path class="cls-2" d="M38.36,425.12v-1.2h8.33v1.2Zm4.37,7.66a3.39,3.39,0,0,1-3.65-3.34,3.32,3.32,0,0,1,3.65-3.34,3.33,3.33,0,0,1,3.66,3.34C46.39,431.46,44.89,432.78,42.73,432.78Zm-2.41-10.39v-1.26h4.57v1.26Zm2.41,4.93A2.13,2.13,0,1,0,45,429.44,2.08,2.08,0,0,0,42.73,427.32Zm8.36,9.27v-8.68h-2v7.84H47.65V420.24h1.42v6.45h2v-6.84h1.44v16.74Z"/><path class="cls-2" d="M64.84,433.26a9.65,9.65,0,0,1-4.57-4.66,9.8,9.8,0,0,1-4.36,5L55,432.54a7.86,7.86,0,0,0,4.45-6.75v-.52H55.55v-1.21h9.32v1.21H61v.5a7.14,7.14,0,0,0,4.62,6.34Zm-7.13-11.09v-1.33h5.06v1.33Zm9.58,14.42V419.85h1.46v16.74Z"/><path class="cls-2" d="M71.51,434.16v-1.22h5.78v-6.05h1.46v6.05h7.89v1.22ZM84.6,423.7a35.14,35.14,0,0,1-.66,7.27l-1.44-.23a30.47,30.47,0,0,0,.59-6.3v-1.62h-10v-1.23H84.6Z"/><path class="cls-2" d="M93.11,429.75v-1.21h15.13v1.21Zm6.63-3.51a5.23,5.23,0,0,1-2.3-2.12,6,6,0,0,1-3,2.95L93.55,426a4.74,4.74,0,0,0,3.18-4.25v-1h1.41v1.1a3.52,3.52,0,0,0,2.45,3.33Zm-4.66,9.83V431.3h1.45v3.55h10v1.22ZM107,426.76a5.66,5.66,0,0,1-2.81-2.66,6,6,0,0,1-2.94,3l-.84-1a4.85,4.85,0,0,0,3.06-4.27V420.6h1.4v1.19a4.27,4.27,0,0,0,2.95,3.91Z"/><path class="cls-2" d="M110.3,428.58v-7.27h8v7.27Zm12.93,8.05c-2.19-.43-5-2.22-5.65-3.76-.65,1.63-3.17,3.29-5.66,3.78l-.7-1.19c2.7-.34,5.62-2.34,5.62-4.7v-.65h1.53v.65c0,2.36,3.13,4.3,5.6,4.66Zm-6.41-14.12h-5.06v4.86h5.06Zm5.73,3.23v5.13h-1.46v-11h1.46v4.66h2.55v1.23Z"/><path class="cls-2" d="M136.8,432.34c-1.62.22-4.08.4-5.71.49s-3.54.13-5,.13l-.21-1.28c.92,0,2.41,0,3.67,0v-5.28h1.46v5.24c2-.09,4.12-.25,5.62-.48Zm-1.28-10.73a40,40,0,0,1-.59,7.67l-1.39-.18a29.44,29.44,0,0,0,.53-6.26h-7.3v-1.23Zm3.7,6.47v8.51h-1.46V419.85h1.46v7h2.71v1.25Z"/><path class="cls-2" d="M148,421H157v1.23h-3.72c0,.23,0,.46,0,.68.12,2.18,2.17,4.09,4.08,4.72l-.81,1.17a7.88,7.88,0,0,1-4-3.78,8,8,0,0,1-4.18,4.17l-.82-1.13c2.1-.81,4.17-3,4.26-5.17,0-.2,0-.43,0-.66H148Zm2.16,15.41v-6.62h1.46v2.09h7.65v-2.11h1.44v6.64Zm9.11-3.34H151.6v2.14h7.65Zm1.44-7.87v3.71h-1.46v-9h1.46V424h2.56v1.23Z"/><path class="cls-2" d="M165,428.58v-7.27h8v7.27ZM178,436.63c-2.2-.43-5-2.22-5.65-3.76-.65,1.63-3.17,3.29-5.66,3.78l-.7-1.19c2.7-.34,5.62-2.34,5.62-4.7v-.65h1.53v.65c0,2.36,3.13,4.3,5.6,4.66Zm-6.41-14.12h-5.06v4.86h5.06Zm5.73,3.23v5.13h-1.46v-11h1.46v4.66h2.55v1.23Z"/><path class="cls-2" d="M185.83,421.11c2.78,0,4.32,2.37,4.32,5.92s-1.54,5.91-4.32,5.91-4.32-2.36-4.32-5.93S183.08,421.11,185.83,421.11Zm0,1.26c-1.76,0-2.93,1.91-2.93,4.66s1.17,4.65,2.93,4.65,2.94-1.91,2.94-4.65S187.62,422.37,185.83,422.37Zm7.44,14.22V419.85h1.46v16.74Z"/><path class="cls-2" d="M212.74,431.59a47.56,47.56,0,0,1-8.6.75h-1V421.5h1.46v9.57a42.3,42.3,0,0,0,8-.71Zm2.67-5.1h2.74v1.24h-2.74v8.86H214V419.85h1.46Z"/><path class="cls-2" d="M221.2,431.39a42.22,42.22,0,0,0,7.91-.58l.16,1.23a49.19,49.19,0,0,1-8.16.61h-1.37V421.4h8v1.2H221.2v3.55h6.2v1.19h-6.2Zm10.77-4.9h2.7v1.23H232v8.87h-1.44V419.85H232Z"/><path class="cls-2" d="M245.86,431.59a47.56,47.56,0,0,1-8.6.75h-1V421.5h1.46v9.57a42.3,42.3,0,0,0,8-.71Zm2.67-5.1h2.74v1.24h-2.74v8.86h-1.46V419.85h1.46Z"/><path class="cls-2" d="M259.31,421.79A13,13,0,0,1,253.06,433l-1-1.08a11.07,11.07,0,0,0,5.74-8.91h-5.09v-1.23Zm2.39,14v-8.16h-2.8v-1.22h2.8v-6.13h1.41v15.51Zm3.23.84V419.85h1.44v16.74Z"/><path class="cls-2" d="M278.86,428.22v3c1.17-.06,2.64-.18,3.67-.33l.13,1.17c-1.28.16-2.94.36-4.43.43-1.82.09-3.32.15-4.45.15l-.22-1.26c1.12,0,2.36,0,3.87-.09v-3.1h-3v-6.66h7.53v1.22h-6.09V427H282v1.22Zm7.85,8.37v-8.44h-2v7.6h-1.42V420.24h1.42v6.68h2v-7.07h1.42v16.74Z"/><path class="cls-2" d="M290.39,434.45v-1.22h3.75v-3.34l1.46,0v3.37h4.66v-3.37l1.46,0v3.34h3.8v1.22Zm7.55-5.08c-3.62,0-6-1.65-6-4.17s2.41-4.22,6-4.22,6.05,1.69,6.05,4.22S301.57,429.37,297.94,429.37Zm0-7.22c-2.79,0-4.63,1.23-4.63,3.05s1.84,3,4.63,3,4.64-1.23,4.64-3S300.75,422.15,297.94,422.15Z"/><path class="cls-2" d="M10.42,467.59a47.56,47.56,0,0,1-8.6.75h-1V457.5H2.25v9.57a42.3,42.3,0,0,0,8-.71Zm2.67-5.1h2.74v1.24H13.09v8.86H11.63V455.85h1.46Z"/><path class="cls-2" d="M19.42,462.89a42.39,42.39,0,0,0,7.08-.47l.16,1.15a45.92,45.92,0,0,1-7,.49l-2.32,0v-7.22h7.78V458H18.81v1.71h6.07v1.16H18.81v2ZM19,472.43v-4.1h9.15v-1.55H19v-1.21H29.65v3.87H20.5v1.77h9.78v1.22Zm10.61-11.56v3.82H28.19v-8.84h1.46v3.82h2.56v1.2Z"/><path class="cls-2" d="M44.27,468a56.3,56.3,0,0,1-8.31.56H34.25v-6.45h6.36V458.6H34.18v-1.2h7.89v5.94H35.71v4h.42a50.78,50.78,0,0,0,8-.52Zm2.84-12.17v16.74H45.65V455.85Z"/><path class="cls-2" d="M49.91,470.29v-1.23H65v1.23Zm13.76-4.59c-2.81-.85-5.53-3.23-6.21-4.94-.6,1.71-3.26,4.09-6.18,4.92l-.77-1.26c2.73-.52,6.21-3.12,6.21-5.85v-1.34h1.51v1.34c0,2.73,3.68,5.33,6.25,5.9Z"/><path class="cls-2" d="M78.32,472.59v-6H71.51v-1.23H86.64v1.23H79.78v6Zm6.91-8.78c-2.73-.47-5.4-2.16-6.15-3.73-.69,1.57-3.28,3.29-6.14,3.76l-.67-1.22c2.74-.29,6-2,6-4.38H72.9V457H85.23v1.2H79.85c.07,2.36,3.51,4.05,6.07,4.34Z"/><path class="cls-2" d="M88.07,470.29v-1.23H103.2v1.23Zm13.76-4.59c-2.81-.85-5.53-3.23-6.21-4.94-.6,1.71-3.26,4.09-6.18,4.92l-.77-1.26c2.73-.52,6.21-3.12,6.21-5.85v-1.34h1.51v1.34c0,2.73,3.68,5.33,6.25,5.9Z"/><path class="cls-2" d="M104.63,465.71v-1.22h15.13v1.22Zm2,6.5v-4.93h1.46V471h10.07v1.2Zm.06-9.81v-5.85h1.46v4.65h9.94v1.2Z"/><path class="cls-2" d="M137.65,469c-1.32.14-3.89.32-5.92.43-1.88.11-3.75.18-5.17.16l-.24-1.28c1.28,0,3,0,4.74-.07v-3.31h1.46v3.24c1.89-.09,3.94-.22,5-.36Zm-10.59-9.64h9.51v1.21H132.5v.07c0,1.86,2.23,3.49,4.43,3.91l-.61,1.15c-1.79-.41-3.89-1.75-4.56-3.2-.45,1.42-2.47,3.06-4.5,3.69l-.7-1.17c2.39-.62,4.44-2.43,4.44-4.4v-.05h-3.94Zm2.34-2.88h4.67v1.3H129.4Zm9.22,16.15V455.85h1.44v16.74Z"/><path class="cls-2" d="M151.4,464.72a8,8,0,0,1-3.92-3.9,8.21,8.21,0,0,1-4.18,4.46l-.81-1.13a6.65,6.65,0,0,0,4.19-5.89v-1.62h1.48v1.57a6.09,6.09,0,0,0,4.1,5.36Zm-1.13,7.86c-3.5,0-5.59-1.23-5.59-3.21s2.09-3.22,5.59-3.22,5.63,1.22,5.63,3.22S153.79,472.58,150.27,472.58Zm-4.09-3.21c0,1.28,1.57,2,4.09,2s4.14-.72,4.14-2-1.59-2-4.14-2S146.18,468.09,146.18,469.37Zm9.49-7.76v4.56h-1.46V455.85h1.46v4.53h2.55v1.23Z"/><path class="cls-2" d="M170.68,468.33c-1.44.18-3.84.32-6,.43-2,.09-3.8.14-5.08.16l-.25-1.28c1.42,0,3.4,0,5.44-.12,2.32-.1,4.5-.22,5.72-.38Zm-6-3.32c-2.47,0-4.36-1.64-4.36-3.89a4.07,4.07,0,0,1,4.36-4c2.46,0,4.35,1.53,4.35,4S167.08,465,164.67,465Zm0-6.62a2.83,2.83,0,0,0-3,2.73,3,3,0,0,0,5.89,0A2.73,2.73,0,0,0,164.67,458.39Zm8.44-2.54v16.74h-1.46V455.85Z"/><path class="cls-2" d="M181.58,464.58v-7.27h8v7.27Zm12.93,8.05c-2.2-.43-5-2.22-5.65-3.76-.65,1.63-3.17,3.29-5.66,3.78l-.7-1.19c2.7-.34,5.62-2.34,5.62-4.7v-.65h1.53v.65c0,2.36,3.13,4.3,5.6,4.66Zm-6.41-14.12H183v4.86h5.06Zm5.73,3.23v5.13h-1.46v-11h1.46v4.66h2.55v1.23Z"/><path class="cls-2" d="M197.51,464.31v-1.22h15.13v1.22Zm1.77,8.12v-4h10V467h-10V465.8h11.51v3.75h-10v1.69h10.55v1.19Zm5.81-10.55c-3.6,0-5.83-1.06-5.83-2.9s2.23-2.9,5.83-2.9S211,457.14,211,459,208.73,461.88,205.09,461.88Zm-4.34-2.9c0,1,1.72,1.69,4.34,1.69s4.38-.64,4.38-1.69-1.73-1.71-4.38-1.71S200.75,457.94,200.75,459Z"/><path class="cls-2" d="M223.74,472.09v-5.75c-1.57.08-3.06.09-4.54.11l-.23-1.29c2,0,3.82,0,5.67-.06,2.09-.07,4.21-.2,5.83-.38l.08,1.14c-1.28.18-3.44.31-5.35.41v5.82Zm.79-8.27c-2.59,0-4.39-1.45-4.39-3.54s1.8-3.6,4.39-3.6,4.4,1.45,4.4,3.6S227.11,463.82,224.53,463.82Zm0-5.92c-1.67,0-3,.85-3,2.38s1.32,2.32,3,2.32,3-.85,3-2.32S226.21,457.9,224.53,457.9Zm6.95,14.69V455.85h1.46v16.74Z"/><path class="cls-2" d="M235.64,461.12v-1.2H244v1.2Zm4.37,7.66a3.39,3.39,0,0,1-3.65-3.34,3.67,3.67,0,0,1,7.31,0C243.67,467.46,242.17,468.78,240,468.78Zm-2.41-10.39v-1.26h4.57v1.26Zm2.41,4.93a2.13,2.13,0,1,0,2.25,2.12A2.08,2.08,0,0,0,240,463.32Zm8.36,9.27v-8.68h-2v7.84h-1.42V456.24h1.42v6.45h2v-6.84h1.44v16.74Z"/><path class="cls-2" d="M266.1,463v.82c0,4.49-1.8,6.85-4.92,6.85a6.06,6.06,0,0,1-3.11-.8l.41-1.11a5.81,5.81,0,0,0,2.63.63c2.11,0,3.31-1.35,3.46-4.95a4.15,4.15,0,0,1-3.17,1.42,3.84,3.84,0,0,1-3.93-4,4.16,4.16,0,0,1,4.16-4.46C264.49,457.38,266.1,459.34,266.1,463ZM259,461.7a2.54,2.54,0,0,0,2.72,2.88,3.8,3.8,0,0,0,2.87-1.62v-.36c0-2.39-.87-4-2.92-4C260,458.64,259,459.92,259,461.7Z"/><path class="cls-2" d="M267.73,469.69l.29-1.22a6.08,6.08,0,0,0,3,.92c2,0,3.23-1.15,3.23-3,0-2-1.16-2.74-3.17-2.74a7.71,7.71,0,0,0-2.68.63l.46-6.73h6.5v1.29h-5.27l-.27,3.91a8.09,8.09,0,0,1,1.83-.27c2.6,0,4.18,1.22,4.18,3.92a4.21,4.21,0,0,1-4.52,4.24A6.45,6.45,0,0,1,267.73,469.69Z"/><path class="cls-2" d="M277.27,461.09v-.31c0-2,1.14-3.4,3-3.4s3,1.26,3,3.29V461c0,2-1.14,3.42-3,3.42S277.27,463.16,277.27,461.09Zm4.59,0v-.44c0-1.56-.61-2.32-1.64-2.32s-1.63.74-1.63,2.31v.43c0,1.64.61,2.36,1.63,2.36S281.86,462.73,281.86,461.11Zm6.21-3.89h1.28l-8.89,13.95h-1.28Zm-2.57,10.06V467c0-2,1.17-3.44,3-3.44s2.93,1.28,2.93,3.3v.31c0,2-1.11,3.43-2.93,3.43S285.5,469.33,285.5,467.28Zm4.59,0v-.45c0-1.55-.59-2.31-1.6-2.31s-1.66.74-1.66,2.29v.45c0,1.62.6,2.34,1.66,2.34S290.09,468.9,290.09,467.3Z"/><path class="cls-2" d="M297.81,457.68a15.87,15.87,0,0,1-4.16,11.08l-1.19-.87a13.53,13.53,0,0,0,3.89-9h-3v-1.23Zm4.57,0c0,4.45-.91,8.52-3.92,12.1l-1.23-.81c2.76-2.77,3.71-7.49,3.71-10.06h-2.36v-1.23Zm3.73,5.14h2.56V464h-2.56v8.55h-1.44V455.85h1.44Z"/><path class="cls-2" d="M319,468.6c-1.57-1-3.69-3.12-4.27-5.1a10.47,10.47,0,0,1-4.34,5.49l-.9-1.08a9,9,0,0,0,4.47-7.45v-1.73h-3.91v-1.21h9.33v1.21h-3.91v1.71a8.44,8.44,0,0,0,4.43,7.08Zm4.28-12.75v16.74h-1.46V455.85Z"/><path class="cls-2" d="M326.68,465.08v-7.76h7.94v7.76Zm6.48-6.55h-5v5.33h5ZM328.5,472v-5.15H330v3.94h9.67V472Zm10.48-10V468h-1.46V455.85H339v5h2.56v1.23Z"/><path class="cls-2" d="M347.94,459.14h9v1.19h-3.69c.13,2,2.11,3.69,4,4.16l-.74,1.13a7.5,7.5,0,0,1-4-3.34,7.29,7.29,0,0,1-4.22,3.83l-.79-1.12c2.18-.64,4.12-2.59,4.23-4.66h-3.76Zm12.62,7.73v5.72H359.1v-4.52h-9.36v-1.2Zm-10.44-10.54h4.68v1.26h-4.68Zm10.44,5.19V466h-1.44V455.85h1.44v4.44h2.56v1.23Z"/><path class="cls-2" d="M364.26,464.72v-1.2h15.13v1.2ZM378,462.58c-2.79-.47-5.32-1.94-6.15-3.47-.67,1.55-3.15,3-6.11,3.45l-.66-1.22c2.64-.25,5.54-1.62,6-3.64h-5.32v-1.2h12.22v1.2h-5.27c.45,2,3.61,3.41,6,3.62Zm-11.7,9.78V466h1.46v2h8.17v-2h1.46v6.34Zm9.63-3.19h-8.17v2h8.17Z"/><path class="cls-2" d="M380.79,461.12v-1.2h8.33v1.2Zm4.37,7.66a3.39,3.39,0,0,1-3.65-3.34,3.67,3.67,0,0,1,7.31,0C388.82,467.46,387.32,468.78,385.16,468.78Zm-2.41-10.39v-1.26h4.57v1.26Zm2.41,4.93a2.13,2.13,0,1,0,2.25,2.12A2.08,2.08,0,0,0,385.16,463.32Zm8.36,9.27v-8.68h-2v7.84h-1.42V456.24h1.42v6.45h2v-6.84H395v16.74Z"/><path class="cls-2" d="M9.52,501.37a8.11,8.11,0,0,1-4.12-4.1,8.67,8.67,0,0,1-4.27,4.64l-.88-1.13c2.22-1,4.38-3.44,4.38-6.12V492.8H6.1v1.82a6.29,6.29,0,0,0,4.25,5.58Zm-6.41,6.7v-5.15H4.57v3.94h9.71v1.21ZM12.46,504V491.85h1.46V504Z"/><path class="cls-2" d="M25.76,501.52a8.31,8.31,0,0,1-4.09-4.09A8.26,8.26,0,0,1,17.55,502l-.9-1.13a6.92,6.92,0,0,0,4.25-6V492.8h1.48v2a6.2,6.2,0,0,0,4.21,5.52Zm-6.05,6.55V503h1.46v3.9h9.67v1.21ZM29,504v-6.7H25.45v-1.22H29v-4.23h1.46V504Z"/><path class="cls-2" d="M33.28,496.19V495h9.81v1.21ZM38.2,503c-2.24,0-4-1.17-4-2.94s1.7-2.93,4-2.93,3.94,1.13,3.94,2.93S40.45,503,38.2,503Zm0-4.72c-1.35,0-2.56.67-2.56,1.78s1.21,1.77,2.56,1.77,2.55-.67,2.55-1.77S39.55,498.24,38.2,498.24Zm-2.52-4.52v-1.28H40.5v1.28Zm0,14.33v-4.3h1.46v3.08h9.69v1.22Zm10.5-9.31v5.46H44.77V491.85h1.46v5.67h2.55v1.22Z"/><path class="cls-2" d="M55,500.67v-1.22H70.08v1.22Zm1.43-7v-1.2h12.2v1.2Zm0,4.5V497h2.67l-.42-2.45,1.52-.2.29,2.65h4.06l.35-2.69,1.51.2L65.92,497h2.66v1.2Zm.42,10.23v-3.89h10v-1.4h-10V502H68.22v3.69H58.27v1.58H68.85v1.21Z"/><path class="cls-2" d="M71.51,506.45v-1.22h6.81v-2.85H73.39v-5.24h9.92v-2.68H73.37v-1.23h11.4v5.12H74.84v2.81H85.23v1.22H79.78v2.85h6.86v1.22Z"/><path class="cls-2" d="M99,504a56,56,0,0,1-8.3.56H89v-6.45h6.36V494.6H88.9v-1.2h7.89v5.94H90.43v4h.42a50.78,50.78,0,0,0,8-.52Zm2.85-12.17v16.74h-1.46V491.85Z"/><path class="cls-2" d="M107.73,503.25a44.07,44.07,0,0,0,7.08-.54l.16,1.2a51,51,0,0,1-8,.58H105.3v-10.9h7.94v1.23h-6.48v8.43Zm9.81-4.76h2.72v1.23h-2.72v8.87H116.1V491.85h1.44Z"/><path class="cls-2" d="M133,508.59v-6h-6.81v-1.23h15.13v1.23H134.5v6Zm6.91-8.78c-2.73-.47-5.4-2.16-6.15-3.73-.69,1.57-3.28,3.29-6.14,3.76l-.67-1.22c2.74-.29,6-2,6-4.38h-5.42V493H140v1.2h-5.38c.07,2.36,3.51,4.05,6.07,4.34Z"/><path class="cls-2" d="M142.79,506.29v-1.23h15.13v1.23Zm13.76-4.59c-2.81-.85-5.53-3.23-6.21-4.94-.6,1.71-3.26,4.09-6.18,4.92l-.77-1.26c2.73-.52,6.21-3.12,6.21-5.85v-1.34h1.51v1.34c0,2.73,3.68,5.33,6.25,5.9Z"/><path class="cls-2" d="M170.68,504.33c-1.44.18-3.84.32-6,.43-2,.09-3.8.14-5.08.16l-.25-1.28c1.42,0,3.4,0,5.44-.12,2.32-.1,4.5-.22,5.72-.38Zm-6-3.32c-2.47,0-4.36-1.64-4.36-3.89a4.07,4.07,0,0,1,4.36-4c2.46,0,4.35,1.53,4.35,4S167.08,501,164.67,501Zm0-6.62a2.83,2.83,0,0,0-3,2.73,3,3,0,0,0,5.89,0A2.73,2.73,0,0,0,164.67,494.39Zm8.44-2.54v16.74h-1.46V491.85Z"/><path class="cls-2" d="M181.58,500.58v-7.27h8v7.27Zm12.93,8.05c-2.2-.43-5-2.22-5.65-3.76-.65,1.63-3.17,3.29-5.66,3.78l-.7-1.19c2.7-.34,5.62-2.34,5.62-4.7v-.65h1.53v.65c0,2.36,3.13,4.3,5.6,4.66Zm-6.41-14.12H183v4.86h5.06Zm5.73,3.23v5.13h-1.46v-11h1.46v4.66h2.55v1.23Z"/><path class="cls-2" d="M197.51,500.31v-1.22h15.13v1.22Zm1.77,8.12v-4h10V503h-10V501.8h11.51v3.75h-10v1.69h10.55v1.19Zm5.81-10.55c-3.6,0-5.83-1.06-5.83-2.9s2.23-2.9,5.83-2.9S211,493.14,211,495,208.73,497.88,205.09,497.88Zm-4.34-2.9c0,1,1.72,1.69,4.34,1.69s4.38-.64,4.38-1.69-1.73-1.71-4.38-1.71S200.75,493.94,200.75,495Z"/><path class="cls-2" d="M219.11,506.22V505h15.13v1.23Zm2-5.91v-7h1.45v5.79h9.89v1.21Z"/><path class="cls-2" d="M240.73,492.8a7.94,7.94,0,0,1-3.92,6.72l-1-1a6.16,6.16,0,0,0,3.46-4.5h-2.9V492.8Zm-2.18,15.67v-4.23h9.37v-1.79h-9.49v-1.2h10.95v4.16H240v1.85h10v1.21Zm7-15.67a8.64,8.64,0,0,1-3.89,7.58l-1.06-.93a6.66,6.66,0,0,0,3.46-5.42h-2.6V492.8Zm2.4,7.55v-8.5h1.42v8.5Z"/><path class="cls-2" d="M264.08,508.61v-6.08h-6.81V501.3H272.4v1.23h-6.86v6.08Zm7-9.09c-2.5-.51-5.24-2.09-6.24-4-.81,1.95-3.68,3.59-6.22,4.09l-.7-1.26c3.21-.41,6.16-2.54,6.16-4.82v-1.07h1.53v1.07c0,2.28,3.22,4.43,6.18,4.79Z"/><path class="cls-2" d="M288,496.8a4.36,4.36,0,0,1-8.68,0,4.35,4.35,0,0,1,8.68,0Zm-1.91,10.51a5,5,0,0,1-2.13-2.21,7,7,0,0,1-3.31,3.57l-.88-1.05a5.49,5.49,0,0,0,3.4-4.61v-.83h1.44v.7a3.67,3.67,0,0,0,2.49,3.44Zm-5.35-10.51a2.76,2.76,0,0,0,2.92,2.81,2.73,2.73,0,0,0,2.93-2.79,2.76,2.76,0,0,0-2.93-2.85A2.79,2.79,0,0,0,280.71,496.8Zm12.55,11.83a7,7,0,0,1-3.06-3.22,6.87,6.87,0,0,1-3.17,3.43l-.92-1a5.65,5.65,0,0,0,3.35-4.73v-1h1.44v.95a5.19,5.19,0,0,0,3.26,4.5l-.88,1.05Zm-2.16-7.06v-9.72h1.46v9.72Z"/><path class="cls-2" d="M295.43,506.45v-1.22h4.07v-3.71H301v3.71h4v-3.71h1.46v3.71h4.11v1.22Zm8.34-11.9v.21c0,2.63,3.69,5.12,6.21,5.6l-.79,1.25c-2.68-.76-5.4-2.85-6.19-4.68-.67,1.89-3.46,3.92-6.23,4.64l-.72-1.26c2.57-.43,6.19-2.88,6.19-5.55v-.21h-5.4v-1.21h12.31v1.21Z"/></g></g></svg>