<svg xmlns="http://www.w3.org/2000/svg" viewBox="0 0 392.21 400.59"><defs><style>.cls-1{fill:#ed7524;}.cls-2{fill:#455c2a;}</style></defs><g id="레이어_2" data-name="레이어 2"><g id="레이어_1-2" data-name="레이어 1"><path class="cls-1" d="M98.88,9.66a26,26,0,0,1-1.75,9.41c5.49,3.67,12.49,10.08,15.24,16.16l-6.58,4.16a75.17,75.17,0,0,0-10-17.32c-4.83,9.24-14.57,15-22.32,18.07l-1.24-2.08c10.24-5,16-14.07,16-26.48v-9H98.88ZM143,59.21c0,10.5-14.58,14.91-28.82,14.91S85.38,69.71,85.38,59.21,100,44.47,114.2,44.47,143,48.72,143,59.21Zm-11,0c0-8.82-7.83-12.57-17.82-12.57-9.83,0-17.82,3.75-17.82,12.57S104.12,72,114.2,72C124.11,72,132,68,132,59.21ZM142.52,0V41.72h-10V20.4h-6.41V39.89h-9.58V.67h9.58v17.4h6.41V0Z"/><path class="cls-1" d="M183.73,12.16A25.2,25.2,0,0,1,182,21.24a77.15,77.15,0,0,1,18.65,16.07L194.81,42a76.74,76.74,0,0,0-13.91-18.4c-4.91,9.41-15.4,16-25.23,19.24l-1-1.84c12.74-5.16,17.9-16.15,17.9-26.89V2.92h11.16Zm-7.41,36.23v21.4H219.8v2H165.33V48.39ZM218.13,0V23.49l11-.25v2.49l-11-.16V51.05H207.3V0Z"/><path class="cls-1" d="M261,5.5V15.91c0,16.57-5.74,31.64-24.73,42.72l-1.75-2.41c12.83-9.5,15.74-23.24,15.74-38.4V7.66H235.45V5.5Zm-2,56.38-1.74-2.25c9.57-6.33,16.15-19.49,16.15-36.39V7.66h-9.91V5.5h20.66V21.32C284.17,38.56,274.92,53.72,259,61.88ZM291.5,73.29V0h10.82V29.65l10.5-.25v2.5l-10.5-.17V73.29Z"/><path class="cls-1" d="M346.71,29.73A72.93,72.93,0,0,1,367.36,54.3l-7.5,4.41c-4.08-10.74-9.07-20.07-14.24-26.15C340.79,44,331.05,53.72,319,60.05l-1.75-1.92a45.37,45.37,0,0,0,20.49-38.64V7.66H320.8V5.5h45.06V7.66h-17v9.08A40.22,40.22,0,0,1,346.71,29.73Zm26.81,43.56V0h10.83V73.29Z"/><path class="cls-1" d="M141.1,177.48a197.39,197.39,0,0,0,21.32-25c4.66-6.74,7.16-13.49,7.16-20.4,0-7.83-2.58-14.07-10-14.07-6.74,0-12.16,6.91-12.16,13.32l-.66.58-3.33-2.41c2.41-8,8.91-13.91,17.57-13.91,5.91,0,10.49,1.33,13.74,4.33,2.92,2.67,5.33,7.08,5.33,11.08,0,6.41-3.08,11.16-6.91,15.9-2.33,2.92-7.66,8.75-11.74,13l-11.33,11.91h30.73v7.07H141.1Z"/><path class="cls-1" d="M221.13,115.6h2.08v45.14h7.58v2.16h-7.58v16H212.88v-16H186.65v-1.08Zm-8.25,15-22.65,30.15h22.65Z"/><path class="cls-1" d="M265.18,143.58c7.08,5.42,14.74,12.75,20.15,24.16l-7.74,4.16a90.23,90.23,0,0,0-13.66-25.23c-5.25,11.82-15.24,21-25.4,26.4l-1.75-2.25a48,48,0,0,0,19.82-39.06V117.68h11.16V129A44.35,44.35,0,0,1,265.18,143.58Zm27.48,42.73V113h10.83v73.29Z"/><path class="cls-1" d="M359.53,116.77v7.66c0,17-14.82,27.07-40.64,29.65l-.75-2.08c22.24-2.5,30.23-14.16,30.23-25.91v-7.33H321.8v-2ZM339,161.41v21.4H382.6v2H328.05v-23.4ZM380.93,113v22.07l11-.25v2.5l-11-.17v26.9H370.11V113Z"/><path class="cls-1" d="M283.67,257.43c0,15.49-7,28-22.32,28s-22.32-12.5-22.32-28,7-27.9,22.32-27.9S283.67,241.94,283.67,257.43Zm-11,0c0-14.15-3.74-25.48-11.32-25.48S250,243.28,250,257.43,253.69,283,261.35,283C268.84,283,272.67,271.59,272.67,257.43Zm20.58,41.9V226h10.82v73.29Z"/><path class="cls-1" d="M331.55,281.42H319V231.2H329.3v48.05h3.25a55,55,0,0,0,21-4l.83,2.16C347.54,280.67,339.63,281.42,331.55,281.42Zm44,17.91V259.68h-7.91v38.56H358V227.12h9.58v30.23h7.91V226h9.75v73.29Z"/><path class="cls-2" d="M59,359.59a47.65,47.65,0,0,1-8.6.75h-1V349.5h1.46v9.57a42.1,42.1,0,0,0,8-.71Zm2.67-5.1h2.73v1.24H61.62v8.86H60.16V347.85h1.46Z"/><path class="cls-2" d="M68,354.89a42.46,42.46,0,0,0,7.08-.47l.16,1.15a45.92,45.92,0,0,1-7,.49l-2.32,0v-7.22h7.78V350H67.34v1.71h6.07v1.16H67.34v2Zm-.38,9.54v-4.1h9.15v-1.55H67.5v-1.21H78.18v3.87H69v1.77h9.78v1.22Zm10.61-11.56v3.82H76.72v-8.84h1.46v3.82h2.55v1.2Z"/><path class="cls-2" d="M92.79,360a56,56,0,0,1-8.3.56H82.78v-6.45h6.36V350.6H82.71v-1.2H90.6v5.94H84.24v4h.41a50.92,50.92,0,0,0,8-.52Zm2.85-12.17v16.74H94.18V347.85Z"/><path class="cls-2" d="M98.44,362.29v-1.23h15.13v1.23Zm13.76-4.59c-2.81-.85-5.53-3.23-6.21-4.94-.6,1.71-3.26,4.09-6.18,4.92L99,356.42c2.73-.52,6.21-3.12,6.21-5.85v-1.34h1.51v1.34c0,2.73,3.67,5.33,6.25,5.9Z"/><path class="cls-2" d="M126.85,364.59v-6H120v-1.23h15.13v1.23h-6.86v6Zm6.91-8.78c-2.74-.47-5.4-2.16-6.16-3.73-.68,1.57-3.27,3.29-6.14,3.76l-.66-1.22c2.73-.29,6-2,6-4.38h-5.42V349h12.33v1.2h-5.38c.07,2.36,3.51,4.05,6.07,4.34Z"/><path class="cls-2" d="M136.6,362.29v-1.23h15.13v1.23Zm13.76-4.59c-2.81-.85-5.53-3.23-6.21-4.94-.6,1.71-3.26,4.09-6.18,4.92l-.77-1.26c2.73-.52,6.21-3.12,6.21-5.85v-1.34h1.51v1.34c0,2.73,3.67,5.33,6.25,5.9Z"/><path class="cls-2" d="M153.16,357.71v-1.22h15.13v1.22Zm2,6.5v-4.93h1.46V363h10.07v1.2Zm.06-9.81v-5.85h1.45v4.65h9.94v1.2Z"/><path class="cls-2" d="M174.76,362.11v-1.23h15.13v1.23Zm13-12.39a52.82,52.82,0,0,1-.76,9.9l-1.46-.2a46.53,46.53,0,0,0,.72-8.49h-9.88v-1.21Z"/><path class="cls-2" d="M206.37,354.82a47.53,47.53,0,0,1-8,.73h-1.47v-6.87h1.46v5.63a42.44,42.44,0,0,0,7.81-.7Zm-7.87,9.65v-4.32h9.26v-1.81h-9.29v-1.18h10.75v4.1H200v2h9.89v1.21Zm10.72-11.87v3.53h-1.46v-8.28h1.46v3.53h2.55v1.22Z"/><path class="cls-2" d="M218,356.2V355h15.13v1.17Zm1.78,8.1v-4h9.93v-1.55h-9.94v-1.16h11.39v3.79H221.2v1.74h10.45v1.15Zm.08-10.67v-5h11.36v1.18h-9.91v2.69h10.11v1.17Z"/><path class="cls-2" d="M239,349c2.54,0,4,2.09,4.19,5.26h3.59v-6.43h1.46v16.74h-1.46v-9.07h-3.59c-.14,3.22-1.63,5.33-4.19,5.33s-4.23-2.36-4.23-5.93S236.27,349,239,349Zm0,1.26c-1.66,0-2.77,1.91-2.77,4.66s1.11,4.65,2.77,4.65,2.77-1.91,2.77-4.65S240.63,350.28,239,350.28Z"/><path class="cls-2" d="M259.35,354.91v1.83h6.86V358H251.08v-1.21h6.81v-1.83c-3.24-.15-5.12-1.3-5.12-3.3s2.2-3.28,5.89-3.28,5.87,1.17,5.87,3.28S262.6,354.76,259.35,354.91Zm-6.27,9.2v-4.85h1.46v3.62h10v1.23Zm1.13-12.48c0,1.37,1.75,2.07,4.43,2.07s4.47-.7,4.47-2.07-1.77-2.09-4.45-2.09S254.21,350.24,254.21,351.63Z"/><path class="cls-2" d="M283.25,360.34c-1.62.22-4.09.4-5.71.49s-3.54.13-5,.13l-.21-1.28c.91,0,2.41,0,3.67,0v-5.28h1.46v5.24c2-.09,4.12-.25,5.61-.48ZM282,349.61a40,40,0,0,1-.59,7.67L280,357.1a28.82,28.82,0,0,0,.52-6.26h-7.29v-1.23Zm3.69,6.47v8.51H284.2V347.85h1.46v7h2.72v1.25Z"/><path class="cls-2" d="M298.39,352.15c0,2.27-1.95,3.75-4.34,3.75s-4.36-1.46-4.36-3.75,1.95-3.8,4.36-3.8S298.39,349.88,298.39,352.15Zm-7.28,0c0,1.5,1.28,2.49,2.94,2.49s2.92-1,2.92-2.47-1.17-2.52-2.92-2.52A2.67,2.67,0,0,0,291.11,352.13Zm1,12.23v-4.23h9.38v-1.75H292v-1.19h10.9v4.05h-9.39v1.93h10v1.19Zm9.38-8.05v-8.46h1.46v8.46Z"/><path class="cls-2" d="M305.8,356.31v-1.22h15.13v1.22Zm1.77,8.12v-4h10V359H307.53V357.8H319v3.75H309v1.69h10.56v1.19Zm5.81-10.55c-3.6,0-5.83-1.06-5.83-2.9s2.23-2.9,5.83-2.9,5.85,1.06,5.85,2.9S317,353.88,313.38,353.88ZM309,351c0,1,1.71,1.69,4.34,1.69s4.38-.64,4.38-1.69-1.73-1.71-4.38-1.71S309,349.94,309,351Z"/><path class="cls-2" d="M334.21,364.61v-6.08H327.4V357.3h15.13v1.23h-6.86v6.08Zm7-9.09c-2.5-.51-5.24-2.09-6.25-4-.81,1.95-3.67,3.59-6.21,4.09l-.7-1.26c3.2-.41,6.16-2.54,6.16-4.82v-1.07h1.53v1.07c0,2.28,3.22,4.43,6.17,4.79Z"/><path class="cls-2" d="M354.46,358.18c-1.21.15-3.21.35-5.19.45s-4.19.2-5.36.2l-.24-1.21c1.23,0,2.92,0,4.63-.1v-1.14c-1.76-.16-3.11-.84-3.11-2.19,0-1.55,1.74-2.27,3.87-2.27s3.9.7,3.9,2.25c0,1.35-1.38,2.07-3.18,2.21v1.06c1.76-.09,3.58-.23,4.55-.37Zm-10.19-6.82v-1.17h9.63v1.17Zm12.6,8.5v4.84h-1.46v-3.64h-9.5v-1.2ZM349.06,353c-1.43,0-2.49.37-2.49,1.15s1.08,1.17,2.49,1.17,2.52-.4,2.52-1.17S350.46,353,349.06,353Zm-2.27-3.75v-1.21h4.59v1.21Zm10.08,5.35V359h-1.46V347.85h1.46v5.54h2.54v1.23Z"/><path class="cls-2" d="M368.16,354.47H370v-6.3h1.42v15.61H370v-8.1h-1.8c-.17,3-1.39,5.08-3.68,5.08-2.45,0-3.69-2.36-3.69-5.73s1.24-5.72,3.69-5.72S368,351.43,368.16,354.47Zm-3.68-3.89c-1.35,0-2.21,1.75-2.21,4.45s.86,4.45,2.21,4.45,2.23-1.73,2.23-4.45S365.83,350.58,364.48,350.58Zm8.73,14V347.85h1.45v16.74Z"/><path class="cls-2" d="M386.21,360.58a11.5,11.5,0,0,1-4.14-5.17,11,11,0,0,1-4.18,5.55l-.95-1.08a9.4,9.4,0,0,0,4.37-7.48v-3.09h1.5v3a8.63,8.63,0,0,0,4.3,7.13Zm3.15,4v-9.54h-3.91v-1.22h3.91v-6h1.46v16.74Z"/><path class="cls-2" d="M7.83,392.94a7.8,7.8,0,0,1-3.51-3.49A8.22,8.22,0,0,1,.9,393.52L0,392.4a6.56,6.56,0,0,0,3.58-5.49v-2.09H5v2.05a5.64,5.64,0,0,0,3.61,4.95Zm.88,7.6c-3.58,0-5.69-1.19-5.69-3.08s2.11-3.08,5.69-3.08,5.71,1.19,5.71,3.08S12.3,400.54,8.71,400.54Zm-4.15-3.08c0,1.15,1.62,1.87,4.15,1.87s4.16-.72,4.16-1.87-1.6-1.85-4.16-1.85S4.56,396.33,4.56,397.46Zm8.26-3V389.5H10.73v4.09H9.31v-9.44h1.42v4.13h2.09v-4.43h1.44v10.57Z"/><path class="cls-2" d="M25.42,393.3a7.88,7.88,0,0,1-4-4,8.47,8.47,0,0,1-4.11,4.62l-.9-1.17a7.06,7.06,0,0,0,4.23-6.08v-1.89h1.48v1.83a6.17,6.17,0,0,0,4.18,5.55Zm-6.32,6.75v-5.22h1.46v4h9.61v1.2Zm10.48-9.86V396H28.12V383.85h1.46V389h2.55v1.23Z"/><path class="cls-2" d="M38.09,385.68a15.87,15.87,0,0,1-4.16,11.08l-1.19-.87a13.53,13.53,0,0,0,3.89-9h-3v-1.23Zm4.57,0c0,4.45-.92,8.52-3.92,12.1L37.51,397c2.76-2.77,3.71-7.49,3.71-10.06H38.86v-1.23Zm3.73,5.14H49V392H46.39v8.55H45V383.85h1.44Z"/><path class="cls-2" d="M59.28,396.6c-1.57-1-3.69-3.12-4.27-5.1A10.52,10.52,0,0,1,50.67,397l-.9-1.08a9,9,0,0,0,4.46-7.45v-1.73h-3.9v-1.21h9.32v1.21h-3.9v1.71a8.44,8.44,0,0,0,4.43,7.08Zm4.28-12.75v16.74H62.1V383.85Z"/><path class="cls-2" d="M71.89,397.53,75,394.36c1.82-1.89,3-3.29,3-5.13s-.81-2.56-2.63-2.56a5.14,5.14,0,0,0-2.88,1.07l-.44-1.21a6.79,6.79,0,0,1,3.55-1.17c2.59,0,4,1.44,4,3.73s-1.35,3.76-3.57,6l-2,2h5.87v1.29h-8Z"/><path class="cls-2" d="M87.25,395.73H81.18V394.6l6.28-9.19h1.19v9.08h2.14v1.24H88.65v3h-1.4Zm0-1.24v-6.66l-4.45,6.66Z"/><path class="cls-2" d="M101.23,396.56a11.41,11.41,0,0,1-4.12-5.11A11.21,11.21,0,0,1,92.83,397l-1-1.09a9.58,9.58,0,0,0,4.47-7.55v-3h1.47v3a8.73,8.73,0,0,0,4.34,7.16Zm3.07,4V383.85h1.45v16.74Z"/><path class="cls-2" d="M116.73,385.32c-.2,4.56-3.29,7.76-7.56,9.11l-.76-1.22c3.6-.92,6.31-3.58,6.72-6.66h-6v-1.23Zm-5.87,14.84V395h1.46v4h9.6v1.21Zm10.54-9.85v6.05h-1.46V383.85h1.46v5.24H124v1.22Z"/><path class="cls-2" d="M135,385.11c2.77,0,4.32,2.37,4.32,5.92s-1.55,5.91-4.32,5.91-4.32-2.36-4.32-5.93S132.25,385.11,135,385.11Zm0,1.26c-1.76,0-2.93,1.91-2.93,4.66s1.17,4.65,2.93,4.65,2.94-1.91,2.94-4.65S136.78,386.37,135,386.37Zm7.44,14.22V383.85h1.46v16.74Z"/><path class="cls-2" d="M154.78,395.61a32.07,32.07,0,0,1-6.08.55h-1.28V385.68h1.46v9.22a26.69,26.69,0,0,0,5.74-.52Zm4.6,5v-8.86h-2.22v8h-1.4V384.24h1.4v6.27h2.22v-6.66h1.42v16.74Z"/><path class="cls-2" d="M170.88,390.47h1.8v-6.3h1.42v15.61h-1.42v-8.1h-1.8c-.17,3-1.39,5.08-3.68,5.08-2.45,0-3.69-2.36-3.69-5.73s1.24-5.72,3.69-5.72S170.75,387.43,170.88,390.47Zm-3.68-3.89c-1.35,0-2.21,1.75-2.21,4.45s.86,4.45,2.21,4.45,2.24-1.73,2.24-4.45S168.55,386.58,167.2,386.58Zm8.74,14V383.85h1.44v16.74Z"/><path class="cls-2" d="M195.28,393.88c-1.2.14-3.31.36-5.29.48s-4,.18-5.2.18l-.24-1.28c1.17,0,2.81,0,4.45-.07V391.5c-2.11-.27-3.49-1.58-3.49-3.42,0-2,1.74-3.49,4.26-3.49s4.25,1.49,4.25,3.51c0,1.85-1.42,3.17-3.56,3.4v1.64c1.8-.11,3.69-.29,4.72-.43Zm-5.51-8.05c-1.76,0-2.82,1-2.82,2.25s1.06,2.23,2.82,2.23,2.85-.93,2.85-2.23S191.54,385.83,189.77,385.83Zm-2.64,14.38v-4.57h1.46V399h9.61v1.2Zm10.62-9.41v5.69h-1.46V383.85h1.46v5.72h2.54v1.23Z"/><path class="cls-2" d="M212.4,394v3.25h4.13v1.22H201.4v-1.22h4.23V394h-2.37v-5.09h9.92v-2.58h-9.87v-1.22h11.33v5h-9.93v2.66H215.1V394Zm-5.33,3.25H211V394h-3.89Z"/><path class="cls-2" d="M217.89,389.07v-1.21h9.88v1.21Zm5,8c-2.34,0-3.91-1.49-3.91-3.45s1.57-3.46,3.91-3.46,3.9,1.49,3.9,3.46S225.22,397.06,222.88,397.06Zm-2.49-10.82V385h4.92v1.24Zm2.49,5.13a2.25,2.25,0,1,0,2.45,2.24A2.27,2.27,0,0,0,222.88,391.37Zm8,.76v8.46h-1.46V383.85h1.46v7.06h2.71v1.22Z"/><path class="cls-2" d="M238.77,385c2.67,0,4.14,2.37,4.14,5.92s-1.47,5.91-4.14,5.91-4.14-2.36-4.14-5.93S236.12,385,238.77,385Zm0,1.26c-1.62,0-2.72,1.91-2.72,4.66s1.1,4.65,2.72,4.65,2.72-1.91,2.72-4.65S240.41,386.28,238.77,386.28Zm4.65,2.5v-1.2h3.38v-3.73h1.46v16.74H246.8v-6.42h-3.38V393h3.38v-4.18Z"/><path class="cls-2" d="M265.41,393.37a8.08,8.08,0,0,1-4.12-4.1,8.67,8.67,0,0,1-4.27,4.64l-.88-1.13c2.21-1,4.38-3.44,4.38-6.12V384.8H262v1.82a6.29,6.29,0,0,0,4.25,5.58Zm-6.41,6.7v-5.15h1.46v3.94h9.71v1.21Zm9.35-4.07V383.85h1.46V396Z"/><path class="cls-2" d="M281.65,393.52a8.23,8.23,0,0,1-4.09-4.09,8.26,8.26,0,0,1-4.12,4.55l-.9-1.13a6.92,6.92,0,0,0,4.25-6V384.8h1.47v2a6.21,6.21,0,0,0,4.22,5.52Zm-6,6.55V395h1.46v3.9h9.67v1.21Zm9.31-4.07v-6.7h-3.57v-1.22h3.57v-4.23h1.46V396Z"/><path class="cls-2" d="M289.17,387.83v-1.21h9.76v1.21Zm4.86,6.25c-2.21,0-3.89-1.09-3.89-2.76s1.66-2.77,3.89-2.77,3.89,1,3.89,2.77S296.25,394.08,294,394.08Zm-2.5,6.28v-5.24h10.59v5.24Zm2.5-10.68c-1.3,0-2.48.6-2.48,1.64s1.2,1.62,2.48,1.62,2.47-.61,2.47-1.62S295.35,389.68,294,389.68Zm-2.32-4.25v-1.22h4.68v1.22Zm9,10.88H293v2.84h7.67Zm1.46-6.32v4.26h-1.45v-10.4h1.45v4.91h2.55V390Z"/><path class="cls-2" d="M305.8,392.31v-1.22h15.13v1.22Zm1.77,8.12v-4h10V395H307.53V393.8H319v3.75H309v1.69h10.56v1.19Zm5.81-10.55c-3.6,0-5.83-1.06-5.83-2.9s2.23-2.9,5.83-2.9,5.85,1.06,5.85,2.9S317,389.88,313.38,389.88ZM309,387c0,1,1.71,1.69,4.34,1.69s4.38-.64,4.38-1.69-1.73-1.71-4.38-1.71S309,385.94,309,387Z"/><path class="cls-2" d="M331.31,400.59v-5.94H327.4v-1.22h15.13v1.22h-4v5.94h-1.45v-5.94h-4.34v5.94Zm3.65-8.71c-3.71,0-5.94-1.46-5.94-3.64s2.23-3.64,5.94-3.64,6,1.46,6,3.64S338.67,391.88,335,391.88Zm-4.5-3.64c0,1.42,1.71,2.34,4.5,2.34s4.52-.92,4.52-2.34-1.71-2.34-4.52-2.34S330.46,386.82,330.46,388.24Z"/><path class="cls-2" d="M353.41,396.6c-1.56-1-3.69-3.12-4.26-5.1a10.52,10.52,0,0,1-4.34,5.49l-.9-1.08a9,9,0,0,0,4.46-7.45v-1.73h-3.9v-1.21h9.32v1.21h-3.91v1.71a8.46,8.46,0,0,0,4.43,7.08Zm4.29-12.75v16.74h-1.46V383.85Z"/><path class="cls-2" d="M360.48,389.12v-1.2h8.34v1.2Zm4.38,7.66a3.39,3.39,0,0,1-3.65-3.34,3.67,3.67,0,0,1,7.31,0C368.52,395.46,367,396.78,364.86,396.78Zm-2.41-10.39v-1.26H367v1.26Zm2.41,4.93a2.13,2.13,0,1,0,2.25,2.12A2.08,2.08,0,0,0,364.86,391.32Zm8.35,9.27v-8.68h-2v7.84h-1.42V384.24h1.42v6.45h2v-6.84h1.45v16.74Z"/><path class="cls-2" d="M377.08,398.45v-1.22h3.75v-3.34l1.45,0v3.37H387v-3.37l1.46,0v3.34h3.8v1.22Zm7.55-5.08c-3.62,0-6-1.65-6-4.17s2.42-4.22,6-4.22,6.05,1.69,6.05,4.22S388.26,393.37,384.63,393.37Zm0-7.22c-2.8,0-4.63,1.23-4.63,3.05s1.83,3,4.63,3,4.64-1.23,4.64-3S387.43,386.15,384.63,386.15Z"/></g></g></svg>